<svg width="400" height="400" viewBox="0 0 400 400" fill="none" xmlns="http://www.w3.org/2000/svg">
<path d="M66.3902 57.3575C68.7696 45.8979 61.4087 34.6791 49.9491 32.2997C38.4895 29.9203 27.2708 37.2812 24.8913 48.7408C22.5119 60.2004 29.8728 71.4191 41.3324 73.7986C52.792 76.178 64.0108 68.8171 66.3902 57.3575Z" fill="#F5F5F5"/>
<path d="M55.2558 53.6964C55.0074 53.7387 54.7557 53.7574 54.5038 53.7524H52.4478C50.7038 53.7524 48.2638 53.7924 45.5198 53.7924H45.3838V53.6564C45.3838 53.2164 45.3838 52.7524 45.3838 52.2884C45.3838 49.2164 45.3838 46.4403 45.4238 44.4243C45.4238 43.4563 45.4238 42.6563 45.4718 42.0243C45.462 41.7325 45.4808 41.4405 45.5278 41.1523C45.5743 41.4595 45.5983 41.7697 45.5998 42.0803C45.5998 42.6963 45.5998 43.4963 45.6478 44.4803C45.6478 46.4963 45.6478 49.2804 45.6478 52.3444V53.7124L45.5198 53.6004C48.2638 53.6004 50.7038 53.6004 52.4478 53.6484H54.5038C54.7553 53.644 55.0068 53.6601 55.2558 53.6964V53.6964Z" fill="#E0E0E0"/>
<path d="M45.5996 35.3359C45.7323 35.9207 45.7781 36.5218 45.7356 37.1199C45.7785 37.7154 45.7327 38.3139 45.5996 38.8959C45.4618 38.3147 45.4159 37.7154 45.4636 37.1199C45.4162 36.5218 45.4621 35.92 45.5996 35.3359Z" fill="#E0E0E0"/>
<path d="M55.24 38.1914C54.9266 38.6931 54.5411 39.1459 54.096 39.5354C53.7065 39.9806 53.2536 40.366 52.752 40.6794C53.0653 40.1777 53.4508 39.7249 53.896 39.3354C54.2854 38.8902 54.7383 38.5048 55.24 38.1914V38.1914Z" fill="#E0E0E0"/>
<path d="M60.8797 44.3594C60.4395 44.7475 59.9499 45.0756 59.4237 45.3354C58.9482 45.6796 58.4324 45.9644 57.8877 46.1834C58.2791 45.7385 58.7515 45.372 59.2797 45.1034C59.7614 44.7568 60.3043 44.5044 60.8797 44.3594V44.3594Z" fill="#E0E0E0"/>
<path d="M64.1916 53.5118C63.3993 53.6477 62.5942 53.6933 61.7916 53.6478C60.989 53.6937 60.1839 53.648 59.3916 53.5118C60.1844 53.3805 60.989 53.3349 61.7916 53.3758C62.5942 53.3349 63.3988 53.3805 64.1916 53.5118V53.5118Z" fill="#E0E0E0"/>
<path d="M30.5352 53.1915C29.7776 53.3246 29.0072 53.3703 28.2392 53.3275C27.4738 53.3705 26.706 53.3249 25.9512 53.1915C26.7055 53.0533 27.4738 53.0076 28.2392 53.0555C29.0072 53.0079 29.7781 53.0536 30.5352 53.1915V53.1915Z" fill="#E0E0E0"/>
<path d="M32.9119 60C32.4042 60.5969 31.8298 61.1338 31.1999 61.6C30.6163 62.1209 29.9779 62.5769 29.2959 62.96C29.8051 62.3588 30.3853 61.8215 31.0239 61.36C31.595 60.8309 32.2292 60.3742 32.9119 60V60Z" fill="#E0E0E0"/>
<path d="M38.7837 65.2715C38.4425 65.9837 38.0467 66.6684 37.5997 67.3195C37.2327 68.0172 36.8128 68.6858 36.3438 69.3195C36.5771 68.5656 36.9223 67.8509 37.3677 67.1995C37.7405 66.4895 38.2178 65.8396 38.7837 65.2715V65.2715Z" fill="#E0E0E0"/>
<path d="M45.5998 72.0712C45.4639 71.2789 45.4183 70.4738 45.4638 69.6712C45.4124 68.8447 45.458 68.0151 45.5998 67.1992C45.7311 67.992 45.7767 68.7967 45.7358 69.5992C45.7819 70.4257 45.7363 71.2548 45.5998 72.0712Z" fill="#E0E0E0"/>
<path d="M56.0475 68.7987C55.3028 68.4644 54.6231 68.0013 54.0395 67.4307C53.4077 66.9291 52.8666 66.323 52.4395 65.6387C53.0698 66.1399 53.6733 66.6739 54.2475 67.2387C54.8734 67.728 55.4742 68.2486 56.0475 68.7987V68.7987Z" fill="#E0E0E0"/>
<path d="M60.9514 63.5432C60.3621 63.1415 59.8247 62.6686 59.3514 62.1352C58.8158 61.664 58.3426 61.1263 57.9434 60.5352C58.5339 60.9383 59.0714 61.414 59.5434 61.9512C60.0776 62.4207 60.5507 62.9555 60.9514 63.5432V63.5432Z" fill="#E0E0E0"/>
<path d="M32.6879 46.664C32.1599 46.3256 31.6831 45.9134 31.2719 45.44C30.7966 45.0214 30.3844 44.5364 30.0479 44C30.5773 44.3364 31.0544 44.7488 31.4639 45.224C31.9409 45.6408 32.3534 46.1261 32.6879 46.664Z" fill="#E0E0E0"/>
<path d="M38.7514 40.2793C38.229 39.9557 37.7595 39.5537 37.3594 39.0873C36.891 38.6847 36.484 38.2157 36.1514 37.6953C36.6744 38.0244 37.1461 38.4288 37.5514 38.8953C38.0147 39.2976 38.4187 39.7636 38.7514 40.2793V40.2793Z" fill="#E0E0E0"/>
<path d="M379.024 33.2715H332.768V74.6555H379.024V33.2715Z" fill="#FAFAFA"/>
<path d="M379.024 74.6546C379.024 74.6546 379.024 74.3826 379.024 73.8546C379.024 73.3266 379.024 72.5986 379.024 71.6306C379.024 69.6866 379.024 66.8306 379.024 63.2306C379.024 56.0306 379.023 45.6706 378.967 33.2386L379.072 33.3426H332.816L332.936 33.2226C332.936 48.2786 332.936 62.4386 332.936 74.6066L332.832 74.4946L366.287 74.5506H375.72H378.224H375.744H366.336L332.8 74.7586H332.688V74.6546C332.688 62.4866 332.688 48.3266 332.688 33.2706V33.1426H332.8H379.056H379.16V33.2546C379.16 45.7106 379.12 56.0706 379.104 63.3186C379.104 66.9266 379.104 69.7186 379.104 71.6946C379.104 72.6546 379.104 73.3826 379.104 73.8866C379.104 74.3906 379.024 74.6546 379.024 74.6546Z" fill="#E0E0E0"/>
<path d="M350.503 40.6241C350.503 40.6881 348.103 40.7441 345.063 40.7441C342.023 40.7441 339.631 40.6881 339.631 40.6241C339.631 40.5601 342.031 40.4961 345.063 40.4961C348.095 40.4961 350.503 40.5521 350.503 40.6241Z" fill="#E0E0E0"/>
<path d="M370.104 43.7274C370.104 43.7994 363.416 43.8554 355.168 43.8554C346.92 43.8554 340.224 43.7994 340.224 43.7274C340.224 43.6554 346.912 43.6074 355.168 43.6074C363.424 43.6074 370.104 43.6634 370.104 43.7274Z" fill="#E0E0E0"/>
<path d="M341.656 48.9922H339.704V50.9442H341.656V48.9922Z" fill="#E0E0E0"/>
<path d="M346.455 48.9922H344.503V50.9442H346.455V48.9922Z" fill="#E0E0E0"/>
<path d="M351.344 48.9043H349.392V50.8563H351.344V48.9043Z" fill="#E0E0E0"/>
<path d="M356.048 48.9922H354.096V50.9442H356.048V48.9922Z" fill="#E0E0E0"/>
<path d="M360.848 48.9922H358.896V50.9442H360.848V48.9922Z" fill="#E0E0E0"/>
<path d="M365.647 48.9922H363.695V50.9442H365.647V48.9922Z" fill="#E0E0E0"/>
<path d="M370.44 48.9922H368.488V50.9442H370.44V48.9922Z" fill="#EBEBEB"/>
<path d="M341.656 53.1348H339.704V55.0868H341.656V53.1348Z" fill="#EBEBEB"/>
<path d="M346.455 53.1348H344.503V55.0868H346.455V53.1348Z" fill="#E0E0E0"/>
<path d="M351.256 53.1348H349.304V55.0868H351.256V53.1348Z" fill="#EBEBEB"/>
<path d="M356.048 53.1348H354.096V55.0868H356.048V53.1348Z" fill="#E0E0E0"/>
<path d="M360.848 53.1348H358.896V55.0868H360.848V53.1348Z" fill="#E0E0E0"/>
<path d="M365.736 53.0469H363.784V54.9989H365.736V53.0469Z" fill="#E0E0E0"/>
<path d="M370.44 53.1348H368.488V55.0868H370.44V53.1348Z" fill="#E0E0E0"/>
<path d="M341.656 57.2793H339.704V59.2313H341.656V57.2793Z" fill="#E0E0E0"/>
<path d="M346.544 57.1914H344.592V59.1434H346.544V57.1914Z" fill="#E0E0E0"/>
<path d="M351.256 57.2793H349.304V59.2313H351.256V57.2793Z" fill="#E0E0E0"/>
<path d="M356.048 57.2793H354.096V59.2313H356.048V57.2793Z" fill="#EBEBEB"/>
<path d="M360.848 57.2793H358.896V59.2313H360.848V57.2793Z" fill="#E0E0E0"/>
<path d="M365.647 57.2793H363.695V59.2313H365.647V57.2793Z" fill="#E0E0E0"/>
<path d="M370.44 57.2793H368.488V59.2313H370.44V57.2793Z" fill="#E0E0E0"/>
<path d="M341.656 61.4238H339.704V63.3758H341.656V61.4238Z" fill="#E0E0E0"/>
<path d="M346.455 61.4238H344.503V63.3758H346.455V61.4238Z" fill="#E0E0E0"/>
<path d="M351.256 61.4238H349.304V63.3758H351.256V61.4238Z" fill="#E0E0E0"/>
<path d="M356.136 61.3359H354.184V63.2879H356.136V61.3359Z" fill="#E0E0E0"/>
<path d="M360.848 61.4238H358.896V63.3758H360.848V61.4238Z" fill="#E0E0E0"/>
<path d="M365.647 61.4238H363.695V63.3758H365.647V61.4238Z" fill="#EBEBEB"/>
<path d="M370.44 61.4238H368.488V63.3758H370.44V61.4238Z" fill="#E0E0E0"/>
<path d="M341.656 65.5684H339.704V67.5204H341.656V65.5684Z" fill="#E0E0E0"/>
<path d="M346.455 65.5684H344.503V67.5204H346.455V65.5684Z" fill="#EBEBEB"/>
<path d="M351.256 65.5684H349.304V67.5204H351.256V65.5684Z" fill="#E0E0E0"/>
<path d="M356.048 65.5684H354.096V67.5204H356.048V65.5684Z" fill="#E0E0E0"/>
<path d="M360.848 65.5684H358.896V67.5204H360.848V65.5684Z" fill="#E0E0E0"/>
<path d="M365.736 65.4707H363.784V67.4227H365.736V65.4707Z" fill="#E0E0E0"/>
<path d="M370.44 65.5684H368.488V67.5204H370.44V65.5684Z" fill="#E0E0E0"/>
<path d="M388.904 130.4C389.787 136.364 388.88 142.456 386.299 147.905C383.717 153.354 379.577 157.914 374.402 161.008C369.227 164.102 363.251 165.591 357.229 165.286C351.208 164.982 345.412 162.897 340.576 159.297C335.74 155.696 332.081 150.742 330.062 145.061C328.044 139.379 327.756 133.227 329.237 127.382C330.717 121.538 333.898 116.264 338.377 112.228C342.857 108.192 348.433 105.577 354.4 104.712C358.352 104.131 362.381 104.334 366.255 105.311C370.128 106.288 373.772 108.019 376.976 110.404C380.181 112.79 382.884 115.784 384.93 119.215C386.977 122.646 388.327 126.447 388.904 130.4V130.4Z" fill="#F5F5F5"/>
<path d="M381.728 131.447C382.395 135.988 381.701 140.625 379.732 144.772C377.763 148.918 374.609 152.387 370.668 154.74C366.728 157.093 362.177 158.225 357.594 157.991C353.01 157.758 348.598 156.17 344.917 153.428C341.236 150.686 338.45 146.915 336.914 142.59C335.377 138.265 335.157 133.581 336.283 129.131C337.408 124.682 339.829 120.666 343.237 117.592C346.646 114.518 350.89 112.525 355.432 111.863C361.515 110.978 367.701 112.542 372.632 116.214C377.562 119.886 380.834 125.365 381.728 131.447V131.447Z" fill="#EBEBEB"/>
<path d="M381.6 130.727C381.456 130.727 381.216 129.759 380.592 128.055C379.717 125.659 378.476 123.414 376.912 121.399C374.61 118.434 371.619 116.075 368.2 114.527C367.219 114.08 366.205 113.708 365.168 113.415C364.094 113.097 362.997 112.861 361.888 112.711C360.737 112.556 359.576 112.489 358.416 112.511C356.02 112.55 353.646 112.972 351.384 113.759C350.282 114.135 349.212 114.598 348.184 115.143C346.235 116.169 344.448 117.477 342.88 119.023C341.457 120.421 340.22 121.997 339.2 123.711C338.312 125.227 337.595 126.837 337.064 128.511C336.29 130.94 335.898 133.474 335.904 136.023C335.904 137.839 336.016 138.855 335.904 138.879C335.792 138.903 335.456 137.919 335.24 136.063C334.958 133.411 335.175 130.731 335.88 128.159C336.918 124.294 338.938 120.764 341.744 117.911C344.283 115.314 347.388 113.337 350.816 112.135C353.254 111.276 355.815 110.82 358.4 110.783C359.652 110.768 360.904 110.851 362.144 111.031C363.341 111.204 364.524 111.472 365.68 111.831C366.777 112.165 367.847 112.585 368.88 113.087C370.807 114.008 372.601 115.184 374.216 116.583C375.61 117.801 376.853 119.181 377.92 120.695C379.467 122.866 380.593 125.308 381.24 127.895C381.712 129.671 381.72 130.711 381.6 130.727Z" fill="#E0E0E0"/>
<path d="M363.352 148.111L363.992 152.111L360.424 152.679L359.8 148.791C356.24 149.143 352.68 148.583 350.472 147.367L351.736 142.703C354.011 143.802 356.534 144.293 359.056 144.127L358.104 138.167C353.992 137.839 349.36 137.231 348.544 132.135C347.936 128.351 350.144 124.671 355.696 123.127L355.056 119.127L358.624 118.559L359.248 122.447C361.82 122.178 364.42 122.526 366.832 123.463L365.752 128.135C363.916 127.443 361.96 127.125 360 127.199L360.968 133.263C365.072 133.551 369.632 134.175 370.44 139.199C371.032 142.895 368.84 146.535 363.352 148.111ZM357.264 132.911L356.464 127.855C354.64 128.583 354.064 129.735 354.248 130.911C354.432 132.087 355.616 132.679 357.264 132.919V132.911ZM364.768 140.527C364.568 139.279 363.432 138.767 361.808 138.471L362.608 143.391C364.32 142.727 364.952 141.671 364.8 140.535L364.768 140.527Z" fill="#E0E0E0"/>
<path d="M173.056 113.599C173.606 117.325 173.039 121.131 171.426 124.534C169.813 127.938 167.227 130.787 163.995 132.721C160.763 134.654 157.029 135.586 153.268 135.397C149.506 135.209 145.884 133.909 142.861 131.662C139.839 129.415 137.55 126.322 136.285 122.774C135.021 119.226 134.837 115.383 135.757 111.73C136.677 108.078 138.66 104.78 141.454 102.255C144.248 99.7296 147.729 98.0897 151.456 97.5429C153.929 97.1768 156.449 97.3019 158.874 97.911C161.298 98.52 163.579 99.6011 165.585 101.092C167.591 102.584 169.283 104.456 170.565 106.602C171.847 108.748 172.694 111.126 173.056 113.599V113.599Z" fill="#F5F5F5"/>
<path d="M168.576 114.287C168.995 117.128 168.563 120.03 167.333 122.625C166.103 125.22 164.13 127.392 161.665 128.865C159.2 130.338 156.353 131.047 153.485 130.902C150.617 130.757 147.857 129.764 145.553 128.049C143.25 126.334 141.507 123.974 140.545 121.268C139.584 118.562 139.447 115.631 140.151 112.847C140.856 110.063 142.371 107.551 144.504 105.628C146.638 103.706 149.294 102.46 152.136 102.047C155.939 101.491 159.807 102.468 162.89 104.763C165.973 107.059 168.018 110.484 168.576 114.287V114.287Z" fill="#EBEBEB"/>
<path d="M168.503 113.832C168.234 113.302 168.022 112.744 167.871 112.168C167.34 110.667 166.573 109.261 165.599 108C164.161 106.146 162.29 104.671 160.151 103.704C159.541 103.425 158.909 103.192 158.263 103.008C157.591 102.808 156.903 102.661 156.207 102.568C155.489 102.473 154.764 102.43 154.039 102.44C153.291 102.457 152.545 102.529 151.807 102.656C151.059 102.781 150.32 102.963 149.599 103.2C148.914 103.436 148.248 103.725 147.607 104.064C146.984 104.39 146.388 104.765 145.823 105.184C145.281 105.578 144.77 106.014 144.295 106.488C143.405 107.361 142.63 108.345 141.991 109.416C140.624 111.74 139.914 114.392 139.935 117.088C139.993 117.682 139.993 118.279 139.935 118.872C139.672 118.322 139.53 117.722 139.519 117.112C139.344 115.456 139.479 113.782 139.919 112.176C140.219 111.062 140.651 109.988 141.207 108.976C141.858 107.806 142.666 106.729 143.607 105.776C144.644 104.721 145.83 103.823 147.127 103.112C148.529 102.353 150.045 101.826 151.615 101.552C152.408 101.412 153.211 101.335 154.015 101.32C155.558 101.295 157.095 101.516 158.567 101.976C159.26 102.189 159.934 102.456 160.583 102.776C161.787 103.353 162.909 104.088 163.919 104.96C164.788 105.723 165.564 106.585 166.231 107.528C167.199 108.887 167.905 110.415 168.311 112.032C168.504 112.612 168.569 113.226 168.503 113.832Z" fill="#E0E0E0"/>
<path d="M157.08 124.695L157.48 127.191L155.256 127.551L154.864 125.151C152.875 125.408 150.854 125.101 149.032 124.263L149.832 121.343C151.254 122.031 152.831 122.34 154.408 122.239L153.808 118.511C151.24 118.311 148.344 117.927 147.84 114.743C147.456 112.343 148.848 110.079 152.304 109.143L151.912 106.671L154.136 106.311L154.528 108.711C156.134 108.541 157.758 108.758 159.264 109.343L158.592 112.263C157.447 111.821 156.226 111.614 155 111.655L155.608 115.439C158.168 115.623 161.024 116.015 161.52 119.151C161.888 121.439 160.512 123.719 157.08 124.695ZM153.28 115.199L152.768 112.039C151.632 112.495 151.272 113.215 151.384 113.951C151.496 114.687 152.248 115.055 153.28 115.199ZM157.968 119.999C157.848 119.199 157.168 118.895 156.12 118.711L156.616 121.791C157.688 121.335 158.088 120.679 157.968 119.999Z" fill="#E0E0E0"/>
<path d="M305.784 35.9994C306.267 39.2693 305.769 42.6091 304.353 45.5959C302.938 48.5828 300.668 51.0825 297.831 52.7787C294.994 54.4748 291.717 55.2911 288.416 55.1243C285.115 54.9575 281.937 53.815 279.286 51.8414C276.634 49.8679 274.628 47.152 273.52 44.0376C272.413 40.9232 272.255 37.5503 273.065 34.3458C273.876 31.1413 275.619 28.2493 278.073 26.0358C280.528 23.8224 283.585 22.387 286.856 21.9114C289.024 21.593 291.233 21.7049 293.358 22.2406C295.482 22.7764 297.481 23.7255 299.238 25.0338C300.996 26.3421 302.479 27.9839 303.602 29.8654C304.725 31.7469 305.466 33.8313 305.784 35.9994V35.9994Z" fill="#F5F5F5"/>
<path d="M301.848 36.5911C302.216 39.0836 301.837 41.6296 300.758 43.9063C299.678 46.1831 297.947 48.0883 295.784 49.3805C293.621 50.6728 291.123 51.2939 288.607 51.1653C286.091 51.0367 283.669 50.1641 281.649 48.658C279.629 47.152 278.101 45.0802 277.26 42.7053C276.418 40.3303 276.3 37.759 276.921 35.317C277.542 32.8751 278.874 30.6724 280.748 28.988C282.622 27.3036 284.954 26.2132 287.448 25.8551C290.781 25.3701 294.17 26.2286 296.87 28.2418C299.571 30.2551 301.361 33.2582 301.848 36.5911V36.5911Z" fill="#EBEBEB"/>
<path d="M301.792 36.1916C301.549 35.7267 301.362 35.2355 301.232 34.7276C300.439 32.5016 299.056 30.5328 297.232 29.0316C296.38 28.3425 295.445 27.7645 294.448 27.3116C293.348 26.8191 292.185 26.4851 290.992 26.3196C290.361 26.2338 289.724 26.1964 289.088 26.2076C288.431 26.2244 287.776 26.2885 287.128 26.3996C286.485 26.5198 285.852 26.6828 285.232 26.8876C284.628 27.1081 284.042 27.3756 283.48 27.6876C282.935 27.9749 282.414 28.3039 281.92 28.6716C281.444 29.0188 280.994 29.4012 280.576 29.8156C279.797 30.5852 279.12 31.4509 278.56 32.3916C278.07 33.2135 277.675 34.0885 277.384 34.9996C276.96 36.3316 276.746 37.7217 276.752 39.1196C276.81 39.638 276.81 40.1612 276.752 40.6796C276.517 40.1982 276.392 39.6711 276.384 39.1356C276.232 37.6836 276.351 36.216 276.736 34.8076C277 33.8268 277.381 32.8813 277.872 31.9916C278.74 30.4053 279.934 29.0204 281.376 27.9276C281.904 27.5245 282.463 27.1634 283.048 26.8476C283.654 26.5348 284.282 26.2674 284.928 26.0476C285.596 25.8184 286.281 25.6392 286.976 25.5116C287.674 25.3939 288.38 25.327 289.088 25.3116C290.442 25.2943 291.791 25.4859 293.088 25.8796C293.695 26.0692 294.289 26.3018 294.864 26.5756C295.918 27.0796 296.9 27.7226 297.784 28.4876C298.548 29.1563 299.23 29.9137 299.816 30.7436C300.64 31.9155 301.244 33.2275 301.6 34.6156C301.775 35.1213 301.841 35.6586 301.792 36.1916Z" fill="#E0E0E0"/>
<path d="M291.767 45.727L292.119 47.911L290.167 48.223L289.823 46.095C288.078 46.3153 286.306 46.0379 284.711 45.295L285.399 42.735C286.641 43.3428 288.019 43.6184 289.399 43.535L288.879 40.271C286.623 40.087 284.079 39.759 283.639 36.959C283.303 34.887 284.527 32.871 287.559 32.023L287.199 29.855L289.159 29.543L289.495 31.671C290.907 31.5241 292.333 31.7161 293.655 32.231L293.063 34.791C292.058 34.4055 290.988 34.2207 289.911 34.247L290.439 37.575C292.695 37.735 295.191 38.079 295.631 40.831C295.999 42.863 294.783 44.863 291.767 45.727ZM288.431 37.399L287.999 34.623C286.999 35.023 286.679 35.655 286.783 36.303C286.887 36.951 287.527 37.263 288.431 37.399V37.399ZM292.551 41.599C292.439 40.919 291.815 40.639 290.951 40.479L291.383 43.175C292.303 42.775 292.647 42.199 292.551 41.599Z" fill="#E0E0E0"/>
<path d="M80.4636 115.527H18.0156V154.175H80.4636V115.527Z" fill="#FAFAFA"/>
<path d="M65.3921 143.471C61.0641 141.831 56.0801 146.375 51.8401 144.519C49.3681 143.447 48.2481 140.647 47.0401 138.239C45.8321 135.831 43.7441 133.295 41.0641 133.575C38.3841 133.855 36.1761 136.983 33.5681 136.231C31.9201 135.759 31.0961 133.927 30.6881 132.271C30.2801 130.615 29.9841 128.767 28.7361 127.599C27.4881 126.431 24.8641 126.751 24.6641 128.447V148.943H73.4961C73.4961 148.943 66.8881 144.047 65.3921 143.471Z" fill="#EBEBEB"/>
<path d="M74.8 148.943C74.8 148.943 62.96 149.015 48.4 149.015C33.84 149.015 21.96 149.015 21.96 148.943C21.96 148.871 33.8 148.863 48.4 148.863C63 148.863 74.8 148.895 74.8 148.943Z" fill="#E0E0E0"/>
<path d="M74.7999 140C74.7999 140 62.9599 140.08 48.3999 140.08C33.8399 140.08 21.9199 140 21.9199 140C21.9199 140 33.7599 139.92 48.3599 139.92C62.9599 139.92 74.7999 139.944 74.7999 140Z" fill="#E0E0E0"/>
<path d="M74.8 131.039C74.8 131.087 62.96 131.119 48.4 131.119C33.84 131.119 21.96 131.119 21.96 131.039C21.96 130.959 33.8 130.959 48.4 130.959C63 130.959 74.8 130.999 74.8 131.039Z" fill="#E0E0E0"/>
<path d="M74.8 122.535C74.8 122.575 62.96 122.615 48.4 122.615C33.84 122.615 21.96 122.575 21.96 122.535C21.96 122.495 33.8 122.455 48.4 122.455C63 122.455 74.8 122.487 74.8 122.535Z" fill="#E0E0E0"/>
<path d="M165.488 72.2791L169.72 71.0631C169.855 71.5469 170.087 71.9984 170.4 72.3909C170.714 72.7833 171.103 73.1087 171.545 73.3475C171.987 73.5864 172.472 73.7339 172.972 73.7813C173.472 73.8286 173.977 73.7748 174.456 73.6231C175.174 73.4448 175.819 73.0469 176.301 72.4848C176.783 71.9227 177.077 71.2245 177.144 70.4871C177.209 69.8676 177.126 69.2414 176.902 68.6601C176.678 68.0787 176.32 67.5588 175.856 67.1431C174.8 66.1671 172.92 65.5431 170.208 66.8631L167.472 57.3191L171.656 56.1191L173.256 61.7191C175.117 61.7266 176.925 62.3451 178.4 63.4797C179.876 64.6143 180.938 66.2021 181.424 67.9991C183.2 74.1911 178.064 77.2231 175.688 77.9031C173.872 78.3991 167.552 79.7751 165.488 72.2791Z" fill="#EBEBEB"/>
<path d="M170.003 50.1583L165.758 51.377L166.898 55.3446L171.142 54.1259L170.003 50.1583Z" fill="#EBEBEB"/>
<path d="M244.295 69.0163L241.975 67.7363C242.123 67.4727 242.216 67.1821 242.249 66.8817C242.283 66.5814 242.255 66.2774 242.169 65.9879C242.082 65.6984 241.938 65.4292 241.746 65.1964C241.553 64.9635 241.316 64.7717 241.047 64.6323C240.665 64.4037 240.221 64.2993 239.777 64.3337C239.333 64.3681 238.91 64.5395 238.567 64.8243C238.279 65.0618 238.05 65.3634 237.898 65.7051C237.747 66.0468 237.678 66.4191 237.695 66.7923C237.695 67.6563 238.264 68.7283 239.983 69.3123L237.087 74.5443L234.792 73.2723L236.487 70.2083C235.698 69.4125 235.192 68.3792 235.048 67.2676C234.903 66.156 235.128 65.0276 235.687 64.0563C237.567 60.6723 241.039 61.5683 242.343 62.2883C243.343 62.8403 246.599 64.9523 244.295 69.0163Z" fill="#EBEBEB"/>
<path d="M232.961 76.5178L235.285 77.8047L236.486 75.6352L234.163 74.3484L232.961 76.5178Z" fill="#EBEBEB"/>
<path d="M103.624 277.256L84.9756 309.992H124.12L103.624 277.256Z" fill="#EBEBEB"/>
<path d="M97.1755 306.672C97.1755 306.672 90.3915 327.824 115.848 345.248C141.304 362.672 166.72 357.248 175.496 374.536H193.696C193.696 374.536 185.432 359.336 166.32 352.424C152.064 347.264 111.32 344 111.32 306.672H97.1755Z" fill="#EBEBEB"/>
<path d="M305.56 278L324.208 310.736H285.063L305.56 278Z" fill="#EBEBEB"/>
<path d="M313.048 306.672C313.048 306.672 319.832 327.824 294.384 345.248C268.936 362.672 243.504 357.248 234.728 374.536H216.528C216.528 374.536 224.792 359.336 243.904 352.424C258.168 347.264 298.904 344 298.904 306.672H313.048Z" fill="#EBEBEB"/>
<path d="M250.768 195.328C250.48 195.376 250.188 195.398 249.896 195.392L247.416 195.44L238.272 195.536L208.112 195.616H205.712V195.328C205.712 184.064 205.776 173.968 205.8 166.608C205.84 163 205.864 160.072 205.888 157.976C205.888 157.008 205.928 156.224 205.944 155.64C205.934 155.372 205.953 155.104 206 154.84C206.036 155.105 206.052 155.372 206.048 155.64C206.048 156.224 206.048 157.008 206.104 157.976C206.104 160.072 206.152 163 206.192 166.608C206.192 173.968 206.248 184.064 206.28 195.328L206 195.048H208.144L238.304 195.128L247.448 195.224L249.928 195.272C250.209 195.273 250.489 195.292 250.768 195.328Z" fill="white"/>
<path d="M245.784 164.656C245.375 165.117 244.928 165.542 244.448 165.928L240.672 169.248C237.472 172.032 233 175.856 228.048 180.04L227.304 180.68L227.112 180.84L226.928 180.664L221.328 175.456H221.68L213.44 182.248L211.04 184.16C210.764 184.403 210.464 184.618 210.144 184.8C210.383 184.507 210.651 184.239 210.944 184L213.24 181.968L221.344 175.016L221.52 174.864L221.696 175.024L227.336 180.208H226.96L227.704 179.576C232.656 175.384 237.16 171.616 240.432 168.912L244.328 165.712C244.785 165.322 245.272 164.969 245.784 164.656Z" fill="white"/>
<path d="M245.784 174.04C245.63 173.118 245.565 172.183 245.592 171.248C245.544 169.512 245.504 167.112 245.504 164.432L245.784 164.72H245.304C242.52 164.72 239.992 164.72 238.168 164.632C237.18 164.664 236.191 164.597 235.216 164.432C236.191 164.268 237.18 164.201 238.168 164.232C239.992 164.184 242.52 164.152 245.304 164.152H246.104V164.432C246.104 167.112 246.104 169.512 246.016 171.248C246.037 172.185 245.959 173.12 245.784 174.04V174.04Z" fill="white"/>
<path d="M189.176 366.137L191.12 382.265C191.12 382.265 175.424 389.313 175.496 392.337L206.856 390.033L204.856 364.801L189.176 366.137Z" fill="#407BFF"/>
<path d="M200.512 380.161C200.823 380.23 201.098 380.41 201.285 380.668C201.472 380.926 201.559 381.244 201.528 381.561C201.474 381.876 201.302 382.158 201.045 382.349C200.789 382.54 200.469 382.624 200.152 382.585C199.82 382.514 199.527 382.322 199.329 382.047C199.131 381.772 199.042 381.434 199.08 381.097C199.171 380.775 199.384 380.501 199.674 380.332C199.963 380.164 200.306 380.114 200.632 380.193" fill="#E0E0E0"/>
<path d="M206.856 390.032L206.696 388.016L176.296 390.864C176.033 391.059 175.813 391.306 175.649 391.589C175.486 391.873 175.382 392.187 175.344 392.512L206.856 390.032Z" fill="#263238"/>
<path d="M190.84 382.4C190.84 382.552 191.64 382.56 192.44 382.992C193.24 383.424 193.704 384.04 193.84 383.968C193.976 383.896 193.672 383.024 192.688 382.512C191.704 382 190.792 382.256 190.84 382.4Z" fill="#263238"/>
<path d="M187.64 384.049C187.64 384.201 188.304 384.401 188.888 385.017C189.472 385.633 189.688 386.305 189.832 386.281C189.976 386.257 190.008 385.377 189.272 384.633C188.536 383.889 187.632 383.897 187.64 384.049Z" fill="#263238"/>
<path d="M186.088 388.176C186.232 388.176 186.384 387.376 185.912 386.576C185.44 385.776 184.696 385.488 184.64 385.624C184.584 385.76 185.072 386.176 185.44 386.848C185.808 387.52 185.936 388.176 186.088 388.176Z" fill="#263238"/>
<path d="M190.808 378.641C190.88 378.777 191.608 378.505 192.448 378.489C193.288 378.473 194.048 378.697 194.104 378.553C194.16 378.409 193.472 377.921 192.44 377.953C191.408 377.985 190.72 378.529 190.808 378.641Z" fill="#263238"/>
<path d="M189.952 375.201C190.487 375.304 191.041 375.257 191.552 375.065C192.109 374.911 192.646 374.69 193.152 374.409C193.456 374.245 193.748 374.058 194.024 373.849C194.194 373.738 194.346 373.6 194.472 373.441C194.556 373.324 194.602 373.184 194.602 373.041C194.602 372.897 194.556 372.757 194.472 372.641C194.384 372.542 194.275 372.464 194.153 372.413C194.031 372.362 193.9 372.339 193.768 372.345C193.565 372.364 193.366 372.409 193.176 372.481C192.846 372.589 192.527 372.728 192.224 372.897C191.708 373.184 191.241 373.551 190.84 373.985C190.168 374.721 189.96 375.321 190.04 375.345C190.12 375.369 190.432 374.881 191.136 374.257C191.542 373.894 191.994 373.584 192.48 373.337C192.765 373.194 193.062 373.076 193.368 372.985C193.696 372.865 193.976 372.841 194.08 372.985C194.184 373.129 194.12 373.057 194.08 373.161C193.986 373.277 193.875 373.38 193.752 373.465C193.494 373.662 193.227 373.846 192.952 374.017C192.481 374.298 191.985 374.537 191.472 374.729C190.954 374.848 190.446 375.006 189.952 375.201V375.201Z" fill="#263238"/>
<g opacity="0.3">
<path opacity="0.3" d="M205.664 374.473L205.912 378.065L190.752 379.233L190.504 375.969L205.664 374.473Z" fill="black"/>
</g>
<path d="M233.848 364.289L235.2 389.673L221.52 390.673L220.12 365.249L233.848 364.289Z" fill="#407BFF"/>
<path d="M228.392 389.209C228.28 389.209 227.96 383.657 227.68 376.801C227.4 369.945 227.272 364.377 227.384 364.377C227.496 364.377 227.816 369.929 228.096 376.785C228.376 383.641 228.504 389.201 228.392 389.209Z" fill="#263238"/>
<path d="M235.104 387.92L221.424 388.88L221.52 390.672L235.2 389.672L235.104 387.92Z" fill="#263238"/>
<path d="M221.072 382.545C221.072 382.545 221.16 382.321 221.4 381.977C221.738 381.485 222.124 381.026 222.552 380.609C223.188 379.978 223.91 379.44 224.696 379.009C225.663 378.47 226.742 378.164 227.848 378.113C228.85 378.062 229.851 378.218 230.79 378.572C231.729 378.925 232.585 379.469 233.304 380.169C233.735 380.592 234.104 381.074 234.4 381.601C234.525 381.787 234.609 381.997 234.648 382.217C234.198 381.559 233.689 380.943 233.128 380.377C231.694 379.093 229.811 378.426 227.888 378.521C225.972 378.676 224.168 379.484 222.776 380.809C221.656 381.817 221.136 382.593 221.072 382.545Z" fill="#263238"/>
<g opacity="0.3">
<path opacity="0.3" d="M234.504 374.537L234.528 378.033L220.832 378.113L220.656 374.945L234.504 374.537Z" fill="black"/>
</g>
<path d="M200.8 79.6002L201.232 79.4962C201.916 78.3289 202.881 77.3513 204.039 76.6527C205.197 75.954 206.512 75.5564 207.864 75.4962C210.577 75.4426 213.205 76.4401 215.2 78.2802C216.6 79.5122 217.704 81.0562 219.112 82.2802C220.52 83.5042 222.384 84.4322 224.208 84.0482C224.432 84.7282 223.16 85.1362 223.24 85.8482C223.277 86.0157 223.367 86.1667 223.497 86.2791C223.626 86.3914 223.789 86.4591 223.96 86.4722C224.46 86.5162 224.963 86.5162 225.464 86.4722C225.714 86.4558 225.964 86.5179 226.177 86.6498C226.391 86.7817 226.558 86.9769 226.656 87.2082C226.698 87.4496 226.676 87.698 226.592 87.9282C226.119 90.0857 225.1 92.0856 223.632 93.7362C222.891 94.5522 221.963 95.1759 220.927 95.5536C219.892 95.9313 218.78 96.0516 217.688 95.9042C215.96 95.5762 214.488 94.4482 213.144 93.3522L205.336 87.0962C204.092 86.1818 202.975 85.1057 202.016 83.8962C201.065 82.6782 200.628 81.1361 200.8 79.6002V79.6002Z" fill="#263238"/>
<path d="M202.4 79.9997C201.352 79.1175 200.106 78.5026 198.768 78.2077C198.099 78.0609 197.408 78.0511 196.736 78.179C196.063 78.3069 195.424 78.5697 194.856 78.9517C193.895 79.7901 193.083 80.7856 192.456 81.8957C192.14 82.4472 191.717 82.9297 191.211 83.3145C190.705 83.6993 190.128 83.9785 189.512 84.1357C189.288 84.1372 189.071 84.2069 188.888 84.3357C188.6 84.6077 188.808 85.1357 189.168 85.2957C189.544 85.4237 189.952 85.4237 190.328 85.2957C189.699 86.0274 188.832 86.5145 187.88 86.6717C187.934 86.905 188.035 87.1252 188.175 87.3191C188.316 87.5129 188.494 87.6766 188.699 87.8004C188.904 87.9242 189.132 88.0057 189.369 88.0399C189.607 88.0741 189.848 88.0604 190.08 87.9997C189.654 89.46 189.413 90.9676 189.36 92.4877C189.308 94.0198 189.827 95.5165 190.816 96.6877C191.96 97.9197 193.808 98.5997 194.304 100.2" fill="#263238"/>
<path d="M213.336 133.6L193.024 133.344L195.296 116C195.296 116 193.904 115.704 193.816 108.176C193.728 100.648 193.376 87.8639 193.376 87.8639C197.657 86.0296 202.35 85.3717 206.97 85.9582C211.59 86.5447 215.969 88.3542 219.656 91.1999L220.768 92.0639L213.336 133.6Z" fill="#FFBE9D"/>
<path d="M218.4 101.303C218.528 101.247 223.576 99.7753 223.408 104.919C223.24 110.063 218.112 108.839 218.112 108.695C218.112 108.551 218.4 101.303 218.4 101.303Z" fill="#FFBE9D"/>
<path d="M194.248 100.233C194.12 100.177 189.536 98.9447 189.696 104.089C189.856 109.233 194.992 108.001 195 107.857C195.008 107.713 194.248 100.233 194.248 100.233Z" fill="#FFBE9D"/>
<path d="M220.08 100.736C219.28 105.04 219.464 107.312 218.752 110.184C217.624 114.744 215.36 118.24 211.256 120.512C207.152 122.784 201.6 122.744 198.072 119.648C195.624 117.504 193.896 115.072 193.528 111.832C193.16 108.592 192.216 102.52 192.192 99.2639C192.152 93.3919 192.344 88.1199 192.344 88.1199L209.144 85.0879L218.688 90.7599L220.08 100.736Z" fill="#263238"/>
<path d="M202.768 123.113C203.706 123.47 204.726 123.559 205.712 123.369C206.711 123.333 207.681 123.026 208.52 122.481C208.472 122.353 207.232 122.737 205.656 122.905C204.08 123.073 202.784 122.977 202.768 123.113Z" fill="#263238"/>
<path d="M219.264 108.064C219.76 103.64 220.064 98.5916 220.768 93.9356C221.024 92.1836 221.648 89.6636 221.496 87.9036C221.344 86.1436 220.856 86.6796 220.08 85.0876C219.104 83.0876 215.376 81.7516 213.192 81.3116C211.008 80.8716 210.736 78.9916 209.064 80.4556C208.449 79.5361 207.569 78.8254 206.541 78.4181C205.512 78.0107 204.384 77.926 203.307 78.1753C202.229 78.4245 201.253 78.9958 200.508 79.8133C199.763 80.6307 199.284 81.6556 199.136 82.7516C198.534 82.1764 197.759 81.8158 196.931 81.7255C196.104 81.6352 195.27 81.8204 194.558 82.2523C193.846 82.6843 193.297 83.3389 192.995 84.1147C192.693 84.8905 192.655 85.7442 192.888 86.5436C192.282 86.6447 191.711 86.895 191.226 87.272C190.742 87.6489 190.359 88.1407 190.112 88.7028C189.865 89.2649 189.762 89.8797 189.812 90.4916C189.862 91.1036 190.064 91.6933 190.4 92.2076C191.2 93.3996 192.576 94.0636 193.432 95.1996C193.918 95.8671 194.201 96.6611 194.247 97.4858C194.292 98.3105 194.098 99.1308 193.688 99.8476" fill="#263238"/>
<path d="M197.648 107.145C197.484 108.678 197.684 110.228 198.232 111.669C198.779 113.111 199.659 114.403 200.8 115.441C200.912 115.345 199.544 113.841 198.68 111.497C197.816 109.153 197.792 107.137 197.648 107.145Z" fill="#455A64"/>
<path d="M195.392 103.393C194.92 104.703 194.802 106.115 195.049 107.485C195.296 108.856 195.9 110.137 196.8 111.201C196.26 109.98 195.831 108.714 195.52 107.417C195.12 105.209 195.536 103.417 195.392 103.393Z" fill="#455A64"/>
<path d="M216.528 85.6009C215.312 83.5307 213.48 81.8918 211.288 80.9129C210.191 80.4435 208.989 80.2747 207.805 80.4237C206.621 80.5728 205.498 81.0343 204.552 81.7609" fill="#263238"/>
<path d="M216.104 96.9929C216.067 96.4807 216.121 95.966 216.264 95.4729C216.504 94.3008 216.635 93.1091 216.656 91.9129C216.645 90.729 216.372 89.5623 215.856 88.4969C215.448 87.6969 215.056 87.2729 215.112 87.2009C215.168 87.1289 215.688 87.4649 216.224 88.2889C216.884 89.3788 217.227 90.6308 217.216 91.9049C217.21 93.1477 217.018 94.3826 216.648 95.5689C216.559 96.074 216.375 96.5575 216.104 96.9929V96.9929Z" fill="#455A64"/>
<path d="M212.632 98.6969C212.48 98.6089 212.896 97.5929 213.304 96.2969C213.712 95.0009 213.96 93.9529 214.104 93.9689C214.248 93.9849 214.272 95.1449 213.848 96.4809C213.424 97.8169 212.8 98.7769 212.632 98.6969Z" fill="#455A64"/>
<path d="M196.52 97.3676C195.979 96.8695 195.579 96.2376 195.36 95.5356C194.69 93.8796 194.517 92.0641 194.864 90.3116C195.213 88.5618 196.07 86.9537 197.328 85.6876C197.804 85.1256 198.415 84.6935 199.104 84.4316C199.16 84.5116 198.488 84.9836 197.64 85.9676C196.533 87.2389 195.777 88.777 195.448 90.4299C195.118 92.0828 195.225 93.7931 195.76 95.3916C196.16 96.6236 196.6 97.3196 196.52 97.3676Z" fill="#455A64"/>
<path d="M214.856 78.2314C214.282 78.063 213.729 77.8295 213.208 77.5354C211.946 76.9154 210.565 76.5769 209.16 76.5434C208.474 76.53 207.793 76.6605 207.16 76.9264C206.528 77.1924 205.958 77.5878 205.488 78.0874C205.137 78.5494 204.824 79.039 204.552 79.5514C204.488 79.5514 204.464 78.7514 205.16 77.8234C205.574 77.2735 206.107 76.8249 206.72 76.5114C207.468 76.146 208.288 75.952 209.12 75.9434C210.615 75.9706 212.077 76.3899 213.36 77.1594C214.4 77.7194 214.896 78.1674 214.856 78.2314Z" fill="#455A64"/>
<path d="M191.912 83.0005C191.848 83.0005 191.968 82.4005 192.512 81.6405C193.235 80.6427 194.27 79.914 195.454 79.5692C196.637 79.2245 197.901 79.2834 199.048 79.7365C199.92 80.0965 200.328 80.5365 200.288 80.5365C200.248 80.5365 199.752 80.3365 198.92 80.1045C197.843 79.7914 196.699 79.7914 195.623 80.1045C194.546 80.4176 193.581 81.0309 192.84 81.8725C192.256 82.5445 192 83.0405 191.912 83.0005Z" fill="#455A64"/>
<path d="M197.448 101.913C197.448 101.841 198.248 101.617 199.632 101.009C201.468 100.182 203.148 99.0451 204.6 97.6491L205.568 96.7051L205.04 97.9531C204.705 98.7387 204.46 99.56 204.312 100.401C204.232 100.817 204.16 101.353 204.312 101.425C204.464 101.497 204.888 101.329 205.272 101.057C206.569 100.218 207.731 99.188 208.72 98.0011L209.616 96.9371L209.208 98.2651L208.072 101.945L207.688 101.713C208.942 100.465 210.046 99.0743 210.976 97.5691C210.863 98.047 210.668 98.5017 210.4 98.9131C209.748 100.064 208.94 101.119 208 102.049L207.368 102.673L207.608 101.809L208.656 98.1051L209.144 98.3611C208.129 99.6072 206.925 100.687 205.576 101.561C205.363 101.704 205.142 101.832 204.912 101.945C204.761 102.025 204.592 102.063 204.422 102.056C204.252 102.049 204.087 101.997 203.944 101.905C203.82 101.795 203.725 101.657 203.667 101.502C203.608 101.348 203.588 101.181 203.608 101.017C203.608 100.745 203.672 100.529 203.712 100.297C203.873 99.4143 204.142 98.5546 204.512 97.7371L204.952 98.0411C203.444 99.4621 201.672 100.574 199.736 101.313C199.01 101.635 198.238 101.838 197.448 101.913V101.913Z" fill="#455A64"/>
<path d="M207.264 82.0722C207.094 81.7672 206.865 81.499 206.59 81.2834C206.315 81.0678 206 80.909 205.664 80.8162C204.98 80.6442 204.267 80.6278 203.576 80.7682C201.869 81.0815 200.324 81.9745 199.2 83.2962C198.952 83.6002 198.728 84.0962 198.992 84.3522C199.154 84.4842 199.358 84.5549 199.568 84.5522C202.098 84.7619 204.643 84.6706 207.152 84.2802" fill="#263238"/>
<path d="M218.544 131.415C218.182 131.428 217.82 131.401 217.464 131.335L214.544 130.991C212.08 130.703 208.664 130.343 204.888 130.063C201.112 129.783 197.688 129.647 195.2 129.575L192.256 129.487C191.894 129.498 191.532 129.471 191.176 129.407C191.533 129.347 191.894 129.321 192.256 129.327C192.952 129.327 193.96 129.279 195.208 129.279C197.696 129.279 201.128 129.367 204.92 129.647C208.712 129.927 212.12 130.335 214.584 130.703C215.816 130.879 216.808 131.047 217.488 131.175C217.847 131.221 218.2 131.302 218.544 131.415Z" fill="#455A64"/>
<path d="M227.656 230.76L236.344 374.472L215.544 375.32C215.544 375.32 210.296 319.392 205.944 295.168C201.592 270.944 200.496 260.984 200.496 260.984L204.336 233.216L227.656 230.76Z" fill="#263238"/>
<path d="M174.504 235.64C173.253 248.744 173.253 261.937 174.504 275.04C176.56 297.24 186.4 377.912 186.4 377.912L208.168 376.2C208.168 376.2 201.768 280.592 205.176 265.224L220.12 250.928L222.256 228.32L174.504 235.64Z" fill="#263238"/>
<path d="M221.176 247.656C221.089 247.766 220.993 247.868 220.888 247.96L220.008 248.76L216.68 251.8L205.288 262.032L205.36 261.888C205.32 263.664 205.272 265.504 205.224 267.392C205.016 274.816 204.824 281.528 204.68 286.448C204.592 288.848 204.52 290.808 204.472 292.216C204.432 292.864 204.408 293.384 204.392 293.816C204.391 293.999 204.373 294.181 204.336 294.36C204.317 294.177 204.317 293.992 204.336 293.808V292.208C204.336 290.792 204.384 288.832 204.416 286.432C204.528 281.512 204.672 274.792 204.84 267.376C204.888 265.488 204.936 263.648 204.984 261.872V261.784L205.056 261.72L216.536 251.592L219.944 248.64L220.864 247.84C220.961 247.768 221.066 247.706 221.176 247.656V247.656Z" fill="#455A64"/>
<path d="M233.504 139.447C233.504 139.447 239.144 144.295 240.032 148.719C240.92 153.143 243.712 197.319 242.68 201.447C241.648 205.575 230.68 230.759 230.68 230.759L227.648 206.159V181.599L233.504 139.447Z" fill="#263238"/>
<path d="M157.024 238.289L155.896 242.489L168.056 245.121L169 241.081L157.024 238.289Z" fill="white"/>
<path d="M171.848 240.105V245.937L215.416 244.801C215.416 244.801 217.616 230.929 217.864 231.673C218.112 232.417 222.072 244.801 222.072 244.801H235.28L228.8 190.441L233.544 139.449L217.16 130.649L215.456 127.121C215.456 127.121 197.784 125.345 193.056 126.185L191.376 130.401L185.088 132.641L174.504 190.433L171.848 240.105Z" fill="#263238"/>
<path d="M174.608 134.809L187.528 130.097L192.776 125.385C195.909 124.164 199.158 123.264 202.472 122.697C208.392 121.617 214.312 124.449 214.312 124.449L217.68 129.289L234.4 141.409L232.8 187.705L182.4 191.345L174.608 134.809Z" fill="#263238"/>
<path d="M164.904 183.465C165.312 182.921 167.072 144.481 167.744 141.385C168.416 138.289 172.32 134.657 174.608 134.793C176.896 134.929 188.472 143.265 188.472 158.345C188.472 173.425 182.28 203.305 182.28 203.305L169.76 241.257L155.896 238.057L165.048 182.601" fill="#263238"/>
<path d="M187.704 130.4C197.522 127.203 208.058 126.925 218.032 129.6Z" fill="#263238"/>
<path d="M218.032 129.6C217.628 129.569 217.229 129.496 216.84 129.384C216.08 129.216 214.976 129.001 213.64 128.769C210.071 128.184 206.456 127.932 202.84 128.017C199.227 128.122 195.632 128.572 192.104 129.36C190.752 129.664 189.656 129.936 188.904 130.16C188.521 130.288 188.128 130.379 187.728 130.432C188.091 130.257 188.468 130.112 188.856 130C189.592 129.744 190.672 129.425 192.056 129.081C199.147 127.318 206.536 127.116 213.712 128.488C215.088 128.76 216.184 129.016 216.912 129.24C217.295 129.329 217.669 129.449 218.032 129.6V129.6Z" fill="#455A64"/>
<path d="M231.944 154.752V154.952C231.944 155.104 231.944 155.296 231.904 155.52C231.856 156.056 231.8 156.792 231.72 157.72C231.544 159.624 231.304 162.384 231.024 165.8C230.488 172.616 229.824 182.064 230.008 192.504C230.221 201.416 230.948 210.308 232.184 219.136C232.632 222.496 232.984 225.232 233.264 227.136C233.384 228.056 233.48 228.792 233.552 229.32C233.552 229.552 233.592 229.736 233.616 229.896C233.64 230.056 233.616 230.088 233.616 230.088C233.589 230.027 233.57 229.962 233.56 229.896C233.56 229.744 233.496 229.56 233.456 229.336L233.096 227.16C232.784 225.272 232.36 222.536 231.88 219.16C230.565 210.333 229.804 201.433 229.6 192.512C229.499 183.586 229.881 174.661 230.744 165.776C231.056 162.36 231.336 159.608 231.544 157.704C231.656 156.784 231.744 156.048 231.808 155.512C231.808 155.288 231.864 155.096 231.88 154.944C231.891 154.877 231.913 154.812 231.944 154.752V154.752Z" fill="#455A64"/>
<path d="M188.472 158.344C188.472 173.416 182.28 203.304 182.28 203.304L169.76 241.256L155.896 238.056L165.048 182.6" fill="#263238"/>
<path d="M165.048 182.569C165.059 182.662 165.059 182.756 165.048 182.849C165.048 183.041 164.984 183.305 164.936 183.649L164.456 186.737C164.024 189.449 163.392 193.377 162.608 198.297C161.008 208.169 158.736 222.033 156.12 238.057L155.968 237.833L169.832 241.033L169.592 241.169L171.928 234.065C175.584 223.017 179.048 212.537 182.128 203.217C184.792 190.057 186.568 178.833 187.504 170.889C188 166.889 188.208 163.769 188.352 161.609C188.416 160.537 188.424 159.705 188.456 159.145C188.456 158.881 188.456 158.665 188.456 158.513C188.445 158.441 188.445 158.368 188.456 158.297C188.465 158.369 188.465 158.441 188.456 158.513V159.201C188.456 159.761 188.456 160.593 188.456 161.673C188.352 163.833 188.176 166.993 187.72 170.969C186.84 178.969 185.12 190.169 182.48 203.345C179.416 212.665 175.968 223.153 172.328 234.201C171.528 236.641 170.728 239.041 169.984 241.305L169.92 241.489L169.736 241.441L155.88 238.241L155.696 238.193V238.009L162.328 198.265C163.128 193.361 163.832 189.465 164.288 186.729C164.528 185.401 164.704 184.369 164.832 183.649C164.896 183.313 164.944 183.049 164.984 182.849C165.024 182.649 165.048 182.569 165.048 182.569Z" fill="#455A64"/>
<path d="M164.904 183.465C165.312 182.921 167.072 144.481 167.744 141.385Z" fill="#263238"/>
<path d="M167.744 141.385C167.761 141.528 167.761 141.673 167.744 141.817C167.744 142.137 167.712 142.545 167.648 143.041C167.576 144.161 167.48 145.689 167.36 147.545C167.144 151.409 166.848 156.649 166.56 162.433C166.272 168.217 165.904 173.513 165.632 177.321C165.36 181.129 165.104 183.489 164.976 183.465C164.976 183.465 164.976 183.321 164.976 183.041C164.976 182.761 165.024 182.305 165.056 181.809C165.12 180.689 165.2 179.161 165.304 177.305C165.512 173.433 165.8 168.201 166.104 162.409C166.408 156.617 166.768 151.329 167.072 147.529C167.216 145.625 167.36 144.081 167.488 143.025C167.552 142.489 167.616 142.081 167.664 141.801C167.671 141.659 167.697 141.519 167.744 141.385V141.385Z" fill="#455A64"/>
<path d="M186.656 149.793C186.576 149.793 186.408 148.697 185.856 147.001C185.511 146.007 185.088 145.041 184.592 144.113C183.982 142.987 183.275 141.917 182.48 140.913C181.666 139.916 180.77 138.99 179.8 138.145C179 137.465 178.15 136.847 177.256 136.297C175.728 135.353 174.68 134.945 174.712 134.873C174.972 134.919 175.225 134.999 175.464 135.113C176.136 135.367 176.787 135.678 177.408 136.041C178.339 136.568 179.222 137.176 180.048 137.857C181.054 138.698 181.978 139.633 182.808 140.649C183.618 141.682 184.33 142.788 184.936 143.953C185.42 144.906 185.821 145.899 186.136 146.921C186.28 147.353 186.36 147.761 186.448 148.113C186.522 148.413 186.578 148.718 186.616 149.025C186.66 149.279 186.673 149.536 186.656 149.793Z" fill="#455A64"/>
<path d="M232.584 139.713C232.767 140.227 232.867 140.767 232.88 141.313C233.14 143.926 232.986 146.564 232.424 149.129C232.349 149.669 232.187 150.193 231.944 150.681C231.824 150.681 232.376 148.281 232.544 145.217C232.712 142.153 232.464 139.729 232.584 139.713Z" fill="#455A64"/>
<path d="M223.616 178.993C223.696 179.081 217.752 184.673 210.352 191.497C202.952 198.321 196.872 203.777 196.8 203.689C196.728 203.601 202.656 198.009 210.064 191.185C217.472 184.361 223.544 178.913 223.616 178.993Z" fill="#455A64"/>
<path d="M217.152 230.76C217.112 230.345 217.112 229.927 217.152 229.512C217.152 228.632 217.152 227.488 217.192 226.112C217.192 223.24 217.232 219.272 217.12 214.912C217.008 210.552 216.784 206.568 216.6 203.712C216.512 202.336 216.432 201.192 216.376 200.32C216.337 199.905 216.337 199.487 216.376 199.072C216.474 199.477 216.538 199.889 216.568 200.304C216.672 201.104 216.792 202.256 216.92 203.688C217.184 206.552 217.448 210.52 217.568 214.888C217.688 219.256 217.624 223.248 217.52 226.088C217.464 227.52 217.4 228.688 217.344 229.488C217.314 229.917 217.25 230.342 217.152 230.76Z" fill="#455A64"/>
<path d="M235.28 244.801H235.048H234.344L231.656 244.849L221.752 244.953H221.64V244.849L217.216 231.865H217.592C216.992 235.865 216.336 240.257 215.648 244.833V245.009H215.472L213.872 245.049L184.2 245.753L175.208 245.921H172.768H172.128H171.912H172.128H172.76L175.208 245.817L184.192 245.521L213.864 244.721L215.464 244.681L215.2 244.801L217.168 231.841L217.288 231.041L217.544 231.841L221.896 244.801L221.752 244.697H231.656H234.344H235.048L235.28 244.801Z" fill="#455A64"/>
<path d="M157.416 242.816C157.416 242.816 154.656 250.312 155.552 251.752C156.448 253.192 160.936 259.12 161.896 259.12C162.856 259.12 167.664 257.68 167.664 257.68C167.664 257.68 171.504 252.488 171.024 252.08C170.544 251.672 169.264 250.2 168.144 252.08L165.416 255.072L164.456 251.232C164.456 251.232 166.448 247.232 167.568 245.08L157.416 242.816Z" fill="#FFBE9D"/>
<path d="M155.312 261.145L151.984 261.329L143.528 308.969L182.208 309.993L187.76 309.281L181.624 259.953L155.312 261.145Z" fill="#455A64"/>
<path d="M148.512 281.353H178.168L179.368 260.057L180.888 309.993" fill="#455A64"/>
<path d="M180.888 309.992C180.879 309.905 180.879 309.816 180.888 309.728C180.888 309.536 180.888 309.288 180.888 308.976C180.888 308.288 180.808 307.312 180.76 306.072C180.664 303.528 180.528 299.88 180.368 295.384C180.08 286.336 179.672 273.864 179.232 260.064H179.648C179.648 260.224 179.648 260.4 179.648 260.576C179.224 268.008 178.848 275.064 178.464 281.376V281.56H178.28L156.888 281.48L150.8 281.432H149.2H148.784H148.64H148.784H149.2H150.8L156.888 281.376L178.28 281.296L178.096 281.48C178.44 275.184 178.832 268.128 179.24 260.68C179.24 260.504 179.24 260.328 179.24 260.168H179.656C180.048 273.968 180.408 286.44 180.672 295.496C180.776 299.992 180.864 303.64 180.928 306.192C180.928 307.432 180.968 308.4 180.976 309.096V309.848C180.949 309.898 180.92 309.946 180.888 309.992V309.992Z" fill="#263238"/>
<path d="M164.552 251.64C164.552 251.64 166.152 250.296 167.632 251.296C169.112 252.296 171.424 260.416 171.56 260.408C171.696 260.4 167.168 261.328 167.168 261.328L164.552 251.64Z" fill="#455A64"/>
<path d="M158.456 255.664C157.697 257.457 157.298 259.381 157.28 261.328H160.52L160.784 258.328L158.456 255.664Z" fill="#455A64"/>
<path d="M225.673 26.7177C216.891 17.9355 202.653 17.9355 193.871 26.7176C185.088 35.4997 185.088 49.7384 193.871 58.5205C202.653 67.3026 216.891 67.3026 225.673 58.5205C234.456 49.7384 234.456 35.4998 225.673 26.7177Z" fill="#FAFAFA"/>
<path d="M187.392 44.3668C187.392 44.3668 187.392 44.2388 187.392 43.9988C187.392 43.7588 187.392 43.3988 187.392 42.9348C187.392 42.7028 187.392 42.4388 187.392 42.1348C187.392 41.8308 187.432 41.5348 187.456 41.1908C187.48 40.8468 187.512 40.4788 187.544 40.0868C187.556 39.8851 187.583 39.6845 187.624 39.4868C187.624 39.2788 187.696 39.0628 187.736 38.8468C188.091 36.7141 188.768 34.6478 189.744 32.7188C191.018 30.1551 192.772 27.8601 194.912 25.9588L195.816 25.1588C196.136 24.9108 196.48 24.6788 196.816 24.4388L197.32 24.0708C197.488 23.9441 197.664 23.8292 197.848 23.7268L198.96 23.0788L199.528 22.7508L200.128 22.4788L201.344 21.9268C201.76 21.7508 202.2 21.6308 202.624 21.4708L203.28 21.2468L203.608 21.1428L203.952 21.0628C204.867 20.8186 205.797 20.6368 206.736 20.5188C207.216 20.4628 207.696 20.3748 208.184 20.3508H209.664C209.912 20.3508 210.16 20.3508 210.408 20.3508L211.16 20.4068C211.664 20.4548 212.168 20.4708 212.672 20.5348C213.698 20.682 214.714 20.8957 215.712 21.1748L216.464 21.3908L216.848 21.4948L217.216 21.6388L218.712 22.2228C219.2 22.4388 219.672 22.7028 220.16 22.9428C220.4 23.0708 220.648 23.1748 220.88 23.3188L221.576 23.7588C222.514 24.349 223.412 25.0011 224.264 25.7108L225.488 26.8628L225.8 27.1588C225.896 27.2548 225.984 27.3668 226.08 27.4708L226.64 28.1108L227.208 28.7588L227.712 29.4548L228.216 30.1588L228.472 30.5108L228.688 30.8788L229.568 32.3908C229.808 32.9268 230.056 33.4548 230.296 33.9908C231.21 36.1899 231.785 38.5151 232 40.8868C232.148 43.2762 231.932 45.6741 231.36 47.9988C231.208 48.5668 231.048 49.1268 230.888 49.6948C230.728 50.2628 230.464 50.7828 230.256 51.2948L230.096 51.7028L229.904 52.0868L229.512 52.8868L229.12 53.6868L228.664 54.4148L228.208 55.1348L227.976 55.4948L227.72 55.8308L226.688 57.1588C225.954 57.9914 225.166 58.7745 224.328 59.5028L223.712 60.0468C223.504 60.2228 223.272 60.3668 223.056 60.5348C222.616 60.8468 222.184 61.1747 221.736 61.4707L220.352 62.2707L220 62.3988C219.888 62.4628 219.76 62.5108 219.648 62.5668L218.928 62.8948C217.991 63.3254 217.026 63.6942 216.04 63.9988C215.544 64.1428 215.048 64.2387 214.56 64.3587L213.824 64.5268C213.581 64.5737 213.335 64.6084 213.088 64.6308L211.624 64.8228C211.136 64.8708 210.648 64.8227 210.168 64.8787C209.22 64.9089 208.271 64.8741 207.328 64.7748H206.976L206.64 64.7188L205.96 64.5988C205.504 64.5108 205.056 64.4548 204.616 64.3508L203.328 63.9988L202.696 63.8228L202.088 63.5907L200.888 63.1268C200.69 63.0518 200.498 62.9636 200.312 62.8628L199.752 62.5828C199.384 62.3908 199.016 62.2148 198.656 62.0228L197.64 61.3748C195.229 59.83 193.14 57.8333 191.488 55.4948L190.944 54.7428L190.496 53.9428C190.344 53.6948 190.2 53.4468 190.056 53.1988C189.992 53.0788 189.912 52.9588 189.848 52.8388L189.68 52.4628L189.032 51.0548C188.84 50.6068 188.712 50.1508 188.552 49.7348C188.48 49.5268 188.416 49.3188 188.344 49.1188C188.27 48.9292 188.211 48.7339 188.168 48.5348L187.912 47.4628C187.84 47.1268 187.752 46.8228 187.704 46.5428C187.656 46.2628 187.632 45.9988 187.6 45.7428C187.536 45.2788 187.488 44.9428 187.448 44.6868C187.408 44.4308 187.392 44.3268 187.392 44.3268C187.392 44.3268 187.392 44.4468 187.392 44.6868C187.392 44.9268 187.464 45.2868 187.512 45.7428C187.512 45.9828 187.576 46.2388 187.608 46.5428C187.64 46.8468 187.744 47.1348 187.816 47.4708C187.888 47.8068 187.976 48.1668 188.064 48.5508C188.102 48.75 188.159 48.9455 188.232 49.1348L188.44 49.7508C188.592 50.1748 188.72 50.6308 188.904 51.0868L189.552 52.5028L189.72 52.8788C189.784 52.9988 189.856 53.1188 189.928 53.2388L190.36 53.9908C190.512 54.2468 190.656 54.5108 190.816 54.7908C190.976 55.0708 191.168 55.2948 191.352 55.5908C193.032 57.9453 195.154 59.9505 197.6 61.4948L198.624 62.1428C198.976 62.3428 199.352 62.5188 199.728 62.7108L200.288 62.9908C200.472 63.0974 200.665 63.1884 200.864 63.2628L202.072 63.7268C202.272 63.8068 202.48 63.8948 202.688 63.9668L203.328 64.1428L204.624 64.5108C205.064 64.6228 205.512 64.6788 205.968 64.7668L206.656 64.8868L207 64.9428H207.352C208.3 65.0473 209.254 65.0874 210.208 65.0628C210.696 65.0628 211.184 65.0628 211.68 65.0068L213.152 64.8147C213.4 64.8147 213.656 64.7588 213.904 64.7108L214.64 64.5347C215.136 64.4147 215.64 64.3188 216.128 64.1748C217.127 63.872 218.106 63.5032 219.056 63.0707L219.776 62.7428L220.144 62.5748L220.488 62.3668L221.88 61.5668C222.336 61.2708 222.768 60.9428 223.216 60.6228C223.443 60.4717 223.662 60.3089 223.872 60.1348L224.496 59.5908C225.348 58.8449 226.15 58.0431 226.896 57.1908L227.936 55.8468L228.2 55.5028L228.432 55.1428L228.888 54.4148L229.352 53.6868L229.752 52.8868L230.144 52.0868L230.344 51.6948L230.504 51.2868C230.712 50.7428 230.928 50.1988 231.144 49.6868C231.36 49.1748 231.464 48.5508 231.624 47.9748C232.185 45.6185 232.387 43.1913 232.224 40.7748C232.009 38.3712 231.432 36.0139 230.512 33.7828C230.264 33.2468 230.024 32.7028 229.776 32.1828L228.8 30.7428C228.728 30.6148 228.656 30.4868 228.576 30.3668L228.32 30.0068L227.816 29.3028L227.304 28.5988L226.736 27.9508L226.168 27.3028L225.88 26.9828L225.568 26.6868L224.328 25.5188C223.468 24.8063 222.562 24.1515 221.616 23.5588L220.912 23.1188C220.68 22.9668 220.424 22.8628 220.184 22.7348C219.696 22.4948 219.216 22.2308 218.72 22.0148L217.216 21.4308L216.848 21.2788L216.464 21.1748L215.664 20.9588C214.658 20.6797 213.634 20.4659 212.6 20.3188C212.096 20.2548 211.584 20.2388 211.072 20.1908L210.32 20.1348C210.064 20.1348 209.816 20.1348 209.568 20.1348H208.072C207.584 20.1348 207.096 20.2548 206.616 20.3108C205.668 20.4284 204.73 20.6128 203.808 20.8628L203.464 20.9428L203.136 21.0548L202.48 21.2788C202.04 21.4388 201.6 21.5668 201.184 21.7428L200 22.3988L199.4 22.6708L198.832 22.9988L197.712 23.6548C197.526 23.76 197.347 23.8776 197.176 24.0068L196.672 24.3748C196.328 24.6228 195.992 24.8548 195.664 25.1108L194.76 25.9108C192.621 27.8174 190.869 30.1179 189.6 32.6868C188.632 34.6283 187.963 36.7051 187.616 38.8468C187.616 39.0708 187.544 39.2868 187.512 39.4868C187.471 39.6872 187.444 39.8904 187.432 40.0948C187.432 40.4948 187.376 40.8948 187.352 41.1988C187.328 41.5028 187.304 41.8628 187.296 42.1508C187.288 42.4388 187.296 42.7028 187.296 42.9508C187.296 43.4148 187.296 43.7508 187.336 44.0148C187.376 44.2788 187.392 44.3668 187.392 44.3668Z" fill="#263238"/>
<path d="M204.248 38.008H207.448C207.446 37.6447 207.517 37.2847 207.657 36.9495C207.797 36.6142 208.003 36.3106 208.262 36.0567C208.522 35.8028 208.831 35.6039 209.169 35.4718C209.508 35.3398 209.869 35.2772 210.232 35.288C210.762 35.2651 211.287 35.4065 211.733 35.6929C212.18 35.9793 212.528 36.3967 212.728 36.888C212.897 37.306 212.964 37.7578 212.925 38.2068C212.887 38.6558 212.742 39.0893 212.504 39.472C211.96 40.368 210.776 41.176 208.632 40.8V48H211.784V43.816C213.072 43.4336 214.2 42.64 214.994 41.5566C215.789 40.4731 216.207 39.1594 216.184 37.816C216.184 33.152 212.008 32.072 210.216 32.072C208.848 32.056 204.184 32.384 204.248 38.008Z" fill="#407BFF"/>
<path d="M211.808 49.5996H208.608V52.5836H211.808V49.5996Z" fill="#407BFF"/>
<path d="M199.432 68.8479C199.432 68.8479 199.568 68.6479 199.888 68.3679C200.272 68.0337 200.737 67.8055 201.237 67.7059C201.736 67.6063 202.253 67.6387 202.736 67.7999C203.175 67.9553 203.561 68.2328 203.848 68.5999C204.198 69.016 204.412 69.5292 204.462 70.0705C204.511 70.6119 204.394 71.1554 204.126 71.6283C203.858 72.1011 203.451 72.4806 202.961 72.7158C202.471 72.9509 201.921 73.0305 201.384 72.9439C200.918 72.8892 200.477 72.7033 200.112 72.4079C199.795 72.1412 199.541 71.8079 199.368 71.4319C199.111 70.8833 199.029 70.2684 199.136 69.6719C199.216 69.2559 199.336 69.0399 199.312 69.0319C199.288 69.0239 199.312 69.0799 199.224 69.1839C199.189 69.2449 199.159 69.3092 199.136 69.3759C199.099 69.4659 199.072 69.5598 199.056 69.6559C198.914 70.2694 198.976 70.9126 199.232 71.4879C199.413 71.8948 199.687 72.2537 200.032 72.5359C200.418 72.8632 200.89 73.0716 201.392 73.1359C201.937 73.2018 202.49 73.1189 202.992 72.8959C203.553 72.6673 204.021 72.2565 204.32 71.7297C204.619 71.2028 204.732 70.5907 204.64 69.9919C204.573 69.4392 204.354 68.9159 204.008 68.4799C203.699 68.0795 203.279 67.779 202.8 67.6159C202.385 67.4795 201.945 67.4385 201.512 67.4959C200.884 67.5772 200.298 67.8575 199.84 68.2959C199.769 68.3615 199.705 68.4338 199.648 68.5119C199.6 68.566 199.557 68.625 199.52 68.6879C199.483 68.7366 199.453 68.7905 199.432 68.8479V68.8479Z" fill="#263238"/>
<path d="M344.44 69.5918H262.568V252.816H344.44V69.5918Z" fill="#407BFF"/>
<path d="M344.448 61.5195H264.864H257.288V69.5915V252.816H264.864V69.5915H344.448V252.816H352.664V69.5915V61.5195H344.448Z" fill="#407BFF"/>
<path d="M352.672 61.5195C351.384 62.8812 350.022 64.1712 348.592 65.3835C347.448 66.4315 346.424 67.3915 345.712 68.1035C345.431 68.3832 345.164 68.6769 344.912 68.9835C344.823 69.0972 344.743 69.2175 344.672 69.3435C344.672 69.3435 344.624 69.1515 344.776 68.8955C344.98 68.5427 345.222 68.2128 345.496 67.9115C346.376 66.9133 347.313 65.9676 348.304 65.0795C349.456 64.0315 350.528 63.1195 351.32 62.4795C351.724 62.0986 352.179 61.7755 352.672 61.5195Z" fill="#455A64"/>
<path d="M264.864 69.7521C263.453 68.52 262.137 67.1829 260.928 65.7521C259.612 64.425 258.395 63.0025 257.288 61.4961C258.701 62.7292 260.019 64.0663 261.232 65.4961C262.545 66.8239 263.759 68.2464 264.864 69.7521V69.7521Z" fill="#455A64"/>
<path d="M269.768 177.433C269.406 177.433 269.048 177.361 268.713 177.223C268.379 177.084 268.075 176.88 267.819 176.624C267.564 176.368 267.361 176.063 267.223 175.729C267.085 175.394 267.015 175.035 267.016 174.673V155.713C267.016 154.983 267.306 154.283 267.822 153.767C268.338 153.251 269.038 152.961 269.768 152.961C270.499 152.961 271.2 153.251 271.717 153.766C272.234 154.282 272.526 154.982 272.528 155.713V174.673C272.528 175.405 272.237 176.107 271.72 176.625C271.202 177.142 270.5 177.433 269.768 177.433V177.433Z" fill="#263238"/>
<path d="M270.888 171.424C270.893 171.258 270.854 171.093 270.774 170.947C270.693 170.801 270.575 170.68 270.432 170.595C270.289 170.511 270.125 170.466 269.959 170.467C269.792 170.467 269.629 170.512 269.486 170.597C269.343 170.683 269.226 170.805 269.146 170.951C269.066 171.097 269.027 171.262 269.033 171.428C269.039 171.594 269.09 171.756 269.18 171.896C269.27 172.036 269.396 172.149 269.544 172.224V173.304C269.544 173.414 269.588 173.52 269.666 173.598C269.744 173.676 269.85 173.72 269.96 173.72V173.72C270.071 173.72 270.176 173.676 270.254 173.598C270.332 173.52 270.376 173.414 270.376 173.304V172.224C270.526 172.15 270.653 172.036 270.743 171.895C270.834 171.754 270.884 171.591 270.888 171.424V171.424Z" fill="#455A64"/>
<path d="M283.4 164.127H271.2C271.008 164.127 270.818 164.089 270.64 164.016C270.462 163.942 270.301 163.834 270.165 163.698C270.029 163.562 269.921 163.401 269.848 163.223C269.774 163.046 269.736 162.855 269.736 162.663V162.663C269.736 162.275 269.891 161.903 270.165 161.628C270.44 161.353 270.812 161.199 271.2 161.199H283.44C283.633 161.199 283.823 161.237 284.001 161.311C284.178 161.384 284.34 161.492 284.476 161.628C284.611 161.764 284.719 161.925 284.793 162.103C284.866 162.281 284.904 162.471 284.904 162.663C284.904 162.859 284.865 163.053 284.789 163.233C284.713 163.413 284.602 163.576 284.461 163.713C284.321 163.849 284.155 163.956 283.973 164.028C283.791 164.099 283.596 164.133 283.4 164.127V164.127Z" fill="#263238"/>
<path d="M275.2 164.217C274.635 164.315 274.062 164.366 273.488 164.369C272.859 164.41 272.227 164.396 271.6 164.329C271.187 164.317 270.782 164.21 270.417 164.016C270.051 163.822 269.736 163.545 269.496 163.209C269.383 163.007 269.32 162.782 269.31 162.551C269.3 162.321 269.345 162.091 269.44 161.881C269.535 161.672 269.695 161.501 269.896 161.393C270.064 161.299 270.241 161.224 270.424 161.169C271.043 160.994 271.687 160.924 272.328 160.961C272.906 160.942 273.484 160.996 274.048 161.121C273.482 161.228 272.905 161.274 272.328 161.257C271.726 161.26 271.128 161.352 270.552 161.529C270.224 161.649 269.92 161.777 269.808 162.057C269.744 162.209 269.716 162.374 269.726 162.539C269.735 162.704 269.783 162.865 269.864 163.009C270.072 163.289 270.341 163.518 270.649 163.68C270.958 163.842 271.3 163.933 271.648 163.945C272.255 164.032 272.867 164.078 273.48 164.081C274.057 164.038 274.637 164.084 275.2 164.217V164.217Z" fill="#455A64"/>
<path opacity="0.3" d="M344.448 61.5195H264.864H257.288V69.5915V252.816H264.864V69.5915H344.448V252.816H352.664V69.5915V61.5195H344.448Z" fill="black"/>
<path d="M344.448 252.112C344.448 252.112 344.448 251.8 344.448 251.2C344.448 250.6 344.448 249.696 344.448 248.528C344.448 246.128 344.448 242.696 344.448 238.2C344.448 229.2 344.408 216.136 344.384 199.8C344.384 167.168 344.344 121.584 344.312 69.7195L344.52 69.9275H264.8L265.008 69.7195C265.008 121.256 264.952 166.52 264.936 198.896C264.936 215.072 264.888 228.04 264.872 236.968C264.872 241.416 264.872 244.864 264.872 247.208C264.872 248.368 264.872 249.248 264.872 249.856C264.872 250.464 264.872 250.752 264.872 250.752C264.872 250.752 264.872 250.448 264.872 249.856C264.872 249.264 264.872 248.368 264.872 247.208C264.872 244.864 264.872 241.416 264.832 236.968C264.832 228.04 264.832 215.072 264.768 198.896C264.768 166.512 264.728 121.296 264.704 69.7195V69.5195H344.704V69.7195C344.704 121.584 344.656 167.168 344.632 199.8C344.632 216.104 344.592 229.168 344.576 238.2C344.576 242.696 344.576 246.2 344.576 248.528C344.576 249.696 344.576 250.592 344.576 251.2C344.576 251.808 344.448 252.112 344.448 252.112Z" fill="#263238"/>
<path d="M141.944 69.5352H60.0723V252.759H141.944V69.5352Z" fill="#407BFF"/>
<path d="M141.944 61.4629H62.3602H54.7842V69.5349V252.759H62.3602V69.5349H141.944V252.759H150.168V69.5349V61.4629H141.944Z" fill="#407BFF"/>
<path d="M150.168 61.4629C148.879 62.8261 147.517 64.1186 146.088 65.3349C144.944 66.3829 143.92 67.3349 143.208 68.0549C142.856 68.4149 142.576 68.7109 142.408 68.9269C142.24 69.1429 142.2 69.2869 142.168 69.2869C142.136 69.2869 142.12 69.0949 142.272 68.8469C142.476 68.4913 142.717 68.1587 142.992 67.8549C143.875 66.8568 144.815 65.9111 145.808 65.0229C146.952 63.9989 148 63.0629 148.8 62.3989C149.216 62.0319 149.675 61.7175 150.168 61.4629V61.4629Z" fill="#455A64"/>
<path d="M62.4002 69.7034C60.9916 68.4688 59.676 67.1318 58.4642 65.7034C57.1486 64.3727 55.932 62.9476 54.8242 61.4395C56.2366 62.6728 57.5549 64.0098 58.7682 65.4395C60.0855 66.7665 61.2996 68.1919 62.4002 69.7034V69.7034Z" fill="#455A64"/>
<path d="M67.2637 177.376C66.5338 177.376 65.8339 177.086 65.3178 176.57C64.8017 176.054 64.5117 175.354 64.5117 174.624V155.664C64.5117 154.934 64.8014 154.233 65.3173 153.716C65.8331 153.198 66.5331 152.906 67.2637 152.904V152.904C67.9957 152.904 68.6977 153.195 69.2153 153.713C69.7329 154.23 70.0237 154.932 70.0237 155.664V174.624C70.0237 174.986 69.9523 175.345 69.8135 175.679C69.6747 176.014 69.4712 176.317 69.2149 176.573C68.9585 176.829 68.6541 177.031 68.3193 177.169C67.9845 177.307 67.6258 177.377 67.2637 177.376Z" fill="#263238"/>
<path d="M68.3839 171.367C68.3891 171.201 68.3495 171.036 68.2693 170.891C68.189 170.745 68.071 170.623 67.9276 170.539C67.7843 170.454 67.6208 170.41 67.4544 170.41C67.2879 170.411 67.1247 170.456 66.9817 170.541C66.8386 170.626 66.7212 170.748 66.6415 170.894C66.5619 171.04 66.523 171.205 66.5289 171.371C66.5349 171.538 66.5854 171.699 66.6753 171.839C66.7652 171.979 66.8911 172.093 67.0399 172.167V173.247C67.0399 173.358 67.0837 173.464 67.1617 173.542C67.2397 173.62 67.3455 173.663 67.4559 173.663V173.663C67.5662 173.663 67.672 173.62 67.75 173.542C67.828 173.464 67.8718 173.358 67.8718 173.247V172.167C68.0219 172.093 68.1489 171.98 68.2391 171.839C68.3293 171.698 68.3794 171.535 68.3839 171.367V171.367Z" fill="#455A64"/>
<path d="M80.8962 164.072H68.6562C68.27 164.072 67.8997 163.919 67.6266 163.646C67.3536 163.373 67.2002 163.002 67.2002 162.616V162.616C67.2002 162.228 67.3544 161.856 67.629 161.581C67.9035 161.307 68.2759 161.152 68.6642 161.152H80.9042C81.2925 161.152 81.6649 161.307 81.9394 161.581C82.214 161.856 82.3682 162.228 82.3682 162.616V162.616C82.3682 162.809 82.33 163 82.2559 163.177C82.1817 163.355 82.073 163.516 81.9361 163.652C81.7992 163.787 81.6368 163.894 81.4583 163.966C81.2798 164.038 81.0888 164.074 80.8962 164.072V164.072Z" fill="#263238"/>
<path d="M72.7042 164.16C72.1404 164.271 71.5668 164.324 70.9922 164.32C70.3627 164.358 69.731 164.342 69.1042 164.272C68.6904 164.263 68.2845 164.157 67.9191 163.962C67.5537 163.768 67.239 163.49 67.0002 163.152C66.8893 162.951 66.8265 162.728 66.8168 162.499C66.807 162.27 66.8507 162.041 66.9442 161.832C67.0404 161.623 67.1999 161.449 67.4002 161.336C67.5698 161.241 67.7496 161.166 67.9362 161.112C68.5522 160.938 69.1931 160.867 69.8322 160.904C70.4106 160.88 70.9895 160.936 71.5522 161.072C70.9849 161.174 70.4084 161.217 69.8322 161.2C69.2298 161.207 68.6316 161.301 68.0562 161.48C67.8941 161.498 67.7394 161.558 67.6068 161.653C67.4743 161.748 67.3684 161.875 67.2994 162.023C67.2303 162.171 67.2003 162.334 67.2124 162.497C67.2245 162.659 67.2781 162.816 67.3682 162.952C67.5801 163.23 67.8502 163.459 68.1598 163.622C68.4693 163.785 68.8108 163.879 69.1602 163.896C69.7649 163.978 70.3741 164.02 70.9842 164.024C71.5612 163.98 72.1414 164.026 72.7042 164.16V164.16Z" fill="#455A64"/>
<path opacity="0.3" d="M141.944 61.4629H62.3602H54.7842V69.5349V252.759H62.3602V69.5349H141.944V252.759H150.168V69.5349V61.4629H141.944Z" fill="black"/>
<path d="M141.944 252.056C141.944 252.056 141.944 251.752 141.944 251.144C141.944 250.536 141.944 249.648 141.944 248.472C141.944 246.112 141.944 242.64 141.944 238.152C141.944 229.152 141.904 216.08 141.88 199.752C141.88 167.12 141.88 121.536 141.808 69.6801L142.016 69.8801H62.3205L62.5285 69.6801C62.5285 121.216 62.4725 166.48 62.4565 198.848C62.4005 215.056 62.4005 228 62.4005 236.944C62.4005 241.4 62.4005 244.84 62.4005 247.184C62.4005 248.344 62.4005 249.232 62.4005 249.832C62.4005 250.432 62.4005 250.736 62.4005 250.736C62.4005 250.736 62.4005 250.432 62.4005 249.832C62.4005 249.232 62.4005 248.344 62.4005 247.184C62.4005 244.84 62.4005 241.4 62.4005 236.944C62.4005 228.016 62.4005 215.056 62.3445 198.872C62.3445 166.496 62.2965 121.272 62.2725 69.7041V69.4961H142.272V69.7041C142.272 121.56 142.224 167.144 142.208 199.776C142.208 216.08 142.16 229.152 142.144 238.176C142.144 242.664 142.144 246.136 142.104 248.496C142.104 249.672 142.104 250.56 142.104 251.168C142.104 251.776 141.944 252.056 141.944 252.056Z" fill="#263238"/>
<path d="M375.2 252.743C375.2 252.855 297.984 252.951 202.752 252.951C107.52 252.951 30.2881 252.855 30.2881 252.743C30.2881 252.631 107.488 252.535 202.752 252.535C298.016 252.535 375.2 252.623 375.2 252.743Z" fill="#263238"/>
</svg>
