<svg width="539" height="478" viewBox="0 0 539 478" fill="none" xmlns="http://www.w3.org/2000/svg">
<path d="M291.338 15.043H297.335C319.997 15.0485 341.729 24.0548 357.751 40.0811C373.773 56.1074 382.774 77.8415 382.774 100.503V263.539H205.852V100.503C205.852 89.2784 208.063 78.1633 212.359 67.7931C216.656 57.4229 222.953 48.0006 230.892 40.0645C238.83 32.1285 248.254 25.834 258.626 21.5408C268.997 17.2475 280.113 15.0396 291.338 15.043Z" fill="#FFB494"/>
<path d="M326.437 165.397V266.076H247.93V165.397H326.437ZM328.517 163.316H245.85V268.156H328.517V163.316Z" fill="#CA7358"/>
<path d="M328.517 163.312H245.85V184.986H328.517V163.312Z" fill="#CA7358"/>
<path d="M245.407 110.955V266.58H198.155V110.955H245.407ZM247.488 108.875H196.074V268.66H247.488V108.875Z" fill="#CA7358"/>
<path d="M391.33 79.4516V266.075H328.957V79.4516H391.33ZM393.41 77.3711H326.877V268.155H393.41V77.3711Z" fill="#CA7358"/>
<path d="M353.923 102.828H354.521C356.781 102.828 358.948 103.726 360.546 105.323C362.143 106.921 363.041 109.088 363.041 111.348V130.55H345.398V111.348C345.398 110.228 345.619 109.12 346.047 108.086C346.476 107.052 347.104 106.113 347.896 105.322C348.687 104.53 349.627 103.903 350.661 103.475C351.696 103.047 352.804 102.827 353.923 102.828Z" fill="#CA7358"/>
<path d="M343.387 117.945H365.06" stroke="#FFB494" stroke-width="4" stroke-linecap="round" stroke-linejoin="round"/>
<path d="M353.923 152.563H354.521C356.781 152.563 358.948 153.46 360.546 155.058C362.143 156.656 363.041 158.823 363.041 161.082V180.285H345.398V161.082C345.398 159.963 345.619 158.855 346.047 157.821C346.476 156.787 347.104 155.847 347.896 155.056C348.687 154.265 349.627 153.637 350.661 153.21C351.696 152.782 352.804 152.562 353.923 152.563Z" fill="#F5EBDD"/>
<path d="M343.387 167.68H365.06" stroke="#FFB494" stroke-width="4" stroke-linecap="round" stroke-linejoin="round"/>
<path d="M353.923 202.293H354.521C356.781 202.293 358.948 203.191 360.546 204.788C362.143 206.386 363.041 208.553 363.041 210.812V230.015H345.398V210.812C345.398 208.553 346.296 206.386 347.894 204.788C349.491 203.191 351.658 202.293 353.918 202.293H353.923Z" fill="#F5EBDD"/>
<path d="M343.387 217.414H365.06" stroke="#FFB494" stroke-width="4" stroke-linecap="round" stroke-linejoin="round"/>
<path d="M353.923 252.027H354.521C356.781 252.027 358.948 252.925 360.546 254.523C362.143 256.12 363.041 258.287 363.041 260.547V278.189H345.398V260.547C345.398 259.428 345.619 258.319 346.047 257.285C346.476 256.251 347.104 255.312 347.896 254.521C348.687 253.73 349.627 253.102 350.661 252.674C351.696 252.247 352.804 252.027 353.923 252.027Z" fill="#30242A"/>
<path d="M393.41 77.3711H326.877V85.6878H393.41V77.3711Z" fill="#CA7358"/>
<path d="M247.488 104.844H196.074V113.16H247.488V104.844Z" fill="#CA7358"/>
<path d="M278.361 204.645H260.719V227.327H278.361V204.645Z" fill="#F5EBDD"/>
<path d="M258.701 214.727H280.38" stroke="#FFB494" stroke-width="4" stroke-linecap="round" stroke-linejoin="round"/>
<path d="M269.541 228.338V214.727" stroke="#FFB494" stroke-width="4" stroke-linecap="round" stroke-linejoin="round"/>
<path d="M278.361 245.609H260.719V268.292H278.361V245.609Z" fill="#CA7358"/>
<path d="M258.701 255.688H280.38" stroke="#FFB494" stroke-width="4" stroke-linecap="round" stroke-linejoin="round"/>
<path d="M269.541 269.299V255.688" stroke="#FFB494" stroke-width="4" stroke-linecap="round" stroke-linejoin="round"/>
<path d="M311.629 204.645H293.986V227.327H311.629V204.645Z" fill="#30242A"/>
<path d="M291.973 214.727H313.646" stroke="#FFB494" stroke-width="4" stroke-linecap="round" stroke-linejoin="round"/>
<path d="M302.807 228.338V214.727" stroke="#FFB494" stroke-width="4" stroke-linecap="round" stroke-linejoin="round"/>
<path d="M311.629 245.609H293.986V268.292H311.629V245.609Z" fill="#F5EBDD"/>
<path d="M291.973 255.688H313.646" stroke="#FFB494" stroke-width="4" stroke-linecap="round" stroke-linejoin="round"/>
<path d="M302.807 269.299V255.688" stroke="#FFB494" stroke-width="4" stroke-linecap="round" stroke-linejoin="round"/>
<path d="M257.568 76.6201C264.807 76.6201 270.675 70.7519 270.675 63.5132C270.675 56.2744 264.807 50.4062 257.568 50.4062C250.329 50.4062 244.461 56.2744 244.461 63.5132C244.461 70.7519 250.329 76.6201 257.568 76.6201Z" fill="#F5EBDD"/>
<path d="M405.457 263.621H183.17V278.741H405.457V263.621Z" fill="#F5EBDD"/>
<path d="M297.825 0H290.819C235.551 0 190.748 44.8029 190.748 100.07V278.741H397.916V100.07C397.9 44.8029 353.092 0 297.825 0ZM286.756 263.621H205.852V137.607H286.756V263.621ZM286.756 122.488H205.852V100.585C205.853 78.7087 214.243 57.6652 229.294 41.7888C244.345 25.9125 264.911 16.4122 286.756 15.2446V122.488ZM382.775 263.621H301.876V137.607H382.775V263.621ZM382.775 122.488H301.876V15.2446C323.721 16.4123 344.287 25.9127 359.337 41.7892C374.387 57.6657 382.776 78.7092 382.775 100.585V122.488Z" fill="#F5EBDD"/>
<path d="M20.1597 477.843C31.2936 477.843 40.3195 468.817 40.3195 457.683C40.3195 446.549 31.2936 437.523 20.1597 437.523C9.02582 437.523 0 446.549 0 457.683C0 468.817 9.02582 477.843 20.1597 477.843Z" fill="#FFB494"/>
<path d="M469.765 293.346C469.768 293.902 469.655 294.453 469.432 294.963C467.872 298.516 461.204 299.041 454.572 296.134C449.017 293.705 445.241 289.637 445.08 286.293V330.649H469.78V293.346H469.765Z" fill="#FFBE21"/>
<path d="M460.267 283.281C453.635 280.374 446.978 280.899 445.407 284.452C445.154 285.035 445.042 285.669 445.079 286.303C445.24 289.647 449.017 293.715 454.571 296.144C461.203 299.051 467.86 298.526 469.431 294.973C469.654 294.463 469.767 293.912 469.764 293.356C469.78 289.97 465.957 285.767 460.267 283.281Z" fill="#A15842"/>
<path d="M488.702 307.977C488.54 311.321 484.764 315.388 479.21 317.822C472.573 320.725 465.921 320.205 464.345 316.647C464.124 316.138 464.011 315.589 464.012 315.035V330.638H488.707V307.977H488.702Z" fill="#FFBE21"/>
<path d="M488.374 306.123C486.814 302.571 480.146 302.046 473.509 304.953C467.824 307.445 464.001 311.642 464.012 315.033C464.011 315.588 464.124 316.136 464.345 316.645C465.905 320.203 472.573 320.723 479.21 317.821C484.764 315.387 488.54 311.319 488.702 307.975C488.739 307.341 488.627 306.706 488.374 306.123Z" fill="#A15842"/>
<path d="M464.734 330.659V315.539" stroke="#A15842" stroke-width="4" stroke-miterlimit="10" stroke-linecap="round"/>
<path d="M457.428 280V288.572" stroke="#30242A" stroke-width="4" stroke-linecap="round" stroke-linejoin="round"/>
<path d="M476.359 301.68V310.751" stroke="#30242A" stroke-width="4" stroke-linecap="round" stroke-linejoin="round"/>
<path d="M351.673 477.987C351.042 477.988 350.42 477.839 349.859 477.552C349.297 477.266 348.812 476.85 348.442 476.339C348.072 475.828 347.829 475.237 347.733 474.614C347.636 473.991 347.689 473.354 347.886 472.755L360.369 434.714C360.633 433.916 361.141 433.222 361.821 432.73C362.502 432.238 363.321 431.973 364.161 431.973H372.909C373.604 431.972 374.287 432.154 374.89 432.499C375.494 432.844 375.996 433.341 376.348 433.94C376.7 434.54 376.888 435.221 376.896 435.916C376.903 436.611 376.728 437.295 376.389 437.902L355.137 475.943C354.793 476.561 354.291 477.076 353.682 477.435C353.073 477.795 352.38 477.985 351.673 477.987Z" fill="#30242A"/>
<path d="M518.899 477.987C519.53 477.988 520.151 477.839 520.713 477.552C521.274 477.266 521.76 476.85 522.13 476.339C522.499 475.828 522.742 475.237 522.839 474.614C522.936 473.991 522.883 473.354 522.686 472.755L510.203 434.714C509.94 433.917 509.432 433.223 508.752 432.731C508.073 432.239 507.255 431.974 506.416 431.973H497.663C496.968 431.974 496.286 432.156 495.684 432.502C495.082 432.847 494.58 433.344 494.228 433.943C493.877 434.542 493.688 435.222 493.68 435.916C493.672 436.611 493.845 437.295 494.183 437.902L515.435 475.943C515.78 476.56 516.282 477.075 516.891 477.434C517.499 477.793 518.192 477.984 518.899 477.987Z" fill="#30242A"/>
<path d="M538.2 330.66H333.051V448.103H538.2V330.66Z" fill="#A15842"/>
<path d="M523.077 345.777H348.172V432.98H523.077V345.777Z" fill="#FFB494"/>
<path d="M435.438 344.27V434.494" stroke="#A15842" stroke-width="4" stroke-miterlimit="10"/>
<path d="M456.048 394.666C458.967 394.666 461.332 392.301 461.332 389.382C461.332 386.464 458.967 384.098 456.048 384.098C453.13 384.098 450.764 386.464 450.764 389.382C450.764 392.301 453.13 394.666 456.048 394.666Z" fill="#30242A"/>
<path d="M415.198 394.666C418.117 394.666 420.483 392.301 420.483 389.382C420.483 386.464 418.117 384.098 415.198 384.098C412.28 384.098 409.914 386.464 409.914 389.382C409.914 392.301 412.28 394.666 415.198 394.666Z" fill="#30242A"/>
<path d="M81.0957 429.098V437.664H155.192V429.098H81.0957Z" fill="#A15842"/>
<path d="M167.4 473.557L149.045 363.422H160.269C161.472 363.422 162.625 362.945 163.476 362.094C164.326 361.243 164.804 360.09 164.804 358.887C164.804 357.684 164.326 356.531 163.476 355.68C162.625 354.829 161.472 354.352 160.269 354.352H76.1086C74.9058 354.352 73.7521 354.829 72.9016 355.68C72.051 356.531 71.5732 357.684 71.5732 358.887C71.5732 360.09 72.051 361.243 72.9016 362.094C73.7521 362.945 74.9058 363.422 76.1086 363.422H87.2443L68.8894 473.557C68.7988 474.102 68.828 474.661 68.975 475.194C69.122 475.727 69.3832 476.221 69.7406 476.643C70.0979 477.064 70.5428 477.403 71.0443 477.636C71.5458 477.868 72.0919 477.988 72.6446 477.989C73.5135 477.989 74.3565 477.692 75.0331 477.147C75.7097 476.602 76.1792 475.842 76.3635 474.993L100.684 363.422H135.605L159.92 474.993C160.106 475.842 160.577 476.602 161.255 477.147C161.932 477.692 162.775 477.989 163.644 477.989C164.197 477.988 164.743 477.868 165.245 477.636C165.746 477.403 166.191 477.064 166.548 476.643C166.906 476.221 167.167 475.727 167.314 475.194C167.461 474.661 167.49 474.102 167.4 473.557Z" fill="#FFBE21"/>
<path d="M160.27 363.422C161.473 363.422 162.626 362.945 163.477 362.094C164.327 361.243 164.805 360.09 164.805 358.887C164.805 357.684 164.327 356.531 163.477 355.68C162.626 354.829 161.473 354.352 160.27 354.352H76.1096C74.9068 354.352 73.7532 354.829 72.9026 355.68C72.052 356.531 71.5742 357.684 71.5742 358.887C71.5742 360.09 72.052 361.243 72.9026 362.094C73.7532 362.945 74.9068 363.422 76.1096 363.422H87.2453V363.563H100.675L100.706 363.422H135.627L135.658 363.563H149.087V363.422H160.27Z" fill="#A15842"/>
<path d="M165.256 428.951H218.828C219.494 417.576 221.871 402.487 223.842 382.104C225.595 364.03 227.103 348.858 227.005 336.333C226.838 315.456 173.432 340.723 173.432 340.723C173.432 345.285 174.353 349.664 174.379 353.908C174.442 364.935 168.855 374.318 164.866 387.617C158.817 407.782 163.857 428.951 163.857 428.951H165.256Z" fill="#4856DF"/>
<path d="M221.684 472.296H174.785C174.134 472.504 173.579 472.937 173.219 473.518C172.859 474.099 172.718 474.789 172.823 475.464C172.927 476.139 173.269 476.755 173.787 477.2C174.305 477.646 174.965 477.891 175.648 477.893L244.663 477.987C245.271 471.277 241.459 466.227 230.703 458.742C224.565 464.063 221.684 472.296 221.684 472.296Z" fill="#3EC1F3"/>
<path d="M228.285 457.114C226.057 455.673 224.133 453.811 222.621 451.632C218.98 446.29 218.21 439.097 218.808 428.949H172.383C172.473 436.536 173.02 444.111 174.021 451.632C175.207 460.146 176.809 466.002 178.094 472.161H175.654C175.36 472.16 175.066 472.206 174.786 472.296H221.685C221.685 472.296 224.566 464.062 230.704 458.773C229.934 458.228 229.128 457.675 228.285 457.114Z" fill="#A15842"/>
<path d="M219.371 419.837C216.499 414.122 214.542 407.991 213.571 401.669C210.175 378.072 212.188 365.974 202.612 355.379H174.594" stroke="#30242A" stroke-width="4" stroke-linecap="round" stroke-linejoin="round"/>
<path d="M236.84 430.964L236.892 431.089L278.252 411.72C275.032 402.087 271.667 389.272 266.138 372.498C260.958 356.801 257.53 345.072 254.285 335.996C249.746 339.265 244.148 340.72 238.592 340.075C233.035 339.429 227.921 336.73 224.252 332.507C220.584 328.284 218.626 322.842 218.764 317.25C218.902 311.658 221.125 306.319 224.997 302.282C202.918 292.306 124.5 285.8 124.5 285.8L80.139 279.246C77.7985 283.116 75.8065 289.248 74.7246 296.41H90.2241V312.986C90.2158 316.338 88.8793 319.55 86.5073 321.918C84.1353 324.286 80.9214 325.617 77.5696 325.62H76.6854C76.4774 325.62 76.2693 325.62 76.0665 325.62C80.3003 341.223 91.1915 354.367 113.421 354.367H203.141C212.717 364.951 210.704 377.049 214.1 400.657C216.878 419.969 230.042 434.204 230.042 434.204L236.84 430.964Z" fill="#4856DF"/>
<path d="M299.847 453.146L258.654 471.829C257.956 472.316 257.467 473.048 257.284 473.879C257.101 474.71 257.238 475.58 257.666 476.315C258.094 477.051 258.783 477.598 259.596 477.849C260.409 478.1 261.287 478.036 262.055 477.67L324.563 448.543C322.113 441.782 315.815 439.181 300.892 436.581L300.253 436.461C299.016 441.941 298.878 447.612 299.847 453.146Z" fill="#3EC1F3"/>
<path d="M300.253 436.439C295.957 435.617 292.587 434.187 289.804 432.023C284.676 428.028 281.534 421.527 278.252 411.738L236.893 431.107C240.398 439.164 245.318 447.637 250.005 455.033C254.098 461.472 258.004 467.084 260.631 470.844L259.138 471.567C258.969 471.65 258.807 471.748 258.654 471.859L299.848 453.176C298.872 447.625 299.01 441.936 300.253 436.439Z" fill="#A15842"/>
<path d="M241.189 340.234C245.892 340.237 250.476 338.753 254.285 335.995C247.831 317.854 242.234 310.296 225.309 302.422L224.997 302.281C221.955 305.454 219.912 309.45 219.122 313.774C218.333 318.098 218.832 322.559 220.557 326.602C222.282 330.645 225.158 334.091 228.826 336.513C232.494 338.935 236.793 340.225 241.189 340.224V340.234Z" fill="#3EC1F3"/>
<path d="M77.5698 325.619C80.9278 325.619 84.1484 324.285 86.5233 321.911C88.8983 319.537 90.2332 316.317 90.2346 312.959V296.383H74.7351C73.3672 305.376 73.4452 315.955 76.0666 325.603C76.2695 325.603 76.4775 325.603 76.6856 325.603L77.5698 325.619Z" fill="#3EC1F3"/>
<path d="M202.377 355.609H217.497" stroke="#30242A" stroke-width="4" stroke-linecap="round" stroke-linejoin="round"/>
<path d="M267.414 195.32C267.414 195.32 240.196 164.072 208.037 152.738" stroke="#30242A" stroke-width="4" stroke-linecap="round" stroke-linejoin="round"/>
<path d="M182.042 164.946C181.053 162.558 184.351 158.814 189.843 155.651C182.406 153.8 177.121 150.351 177.652 147.454C178.182 144.557 184.341 143.194 191.955 144.089C187.95 139.2 186.187 134.529 187.955 132.646C190.208 130.238 197.354 133.276 203.913 139.408C209.634 144.765 213.015 150.726 212.297 153.758C211.896 156.847 206.628 161.227 199.388 164.223C191.061 167.676 183.306 167.999 182.042 164.946Z" fill="#3546AB"/>
<path d="M212.566 163.463C217.811 163.463 222.063 159.211 222.063 153.966C222.063 148.721 217.811 144.469 212.566 144.469C207.32 144.469 203.068 148.721 203.068 153.966C203.068 159.211 207.32 163.463 212.566 163.463Z" fill="#30242A"/>
<path d="M232.578 166.195C235.187 165.226 234.001 155.55 229.929 144.581C225.856 133.613 220.44 125.507 217.83 126.476C215.221 127.445 216.407 137.122 220.479 148.09C224.552 159.058 229.969 167.164 232.578 166.195Z" fill="#30242A"/>
<path d="M232.113 168.102C232.113 168.102 236.149 179.19 234.131 190.784" stroke="#30242A" stroke-width="4" stroke-linecap="round" stroke-linejoin="round"/>
<path d="M158.51 123.934C149.907 133.613 140.764 135.751 140.764 135.751C134.85 129.301 124.12 129.301 122.482 138.44C120.698 148.566 133.222 151.354 133.222 151.354C133.222 151.354 136.379 164.419 131.537 170.874C127.261 176.595 121.769 177.537 110.514 178.796C125.181 203.579 140.16 201.623 145.148 201.623C157.111 201.623 160.481 187.742 161.423 180.585C158.699 179.635 155.92 178.852 153.101 178.239L151.488 168.565C151.488 168.565 159.015 171.249 165.469 167.488C171.924 163.728 173.536 156.732 171.383 145.981C170.109 139.61 170.155 131.73 169.063 124.688C164.803 125.411 158.51 123.934 158.51 123.934Z" fill="#A15842"/>
<path d="M247.993 177.931C245.709 168.792 227.833 163.836 227.833 163.836C227.833 163.836 228.904 143.322 224.301 142.667C220.775 142.147 217.243 150.734 214.222 167.367C210.841 185.956 212.708 220.289 212.708 220.289C212.708 220.289 208.968 216.893 203.663 212.165C203.133 213.236 202.32 214.142 201.311 214.784C200.302 215.426 199.137 215.779 197.942 215.806C198.696 216.762 199.169 217.909 199.306 219.12C199.444 220.33 199.241 221.554 198.721 222.655C198.2 223.756 197.383 224.69 196.36 225.352C195.338 226.013 194.151 226.377 192.933 226.4C193.688 227.357 194.16 228.504 194.298 229.714C194.435 230.924 194.232 232.149 193.712 233.25C193.191 234.351 192.374 235.285 191.351 235.947C190.329 236.608 189.142 236.971 187.924 236.995C188.716 237.999 189.196 239.213 189.306 240.486C189.415 241.76 189.149 243.038 188.541 244.162C187.932 245.286 187.008 246.207 185.881 246.812C184.755 247.417 183.476 247.678 182.203 247.564C193.245 254.752 208.256 263.136 218.258 263.136C270.675 263.115 249.506 183.98 247.993 177.931Z" fill="#A15842"/>
<path d="M188.682 243.827C189.202 242.726 189.405 241.502 189.268 240.292C189.131 239.082 188.66 237.934 187.907 236.977C189.125 236.953 190.312 236.59 191.334 235.928C192.357 235.267 193.174 234.333 193.695 233.232C194.215 232.131 194.418 230.906 194.28 229.696C194.143 228.486 193.67 227.338 192.916 226.382C194.134 226.359 195.32 225.995 196.343 225.334C197.365 224.672 198.183 223.738 198.703 222.637C199.224 221.536 199.427 220.312 199.289 219.101C199.152 217.891 198.679 216.744 197.925 215.788C199.12 215.761 200.285 215.408 201.294 214.766C202.302 214.124 203.116 213.218 203.646 212.147C194.502 204.002 180.714 191.925 173.375 186.5C169.823 183.873 165.298 181.928 161.412 180.586C160.497 187.764 157.148 201.625 145.185 201.625C140.218 201.625 125.218 203.58 110.55 178.797L105.838 179.317C89.6103 181.122 82.2247 189.855 77.8765 200.288C75.1875 206.743 73.0342 218.57 73.0342 218.57C71.3659 229.414 70.5071 240.366 70.4648 251.338L91.566 270.868L148.217 272.267C152.753 265.578 161.074 253.226 163.821 248.487C167.347 242.438 167.852 237.398 167.852 237.398C167.852 237.398 173.906 242.131 182.202 247.536C183.531 247.652 184.864 247.359 186.023 246.696C187.181 246.034 188.109 245.032 188.682 243.827Z" fill="#FFBE21"/>
<path d="M164.43 112.1C157.981 104.039 140.234 98.6607 126.254 108.876C112.273 119.091 113.35 135.761 113.885 142.215C113.885 142.215 98.8331 137.373 88.0771 148.665C84.9642 151.893 82.6972 155.84 81.4777 160.156C80.2581 164.471 80.1238 169.021 81.0867 173.401C81.0867 173.401 61.2807 172.845 57.4266 191.148C55.2369 201.55 59.3251 208.473 63.8605 212.759C66.5205 215.255 69.6281 217.226 73.0197 218.568C73.0197 218.568 75.173 206.741 77.862 200.286C82.2102 189.853 89.5959 181.12 105.823 179.315L110.536 178.795C121.791 177.536 127.284 176.579 131.559 170.874C136.396 164.419 133.223 151.354 133.223 151.354C133.223 151.354 120.683 148.566 122.467 138.45C124.085 129.311 134.836 129.311 140.749 135.761C140.749 135.761 149.893 133.613 158.496 123.933C158.496 123.933 164.789 125.41 169.08 124.687C168.347 119.84 167.057 115.393 164.43 112.1Z" fill="#30242A"/>
<path d="M249.11 185.116C247.586 184.414 246.676 182.646 246.936 179.265C246.936 179.265 243.784 183.218 240.429 181.46C237.075 179.702 238.417 175.915 238.417 175.915C238.417 175.915 235.39 177.933 232.872 175.395C230.589 173.112 232.352 169.346 232.352 169.346C232.352 169.346 229.002 170.714 227.817 168.337C226.324 165.362 228.139 162.247 230.105 159.859" stroke="#30242A" stroke-width="8" stroke-linecap="round" stroke-linejoin="round"/>
<path d="M80.1289 173.84C80.6988 176.535 81.7261 179.112 83.1664 181.46" stroke="black" stroke-width="4" stroke-miterlimit="10" stroke-linecap="round"/>
<path d="M211.697 220.941L212.961 236.654" stroke="#30242A" stroke-width="4" stroke-linecap="round" stroke-linejoin="round"/>
<path d="M166.084 220.008C169.376 225.937 169.335 233.052 168.908 237.27" stroke="#30242A" stroke-width="4" stroke-linecap="round" stroke-linejoin="round"/>
<path d="M136.344 236.652L120.215 237.157" stroke="#30242A" stroke-width="4" stroke-linecap="round" stroke-linejoin="round"/>
<path d="M151.214 169.557C148.96 168.672 146.761 167.653 144.629 166.504" stroke="#30242A" stroke-width="4" stroke-linecap="round" stroke-linejoin="round"/>
<path d="M155.244 184.485L154.365 178.914" stroke="#30242A" stroke-width="4" stroke-linecap="round" stroke-linejoin="round"/>
<path d="M112.797 142.418L113.915 151.718" stroke="black" stroke-width="4" stroke-miterlimit="10" stroke-linecap="round"/>
<path d="M166.084 153.485C164.945 154.224 161.169 154.468 159.359 151.176" stroke="#30242A" stroke-width="4" stroke-linecap="round" stroke-linejoin="round"/>
<path d="M135.839 142.896L130.799 140.379" stroke="#30242A" stroke-width="4" stroke-linecap="round" stroke-linejoin="round"/>
<path d="M159.11 140.664C158.303 141.762 154.501 143.889 151.641 141.46" stroke="#30242A" stroke-width="4" stroke-linecap="round" stroke-linejoin="round"/>
<path d="M171.358 139.081C170.756 139.209 170.135 139.217 169.53 139.105C168.925 138.992 168.348 138.761 167.832 138.426" stroke="#30242A" stroke-width="4" stroke-linecap="round" stroke-linejoin="round"/>
<path d="M164.54 140.953C165.117 142.259 165.673 143.699 165.554 144.251C165.376 144.921 164.977 145.512 164.42 145.925" stroke="#30242A" stroke-width="4" stroke-linecap="round" stroke-linejoin="round"/>
<path d="M133.078 148.989L126.196 155.48C125.824 155.831 125.548 156.272 125.394 156.761C125.24 157.249 125.214 157.769 125.319 158.27C125.423 158.771 125.654 159.238 125.99 159.624C126.326 160.011 126.755 160.305 127.237 160.478L135.371 163.365C135.855 163.536 136.374 163.58 136.879 163.493C137.385 163.406 137.859 163.19 138.258 162.867C138.656 162.544 138.964 162.124 139.154 161.648C139.343 161.171 139.407 160.654 139.34 160.146L138.086 150.783C138.013 150.239 137.792 149.726 137.446 149.299C137.101 148.872 136.645 148.548 136.128 148.363C135.611 148.178 135.053 148.138 134.515 148.249C133.977 148.359 133.48 148.615 133.078 148.989Z" fill="#F4E6D8"/>
<path d="M231.862 150.713C231.862 150.713 235.389 148.695 238.416 149.704C243.097 151.265 242.41 155.623 242.41 155.623C242.41 155.623 248.974 153.257 250.248 160.195C250.248 160.195 256.167 161.521 254.836 167.44C254.836 167.44 259.626 167.695 258.674 173.973C257.722 180.251 253.536 185.468 251.018 185.468C248.418 185.468 246.582 183.871 246.935 179.226C246.935 179.226 243.783 183.179 240.429 181.421C237.074 179.663 238.416 175.877 238.416 175.877C238.416 175.877 235.389 177.895 232.871 175.357C230.588 173.073 232.351 169.308 232.351 169.308C232.351 169.308 229.002 170.676 227.816 168.299C225.293 163.259 232.232 157.839 233.36 156.206L231.862 150.713Z" fill="#A15842"/>
<path d="M230.365 171.144C233.829 167.966 239.727 161.969 242.526 155.676" stroke="#30242A" stroke-width="4" stroke-linecap="round" stroke-linejoin="round"/>
<path d="M236.727 178.399C242.483 173.503 247.182 167.486 250.536 160.715" stroke="#30242A" stroke-width="4" stroke-linecap="round" stroke-linejoin="round"/>
<path d="M245.635 182.134C247.195 180.231 252.651 173.391 255.356 167.977" stroke="#30242A" stroke-width="4" stroke-linecap="round" stroke-linejoin="round"/>
<path d="M244.658 297.897H157.361L177.204 235.207C177.79 233.362 178.95 231.751 180.513 230.608C182.077 229.465 183.964 228.85 185.9 228.852H259.668C261.102 228.851 262.515 229.188 263.793 229.836C265.072 230.484 266.18 231.424 267.027 232.58C267.874 233.737 268.437 235.076 268.669 236.491C268.901 237.905 268.797 239.354 268.365 240.721L251.955 292.561C251.462 294.109 250.489 295.461 249.177 296.42C247.866 297.379 246.283 297.896 244.658 297.897Z" fill="#30242A"/>
<path d="M106.697 290.84C106.439 291.652 106.377 292.513 106.515 293.354C106.652 294.195 106.986 294.991 107.489 295.679C107.992 296.366 108.65 296.925 109.41 297.311C110.17 297.697 111.01 297.898 111.862 297.898H244.658C246.282 297.894 247.862 297.374 249.171 296.413C250.48 295.452 251.45 294.099 251.94 292.551L252.46 290.84H106.697Z" fill="#30242A"/>
<path d="M231.286 257.977C229.257 255.2 220.035 262.533 219.359 263.142C219.006 262.533 214.21 255.2 210.689 257.977C207.636 260.385 214.33 271.136 216.135 273.877C216.209 273.961 216.301 274.027 216.403 274.073C216.505 274.119 216.616 274.142 216.728 274.142C216.839 274.142 216.95 274.119 217.052 274.073C217.154 274.027 217.246 273.961 217.32 273.877C220.602 271.11 233.049 260.359 231.286 257.977Z" fill="#FFBE21"/>
<path d="M222.86 256.015C223.593 253.662 223.562 251.559 222.792 251.319C222.021 251.079 220.802 252.792 220.069 255.146C219.336 257.499 219.367 259.601 220.138 259.841C220.908 260.081 222.127 258.368 222.86 256.015Z" fill="#FFBE21"/>
<path d="M56.6769 241.06C57.8099 241.496 59.042 241.61 60.2358 241.388C61.4297 241.165 62.5383 240.616 63.4384 239.801C63.5451 241.015 63.9893 242.176 64.7209 243.151C65.4524 244.127 66.4421 244.878 67.5782 245.321C68.7142 245.763 69.9514 245.879 71.15 245.656C72.3485 245.432 73.4607 244.878 74.3608 244.056C74.4703 245.269 74.9162 246.427 75.6484 247.401C76.3806 248.374 77.3699 249.124 78.5051 249.565C79.6402 250.007 80.8761 250.123 82.0737 249.9C83.2712 249.678 84.3828 249.125 85.2833 248.305C85.3666 249.263 85.6603 250.19 86.1434 251.021C86.6264 251.852 87.2869 252.567 88.0778 253.113C88.8687 253.659 89.7704 254.025 90.7186 254.182C91.6669 254.34 92.6383 254.287 93.5635 254.026L101.428 232.904C104.457 224.796 105.892 216.18 105.656 207.528L104.86 179.441C104.86 179.441 86.7136 180.95 76.1292 194.057C70.6992 200.782 60.042 218.549 53.2129 237.866C53.9305 239.324 55.1654 240.463 56.6769 241.06Z" fill="#FFBE21"/>
<path d="M89.439 253.818C88.2999 253.379 87.3064 252.63 86.571 251.656C85.8356 250.681 85.3877 249.52 85.2781 248.305C84.3775 249.125 83.266 249.677 82.0684 249.9C80.8709 250.123 79.635 250.007 78.4998 249.565C77.3647 249.123 76.3753 248.374 75.6431 247.4C74.911 246.427 74.4651 245.268 74.3556 244.055C73.4555 244.878 72.3433 245.432 71.1447 245.655C69.9462 245.879 68.709 245.763 67.5729 245.32C66.4368 244.878 65.4471 244.127 64.7156 243.151C63.9841 242.176 63.5399 241.015 63.4331 239.801C62.6844 240.483 61.7877 240.981 60.8134 241.258C59.8392 241.534 58.8141 241.581 57.8189 241.394C56.8236 241.207 55.8854 240.791 55.078 240.18C54.2706 239.569 53.6161 238.778 53.166 237.871C47.2471 254.614 44.1992 272.526 49.9309 285.42C62.2681 313.189 99.2952 303.416 108.033 300.847C116.771 298.277 133.748 289.534 145.06 291.079C156.373 292.624 169.225 298.277 171.285 291.079C171.285 291.079 178.207 290.902 176.028 284.318C176.028 284.318 179.508 283.886 180.023 281.316C181.063 276.172 168.71 271.549 168.71 271.549C168.71 271.549 178.483 273.109 180.537 271.029C183.138 268.428 180.61 264.231 164.648 260.361C147.115 256.117 123.975 258.686 89.5222 264.855L93.5531 254.021C92.1961 254.402 90.7519 254.331 89.439 253.818Z" fill="#A15842"/>
<path d="M101.563 230.102L90.0527 263.701" stroke="#30242A" stroke-width="4" stroke-linecap="round" stroke-linejoin="round"/>
<path d="M171.816 271.917C166.23 269.795 156.93 266.539 149.711 265.363" stroke="#30242A" stroke-width="4" stroke-linecap="round" stroke-linejoin="round"/>
<path d="M176.173 284.046C168.996 280.816 155.285 274.954 147.91 273.852" stroke="#30242A" stroke-width="4" stroke-linecap="round" stroke-linejoin="round"/>
<path d="M89.6062 263.773C85.7365 264.398 79.6616 265.433 73.5918 266.644" stroke="#30242A" stroke-width="4" stroke-linecap="round" stroke-linejoin="round"/>
<path d="M171.071 291.785C165.688 289.044 154.344 283.593 146.371 282.074" stroke="#30242A" stroke-width="4" stroke-linecap="round" stroke-linejoin="round"/>
<path d="M412.004 225.418C412.004 225.418 407.916 234.614 397.192 234.614C386.467 234.614 382.358 225.418 382.358 225.418C382.358 225.418 352.191 294.385 381.838 330.658H412.488C442.119 294.385 412.004 225.418 412.004 225.418Z" fill="#3EC1F3"/>
<path d="M397.166 234.614C407.891 234.614 411.979 225.418 411.979 225.418H382.332C382.332 225.418 386.436 234.614 397.166 234.614Z" fill="#30242A"/>
<path d="M424.873 286.82C408.198 287.117 388.465 293.14 373.277 314.387" stroke="#F5EBDD" stroke-width="4" stroke-linecap="round" stroke-linejoin="round"/>
<path d="M370.609 269.94C381.802 267.209 402.997 264.609 423.542 269.498" stroke="#F5EBDD" stroke-width="4" stroke-linecap="round" stroke-linejoin="round"/>
<path d="M423.447 304.523C415.989 304.612 402.201 313.064 403.719 330.098" stroke="#F5EBDD" stroke-width="4" stroke-linecap="round" stroke-linejoin="round"/>
<path d="M395.289 231.554C394.977 224.143 393.005 194.688 381.303 177.41" stroke="#30242A" stroke-width="4" stroke-miterlimit="10" stroke-linecap="round"/>
<path d="M392.849 208.909C394.345 206.373 386.415 198.923 375.136 192.268C363.856 185.614 353.5 182.275 352.004 184.811C350.508 187.347 358.438 194.797 369.718 201.451C380.997 208.106 391.353 211.445 392.849 208.909Z" fill="#30242A"/>
<path d="M388.47 135.402C390.666 134.15 389.538 128.034 385.949 121.74C382.361 115.447 377.672 111.36 375.476 112.612C373.28 113.864 374.409 119.981 377.997 126.274C381.585 132.568 386.274 136.654 388.47 135.402Z" fill="#30242A"/>
<path d="M349.84 162.085C351.021 159.458 356.576 159.265 363.327 161.278C359.166 153.835 357.892 146.913 360.643 145.129C363.394 143.345 369.209 147.292 374.312 154.142C375.211 147.157 377.646 142.18 380.553 142.148C384.225 142.148 387.231 150.247 387.268 160.264C387.29 163.129 387.036 165.989 386.508 168.804C384.907 168.071 383.148 167.75 381.391 167.869C379.634 167.988 377.935 168.545 376.448 169.488C374.96 170.431 373.732 171.731 372.875 173.269C372.018 174.807 371.559 176.536 371.539 178.297C368.847 177.636 366.221 176.727 363.696 175.582C354.526 171.478 348.337 165.439 349.84 162.085Z" fill="#3546AB"/>
<path d="M376.33 169.557C377.822 168.587 379.536 168.01 381.311 167.88C383.086 167.75 384.865 168.071 386.483 168.813C385.588 173.468 383.97 176.922 382.025 178.045C380.174 179.392 376.252 179.444 371.514 178.305C371.533 176.563 371.983 174.853 372.823 173.326C373.664 171.8 374.868 170.505 376.33 169.557Z" fill="#30242A"/>
<path d="M399.189 231.11C400.625 222.924 408.099 182.786 420.062 160.078" stroke="#30242A" stroke-width="4" stroke-miterlimit="10" stroke-linecap="round"/>
<path d="M460.44 215.7C461.3 213.044 449.809 206.942 434.774 202.071C419.738 197.201 406.852 195.405 405.992 198.062C405.131 200.718 416.622 206.82 431.658 211.69C446.693 216.561 459.579 218.356 460.44 215.7Z" fill="#30242A"/>
<path d="M417.81 124.889C420.681 124.629 423.572 129.378 425.128 136.248C429.559 128.967 434.979 124.463 437.886 125.987C440.794 127.51 440.201 134.511 436.731 142.318C443.264 139.681 448.814 139.348 450.254 141.855C452.065 145.049 446.473 151.649 437.772 156.59C435.29 158.013 432.677 159.194 429.97 160.117C429.822 158.364 429.238 156.675 428.273 155.205C427.307 153.734 425.99 152.528 424.441 151.695C422.892 150.862 421.159 150.428 419.4 150.434C417.64 150.44 415.91 150.884 414.366 151.727C413.624 149.054 413.127 146.319 412.884 143.556C411.922 133.58 414.153 125.222 417.81 124.889Z" fill="#3546AB"/>
<path d="M424.295 151.635C425.872 152.46 427.216 153.67 428.2 155.153C429.185 156.636 429.779 158.344 429.928 160.118C425.429 161.621 421.606 161.907 419.692 160.763C417.611 159.811 415.64 156.415 414.309 151.728C415.836 150.89 417.547 150.443 419.29 150.426C421.032 150.41 422.752 150.825 424.295 151.635Z" fill="#30242A"/>
<path d="M448.82 172.508V172.549C446.374 173.558 444.394 175.447 443.272 177.843C442.15 180.239 441.966 182.969 442.758 185.494C443.549 188.019 445.258 190.155 447.547 191.482C449.836 192.809 452.539 193.23 455.124 192.662V192.704C441.419 196.995 428.894 195.955 427.147 190.374C425.399 184.793 435.115 176.799 448.82 172.508Z" fill="#3546AB"/>
<path d="M445.559 189.997C446.761 189.515 447.737 188.597 448.29 187.427C448.844 186.256 448.935 184.92 448.545 183.685C448.155 182.45 447.313 181.408 446.187 180.769C445.061 180.129 443.735 179.938 442.475 180.234C442.82 178.529 443.581 176.935 444.69 175.594C445.798 174.254 447.221 173.207 448.83 172.547L455.134 192.66C453.442 193.034 451.684 192.986 450.015 192.522C448.345 192.058 446.815 191.191 445.559 189.997Z" fill="#FFB494"/>
<path d="M448.524 183.704C448.91 184.934 448.819 186.264 448.27 187.43C447.721 188.596 446.753 189.512 445.559 189.998C444.261 188.764 443.297 187.222 442.757 185.514C442.218 183.807 442.12 181.99 442.475 180.235C443.734 179.947 445.056 180.144 446.178 180.787C447.299 181.43 448.136 182.471 448.524 183.704Z" fill="#30242A"/>
</svg>
