<svg width="540" height="429" viewBox="0 0 540 429" fill="none" xmlns="http://www.w3.org/2000/svg">
<path d="M281.629 57.9297H206.32V169.334H281.629V57.9297Z" fill="#3EC1F3"/>
<path d="M184.258 57.9297H206.321V169.334H156.857V85.33C156.857 78.063 159.744 71.0936 164.883 65.9551C170.021 60.8165 176.991 57.9297 184.258 57.9297Z" fill="#3EC1F3"/>
<path d="M180.252 147.501C186.29 147.501 191.184 142.152 191.184 135.553C191.184 128.955 186.29 123.605 180.252 123.605C174.215 123.605 169.32 128.955 169.32 135.553C169.32 142.152 174.215 147.501 180.252 147.501Z" fill="#F4E6D8"/>
<path d="M195.628 135.809H164.879C164.878 138.862 165.787 141.847 167.49 144.382C169.193 146.917 171.612 148.887 174.44 150.041V153.93H186.067V150.041C188.895 148.887 191.315 146.917 193.018 144.382C194.72 141.847 195.629 138.862 195.628 135.809Z" fill="#3546AB"/>
<path d="M156.289 105.964L205.383 86.0352" stroke="#3546AB" stroke-width="4" stroke-miterlimit="10" stroke-linecap="round"/>
<path d="M205.432 57.9297V169.334" stroke="#3546AB" stroke-width="4" stroke-miterlimit="10"/>
<path d="M482.157 350.255V307.48L456.312 281.188H383.677L357.832 307.48V347.139H267.373V330.646C238.408 327.525 247.317 306.138 231.277 306.138H202.759C200.68 306.13 198.643 306.721 196.892 307.839L156.63 282.957H115.191L63.2781 315.038H63.3899V355.431L28.5234 376.979V413.965H508.002V376.537L482.157 350.255Z" fill="#F5EBDD"/>
<path d="M525.385 413.972H497.309C497.309 406.224 503.594 398.379 511.347 398.379C519.1 398.379 525.385 406.224 525.385 413.972Z" fill="#FFB494"/>
<path d="M540 413.974H519.143C519.143 408.219 523.814 402.391 529.569 402.391C535.324 402.391 540 408.219 540 413.974Z" fill="#FFB494"/>
<path d="M130.27 226.833C143.88 222.619 161.379 216.562 214.629 260.11C267.879 303.658 288.027 275.178 282.578 268.597C278.203 263.299 253.773 277.594 271.957 296.867C289.237 315.192 339.881 297.664 353.769 286.446C373.533 270.483 401.827 257.927 426.768 257.023" stroke="#FFB494" stroke-width="4" stroke-linecap="round" stroke-linejoin="round" stroke-dasharray="12 12"/>
<path d="M167.11 315.046L115.191 282.965" stroke="#FFB494" stroke-width="4" stroke-linecap="round" stroke-linejoin="round"/>
<path d="M63.875 315.047H167.22V413.488" stroke="#FFB494" stroke-width="4" stroke-linecap="round" stroke-linejoin="round"/>
<path d="M62.0527 413.674L62.5388 355.918" stroke="#FFB494" stroke-width="4" stroke-linecap="round" stroke-linejoin="round"/>
<path d="M29.0098 376.988H61.9416" stroke="#FFB494" stroke-width="4" stroke-linecap="round" stroke-linejoin="round"/>
<path d="M62.6113 370.082H166.438" stroke="#FFB494" stroke-width="4" stroke-linecap="round" stroke-linejoin="round"/>
<path d="M356.715 384.789H430.244" stroke="#FFB494" stroke-width="4" stroke-linecap="round" stroke-linejoin="round"/>
<path d="M167.109 315.047H191.336" stroke="#FFB494" stroke-width="4" stroke-linecap="round" stroke-linejoin="round"/>
<path d="M358.318 307.473H430.467V413.487" stroke="#FFB494" stroke-width="4" stroke-linecap="round" stroke-linejoin="round"/>
<path d="M430.467 413V307.473H481.184" stroke="#FFB494" stroke-width="4" stroke-linecap="round" stroke-linejoin="round"/>
<path d="M239.297 331.535H266.887" stroke="#FFB494" stroke-width="4" stroke-linecap="round" stroke-linejoin="round"/>
<path d="M456.312 413.489V376.547H507.239" stroke="#FFB494" stroke-width="4" stroke-linecap="round" stroke-linejoin="round"/>
<path d="M456.03 281.469L430.467 307.474" stroke="#FFB494" stroke-width="4" stroke-linecap="round" stroke-linejoin="round"/>
<path d="M430.467 350.254L456.312 376.546" stroke="#FFB494" stroke-width="4" stroke-linecap="round" stroke-linejoin="round"/>
<path d="M481.409 349.141H430.691" stroke="#FFB494" stroke-width="4" stroke-linecap="round" stroke-linejoin="round"/>
<path d="M203.303 307.027C187.263 307.027 196.172 328.415 167.207 331.535H239.409C210.429 328.42 219.344 307.027 203.303 307.027Z" stroke="#FFB494" stroke-width="4" stroke-linecap="round" stroke-linejoin="round"/>
<path d="M167.207 413.001V331.539H239.395V413.487" stroke="#FFB494" stroke-width="4" stroke-linecap="round" stroke-linejoin="round"/>
<path d="M239.297 413.001V355.152H356.719V413.487" stroke="#FFB494" stroke-width="4" stroke-linecap="round" stroke-linejoin="round"/>
<path d="M239.506 354.064L266.629 346.238" stroke="#FFB494" stroke-width="4" stroke-linecap="round" stroke-linejoin="round"/>
<path d="M356.719 347.621V355.155H239.297" stroke="#FFB494" stroke-width="4" stroke-linecap="round" stroke-linejoin="round"/>
<path d="M262.624 368.527H262.741C264.85 368.527 266.872 369.365 268.364 370.857C269.855 372.348 270.693 374.371 270.693 376.48V413.981H254.652V376.48C254.652 375.434 254.859 374.398 255.26 373.432C255.66 372.466 256.248 371.588 256.988 370.85C257.729 370.111 258.608 369.526 259.575 369.127C260.542 368.729 261.578 368.525 262.624 368.527Z" fill="#FFB494"/>
<path d="M334.368 368.527H334.504C336.613 368.527 338.636 369.365 340.127 370.857C341.619 372.348 342.457 374.371 342.457 376.48V413.981H326.416V376.48C326.416 374.371 327.254 372.348 328.745 370.857C330.237 369.365 332.259 368.527 334.368 368.527Z" fill="#FFB494"/>
<path d="M298.497 368.527H298.633C300.742 368.527 302.765 369.365 304.256 370.857C305.748 372.348 306.586 374.371 306.586 376.48V413.981H290.545V376.48C290.545 374.371 291.383 372.348 292.874 370.857C294.365 369.365 296.388 368.527 298.497 368.527Z" fill="#FFB494"/>
<path d="M482.983 386.793H483.12C485.229 386.793 487.251 387.631 488.743 389.122C490.234 390.613 491.072 392.636 491.072 394.745V413.975H475.031V394.745C475.031 392.636 475.869 390.613 477.36 389.122C478.852 387.631 480.874 386.793 482.983 386.793Z" fill="#FFB494"/>
<path d="M84.7129 386.793H84.8345C86.9435 386.793 88.9662 387.631 90.4576 389.122C91.9489 390.613 92.7867 392.636 92.7867 394.745V413.975H76.7461V394.745C76.7461 393.701 76.9518 392.667 77.3514 391.702C77.7511 390.737 78.3368 389.861 79.0753 389.122C79.8137 388.384 80.6903 387.798 81.6552 387.398C82.62 386.999 83.6541 386.793 84.6984 386.793H84.7129Z" fill="#FFB494"/>
<path d="M145.761 386.793H145.897C146.942 386.792 147.977 386.996 148.943 387.396C149.909 387.795 150.787 388.38 151.526 389.119C152.266 389.857 152.852 390.734 153.253 391.7C153.653 392.665 153.859 393.7 153.859 394.745V413.975H137.818V394.745C137.818 392.638 138.655 390.617 140.144 389.126C141.633 387.635 143.654 386.796 145.761 386.793Z" fill="#FFB494"/>
<path d="M115.235 386.793H115.372C117.481 386.793 119.503 387.631 120.995 389.122C122.486 390.613 123.324 392.636 123.324 394.745V413.975H107.283V394.745C107.283 392.636 108.121 390.613 109.612 389.122C111.104 387.631 113.126 386.793 115.235 386.793Z" fill="#FFB494"/>
<path d="M92.7965 329.309H76.7559V356.49H92.7965V329.309Z" fill="#FFB494"/>
<path d="M153.849 329.309H137.809V356.49H153.849V329.309Z" fill="#FFB494"/>
<path d="M123.324 329.309H107.283V356.49H123.324V329.309Z" fill="#FFB494"/>
<path d="M197.279 345.348H183.951V365.398H197.279V345.348Z" fill="#FFB494"/>
<path d="M222.645 345.348H209.316V365.398H222.645V345.348Z" fill="#FFB494"/>
<path d="M197.279 380.555H183.951V400.605H197.279V380.555Z" fill="#FFB494"/>
<path d="M222.645 380.555H209.316V400.605H222.645V380.555Z" fill="#FFB494"/>
<path d="M387.561 318.613H374.232V338.664H387.561V318.613Z" fill="#FFB494"/>
<path d="M412.924 318.613H399.596V338.664H412.924V318.613Z" fill="#FFB494"/>
<path d="M464.172 318.613H450.844V338.664H464.172V318.613Z" fill="#FFB494"/>
<path d="M387.561 353.816H374.232V373.867H387.561V353.816Z" fill="#FFB494"/>
<path d="M412.924 353.816H399.596V373.867H412.924V353.816Z" fill="#FFB494"/>
<path d="M132.797 201.64C132.797 211.667 122.104 223.251 117.865 223.251C113.626 223.251 102.938 211.667 102.938 201.64C103.008 197.727 104.612 193.998 107.404 191.255C110.197 188.513 113.954 186.977 117.867 186.977C121.781 186.977 125.538 188.513 128.331 191.255C131.123 193.998 132.727 197.727 132.797 201.64Z" fill="#FFB494"/>
<path d="M117.865 206.323C120.45 206.323 122.545 204.227 122.545 201.642C122.545 199.057 120.45 196.961 117.865 196.961C115.279 196.961 113.184 199.057 113.184 201.642C113.184 204.227 115.279 206.323 117.865 206.323Z" fill="white"/>
<path d="M458.986 234.572C458.986 244.6 448.292 256.183 444.058 256.183C439.825 256.183 429.131 244.6 429.131 234.572C429.131 230.613 430.704 226.816 433.503 224.017C436.302 221.217 440.099 219.645 444.058 219.645C448.017 219.645 451.814 221.217 454.614 224.017C457.413 226.816 458.986 230.613 458.986 234.572Z" fill="#FFB494"/>
<path d="M444.058 239.253C446.643 239.253 448.739 237.157 448.739 234.572C448.739 231.986 446.643 229.891 444.058 229.891C441.473 229.891 439.377 231.986 439.377 234.572C439.377 237.157 441.473 239.253 444.058 239.253Z" fill="white"/>
<path d="M14.6172 413.972H42.6931C42.6931 406.224 36.4081 398.379 28.6552 398.379C20.9022 398.379 14.6172 406.224 14.6172 413.972Z" fill="#FFB494"/>
<path d="M0 413.974H20.8577C20.8577 408.219 16.1864 402.391 10.4313 402.391C4.67608 402.391 0 408.219 0 413.974Z" fill="#FFB494"/>
<path d="M254.375 138.047C219.78 159.196 207.75 218.109 200.42 239.603C192.492 262.848 175.032 262.318 154.772 269.084C134.512 275.85 135.266 290.603 135.266 290.603C130.53 293.829 126.006 297.354 121.719 301.156L147.369 333.937C153.421 329.761 162.404 324.526 174.726 317.084C200.177 301.71 222.959 287.273 237.663 271.233C252.367 255.192 291.01 184.856 291.01 184.856L254.375 138.047Z" fill="#4856DF"/>
<path d="M147.37 333.936L121.715 301.16C110.243 311.368 103.37 321.089 99.9141 326.747L136.083 372.954C141.177 363.719 137.128 350.721 137.541 345.048C137.819 341.631 140.92 338.389 147.37 333.936Z" fill="#30242A"/>
<path d="M97.1035 331.843L132.665 377.277C134.034 376.04 135.184 374.581 136.068 372.961L99.9033 326.754C98.879 328.399 97.9443 330.098 97.1035 331.843Z" fill="#3EC1F3"/>
<path d="M134.217 335.879L141.105 339.714" stroke="white" stroke-width="4" stroke-linecap="round" stroke-linejoin="round"/>
<path d="M131.148 342.812L138.051 344.378" stroke="white" stroke-width="4" stroke-linecap="round" stroke-linejoin="round"/>
<path d="M143.466 303.664L131.178 313.269" stroke="#3EC1F3" stroke-width="4" stroke-miterlimit="10" stroke-linecap="round"/>
<path d="M137.245 295.707L124.957 305.312" stroke="#3EC1F3" stroke-width="4" stroke-miterlimit="10" stroke-linecap="round"/>
<path d="M149.688 311.621L137.4 321.226" stroke="#3EC1F3" stroke-width="4" stroke-miterlimit="10" stroke-linecap="round"/>
<path d="M155.909 319.578L143.621 329.183" stroke="#3EC1F3" stroke-width="4" stroke-miterlimit="10" stroke-linecap="round"/>
<path d="M134.152 291.023L161.115 325.516" stroke="#3EC1F3" stroke-width="4" stroke-miterlimit="10" stroke-linecap="round"/>
<path d="M265.084 229.664C259.227 220.428 253.496 210.221 249.141 199.688" stroke="#30242A" stroke-width="4" stroke-linecap="round" stroke-linejoin="round"/>
<path d="M274.722 8.4675C277.06 8.4675 278.956 6.57199 278.956 4.23375C278.956 1.89552 277.06 0 274.722 0C272.384 0 270.488 1.89552 270.488 4.23375C270.488 6.57199 272.384 8.4675 274.722 8.4675Z" fill="#3546AB"/>
<path d="M288.162 65.9507L287.87 61.0316C293.533 61.7412 297.728 60.9003 300.727 59.3643L287.87 49.0157C287.87 49.0157 292.322 47.2366 289.649 37.8748L303.959 32.6737C303.206 30.7294 302.705 26.0436 301.261 21.0078L292.741 24.7166C290.751 28.5341 287.898 31.8346 284.409 34.3555C282.968 32.8647 281.358 31.5467 279.612 30.428C279.378 30.2773 279.125 30.1364 278.892 29.9954H278.868C278.63 29.8593 278.382 29.7281 278.144 29.6017H278.105C277.862 29.4802 277.619 29.3586 277.371 29.2517L277.322 29.1642C277.084 29.0524 276.836 28.9552 276.588 28.858H276.52C276.272 28.7705 276.034 28.6879 275.781 28.6101H275.699C275.456 28.5372 275.213 28.474 274.96 28.4205H274.872C274.624 28.3671 274.386 28.3282 274.133 28.299H274.036C273.793 28.2747 273.55 28.2601 273.302 28.2553C271.178 28.2261 269.073 29.0913 267.319 31.546C266.271 32.9692 265.703 34.6883 265.695 36.4554C265.729 41.6808 270.59 46.6631 274.931 48.1213C271.499 55.359 260.411 59.8747 256.158 61.3767C256.294 63.0342 256.426 64.5751 256.542 65.9507H288.162Z" fill="#EAA58B"/>
<path d="M374.655 95.8062C372.642 95.8062 371.67 94.173 372.482 92.1606L379.287 75.3569L379.234 75.3083L379.35 75.1965C381.231 73.4291 382.983 71.5284 384.59 69.5093C387.662 65.5964 388.586 62.7528 387.507 61.5911C387.197 61.2791 386.788 61.0863 386.35 61.0467C385.905 60.9929 385.454 61.0192 385.018 61.1245C381.547 61.8827 375.603 66.6123 368.977 74.4139C360.962 83.8389 345.373 102.49 345.373 102.49C343.75 101.25 341.392 99.1504 338.568 96.618L316.141 125.452C320.947 129.193 326.077 132.497 331.472 135.324C332.489 132.174 334.432 129.403 337.046 127.372C339.66 125.341 342.825 124.145 346.129 123.937C349.433 123.73 352.723 124.522 355.571 126.211C358.418 127.899 360.691 130.406 362.095 133.404C375.608 123.309 386.282 105.294 391.284 95.8062H374.655Z" fill="#EAA58B"/>
<path d="M300.348 72.1875H293.494C306.565 80.062 300.785 94.9166 300.785 94.9166C300.785 94.9166 318.639 107.394 306.584 122.545C307.469 121.615 308.218 120.564 308.811 119.425C308.811 119.425 311.688 122.069 316.102 125.452L338.529 96.6178C328.113 87.324 311.202 72.1875 300.348 72.1875Z" fill="#FFB494"/>
<path d="M231.724 96.2421C231.724 96.2421 218.6 107.184 227.471 121.834L232.142 95.5859L231.724 96.2421Z" fill="#FF7235"/>
<path d="M256.523 65.9531V66.1135L257.087 65.9531H256.523Z" fill="#FF7235"/>
<path d="M274.893 48.1229C270.572 46.6647 265.711 41.697 265.658 36.457L254.521 41.3178C254.954 47.4521 255.581 55.1857 256.101 61.3783C260.393 59.8763 271.49 55.3607 274.893 48.1229Z" fill="#30242A"/>
<path d="M287.871 49.0149L300.728 59.3635C303.275 58.1362 305.293 56.0303 306.41 53.4334C308.306 48.6892 307.081 44.6062 305.603 39.3079C305.603 39.3079 309.37 36.7851 308.782 34.4471C308.296 32.5465 304.004 32.809 304.004 32.809L303.96 32.6875L289.65 37.8885C292.324 47.2358 287.871 49.0149 287.871 49.0149Z" fill="#30242A"/>
<path d="M284.41 34.346C287.899 31.825 290.752 28.5245 292.741 24.707L279.617 30.4185C281.362 31.5374 282.97 32.8555 284.41 34.346Z" fill="#30242A"/>
<path d="M277.371 29.2078L277.322 29.1641L277.371 29.2078Z" fill="#3546AB"/>
<path d="M267.309 31.4971C269.064 29.0424 271.169 28.1771 273.293 28.2063H273.244C272.024 14.7176 275.033 7.38267 277.264 3.90234C275.125 4.21828 273.012 4.696 270.945 5.33142C255.483 10.0124 253.709 25.2607 254.142 34.3309C254.224 36.1488 254.38 38.5695 254.569 41.3013L265.705 36.4405C265.7 34.6639 266.262 32.932 267.309 31.4971Z" fill="#3546AB"/>
<path d="M278.869 29.9718C278.631 29.8357 278.383 29.7045 278.145 29.5781C278.392 29.7045 278.631 29.8357 278.869 29.9718Z" fill="#3EC1F3"/>
<path d="M279.612 30.417C279.379 30.2663 279.126 30.1253 278.893 29.9844C279.136 30.1351 279.379 30.2663 279.612 30.417Z" fill="#3EC1F3"/>
<path d="M275.69 28.588C275.447 28.5151 275.204 28.4519 274.951 28.3984C275.199 28.4519 275.447 28.5151 275.69 28.588Z" fill="#3EC1F3"/>
<path d="M278.105 29.557C277.862 29.4355 277.619 29.314 277.371 29.207C277.619 29.314 277.862 29.4355 278.105 29.557Z" fill="#3EC1F3"/>
<path d="M274.027 28.2504C273.784 28.2261 273.541 28.2115 273.293 28.2066C273.536 28.1921 273.784 28.2261 274.027 28.2504Z" fill="#3EC1F3"/>
<path d="M274.864 28.3832C274.616 28.3298 274.378 28.2909 274.125 28.2617C274.373 28.2909 274.616 28.3298 274.864 28.3832Z" fill="#3EC1F3"/>
<path d="M276.51 28.8534C276.262 28.7659 276.024 28.6832 275.771 28.6055C276.019 28.6784 276.262 28.7659 276.51 28.8534Z" fill="#3EC1F3"/>
<path d="M277.322 29.1656C277.084 29.0538 276.836 28.9566 276.588 28.8594C276.836 28.976 277.074 29.0733 277.322 29.1656Z" fill="#3EC1F3"/>
<path d="M273.244 28.1907H273.293C273.536 28.1907 273.779 28.1907 274.027 28.2345H274.124C274.372 28.2636 274.61 28.3025 274.863 28.356H274.95C275.198 28.4095 275.437 28.4727 275.689 28.5456H275.772C276.02 28.6233 276.258 28.706 276.511 28.7935H276.579C276.827 28.8907 277.065 28.9879 277.313 29.0997L277.371 29.124C277.619 29.2309 277.857 29.3525 278.105 29.474H278.144C278.392 29.6004 278.63 29.7316 278.868 29.8677H278.893C279.136 30.0087 279.379 30.1496 279.612 30.3003L292.736 24.5889L301.257 20.8801C298.656 11.8099 292.994 1.56332 277.259 3.79929C275.033 7.37683 272.024 14.7118 273.244 28.1907Z" fill="#3EC1F3"/>
<path d="M347.133 123.883C343.643 123.884 340.243 124.992 337.422 127.048C334.602 129.105 332.506 132.002 331.438 135.325C338.593 138.961 346.161 141.197 352.038 139.034C355.637 137.648 359.019 135.753 362.08 133.405C360.754 130.559 358.643 128.151 355.995 126.464C353.347 124.777 350.273 123.882 347.133 123.883Z" fill="#CA7358"/>
<path d="M302.598 151.289C318.639 140.814 307.459 122.98 306.584 122.547C318.615 107.396 300.79 94.9186 300.79 94.9186C300.79 94.9186 306.565 80.064 293.499 72.1895H288.531L288.162 65.9531H257.101L256.537 66.1135L257.062 72.1895H247.039L232.141 95.5942L227.47 121.843L227.708 122.236C227.549 122.531 227.387 122.828 227.222 123.126C224.208 129.056 223.766 134.101 224.539 138.194C226.148 146.754 233.04 151.265 233.04 151.265H302.598V151.289Z" fill="#FF7235"/>
<path d="M233.061 159.1H302.575V152.849V151.289H233.061V152.849V159.1Z" fill="#30242A"/>
<path d="M225.799 94.918H300.791" stroke="#A15842" stroke-width="4" stroke-miterlimit="10" stroke-linecap="round"/>
<path d="M227.588 122.547H306.974" stroke="#A15842" stroke-width="4" stroke-miterlimit="10" stroke-linecap="round"/>
<path d="M289.65 75.3064L289.484 72.6719" stroke="#A15842" stroke-width="4" stroke-miterlimit="10" stroke-linecap="round"/>
<path d="M281.183 73.9706L280.74 66.8398" stroke="#A15842" stroke-width="4" stroke-miterlimit="10" stroke-linecap="round"/>
<path d="M274.499 73.9706L274.057 66.8398" stroke="#A15842" stroke-width="4" stroke-miterlimit="10" stroke-linecap="round"/>
<path d="M267.815 73.9706L267.373 66.8398" stroke="#A15842" stroke-width="4" stroke-miterlimit="10" stroke-linecap="round"/>
<path d="M344.441 102.117L339.113 108.733" stroke="#A15842" stroke-width="4" stroke-linecap="round" stroke-linejoin="round"/>
<path d="M281.629 60.6055C283.599 61.2947 285.641 61.7626 287.715 62.0005" stroke="#A15842" stroke-width="4" stroke-miterlimit="10" stroke-linecap="round"/>
<path d="M384.59 69.5094C384.614 70.8169 385.562 71.7405 387.054 71.7405H401.593C403.605 71.7405 405.9 70.1072 406.716 68.09L411.149 57.1143C411.961 55.102 410.989 53.4688 408.976 53.4688H394.433C392.421 53.4688 390.126 55.102 389.315 57.1143L387.506 61.5911C388.585 62.7577 387.662 65.6207 384.59 69.5094Z" fill="#F5EBDD"/>
<path d="M414.529 46.3438H410.601L410.256 47.1944C409.983 47.8276 409.542 48.3739 408.981 48.7741C408.42 49.1743 407.76 49.4131 407.072 49.4644H399.577C398.328 49.4644 397.72 48.4485 398.225 47.1944L398.571 46.3438H394.643C392.626 46.3438 390.336 47.977 389.52 49.9942L385.019 61.1303C385.454 61.025 385.906 60.9987 386.351 61.0525C386.788 61.0921 387.198 61.2849 387.507 61.5969L389.316 57.1201C390.127 55.1078 392.422 53.4745 394.434 53.4745H408.978C410.99 53.4745 411.962 55.1078 411.15 57.1201L406.717 68.0958C405.901 70.113 403.606 71.7463 401.594 71.7463H387.055C385.544 71.7463 384.625 70.8227 384.591 69.5152C382.978 71.5331 381.222 73.4321 379.336 75.1974L379.273 75.3578L372.468 92.1616C371.656 94.174 372.629 95.8072 374.641 95.8072H394.531C396.544 95.8072 398.838 94.174 399.65 92.1616L416.662 49.9942C417.518 47.977 416.546 46.3438 414.529 46.3438ZM395.085 89.1187C394.82 89.7343 394.392 90.2655 393.846 90.6547C393.304 91.0754 392.645 91.3167 391.96 91.345H380.858C379.623 91.345 379.03 90.3485 379.526 89.1187C379.796 88.4979 380.23 87.9624 380.781 87.5701C381.333 87.1778 381.981 86.9435 382.656 86.8925H393.797C395.003 86.8973 395.596 87.8938 395.1 89.1236L395.085 89.1187Z" fill="#3546AB"/>
<path d="M393.772 86.8945H382.631C381.956 86.9455 381.308 87.1798 380.756 87.5721C380.205 87.9645 379.771 88.4999 379.501 89.1208C379.015 90.3506 379.598 91.347 380.833 91.347H391.974C392.659 91.3188 393.318 91.0775 393.86 90.6568C394.406 90.2676 394.834 89.7364 395.099 89.1208C395.595 87.891 395.002 86.8945 393.772 86.8945Z" fill="#3EC1F3"/>
<path d="M399.576 49.4644H407.072C407.759 49.4131 408.419 49.1743 408.981 48.7741C409.542 48.3739 409.983 47.8276 410.255 47.1944L410.601 46.3438H398.57L398.225 47.1944C397.719 48.4485 398.327 49.4644 399.576 49.4644Z" fill="#3EC1F3"/>
<path d="M312.378 16.9336L282.523 30.3008" stroke="#30242A" stroke-width="4" stroke-linecap="round" stroke-linejoin="round"/>
<path d="M302.788 44.8166C301.894 45.0548 298.968 44.5638 298.486 42.0508" stroke="black" stroke-width="4" stroke-miterlimit="10" stroke-linecap="round"/>
<path d="M298.185 32.1042C298.979 32.1042 299.624 31.46 299.624 30.6654C299.624 29.8707 298.979 29.2266 298.185 29.2266C297.39 29.2266 296.746 29.8707 296.746 30.6654C296.746 31.46 297.39 32.1042 298.185 32.1042Z" fill="#30242A"/>
<path d="M273.488 37.1953L278.714 40.5201" stroke="#A15842" stroke-width="4" stroke-miterlimit="10" stroke-linecap="round"/>
<path d="M284.75 33.4219L290.544 37.8744" stroke="#30242A" stroke-width="4" stroke-linecap="round" stroke-linejoin="round"/>
<path d="M273.609 48.5742L289.208 49.0166" stroke="#30242A" stroke-width="4" stroke-linecap="round" stroke-linejoin="round"/>
<path d="M334.193 152.848C335.966 152.848 337.666 153.552 338.919 154.805C340.173 156.059 340.877 157.759 340.877 159.531V159.531C340.88 160.411 340.709 161.282 340.374 162.096C340.039 162.909 339.547 163.648 338.927 164.272C338.306 164.895 337.568 165.389 336.756 165.727C335.944 166.064 335.073 166.238 334.193 166.239" stroke="#FF7235" stroke-width="4" stroke-miterlimit="10"/>
<path d="M343.57 152.848C345.34 152.853 347.035 153.559 348.284 154.812C349.533 156.065 350.234 157.762 350.234 159.531C350.24 161.304 349.541 163.007 348.291 164.265C347.041 165.523 345.343 166.233 343.57 166.239" stroke="#FF7235" stroke-width="4" stroke-miterlimit="10"/>
<path d="M391.746 153.738H318.124C314.951 153.738 312.379 156.311 312.379 159.484V159.581C312.379 162.754 314.951 165.326 318.124 165.326H391.746C394.919 165.326 397.491 162.754 397.491 159.581V159.484C397.491 156.311 394.919 153.738 391.746 153.738Z" fill="#30242A"/>
<path d="M404.094 400.729L359.75 154.031L348.345 156.081L392.688 402.779L404.094 400.729Z" fill="#30242A"/>
<path d="M318.222 153.738H318.124C314.951 153.738 312.379 156.311 312.379 159.484V159.581C312.379 162.754 314.951 165.326 318.124 165.326H318.222C321.395 165.326 323.967 162.754 323.967 159.581V159.484C323.967 156.311 321.395 153.738 318.222 153.738Z" stroke="#FF7235" stroke-width="4" stroke-miterlimit="10"/>
<path d="M373.838 153.211C375.15 153.667 376.288 154.521 377.092 155.653C377.897 156.786 378.33 158.141 378.329 159.53V159.53C378.329 160.828 377.95 162.099 377.24 163.185C376.53 164.272 375.518 165.128 374.329 165.65" stroke="#FF7235" stroke-width="4" stroke-miterlimit="10" stroke-linecap="round"/>
<path d="M381.615 153.211C382.927 153.667 384.065 154.521 384.87 155.653C385.675 156.786 386.107 158.141 386.107 159.53V159.53C386.106 160.828 385.728 162.099 385.017 163.185C384.307 164.272 383.295 165.128 382.106 165.65" stroke="#FF7235" stroke-width="4" stroke-miterlimit="10" stroke-linecap="round"/>
<path d="M398.381 402.391H235.734V413.979H398.381V402.391Z" fill="#30242A"/>
<path d="M245.758 428.234C253.634 428.234 260.019 421.849 260.019 413.972C260.019 406.096 253.634 399.711 245.758 399.711C237.881 399.711 231.496 406.096 231.496 413.972C231.496 421.849 237.881 428.234 245.758 428.234Z" fill="#30242A"/>
<path d="M245.757 419.323C248.71 419.323 251.104 416.929 251.104 413.976C251.104 411.023 248.71 408.629 245.757 408.629C242.804 408.629 240.41 411.023 240.41 413.976C240.41 416.929 242.804 419.323 245.757 419.323Z" fill="#FFB494"/>
<path d="M400.908 428.234C408.785 428.234 415.17 421.849 415.17 413.972C415.17 406.096 408.785 399.711 400.908 399.711C393.032 399.711 386.646 406.096 386.646 413.972C386.646 421.849 393.032 428.234 400.908 428.234Z" fill="#30242A"/>
<path d="M400.909 419.323C403.862 419.323 406.256 416.929 406.256 413.976C406.256 411.023 403.862 408.629 400.909 408.629C397.956 408.629 395.562 411.023 395.562 413.976C395.562 416.929 397.956 419.323 400.909 419.323Z" fill="#FFB494"/>
<path d="M268.039 413.972H223.48C223.567 408.12 225.952 402.538 230.121 398.43C234.29 394.322 239.907 392.02 245.76 392.02C251.612 392.02 257.23 394.322 261.399 398.43C265.568 402.538 267.953 408.12 268.039 413.972Z" fill="#FF7235"/>
<path d="M423.186 413.972H378.627C378.713 408.12 381.099 402.538 385.268 398.43C389.436 394.322 395.054 392.02 400.906 392.02C406.759 392.02 412.376 394.322 416.545 398.43C420.714 402.538 423.099 408.12 423.186 413.972Z" fill="#FF7235"/>
<path d="M289.786 363.62H331.462C331.948 356.329 333.329 346.151 335.025 332.171C338.603 302.651 341.286 275.815 337.708 254.35C334.131 232.884 302.574 159.078 302.574 159.078H243.142C238.475 199.35 277.449 245.143 289.854 264.164C303.27 284.739 292.09 298.155 284.935 318.279C277.78 338.402 289.854 346.904 289.854 346.904C289.484 352.469 289.461 358.052 289.786 363.62Z" fill="#4856DF"/>
<path d="M296.522 397.045H355.202C351.055 387.323 338.34 382.516 334.13 378.686C331.539 376.333 330.937 371.744 331.462 363.617H289.785C290.694 379.172 294.16 390.755 296.522 397.045Z" fill="#30242A"/>
<path d="M298.798 402.39H356.496C356.371 400.547 355.933 398.739 355.203 397.043H296.523C297.185 398.865 297.944 400.65 298.798 402.39Z" fill="#3EC1F3"/>
<path d="M305.992 348.469V363.1" stroke="#3EC1F3" stroke-width="4" stroke-miterlimit="10" stroke-linecap="round"/>
<path d="M295.891 348.469V363.1" stroke="#3EC1F3" stroke-width="4" stroke-miterlimit="10" stroke-linecap="round"/>
<path d="M316.092 348.469V363.1" stroke="#3EC1F3" stroke-width="4" stroke-miterlimit="10" stroke-linecap="round"/>
<path d="M326.193 348.469V363.1" stroke="#3EC1F3" stroke-width="4" stroke-miterlimit="10" stroke-linecap="round"/>
<path d="M289.961 348.023H332.736" stroke="#3EC1F3" stroke-width="4" stroke-miterlimit="10" stroke-linecap="round"/>
<path d="M316.816 193.675C315.358 190.068 313.968 186.578 312.631 183.297L290.757 179.457V179.535C290.325 181.995 290.888 184.526 292.322 186.572C293.756 188.617 295.943 190.01 298.403 190.442L316.816 193.675Z" fill="#3EC1F3"/>
<path d="M324.855 375.653L331.763 372.824" stroke="white" stroke-width="4" stroke-linecap="round" stroke-linejoin="round"/>
<path d="M328.424 382.34L334.194 377.684" stroke="white" stroke-width="4" stroke-linecap="round" stroke-linejoin="round"/>
<path d="M400.164 90.8963C400.164 90.8963 407.815 91.1977 408.428 84.5141C408.428 84.5141 413.891 82.0011 412.462 77.009C412.462 77.009 417.459 75.58 416.03 70.5831C415.938 70.2671 418.869 69.6984 418.723 65.5813C418.509 59.5734 414.436 55.2473 412.657 54.8001C407.31 53.4634 409.342 62.1496 409.089 61.9309C405.973 59.2574 401.423 58.0422 399.8 59.4033C396.971 61.7753 398.935 64.9446 398.935 64.9446C398.935 64.9446 395.309 64.0891 393.534 66.709C391.376 69.888 395.236 72.8531 395.236 72.8531C395.236 72.8531 391.191 73.3051 391.867 77.0479C392.616 81.2331 398.901 82.1663 401.88 86.5508L400.164 90.8963Z" fill="#EAA58B"/>
<path d="M395.07 72.0859C399.328 73.6851 406.736 77.2287 408.841 83.0762" stroke="#A15842" stroke-width="4" stroke-linecap="round" stroke-linejoin="round"/>
<path d="M399.844 64.6484C403.489 66.6365 409.93 70.7196 412.832 76.047" stroke="#A15842" stroke-width="4" stroke-linecap="round" stroke-linejoin="round"/>
<path d="M409.779 61.2461C412.176 63.3751 414.776 66.209 416.366 69.5094" stroke="#A15842" stroke-width="4" stroke-linecap="round" stroke-linejoin="round"/>
<path d="M257.12 72.1875C257.12 72.1875 273.093 96.2436 268.709 119.425C265.588 135.912 228.155 150.198 206.32 155.059V142.149C206.32 142.149 251.774 131.013 257.12 110.957C260.363 98.8052 247.316 72.1875 247.316 72.1875" fill="#F5EBDD"/>
<path d="M362.731 150.2C360.058 143.512 351.59 136.386 341.786 132.818C322.946 125.969 277.172 135.939 277.172 135.939L270.313 121.293L236.564 137.82C241.425 147.303 247.258 155.275 253.218 160.787C255.247 158.274 257.969 156.414 261.047 155.436C264.125 154.458 267.422 154.405 270.529 155.286C273.636 156.166 276.416 157.94 278.524 160.387C280.631 162.834 281.973 165.847 282.382 169.05C301.043 167.592 321.682 159.061 327.534 153.797C327.534 153.797 331.097 156.918 335.107 157.36C335.107 158.697 328.871 176.521 340.012 172.511C340.012 172.511 343.128 176.521 347.585 172.069C347.585 172.069 350.706 176.521 355.163 172.511C355.163 172.511 357.593 174.033 360.952 170.285C364.957 165.755 366.143 158.702 362.731 150.2Z" fill="#EAA58B"/>
<path d="M247.318 72.1875H246.214C237.169 72.1875 222.358 78.8759 224.142 96.1998C225.708 110.702 229.917 124.794 236.561 137.779L270.309 121.252L247.318 72.1875Z" fill="#FFB494"/>
<path d="M266.037 154.625C263.579 154.623 261.152 155.172 258.934 156.231C256.715 157.29 254.763 158.832 253.219 160.745C254.454 161.897 255.752 162.979 257.107 163.987C263.383 168.575 272.604 169.752 282.384 168.989C281.87 165.017 279.927 161.368 276.918 158.725C273.91 156.081 270.042 154.624 266.037 154.625Z" fill="#CA7358"/>
<path d="M340.4 171.76C342.345 167.871 346.758 157.79 343.57 151.062" stroke="#A15842" stroke-width="4" stroke-linecap="round" stroke-linejoin="round"/>
<path d="M265.588 137.251L276.092 135.098" stroke="#A15842" stroke-width="4" stroke-linecap="round" stroke-linejoin="round"/>
<path d="M348.291 171.585C350.313 167.482 354.688 157.591 351.591 151.062" stroke="#A15842" stroke-width="4" stroke-linecap="round" stroke-linejoin="round"/>
<path d="M356.068 172.071C358.013 168.153 362.334 157.751 359.17 151.062" stroke="#A15842" stroke-width="4" stroke-linecap="round" stroke-linejoin="round"/>
</svg>
