<svg width="24" height="24" viewBox="0 0 24 24" fill="none" xmlns="http://www.w3.org/2000/svg">
<path d="M20 6.00101H17.82C17.93 5.69101 18 5.35101 18 5.00101C18.0011 4.35584 17.7939 3.72755 17.4092 3.20961C17.0245 2.69167 16.4829 2.31174 15.8649 2.12635C15.2469 1.94096 14.5856 1.96001 13.9794 2.18066C13.3731 2.40132 12.8542 2.81179 12.5 3.35101L12 4.02101L11.5 3.34101C10.96 2.54101 10.05 2.00101 9 2.00101C7.34 2.00101 6 3.34101 6 5.00101C6 5.35101 6.07 5.69101 6.18 6.00101H4C2.89 6.00101 2.01 6.89101 2.01 8.00101L2 19.001C2 20.111 2.89 21.001 4 21.001H20C21.11 21.001 22 20.111 22 19.001V8.00101C22 6.89101 21.11 6.00101 20 6.00101ZM15 4.00101C15.55 4.00101 16 4.45101 16 5.00101C16 5.55101 15.55 6.00101 15 6.00101C14.45 6.00101 14 5.55101 14 5.00101C14 4.45101 14.45 4.00101 15 4.00101ZM9 4.00101C9.55 4.00101 10 4.45101 10 5.00101C10 5.55101 9.55 6.00101 9 6.00101C8.45 6.00101 8 5.55101 8 5.00101C8 4.45101 8.45 4.00101 9 4.00101ZM20 19.001H4V17.001H20V19.001ZM20 14.001H4V8.00101H9.08L7 10.831L8.62 12.001L12 7.40101L15.38 12.001L17 10.831L14.92 8.00101H20V14.001Z" fill="#FF7235"/>
</svg>
