<svg width="540" height="434" viewBox="0 0 540 434" fill="none" xmlns="http://www.w3.org/2000/svg">
<path d="M97.1838 231.621H85.4199V431.564H97.1838V231.621Z" fill="#FFBE21"/>
<path d="M97.1886 234.371H85.4199" stroke="#A15842" stroke-width="4" stroke-miterlimit="10"/>
<path d="M32.0366 391.444C33.2282 388.027 35.4536 385.064 38.4043 382.968C41.355 380.872 44.8847 379.746 48.5041 379.746C52.1234 379.746 55.6531 380.872 58.6038 382.968C61.5545 385.064 63.7799 388.027 64.9715 391.444C66.1089 388.181 68.1898 385.33 70.9502 383.252C73.7107 381.174 77.0263 379.962 80.4763 379.771C78.936 377.026 77.1019 374.456 75.0063 372.108L68.6741 364.985C66.7055 362.772 65.4657 360.007 65.1229 357.065C64.7801 354.124 65.3511 351.148 66.7582 348.542L72.1324 338.555C70.6236 340.073 61.9012 348.24 48.6621 348.24C35.423 348.24 26.7007 340.073 25.1919 338.555H25.1679L30.5469 348.542C31.9478 351.153 32.5099 354.133 32.1568 357.075C31.8037 360.017 30.5525 362.779 28.5735 364.985L22.2461 372.079C20.1466 374.428 18.3078 376.997 16.7617 379.743C20.1747 379.98 23.4425 381.216 26.1584 383.297C28.8743 385.377 30.9185 388.211 32.0366 391.444Z" fill="#3546AB"/>
<path d="M81.4397 401.536C77.8193 401.537 74.2888 402.664 71.338 404.762C68.3872 406.86 66.1624 409.824 64.9722 413.243C63.7828 409.823 61.5582 406.858 58.6073 404.76C55.6563 402.662 52.1254 401.535 48.5047 401.535C44.884 401.535 41.3531 402.662 38.4021 404.76C35.4512 406.858 33.2266 409.823 32.0372 413.243C30.5969 409.111 27.6566 405.671 23.7992 403.604C19.9418 401.538 15.4488 400.997 11.2109 402.087C11.4543 413.141 15.9088 423.684 23.6645 431.564H73.57C81.31 423.701 85.7633 413.185 86.0236 402.154C84.53 401.745 82.9884 401.537 81.4397 401.536Z" fill="#3546AB"/>
<path d="M48.6246 348.259C61.8637 348.259 70.586 340.093 72.0948 338.574H25.1543C26.6631 340.078 35.3854 348.259 48.6246 348.259Z" fill="#30242A"/>
<path d="M32.036 413.243C33.2254 409.823 35.45 406.858 38.4009 404.76C41.3518 402.662 44.8828 401.535 48.5035 401.535C52.1242 401.535 55.6551 402.662 58.6061 404.76C61.557 406.858 63.7816 409.823 64.971 413.243C66.4232 409.067 69.4077 405.598 73.3206 403.54C77.2334 401.481 81.7822 400.986 86.0463 402.154C86.2431 394.328 84.3217 386.595 80.4853 379.771C77.0353 379.962 73.7197 381.173 70.9592 383.252C68.1988 385.33 66.1179 388.181 64.9806 391.444C63.7889 388.026 61.5635 385.064 58.6128 382.968C55.6622 380.872 52.1324 379.746 48.5131 379.746C44.8937 379.746 41.364 380.872 38.4133 382.968C35.4626 385.064 33.2372 388.026 32.0456 391.444C30.9206 388.219 28.8734 385.395 26.1581 383.322C23.4427 381.25 20.1786 380.02 16.7707 379.786C12.9515 386.586 11.0338 394.29 11.2193 402.087C15.4572 400.996 19.9501 401.538 23.8076 403.604C27.665 405.67 30.6053 409.11 32.0456 413.243H32.036Z" fill="#3EC1F3"/>
<path d="M52.1016 346.89C53.0595 341.027 57.4135 317.787 68.3631 305.156" stroke="#30242A" stroke-width="4" stroke-miterlimit="10" stroke-linecap="round"/>
<path d="M47.0476 347.06C46.9758 340.402 46.2908 307.711 39.791 288.207" stroke="#30242A" stroke-width="4" stroke-miterlimit="10" stroke-linecap="round"/>
<path d="M75.8561 324.184C85.4567 319.96 92.4691 314.785 91.5187 312.625C90.5684 310.465 82.0152 312.138 72.4146 316.363C62.8141 320.587 55.8017 325.763 56.752 327.922C57.7024 330.082 66.2556 328.409 75.8561 324.184Z" fill="#30242A"/>
<path d="M75.8522 264.757C79.3037 260.091 80.7827 255.333 79.1558 254.129C77.5288 252.926 73.4119 255.733 69.9604 260.399C66.5089 265.065 65.0298 269.823 66.6568 271.027C68.2838 272.23 72.4007 269.423 75.8522 264.757Z" fill="#30242A"/>
<path d="M23.8722 327.502C36.3879 325.61 46.2629 322.283 45.9287 320.073C45.5944 317.863 35.1775 317.606 22.6617 319.499C10.146 321.391 0.270973 324.718 0.605233 326.928C0.939494 329.138 11.3565 329.395 23.8722 327.502Z" fill="#30242A"/>
<path d="M15.1275 294.852V294.885C16.9767 295.919 18.3715 297.609 19.0367 299.62C19.702 301.632 19.5895 303.82 18.7214 305.752C17.8533 307.685 16.2927 309.222 14.3471 310.061C12.4016 310.9 10.2123 310.98 8.21094 310.284V310.313C18.7007 315.026 28.7642 315.386 30.6801 311.118C32.596 306.85 25.622 299.565 15.1275 294.852Z" fill="#FF7235"/>
<path d="M46.1434 260.694C43.9113 260.114 41.0087 263.491 38.8868 268.717C36.3338 262.371 32.6313 258.122 30.1358 258.946C27.6402 259.77 27.1948 265.383 28.9239 272.003C24.1053 269.072 19.7657 268.085 18.3144 269.881C16.4655 272.171 20.0292 278.11 26.2751 283.154C28.0521 284.601 29.9641 285.875 31.9846 286.957C32.3291 285.589 33.0098 284.328 33.9651 283.29C34.9204 282.252 36.1199 281.469 37.4547 281.012C38.7895 280.555 40.2173 280.439 41.6083 280.674C42.9994 280.909 44.3097 281.488 45.4202 282.359C46.3563 280.344 47.1035 278.246 47.6522 276.093C49.6688 268.329 48.9934 261.432 46.1434 260.694Z" fill="#FF7235"/>
<path d="M94.8359 295.949C94.1462 293.745 89.7443 293.075 84.1881 294.033C88.2212 288.51 89.8689 283.121 87.8524 281.44C85.8358 279.759 80.8304 282.35 76.1268 287.317C76.0693 281.675 74.6084 277.469 72.3189 277.187C69.4019 276.828 66.2406 282.997 65.2634 290.958C64.9739 293.234 64.9033 295.532 65.0527 297.821C66.3965 297.388 67.8273 297.298 69.2148 297.559C70.6024 297.82 71.9027 298.424 72.9975 299.315C74.0923 300.207 74.9468 301.358 75.4833 302.664C76.0198 303.97 76.2212 305.389 76.0693 306.793C78.2753 306.514 80.4511 306.033 82.5691 305.356C90.2185 302.975 95.7125 298.755 94.8359 295.949Z" fill="#FF7235"/>
<path d="M73.0614 299.365C71.966 298.452 70.6573 297.83 69.2571 297.558C67.8569 297.286 66.4106 297.372 65.0527 297.809C65.3258 301.598 66.2837 304.515 67.7255 305.573C69.0714 306.818 72.1848 307.235 76.0598 306.78C76.2108 305.393 76.0161 303.99 75.4929 302.696C74.9697 301.402 74.1343 300.258 73.0614 299.365Z" fill="#30242A"/>
<path d="M37.5406 280.984C36.1862 281.431 34.9668 282.213 33.9954 283.257C33.024 284.301 32.3323 285.574 31.9844 286.957C35.3373 288.729 38.3166 289.448 39.993 288.796C41.7605 288.317 43.7578 285.889 45.4199 282.359C44.3221 281.497 43.028 280.92 41.6531 280.68C40.2782 280.441 38.8654 280.545 37.5406 280.984Z" fill="#30242A"/>
<path d="M16.0622 309.076C15.1615 308.574 14.4822 307.752 14.159 306.773C13.8357 305.793 13.892 304.728 14.3167 303.788C14.7414 302.849 15.5036 302.103 16.4522 301.698C17.4009 301.294 18.4668 301.26 19.439 301.604C19.3266 300.218 18.8744 298.882 18.1225 297.712C17.3707 296.542 16.3422 295.576 15.1282 294.898L8.19727 310.288C9.50724 310.746 10.9095 310.874 12.2808 310.663C13.6522 310.452 14.9507 309.907 16.0622 309.076Z" fill="#F5EBDD"/>
<path d="M14.3001 303.789C13.8824 304.729 13.8316 305.791 14.1579 306.766C14.4841 307.741 15.1637 308.559 16.0628 309.058C17.214 308.202 18.1282 307.067 18.719 305.76C19.3099 304.452 19.5578 303.016 19.4396 301.586C18.4629 301.238 17.391 301.272 16.4381 301.681C15.4852 302.089 14.7216 302.842 14.3001 303.789Z" fill="#4856DF"/>
<path d="M330.842 311.521H209.021L211.081 303.35H264.555L284.95 223.589C287.729 212.725 294.045 203.094 302.902 196.217C311.76 189.339 322.655 185.606 333.869 185.605C361.31 185.605 381.389 211.471 374.583 238.054L361.98 287.337C360.212 294.253 356.192 300.384 350.553 304.763C344.915 309.141 337.98 311.519 330.842 311.521Z" fill="#FFB494"/>
<path d="M209.965 387.006V395.656H287.604V387.006H209.965Z" fill="#A15842"/>
<path d="M300.393 426.92L280.199 306.719H217.366L197.172 426.92C197.076 427.492 197.107 428.077 197.261 428.636C197.415 429.195 197.688 429.714 198.063 430.156C198.438 430.598 198.905 430.953 199.43 431.197C199.956 431.44 200.529 431.566 201.109 431.566C202.02 431.565 202.903 431.253 203.612 430.682C204.321 430.11 204.813 429.314 205.008 428.424L231.457 306.719H266.126L292.566 428.424C292.76 429.314 293.252 430.111 293.961 430.683C294.671 431.254 295.554 431.566 296.465 431.566C297.044 431.565 297.616 431.438 298.14 431.194C298.665 430.95 299.131 430.594 299.504 430.152C299.878 429.71 300.151 429.192 300.304 428.634C300.458 428.076 300.488 427.491 300.393 426.92Z" fill="#A15842"/>
<path d="M274.283 387.006V395.656H351.922V387.006H274.283Z" fill="#FFBE21"/>
<path d="M364.71 426.92L344.497 306.719H281.688L261.494 426.92C261.398 427.492 261.429 428.077 261.583 428.636C261.737 429.195 262.011 429.714 262.385 430.156C262.76 430.598 263.227 430.953 263.753 431.197C264.279 431.44 264.851 431.566 265.431 431.566C266.341 431.566 267.224 431.254 267.933 430.682C268.641 430.111 269.133 429.314 269.325 428.424L295.765 306.719H330.439L356.879 428.424C357.073 429.315 357.566 430.113 358.276 430.684C358.986 431.256 359.871 431.567 360.783 431.566C361.361 431.565 361.933 431.438 362.458 431.194C362.983 430.95 363.448 430.594 363.822 430.152C364.195 429.71 364.468 429.192 364.622 428.634C364.775 428.076 364.805 427.491 364.71 426.92Z" fill="#FFBE21"/>
<path d="M301.25 287.338L308.952 257.215H257.907C247.897 257.215 238.172 260.547 230.265 266.686C222.358 272.824 216.719 281.42 214.238 291.117L209.021 311.522H270.106C277.246 311.521 284.182 309.144 289.821 304.765C295.46 300.386 299.481 294.255 301.25 287.338Z" fill="#FFB494"/>
<path d="M212.342 302.551H277.148" stroke="#A15842" stroke-width="4" stroke-linecap="round" stroke-linejoin="round"/>
<path d="M264.785 302.25L276.142 257.848" stroke="#A15842" stroke-width="4" stroke-linecap="round" stroke-linejoin="round"/>
<path d="M368.927 256.184H338.271" stroke="#A15842" stroke-width="4" stroke-linecap="round" stroke-linejoin="round"/>
<path d="M374.673 234.629H335.396" stroke="#A15842" stroke-width="4" stroke-linecap="round" stroke-linejoin="round"/>
<path d="M231.606 224.898C231.606 224.898 193.177 235.364 176.853 243.531C149.939 256.985 150.03 265.866 133.62 315.579C118.47 361.524 116.803 383.792 95.9048 384.673C79.9498 385.344 74.7193 390.565 72.1328 397.721L135.268 427.676C135.991 428.019 136.819 428.072 137.58 427.824C138.341 427.577 138.979 427.047 139.363 426.345C139.754 425.626 139.849 424.784 139.628 423.997C139.407 423.209 138.888 422.539 138.18 422.13L136.853 421.363C142.721 414.255 154.039 399.11 165.324 376.104L172.509 379.457C172.509 379.457 184.115 364.374 185.954 347.264C188.349 325.169 186.912 310.277 197.004 301.631L314.691 224.879L231.606 224.898Z" fill="#FF7235"/>
<path d="M89.7012 388.221C90.9513 385.62 97.8966 369.776 101.891 371.692C107.088 374.182 93.6001 390.089 93.6001 390.089L89.7012 388.221Z" fill="#30242A"/>
<path d="M72.127 397.946L135.262 427.897C135.993 428.246 136.83 428.298 137.599 428.042C138.368 427.787 139.007 427.244 139.384 426.527C139.761 425.81 139.845 424.975 139.62 424.197C139.394 423.419 138.876 422.759 138.174 422.355L136.847 421.589L136.982 421.426L93.5855 400.94C94.2357 399.138 94.6917 397.272 94.9458 395.374C101.441 396.5 114.584 397.711 114.651 392.294C114.723 387.246 100.368 389.272 95.123 390.699C95.01 388.759 94.6329 386.843 94.0022 385.004C79.5321 386 74.6081 391.077 72.127 397.946Z" fill="#30242A"/>
<path d="M176.853 243.53C173.831 245.039 171.153 246.49 168.754 247.946L165.07 259.744L179.248 249.757L192.32 260.179L187.501 245.891L202.307 239.109L190.864 237.672C186.093 239.374 181.416 241.33 176.853 243.53Z" fill="#FFB494"/>
<path d="M218.626 237.391L217.668 243.632L223.914 241.232L218.626 237.391Z" fill="#FFB494"/>
<path d="M182.6 268.609L173.476 280.618L160.505 274.376L168.188 287.342L156.18 297.43L171.55 295.509L176.838 313.284L182.121 295.509L198.934 290.705L182.6 283.98V268.609Z" fill="#FFB494"/>
<path d="M131.302 360.298L132.423 357.098L147.75 356.284L135.296 347.806L140.843 334.523L128.299 342.886L125.904 340.3C123.988 346.608 122.292 352.227 120.635 357.165H120.711C120.893 356.624 121.075 356.078 121.257 355.522L131.302 360.298Z" fill="#FFB494"/>
<path d="M131.301 360.295L121.242 355.539C121.06 356.095 120.878 356.641 120.696 357.182C114.617 375.288 109.08 384.34 95.9131 384.896C95.2665 384.896 94.6438 384.958 94.0307 385.001C94.6614 386.84 95.0385 388.756 95.1515 390.697C100.42 389.26 114.752 387.243 114.68 392.292C114.603 397.709 101.469 396.497 94.9743 395.371C94.7156 397.27 94.2547 399.136 93.5996 400.937L136.996 421.423C142.897 414.239 154.119 399.17 165.318 376.356L131.301 360.295Z" fill="#EAA58B"/>
<path d="M169.629 323.852L168.192 336.822L154.742 336.343L166.271 344.994L161.96 360.365L173.499 350.272L183.869 357.189C184.157 356.272 184.42 355.345 184.66 354.406L180.684 344.505L186.844 337.757C186.944 336.502 187.04 335.266 187.131 334.064L176.373 335.86L169.629 323.852Z" fill="#FFB494"/>
<path d="M139.668 296.891C138.457 300.636 137.154 304.703 135.717 309.124L148.496 309.905L139.668 296.891Z" fill="#FFB494"/>
<path d="M184.795 413.905C184.996 411.031 185.624 393.74 190.04 394.051C195.788 394.453 189.106 414.207 189.106 414.207L184.795 413.905Z" fill="#30242A"/>
<path d="M291.172 225.602C291.172 225.602 243.134 234.511 216.713 245.556C190.039 256.712 190.298 276.522 195.097 330.336C199.408 378.513 207.11 401.906 191.265 409.11C176.733 415.72 171.684 424.007 172.374 431.584H243.91C244.313 431.584 244.713 431.505 245.085 431.351C245.458 431.196 245.796 430.97 246.081 430.685C246.366 430.4 246.593 430.061 246.747 429.689C246.901 429.316 246.981 428.917 246.981 428.514C246.981 427.7 246.657 426.919 246.081 426.343C245.505 425.767 244.725 425.444 243.91 425.444H242.703C244.959 418.062 248.231 403.655 248.681 379.811H257.552C257.552 379.811 262.112 358.735 257.073 339.94C251.804 320.249 246.985 316.886 244.107 303.437H287.153C320.026 303.437 344.631 273.031 337.48 240.948C335.248 230.923 332.01 225.621 332.01 225.621L291.172 225.602Z" fill="#FF7235"/>
<path d="M261.389 253.719L252.571 264.812L238.839 260.094L246.977 273.415L236.41 287.827L250.339 282.06L258.103 296.372L258.985 280.619L272.435 277.74L260.91 270.531L261.389 253.719Z" fill="#FFB494"/>
<path d="M242.201 339.352L250.344 352.672L239.777 367.085L253.706 361.337L258.87 370.854C259.626 363.459 260 352.519 257.586 342.015L255.938 344.089L242.201 339.352Z" fill="#FFB494"/>
<path d="M206.287 379.791L205.669 372.367L221.265 366.351L206.502 363.29L208.131 347.086L198.551 359.621L198.264 359.501C199.183 367.237 199.988 373.995 200.438 379.844V379.791H206.287Z" fill="#FFB494"/>
<path d="M243.91 425.426H242.703C244.959 418.045 248.23 403.637 248.681 379.793H200.423V379.836C200.461 380.315 200.495 380.794 200.528 381.273C200.528 381.316 200.528 381.364 200.528 381.407C201.529 396.375 199.896 405.131 191.246 409.064C176.713 415.674 171.665 423.96 172.354 431.538H243.91C244.724 431.538 245.505 431.214 246.081 430.638C246.657 430.063 246.98 429.282 246.98 428.467C246.98 427.653 246.657 426.872 246.081 426.296C245.505 425.721 244.724 425.397 243.91 425.397V425.426Z" fill="#EAA58B"/>
<path d="M307.962 226.844L285.895 228.798L288.194 237.669L274.078 245.198L291.662 247.55L297.611 260.727L303.727 247.081L321.613 244.255L306.079 236.256L307.962 226.844Z" fill="#FFB494"/>
<path d="M202.785 289.263L208.053 272.45L223.424 274.845L211.416 264.279L220.038 254.191L204.188 259.939L201.654 255.595C197.578 260.212 195.116 265.946 193.799 273.317L196.5 273.403L202.785 289.263Z" fill="#FFB494"/>
<path d="M243.91 236.523C240.667 237.424 237.439 238.368 234.287 239.34L246.985 247.962L243.91 236.523Z" fill="#FFB494"/>
<path d="M222.959 314.241L216.234 300.312L212.872 315.683L200.385 314.725L211.909 324.813L204.705 341.625L217.212 329.966L227.577 341.917L224.401 323.85L234.967 309.921L222.959 314.241Z" fill="#FFB494"/>
<path d="M194.445 419.807C200.797 418.054 213.193 413.542 210.951 408.613C208.863 404.015 196.744 411.966 192.611 415.505C191.567 413.591 190.234 411.849 188.659 410.342C176.119 416.727 171.717 424.458 172.374 431.566H243.91C244.724 431.566 245.505 431.242 246.081 430.667C246.657 430.091 246.98 429.31 246.98 428.496C246.98 427.681 246.657 426.9 246.081 426.325C245.505 425.749 244.724 425.425 243.91 425.425H195.58C195.401 423.518 195.02 421.634 194.445 419.807Z" fill="#30242A"/>
<path d="M243.91 304.497L231.543 304.324" stroke="#A15842" stroke-width="4" stroke-miterlimit="10" stroke-linecap="round"/>
<path d="M253.108 234.426C240.295 237.692 226.601 241.702 216.226 246.032C194.097 255.3 190.51 270.512 192.66 306.187" stroke="#A15842" stroke-width="4" stroke-miterlimit="10" stroke-linecap="round"/>
<path d="M415.713 231.621H403.949V431.564H415.713V231.621Z" fill="#FFBE21"/>
<path d="M415.713 234.371H403.949" stroke="#A15842" stroke-width="4" stroke-miterlimit="10"/>
<path d="M245.056 81.2759C238.35 80.3179 222.989 87.5267 222.482 101.776C221.974 116.026 234.696 120.605 236.731 121.626L266.251 117.042L268.287 84.4707L245.056 81.2759Z" fill="#A15842"/>
<path d="M297.207 45.8867C309.878 45.8867 320.15 35.6146 320.15 22.9434C320.15 10.2721 309.878 0 297.207 0C284.536 0 274.264 10.2721 274.264 22.9434C274.264 35.6146 284.536 45.8867 297.207 45.8867Z" fill="#A15842"/>
<path d="M282.326 38.7216C283.725 39.3682 271.946 11.4194 265.935 15.7782C260.278 19.8927 275.223 35.4453 282.326 38.7216Z" fill="#30242A"/>
<path d="M282.976 40.4312C284.26 41.9639 314.312 31.4502 310.154 25.3863C306.178 19.5522 281.693 38.8937 282.976 40.4312Z" fill="#30242A"/>
<path d="M322.871 117.298C322.871 117.298 343.046 100.485 330.056 81.7521C321.788 69.811 299.31 74.5673 299.31 74.5673C299.856 68.01 301.638 49.1189 287.431 38.7393C273.224 28.3597 255.2 33.8249 248.633 42.0155C242.066 50.2062 243.719 65.5097 241.535 76.4354C239.35 87.361 240.807 94.7901 247.541 98.2867C253.667 101.467 260.876 99.5464 260.876 99.5464L260.11 111.076C260.11 111.076 246.219 111.598 237.707 114.678C217.197 122.102 181.163 173.018 181.163 173.018C158.589 172.06 137.451 171.102 137.451 171.102L148.501 203.769C148.501 203.769 176.359 212.893 196.534 207.601C217.001 202.241 236.405 173.497 236.405 173.497L243.11 192.709L231.581 224.892H331.976L315.164 195.109C318.072 168.697 322.871 117.298 322.871 117.298Z" fill="#EAA58B"/>
<path d="M290.611 109.879L264.267 157.648L253.49 111.555C248.753 112.034 242.44 112.964 237.755 114.659C217.197 122.103 181.163 173.019 181.163 173.019C158.589 172.061 137.451 171.103 137.451 171.103L148.501 203.77C148.501 203.77 176.359 212.894 196.534 207.601C217.001 202.242 236.405 173.498 236.405 173.498L243.11 192.71L231.581 224.893H331.976L315.164 195.114C318.038 168.693 322.828 117.294 322.828 117.294C318.38 114.586 313.51 112.643 308.42 111.546C302.687 110.253 296.383 111.024 290.611 109.879Z" fill="#3546AB"/>
<path d="M154.183 221.534H237.373L218.458 161.795C217.902 160.035 216.799 158.497 215.31 157.406C213.821 156.315 212.023 155.726 210.176 155.727H139.871C138.505 155.726 137.158 156.047 135.939 156.665C134.721 157.282 133.665 158.179 132.858 159.281C132.051 160.384 131.516 161.661 131.296 163.009C131.075 164.357 131.176 165.738 131.589 167.04L147.223 216.443C147.692 217.92 148.62 219.211 149.871 220.126C151.122 221.041 152.633 221.535 154.183 221.534Z" fill="#30242A"/>
<path d="M166.579 182.75C168.787 179.732 178.803 187.703 179.54 188.359C179.924 187.703 185.14 179.737 188.962 182.75C192.281 185.365 184.986 197.048 183.047 200.027C182.965 200.117 182.866 200.189 182.755 200.239C182.644 200.288 182.524 200.314 182.402 200.314C182.281 200.314 182.161 200.288 182.05 200.239C181.939 200.189 181.839 200.117 181.758 200.027C178.218 197.048 164.663 185.365 166.579 182.75Z" fill="#A15842"/>
<path d="M178.714 184.77C179.55 184.51 179.582 182.225 178.785 179.666C177.988 177.108 176.664 175.245 175.828 175.505C174.992 175.765 174.96 178.051 175.757 180.609C176.554 183.168 177.878 185.031 178.714 184.77Z" fill="#A15842"/>
<path d="M285.678 214.812C285.919 215.585 285.974 216.403 285.841 217.202C285.708 218 285.388 218.756 284.909 219.409C284.43 220.061 283.805 220.592 283.083 220.958C282.361 221.325 281.563 221.516 280.754 221.518H154.182C152.632 221.518 151.121 221.025 149.87 220.11C148.619 219.194 147.691 217.904 147.222 216.426L146.705 214.793L285.678 214.812Z" fill="#30242A"/>
<path d="M435.983 221.535H65.1484V233.543H435.983V221.535Z" fill="#FFBE21"/>
<path d="M361.975 287.338L369.677 257.215H324.748C314.739 257.215 305.015 260.548 297.109 266.686C289.203 272.825 283.565 281.42 281.084 291.117L275.863 311.522H330.827C337.967 311.522 344.904 309.145 350.544 304.766C356.183 300.387 360.205 294.255 361.975 287.338Z" fill="#FFB494"/>
<path d="M276.927 303.625L275.15 311.135" stroke="#A15842" stroke-width="4" stroke-linecap="round" stroke-linejoin="round"/>
<path d="M133.447 172.832C127.857 175.625 125.064 180.28 125.064 183.542C125.064 188.303 129.912 189.199 129.912 189.199C129.912 189.199 126.295 194.884 132.585 197.552C132.585 197.552 132.585 203.406 138.442 203.406C138.442 203.406 137.667 207.97 143.778 208.401C149.89 208.833 156.179 205.643 156.711 203.578C157.319 201.14 155.676 199.1 151.241 198.453C151.241 198.453 157.228 195.656 156.28 192.126C155.331 188.595 151.284 188.677 151.284 188.677C151.284 188.677 155.159 186.354 153.09 182.929C151.021 179.504 147.064 180.692 147.064 180.692C147.064 180.692 148.099 178.297 146.288 176.472C144.133 174.317 134.864 177.038 134.864 177.038L133.447 172.832Z" fill="#EAA58A"/>
<path d="M138.486 203.632C143.53 202.423 148.424 200.656 153.076 198.363" stroke="#A15842" stroke-width="4" stroke-miterlimit="10" stroke-linecap="round"/>
<path d="M132.57 197.524C139.563 195.606 146.24 192.681 152.391 188.84" stroke="#A15842" stroke-width="4" stroke-miterlimit="10" stroke-linecap="round"/>
<path d="M129.434 189.877C135.914 187.96 142.037 184.994 147.558 181.098" stroke="#A15842" stroke-width="4" stroke-miterlimit="10" stroke-linecap="round"/>
<path d="M330.081 81.7521C321.813 69.811 299.335 74.5673 299.335 74.5673C299.881 68.01 301.662 49.1189 287.456 38.7393C273.249 28.3597 255.225 33.8249 248.658 42.0155C245.985 45.3684 244.678 49.8804 243.916 54.8044C248.275 55.5373 254.669 54.038 254.669 54.038C263.411 63.8716 271.242 65.4331 271.242 65.4331C277.359 59.3164 288.088 59.5176 289.831 68.786C291.642 78.4088 276.271 82.734 276.271 82.734C276.271 82.734 274.834 100.025 282.498 106.271C284.85 108.136 287.631 109.382 290.588 109.897C296.336 111.042 302.663 110.271 308.44 111.555C313.53 112.652 318.4 114.595 322.848 117.302C324.603 115.756 326.207 114.046 327.638 112.196C332.677 105.807 338.702 94.2057 330.081 81.7521Z" fill="#A15842"/>
<path d="M263.789 50.5312C260.915 52.9262 257.562 54.3631 253.701 55.3211" stroke="#EAA58B" stroke-width="4" stroke-miterlimit="10" stroke-linecap="round"/>
<path d="M260.719 100.624C262.949 99.8798 265.101 98.9172 267.142 97.75" stroke="#A15842" stroke-width="4" stroke-miterlimit="10" stroke-linecap="round"/>
<path d="M276.859 73.074L281.228 70.3438" stroke="#A15842" stroke-width="4" stroke-miterlimit="10" stroke-linecap="round"/>
<path d="M251.795 85.8976C252.7 86.458 256.106 86.8939 257.457 84.293" stroke="#A15842" stroke-width="4" stroke-miterlimit="10" stroke-linecap="round"/>
<path d="M260.695 73.6044C261.599 73.6044 262.333 72.871 262.333 71.9663C262.333 71.0615 261.599 70.3281 260.695 70.3281C259.79 70.3281 259.057 71.0615 259.057 71.9663C259.057 72.871 259.79 73.6044 260.695 73.6044Z" fill="#30242A"/>
<path d="M247.115 71.4364C248.019 71.4364 248.753 70.703 248.753 69.7983C248.753 68.8936 248.019 68.1602 247.115 68.1602C246.21 68.1602 245.477 68.8936 245.477 69.7983C245.477 70.703 246.21 71.4364 247.115 71.4364Z" fill="#30242A"/>
<path d="M251.727 76.125C251.402 77.1548 251.119 78.2757 251.306 78.6493C251.562 79.1227 251.952 79.5106 252.427 79.7653" stroke="#A15842" stroke-width="4" stroke-miterlimit="10" stroke-linecap="round"/>
<path d="M278.914 89.1249C282.083 89.1249 284.652 86.5558 284.652 83.3867C284.652 80.2175 282.083 77.6484 278.914 77.6484C275.745 77.6484 273.176 80.2175 273.176 83.3867C273.176 86.5558 275.745 89.1249 278.914 89.1249Z" fill="#F5EBDD"/>
<path d="M251.311 70.7203C252.304 65.6178 249.385 60.757 244.791 59.8633C240.198 58.9695 235.669 62.3814 234.676 67.4838C233.684 72.5863 236.603 77.4472 241.196 78.3409C245.79 79.2346 250.318 75.8227 251.311 70.7203Z" stroke="#30242A" stroke-width="4" stroke-miterlimit="10" stroke-linecap="round"/>
<path d="M272.122 73.2711C273.114 68.1686 270.195 63.3078 265.602 62.414C261.008 61.5203 256.48 64.9322 255.487 70.0346C254.494 75.1371 257.413 79.9979 262.007 80.8917C266.6 81.7854 271.129 78.3735 272.122 73.2711Z" stroke="#30242A" stroke-width="4" stroke-miterlimit="10" stroke-linecap="round"/>
<path d="M251.703 69.9453L255.013 70.2998" stroke="#30242A" stroke-width="4" stroke-miterlimit="10" stroke-linecap="round"/>
<path d="M300.432 75.1992L299.479 81.3302" stroke="#30242A" stroke-width="4" stroke-miterlimit="10" stroke-linecap="round"/>
<path d="M231.127 161.012L235.764 174.505" stroke="#30242A" stroke-width="4" stroke-linecap="round" stroke-linejoin="round"/>
<path d="M255.622 191.754H243.432" stroke="#30242A" stroke-width="4" stroke-linecap="round" stroke-linejoin="round"/>
<path d="M265.23 157.168L269.072 175.901V193.192" stroke="#30242A" stroke-width="4" stroke-linecap="round" stroke-linejoin="round"/>
<path d="M239.681 114.242L246.976 130.748L238.33 129.79L269.071 175.902" stroke="#30242A" stroke-width="4" stroke-linecap="round" stroke-linejoin="round"/>
<path d="M310.759 112.277L298.377 129.789L309.906 128.826L267.631 166.292" stroke="#30242A" stroke-width="4" stroke-linecap="round" stroke-linejoin="round"/>
<path d="M317.195 170.998L307.984 158.133" stroke="#30242A" stroke-width="4" stroke-linecap="round" stroke-linejoin="round"/>
<path d="M327.852 218.416C322.837 216.745 313.837 213.516 308.41 210.273" stroke="#30242A" stroke-width="4" stroke-linecap="round" stroke-linejoin="round"/>
<path d="M189.521 99.23C194.725 99.23 198.943 95.0118 198.943 89.8084C198.943 84.6049 194.725 80.3867 189.521 80.3867C184.318 80.3867 180.1 84.6049 180.1 89.8084C180.1 95.0118 184.318 99.23 189.521 99.23Z" fill="#FFB494"/>
<path d="M161.364 52.3132L155.878 45.6989C155.034 44.6808 153.524 44.54 152.506 45.3843L152.388 45.4821C151.37 46.3265 151.229 47.8363 152.074 48.8544L157.559 55.4688C158.403 56.4869 159.913 56.6277 160.931 55.7834L161.049 55.6855C162.067 54.8412 162.208 53.3313 161.364 52.3132Z" fill="#3546AB"/>
<path d="M171.229 60.3532L165.711 53.6953L66.528 135.937C65.663 136.655 65.1186 137.687 65.0144 138.806C64.9102 139.925 65.2547 141.04 65.9723 141.905L66.0825 142.039C66.4375 142.467 66.8734 142.821 67.3653 143.081C67.8571 143.341 68.3953 143.501 68.9491 143.552C69.5028 143.604 70.0614 143.546 70.5927 143.382C71.1241 143.217 71.6179 142.95 72.0459 142.595L103.055 116.873V207.129H111.711V109.689L171.229 60.3532Z" fill="#3EC1F3"/>
<path d="M155.246 62.2695L158.01 65.6224C158.972 66.7857 159.704 68.122 160.165 69.5597" stroke="#3546AB" stroke-width="4" stroke-miterlimit="10"/>
<path d="M107.381 118.868C113.617 118.868 118.671 113.814 118.671 107.579C118.671 101.344 113.617 96.2891 107.381 96.2891C101.146 96.2891 96.0918 101.344 96.0918 107.579C96.0918 113.814 101.146 118.868 107.381 118.868Z" fill="#3546AB"/>
<path d="M107.381 111.921C109.777 111.921 111.72 109.978 111.72 107.582C111.72 105.185 109.777 103.242 107.381 103.242C104.984 103.242 103.041 105.185 103.041 107.582C103.041 109.978 104.984 111.921 107.381 111.921Z" fill="#3EC1F3"/>
<path d="M197.258 84.4609L182.816 96.3972" stroke="#A15842" stroke-width="4" stroke-miterlimit="10"/>
<path d="M178.548 59.1469C175.511 58.7901 172.729 57.2771 170.778 54.9222L166.947 50.2904C165.592 48.6599 163.646 47.6336 161.536 47.4369C159.425 47.2402 157.323 47.8892 155.69 49.2414C154.883 49.9113 154.215 50.7337 153.725 51.6616C153.235 52.5896 152.933 53.605 152.835 54.6498C152.738 55.6947 152.847 56.7484 153.157 57.751C153.467 58.7535 153.971 59.6852 154.641 60.4928L158.473 65.1389C160.415 67.4871 161.38 70.4912 161.17 73.5308L160.212 87.5363C159.737 94.3891 161.477 101.213 165.174 107.002L166.4 108.918L212.349 70.8053L210.702 69.2582C205.701 64.5529 199.32 61.5792 192.5 60.7754L178.548 59.1469Z" fill="#3EC1F3"/>
<path d="M111.71 207.129H103.055L90.261 210.616C87.8656 211.27 85.7515 212.693 84.2446 214.666C82.7377 216.64 81.9215 219.054 81.9219 221.537H132.838C132.838 219.053 132.021 216.638 130.513 214.665C129.006 212.691 126.89 211.269 124.494 210.616L111.71 207.129Z" fill="#3EC1F3"/>
<path d="M203.632 64.0273L161.582 98.7825" stroke="#3546AB" stroke-width="4" stroke-miterlimit="10" stroke-linecap="round"/>
<path d="M102.846 206.137H111.712" stroke="#3546AB" stroke-width="4" stroke-miterlimit="10" stroke-linecap="round"/>
<path d="M83.6035 215.547H130.87" stroke="#3546AB" stroke-width="4" stroke-miterlimit="10" stroke-linecap="round"/>
<path d="M356.021 345.102C356.979 336.96 356.5 318.682 345.934 304.753C335.367 290.824 349.766 296.61 354.077 300.442C360.974 306.573 367.047 312.45 372.331 332.146L356.021 345.102Z" fill="#30242A"/>
<path d="M483.609 431.566H540V429.722C539.998 427.122 538.965 424.63 537.126 422.792C535.287 420.954 532.794 419.922 530.195 419.922H483.316L483.609 431.566Z" fill="#A15842"/>
<path d="M346.05 377.725L357.943 431.563H380.043V428.21C380.043 426.049 379.186 423.975 377.66 422.444C376.133 420.913 374.062 420.05 371.9 420.044C371.9 420.044 382.946 411.762 389.671 403.595C389.671 403.595 401.2 417.644 417.533 415.24L418.716 420.987C419.332 423.971 420.956 426.651 423.316 428.577C425.675 430.503 428.627 431.558 431.673 431.563H485.238C508.995 431.563 520.683 427.937 521.353 414.411C521.374 413.895 521.29 413.38 521.107 412.897C520.923 412.415 520.644 411.974 520.286 411.602C519.929 411.23 519.499 410.933 519.024 410.731C518.549 410.529 518.038 410.425 517.521 410.426H502.567C501.951 410.426 501.342 410.289 500.786 410.022C500.229 409.756 499.74 409.369 499.353 408.888L492.988 400.99C491.101 398.652 488.583 396.906 485.732 395.957C482.882 395.009 479.819 394.899 476.908 395.64L464.105 398.911C464.105 398.911 441.42 366.311 420.872 343.67C401.233 322.053 364.294 319.72 349.742 347.875C345.064 357.089 343.758 367.649 346.05 377.725Z" fill="#A15842"/>
<path d="M479.955 431.566V429.722C479.955 428.435 479.701 427.16 479.208 425.97C478.715 424.781 477.993 423.701 477.082 422.791C476.172 421.88 475.091 421.159 473.901 420.666C472.712 420.174 471.437 419.921 470.15 419.922H463.621" stroke="#30242A" stroke-width="4" stroke-miterlimit="10"/>
<path d="M390.562 403.982C393.915 399.992 405.358 385.301 404.539 370.932C403.663 355.556 394.452 347.395 394.452 347.395" stroke="#30242A" stroke-width="4" stroke-miterlimit="10" stroke-linecap="round"/>
<path d="M414.625 394.941C414.625 394.941 415.238 406.308 416.469 414.795" stroke="#30242A" stroke-width="4" stroke-miterlimit="10" stroke-linecap="round"/>
<path d="M368.514 426.645V431.085" stroke="#30242A" stroke-width="4" stroke-miterlimit="10" stroke-linecap="round"/>
<path d="M373.797 426.645V431.085" stroke="#30242A" stroke-width="4" stroke-miterlimit="10" stroke-linecap="round"/>
<path d="M469.389 426.645V431.085" stroke="#30242A" stroke-width="4" stroke-miterlimit="10" stroke-linecap="round"/>
<path d="M474.672 426.645V431.085" stroke="#30242A" stroke-width="4" stroke-miterlimit="10" stroke-linecap="round"/>
<path d="M488.84 413.676C490.033 413.676 491 412.709 491 411.516C491 410.323 490.033 409.355 488.84 409.355C487.647 409.355 486.68 410.323 486.68 411.516C486.68 412.709 487.647 413.676 488.84 413.676Z" fill="#30242A"/>
<path d="M477.052 395.597V395.539L464.086 398.892L476.889 395.621L477.052 395.597Z" fill="#30242A"/>
<path d="M445.142 420.138C441.386 422.054 436.079 425.804 436.52 431.485H457.375L461.758 424.573C462.474 423.443 463.464 422.511 464.636 421.866C465.809 421.22 467.125 420.881 468.463 420.88H469.857L477.004 395.743L476.898 395.633L464.095 398.904L451.838 414.605C450.033 416.913 447.749 418.801 445.142 420.138Z" fill="#30242A"/>
<path d="M414.683 355.406C414.683 355.406 408.882 375.485 427.615 383.067C437.114 386.899 445.002 383.992 450.477 380.194C442.205 369.177 431.26 355.152 420.866 343.695C418.26 340.827 415.332 338.27 412.139 336.074C409.304 339.935 406.2 349.486 414.683 355.406Z" fill="#EAA58B"/>
<path d="M366.833 369.968C371.212 369.968 374.761 366.419 374.761 362.04C374.761 357.662 371.212 354.113 366.833 354.113C362.455 354.113 358.906 357.662 358.906 362.04C358.906 366.419 362.455 369.968 366.833 369.968Z" fill="#EAA58B"/>
<path d="M517.541 410.43H514.667C514.509 411.231 514.53 412.058 514.729 412.85C514.928 413.642 515.299 414.381 515.817 415.012C516.335 415.644 516.986 416.154 517.724 416.504C518.462 416.855 519.268 417.037 520.085 417.04C520.422 417.04 520.759 417.007 521.091 416.944C521.237 416.107 521.331 415.263 521.373 414.415C521.394 413.899 521.31 413.384 521.127 412.901C520.943 412.419 520.664 411.978 520.307 411.606C519.949 411.233 519.519 410.937 519.044 410.735C518.569 410.533 518.058 410.429 517.541 410.43Z" fill="#30242A"/>
<path d="M528.949 426.645V430.975" stroke="#30242A" stroke-width="4" stroke-miterlimit="10" stroke-linecap="round"/>
<path d="M534.232 426.645V430.975" stroke="#30242A" stroke-width="4" stroke-miterlimit="10" stroke-linecap="round"/>
<path d="M499.961 430.991C511.706 429.808 518.708 426.627 521.252 419.859" stroke="#30242A" stroke-width="4" stroke-linecap="round" stroke-linejoin="round"/>
<path d="M308.463 178.98C302.552 178.451 296.609 178.385 290.688 178.784C282.22 179.479 270.834 181.696 266.26 183.909C261.686 186.122 244.169 193.934 248.887 196.554C253.198 198.949 262.241 195.347 262.241 195.347C262.241 195.347 253.217 203.643 251.665 207.116C250.113 210.589 255.243 212.538 255.243 212.538C256.594 218.468 262.639 215.92 262.639 215.92C266.447 224.019 287.019 206.469 287.019 206.469C291.914 206.978 296.856 206.77 301.69 205.852C301.69 205.852 304.296 207.312 308.478 209.343L308.463 178.98Z" fill="#EAA58A"/>
<path d="M359.858 219.613C398.287 201.359 342.581 133.156 322.871 117.297L311.825 161.972L325.754 181.184C319.652 180.13 313.818 179.407 308.463 178.981V209.343C320.658 215.273 346.284 226.079 359.858 219.613Z" fill="#3546AB"/>
<path d="M260.402 195.853C263.813 193.032 269.474 188.472 273.699 185.723" stroke="#A15842" stroke-width="4" stroke-miterlimit="10" stroke-linecap="round"/>
<path d="M278.355 192.461C268.54 198.817 259.598 207.309 255.172 211.754" stroke="#A15842" stroke-width="4" stroke-miterlimit="10" stroke-linecap="round"/>
<path d="M282.708 199.652C276.002 204.255 268.219 211.234 263.137 216.024" stroke="#A15842" stroke-width="4" stroke-miterlimit="10" stroke-linecap="round"/>
<path d="M398 197.069C398.727 197.07 399.423 197.359 399.936 197.873C400.45 198.386 400.739 199.082 400.74 199.809V200.216C400.739 200.942 400.45 201.638 399.936 202.152C399.423 202.665 398.727 202.954 398 202.956H383.885V197.069H398ZM398 193.237H380.57C380.502 193.237 380.434 193.251 380.371 193.277C380.308 193.303 380.251 193.342 380.203 193.39C380.154 193.439 380.116 193.496 380.091 193.56C380.065 193.623 380.052 193.691 380.053 193.759V206.285C380.053 206.422 380.107 206.553 380.204 206.65C380.301 206.747 380.433 206.802 380.57 206.802H398C398.865 206.802 399.72 206.631 400.519 206.3C401.317 205.969 402.042 205.484 402.652 204.872C403.263 204.26 403.746 203.534 404.076 202.735C404.405 201.936 404.574 201.08 404.572 200.216V199.794C404.572 198.051 403.88 196.38 402.647 195.147C401.415 193.915 399.743 193.223 398 193.223V193.237Z" fill="#3EC1F3"/>
<path d="M376.924 191.173C362.65 191.173 356.055 179.797 356.055 179.797L365.634 221.536H388.185L397.765 179.797C395.54 183.304 392.46 186.188 388.815 188.178C385.169 190.168 381.077 191.199 376.924 191.173Z" fill="#3EC1F3"/>
<path d="M376.924 191.173C381.082 191.203 385.18 190.175 388.831 188.185C392.482 186.195 395.566 183.308 397.793 179.797H356.055C356.055 179.797 362.65 191.173 376.924 191.173Z" fill="#30242A"/>
</svg>
