<svg width="600" height="400" viewBox="0 0 600 400" fill="none" xmlns="http://www.w3.org/2000/svg">
<path d="M557.712 120.904C557.578 121.368 557.367 121.807 557.088 122.2C556.451 123.133 555.557 123.862 554.516 124.299C553.474 124.736 552.328 124.863 551.216 124.664C550.165 124.478 549.183 124.011 548.376 123.312C547.939 122.94 547.562 122.503 547.256 122.016C546.929 121.526 546.683 120.986 546.528 120.416C546.188 119.19 546.252 117.887 546.711 116.7C547.169 115.513 547.997 114.505 549.072 113.824C549.564 113.499 550.104 113.253 550.672 113.096C551.463 112.88 552.29 112.831 553.101 112.95C553.912 113.07 554.689 113.357 555.384 113.792C556.343 114.391 557.108 115.254 557.588 116.277C558.067 117.301 558.241 118.441 558.088 119.56C558.03 120.039 557.892 120.504 557.68 120.936C557.68 120.936 557.856 120.448 557.96 119.544C558.092 118.257 557.79 116.962 557.104 115.864C556.601 115.06 555.903 114.394 555.076 113.928C554.248 113.463 553.317 113.213 552.368 113.2C551.827 113.188 551.288 113.258 550.768 113.408C550.221 113.556 549.7 113.788 549.224 114.096C548.213 114.745 547.436 115.699 547.004 116.82C546.573 117.94 546.51 119.169 546.824 120.328C546.971 120.879 547.203 121.402 547.512 121.88C547.795 122.343 548.149 122.759 548.56 123.112C549.274 123.738 550.134 124.176 551.06 124.385C551.986 124.595 552.95 124.57 553.864 124.312C555.108 123.962 556.198 123.204 556.96 122.16C557.512 121.384 557.672 120.888 557.712 120.904Z" fill="#E0E0E0"/>
<path d="M563.2 126.402H563.4L564.016 126.482L566.416 126.802L566.36 126.842C566.848 125.538 567.496 123.834 568.272 121.77V121.874L565.552 120.058H565.504V120.002C565.63 118.835 565.598 117.656 565.408 116.498V116.434L565.456 116.394L568.08 114.426V114.57L565.872 109.626L566.016 109.698L562.816 110.338H562.736L562.68 110.274C561.944 109.366 561.091 108.559 560.144 107.874L560.072 107.826V107.738C560.216 106.738 560.376 105.626 560.536 104.538L560.632 104.698L555.576 102.754L555.76 102.698L553.936 105.418L553.888 105.498H553.792C552.63 105.372 551.457 105.402 550.304 105.586H550.208L550.144 105.506L548.192 102.882L548.384 102.938L543.432 105.138L543.528 104.954L544.16 108.154V108.258L544.08 108.322C543.169 109.049 542.362 109.897 541.68 110.842V110.842L541.52 110.914H541.416H541.312H541.112L540.704 110.858L539.904 110.738L538.304 110.498L538.48 110.394C537.824 112.106 537.168 113.794 536.528 115.45L536.472 115.258L539.184 117.082L539.272 117.138V117.234C539.145 118.395 539.174 119.568 539.36 120.722V120.818L539.28 120.874L536.656 122.834L536.704 122.642C537.456 124.33 538.184 125.986 538.896 127.594L538.728 127.506L541.928 126.874H542.024L542.08 126.946C542.811 127.852 543.658 128.659 544.6 129.346L544.672 129.394V129.482C544.504 130.594 544.344 131.666 544.192 132.682L544.104 132.538L549.152 134.498L549 134.546L550.832 131.826L550.872 131.77H550.944C552.11 131.897 553.288 131.87 554.448 131.69H554.512L554.552 131.738L556.496 134.37H556.384L561.344 132.194L561.296 132.274C561.056 130.986 560.856 129.938 560.688 129.074C561.384 128.525 562.025 127.908 562.6 127.234L563.016 126.73C563.058 126.611 563.12 126.5 563.2 126.402L563.08 126.586C563 126.706 562.864 126.882 562.68 127.106C562.122 127.802 561.492 128.438 560.8 129.002V128.946C560.976 129.826 561.192 130.874 561.456 132.146V132.21H561.4L556.464 134.426H556.392L556.344 134.362L554.4 131.842H554.504C553.327 132.035 552.13 132.069 550.944 131.946L551.056 131.89L549.24 134.618L549.184 134.698H549.088L544 132.802H543.904V132.69C544.056 131.642 544.208 130.562 544.368 129.49L544.424 129.626C543.457 128.923 542.588 128.094 541.84 127.162L541.984 127.218L538.784 127.858H538.664L538.616 127.746L536.416 122.794L536.36 122.674L536.464 122.602L539.088 120.642L539.024 120.794C538.834 119.614 538.805 118.413 538.936 117.226L539.008 117.378L536.288 115.554L536.176 115.482L536.224 115.354C536.864 113.695 537.512 112.01 538.168 110.298L538.216 110.178H538.352L539.952 110.418L540.752 110.538L541.16 110.594H541.36H541.464H541.6L541.44 110.666C542.141 109.695 542.97 108.823 543.904 108.074L543.848 108.234L543.216 105.034V104.898L543.336 104.85L548.296 102.65L548.416 102.602L548.488 102.706L550.448 105.33L550.288 105.266C551.471 105.08 552.674 105.053 553.864 105.186L553.712 105.25L555.544 102.538L555.608 102.434L555.728 102.474L560.776 104.434L560.888 104.474V104.594C560.72 105.722 560.56 106.826 560.408 107.794L560.352 107.658C561.32 108.362 562.189 109.194 562.936 110.13L562.8 110.074L566 109.45H566.104V109.546L568.288 114.506V114.594L568.216 114.65L565.6 116.586L565.64 116.482C565.821 117.657 565.848 118.851 565.72 120.034L565.672 119.946L568.384 121.778L568.44 121.818V121.882C567.64 123.938 566.968 125.634 566.464 126.922H566.4L564 126.538L563.384 126.434L563.2 126.402Z" fill="#E0E0E0"/>
<path fill-rule="evenodd" clip-rule="evenodd" d="M530.976 94.2805C529.878 95.7769 528.586 97.1218 527.136 98.2805L528.136 103.345L520.32 106.817L517.24 102.673C515.388 102.968 513.504 103.014 511.64 102.809L508.8 107.137L500.8 104.057L501.544 98.9525C500.046 97.8531 498.701 96.559 497.544 95.1045L492.472 96.1045L489.008 88.2965L493.152 85.2085C492.858 83.3563 492.809 81.4734 493.008 79.6085L488.704 76.8005L491.776 68.8005L496.888 69.5445C497.987 68.0483 499.278 66.7034 500.728 65.5445L499.728 60.4725L507.544 57.0085L510.632 61.1525C512.484 60.8561 514.368 60.8103 516.232 61.0165L519.112 56.7285L527.112 59.8005L526.36 64.9045C527.856 66.0064 529.201 67.3002 530.36 68.7525L535.424 67.7525L538.888 75.5605L534.752 78.6485C535.049 80.5006 535.094 82.3842 534.888 84.2485L539.176 87.1285L536.104 95.1285L530.992 94.3845L530.976 94.2805ZM522.352 85.6005C523.003 83.9084 523.137 82.0614 522.738 80.293C522.339 78.5246 521.425 76.9141 520.111 75.6652C518.797 74.4163 517.142 73.585 515.356 73.2763C513.569 72.9677 511.731 73.1956 510.074 73.9313C508.418 74.6669 507.016 75.8773 506.047 77.4094C505.078 78.9414 504.584 80.7264 504.63 82.5387C504.675 84.351 505.256 86.1093 506.3 87.5912C507.345 89.0731 508.805 90.2122 510.496 90.8645C511.62 91.298 512.819 91.5057 514.023 91.4757C515.227 91.4457 516.414 91.1786 517.515 90.6897C518.616 90.2009 519.61 89.4997 520.44 88.6265C521.27 87.7533 521.92 86.725 522.352 85.6005V85.6005Z" fill="#EBEBEB"/>
<path fill-rule="evenodd" clip-rule="evenodd" d="M521.328 172.465C519.572 174.889 517.497 177.066 515.16 178.937L516.76 187.073L504.224 192.673L499.264 186.017C496.309 186.494 493.304 186.572 490.328 186.249L485.712 193.129L472.912 188.193L474.112 180.001C471.69 178.242 469.513 176.168 467.64 173.833L459.504 175.433L453.904 162.897L460.552 157.937C460.077 154.981 460.001 151.976 460.328 149.001L453.44 144.385L458.376 131.585L466.576 132.785C468.332 130.358 470.407 128.178 472.744 126.305L471.144 118.169L483.688 112.609L488.64 119.257C491.598 118.785 494.606 118.71 497.584 119.033L502.2 112.145L515 117.081L513.8 125.281C516.222 127.039 518.399 129.113 520.272 131.449L528.408 129.849L534.008 142.385L527.352 147.337C527.826 150.294 527.904 153.302 527.584 156.281L534.464 160.897L529.528 173.697L521.328 172.497V172.465ZM507.48 158.481C508.528 155.764 508.746 152.798 508.108 149.957C507.469 147.116 506.003 144.528 503.894 142.521C501.785 140.514 499.128 139.177 496.259 138.68C493.39 138.183 490.438 138.548 487.776 139.729C485.115 140.909 482.863 142.853 481.307 145.313C479.75 147.774 478.958 150.641 479.031 153.552C479.103 156.462 480.038 159.286 481.715 161.666C483.393 164.045 485.739 165.874 488.456 166.921C492.098 168.323 496.148 168.222 499.715 166.639C503.283 165.056 506.076 162.122 507.48 158.481V158.481Z" fill="#EBEBEB"/>
<path d="M173.68 59.4969C174.534 65.2834 173.652 71.1932 171.146 76.4783C168.64 81.7634 164.623 86.1862 159.602 89.1869C154.581 92.1877 148.783 93.6315 142.941 93.3355C137.1 93.0396 131.477 91.0172 126.785 87.5244C122.094 84.0316 118.543 79.2254 116.584 73.7141C114.625 68.2028 114.345 62.2342 115.78 56.5637C117.214 50.8932 120.299 45.7757 124.643 41.859C128.987 37.9423 134.396 35.4025 140.184 34.5609C144.021 33.9978 147.931 34.1962 151.691 35.1447C155.451 36.0933 158.988 37.7734 162.098 40.0891C165.209 42.4048 167.833 45.3107 169.82 48.6407C171.807 51.9708 173.119 55.6598 173.68 59.4969V59.4969Z" fill="#F5F5F5"/>
<path d="M166.72 60.5054C167.371 64.9153 166.7 69.4195 164.791 73.4477C162.882 77.476 159.82 80.8472 155.994 83.1347C152.168 85.4222 147.749 86.5232 143.297 86.2982C138.845 86.0732 134.559 84.5324 130.983 81.8708C127.407 79.2092 124.701 75.5465 123.208 71.3463C121.714 67.146 121.5 62.5972 122.593 58.2754C123.686 53.9536 126.037 50.0533 129.348 47.0681C132.658 44.0828 136.78 42.1469 141.192 41.5054C147.096 40.6403 153.103 42.1559 157.89 45.719C162.678 49.2821 165.854 54.6008 166.72 60.5054V60.5054Z" fill="#EBEBEB"/>
<path d="M166.608 59.8084C166.472 59.8084 166.24 58.8724 165.632 57.2164C164.783 54.8906 163.58 52.7101 162.064 50.7524C159.825 47.8776 156.92 45.5906 153.6 44.0884C152.649 43.6569 151.668 43.296 150.664 43.0084C149.617 42.697 148.547 42.4696 147.464 42.3284C146.348 42.1767 145.222 42.1098 144.096 42.1284C142.938 42.1614 141.783 42.2736 140.64 42.4644C139.498 42.6764 138.372 42.9705 137.272 43.3444C136.207 43.7121 135.172 44.1615 134.176 44.6884C133.217 45.1844 132.299 45.757 131.432 46.4004C130.583 47.0143 129.78 47.6909 129.032 48.4244C127.651 49.7831 126.449 51.3129 125.456 52.9764C124.606 54.439 123.916 55.9894 123.4 57.6004C122.651 59.9571 122.274 62.4157 122.28 64.8884C122.28 66.6484 122.392 67.6324 122.28 67.6564C122.168 67.6804 121.84 66.7284 121.632 64.9204C121.36 62.3496 121.569 59.7508 122.248 57.2564C123.263 53.5059 125.224 50.079 127.944 47.3044C129.545 45.672 131.381 44.2887 133.392 43.2004C134.462 42.6234 135.575 42.1287 136.72 41.7204C139.089 40.8888 141.577 40.4484 144.088 40.4164C145.303 40.3991 146.518 40.4793 147.72 40.6564C148.881 40.8293 150.026 41.0968 151.144 41.4564C152.218 41.7831 153.266 42.1896 154.28 42.6724C156.147 43.5705 157.887 44.711 159.456 46.0644C160.807 47.251 162.013 48.5937 163.048 50.0644C164.539 52.1735 165.624 54.5419 166.248 57.0484C166.696 58.7844 166.712 59.7924 166.608 59.8084Z" fill="#E0E0E0"/>
<path d="M148.88 76.6732L149.504 80.5532L146.04 81.1052L145.44 77.3372C141.984 77.6732 138.52 77.1292 136.384 75.9452L137.6 71.4172C139.809 72.491 142.261 72.9682 144.712 72.8012L143.784 67.0252C139.784 66.7052 135.304 66.1132 134.512 61.1692C133.928 57.4972 136.112 53.9692 141.448 52.4252L140.832 48.5852L144.296 48.0332L144.896 51.8012C147.393 51.5409 149.917 51.881 152.256 52.7932L151.2 57.3212C149.415 56.6352 147.511 56.3116 145.6 56.3692L146.536 62.2492C150.536 62.5372 154.944 63.1372 155.728 68.0172C156.336 71.6172 154.208 75.1532 148.88 76.6732ZM142.976 61.9372L142.176 57.0252C140.408 57.7372 139.848 58.8572 140.032 60.0012C140.216 61.1452 141.376 61.6972 142.976 61.9372ZM150.256 69.3212C150.064 68.1132 148.96 67.6172 147.384 67.3372L148.184 72.1372C149.816 71.4492 150.4 70.4012 150.256 69.3212Z" fill="#E0E0E0"/>
<path d="M164.536 163.818C166.021 173.863 164.493 184.122 160.145 193.298C155.796 202.474 148.823 210.154 140.108 215.365C131.393 220.576 121.328 223.084 111.186 222.571C101.045 222.059 91.2839 218.549 83.1384 212.486C74.9929 206.423 68.8294 198.08 65.4281 188.512C62.0268 178.945 61.5407 168.583 64.0313 158.739C66.5219 148.895 71.8772 140.011 79.4192 133.212C86.9613 126.414 96.351 122.005 106.4 120.546C119.847 118.575 133.527 122.027 144.429 130.142C155.332 138.257 162.564 150.37 164.536 163.818V163.818Z" fill="#F5F5F5"/>
<path d="M152.456 165.6C153.586 173.256 152.421 181.074 149.106 188.066C145.791 195.058 140.476 200.91 133.834 204.88C127.192 208.85 119.521 210.76 111.793 210.368C104.065 209.977 96.6266 207.301 90.4198 202.68C84.2129 198.06 79.5166 191.701 76.9253 184.41C74.334 177.118 73.9642 169.222 75.8627 161.721C77.7612 154.219 81.8427 147.449 87.5905 142.268C93.3383 137.088 100.494 133.729 108.152 132.617C118.4 131.117 128.825 133.75 137.133 139.935C145.441 146.121 150.953 155.352 152.456 165.6V165.6Z" fill="#EBEBEB"/>
<path d="M152.272 164.37C152.04 164.37 151.624 162.77 150.568 159.858C149.098 155.828 147.012 152.049 144.384 148.658C142.569 146.356 140.509 144.258 138.24 142.402C135.628 140.286 132.757 138.512 129.696 137.122C128.048 136.367 126.344 135.738 124.6 135.242C122.788 134.706 120.937 134.313 119.064 134.066C117.127 133.798 115.172 133.682 113.216 133.722C111.202 133.771 109.194 133.966 107.208 134.306C105.227 134.669 103.275 135.177 101.368 135.826C99.5183 136.461 97.7209 137.239 95.9922 138.154C94.317 139.034 92.7122 140.043 91.1922 141.17C89.7272 142.238 88.3447 143.414 87.0562 144.69C84.6596 147.045 82.5759 149.699 80.8562 152.586C79.3654 155.113 78.1556 157.796 77.2482 160.586C75.9533 164.677 75.2976 168.943 75.3042 173.234C75.3042 176.298 75.4962 178.034 75.3042 178.034C75.1122 178.034 74.5042 176.434 74.1842 173.282C73.6978 168.83 74.0423 164.327 75.2002 160.002C76.9547 153.492 80.3606 147.545 85.0882 142.738C86.4433 141.337 87.9065 140.045 89.4642 138.874C91.0786 137.636 92.7909 136.531 94.5842 135.57C96.4423 134.564 98.3762 133.706 100.368 133.002C104.485 131.561 108.807 130.797 113.168 130.738C115.28 130.71 117.39 130.849 119.48 131.154C123.426 131.734 127.263 132.902 130.864 134.618C136.947 137.506 142.183 141.915 146.064 147.418C148.669 151.077 150.568 155.19 151.664 159.546C152.424 162.586 152.44 164.338 152.272 164.37Z" fill="#E0E0E0"/>
<path d="M121.488 193.64L122.568 200.368L116.568 201.328L115.52 194.784C109.512 195.376 103.52 194.432 99.7997 192.384L101.928 184.528C105.759 186.385 110.008 187.212 114.256 186.928L112.656 176.896C105.736 176.344 97.9357 175.296 96.5597 166.728C95.5357 160.328 99.2877 154.16 108.6 151.528L107.536 144.864L113.544 143.896L114.584 150.448C119.152 150.088 123.72 150.584 127.384 152.152L125.568 160.024C122.468 158.842 119.163 158.29 115.848 158.4L117.448 168.608C124.368 169.104 132.048 170.152 133.4 178.616C134.4 184.856 130.736 190.992 121.488 193.64ZM111.24 168.04L109.872 159.512C106.808 160.744 105.824 162.712 106.144 164.672C106.464 166.632 108.464 167.648 111.24 168.064V168.04ZM123.888 180.84C123.544 178.736 121.624 177.88 118.896 177.392L120.224 185.672C123.12 184.576 124.192 182.8 123.888 180.88V180.84Z" fill="#E0E0E0"/>
<path d="M52.6 112.464C48.8802 109.443 46.1405 105.386 44.7277 100.806C43.3149 96.2273 43.2925 91.3318 44.6633 86.7399C46.0342 82.148 48.7367 78.066 52.4286 75.0108C56.1206 71.9556 60.6361 70.0645 65.4034 69.5769C70.1707 69.0893 74.9755 70.0271 79.2096 72.2716C83.4436 74.5162 86.9165 77.9665 89.1886 82.1858C91.4606 86.4052 92.4298 91.2037 91.9732 95.9741C91.5167 100.745 89.6551 105.272 86.624 108.984C84.619 111.447 82.1484 113.492 79.3531 115C76.5578 116.508 73.4928 117.451 70.333 117.774C67.1733 118.097 63.9809 117.795 60.9382 116.883C57.8954 115.972 55.0621 114.471 52.6 112.464V112.464Z" fill="#F5F5F5"/>
<path d="M56.2398 108C53.4059 105.697 51.319 102.604 50.2434 99.1143C49.1678 95.6243 49.1518 91.8935 50.1975 88.3944C51.2431 84.8952 53.3034 81.785 56.1175 79.4572C58.9316 77.1295 62.3731 75.6891 66.0062 75.3181C69.6394 74.9472 73.3009 75.6625 76.5274 77.3735C79.7539 79.0844 82.4002 81.7142 84.1314 84.9298C85.8626 88.1455 86.6009 91.8024 86.2528 95.4379C85.9047 99.0733 84.4858 102.524 82.1758 105.352C80.6495 107.233 78.7668 108.794 76.6358 109.945C74.5048 111.097 72.1674 111.816 69.7577 112.062C67.3481 112.308 64.9135 112.076 62.5938 111.379C60.2741 110.682 58.1148 109.534 56.2398 108V108Z" fill="#EBEBEB"/>
<path d="M56.6879 108.369C56.7599 108.273 57.4399 108.729 58.7199 109.393C60.5191 110.325 62.451 110.975 64.4479 111.321C67.3912 111.815 70.4103 111.59 73.2479 110.665C74.9061 110.111 76.4787 109.327 77.9199 108.337C78.6791 107.813 79.396 107.229 80.0639 106.593C80.7499 105.934 81.3863 105.225 81.9679 104.473C82.5427 103.712 83.0614 102.909 83.5199 102.073C83.9587 101.261 84.3332 100.415 84.6399 99.5448C84.9457 98.7066 85.1838 97.8452 85.3519 96.9688C85.5217 96.1302 85.6261 95.2796 85.6639 94.4248C85.7476 92.8426 85.6266 91.2561 85.3038 89.7048C85.017 88.3458 84.5797 87.023 83.9998 85.7608C83.1459 83.9247 82.0154 82.2303 80.6479 80.7368C79.6719 79.6728 79.0479 79.1368 79.1279 79.0488C79.8474 79.3406 80.4965 79.7825 81.0319 80.3448C82.6179 81.7489 83.9283 83.4364 84.8959 85.3208C85.5748 86.6277 86.0958 88.0108 86.4478 89.4408C87.0646 91.9886 87.1436 94.6369 86.6798 97.2168C86.5097 98.1623 86.2663 99.0931 85.9519 100.001C85.627 100.944 85.2256 101.859 84.7519 102.737C84.2653 103.64 83.7089 104.504 83.0879 105.321C82.4619 106.132 81.7746 106.895 81.0319 107.601C80.3047 108.283 79.5265 108.909 78.7039 109.473C77.9108 110.013 77.0762 110.489 76.2079 110.897C75.3794 111.297 74.5208 111.631 73.6399 111.897C70.5981 112.834 67.3663 112.972 64.2559 112.297C62.1855 111.863 60.2134 111.05 58.4399 109.897C57.2079 109.033 56.6399 108.433 56.6879 108.369Z" fill="#E0E0E0"/>
<path d="M58.0639 88.3619L55.5439 86.4019L57.3279 84.1539L59.7839 86.0979C61.4287 84.1491 63.5882 82.7021 66.0159 81.9219L67.7839 85.3299C65.8588 85.9105 64.1169 86.9799 62.7279 88.4339L66.4799 91.4099C69.0719 89.3939 72.0799 87.2659 75.3279 89.8099C77.7279 91.7059 78.3839 95.0579 75.9759 98.9299L78.4719 100.914L76.6879 103.162L74.2399 101.218C72.8731 102.755 71.1627 103.947 69.2479 104.698L67.3679 101.378C68.8215 100.805 70.1481 99.9513 71.2719 98.8659L67.4479 95.8339C64.8799 97.8659 61.8479 99.9459 58.7039 97.4339C56.3599 95.5459 55.6959 92.2339 58.0639 88.3619ZM69.7919 93.9619L72.9919 96.4979C73.6639 95.0899 73.3839 94.0979 72.6479 93.5139C71.9119 92.9299 70.8879 93.2579 69.7919 93.9939V93.9619ZM61.3039 93.6019C62.1039 94.2259 63.0319 93.9139 64.1359 93.2099L61.0319 90.7539C60.3919 92.0419 60.5839 93.0019 61.3039 93.6019Z" fill="#E0E0E0"/>
<path d="M549.176 362.673C549.176 362.785 435.816 362.881 296.016 362.881C156.216 362.881 42.8242 362.785 42.8242 362.673C42.8242 362.561 156.16 362.465 296.016 362.465C435.872 362.465 549.176 362.561 549.176 362.673Z" fill="#263238"/>
<path d="M69.2883 341.121C69.3268 340.993 69.3778 340.87 69.4403 340.753C69.5603 340.489 69.7283 340.145 69.9363 339.697C70.5366 338.331 71.0236 336.918 71.3923 335.473C72.3523 331.713 72.6883 325.977 71.2643 319.153C70.4956 315.437 69.4855 311.776 68.2403 308.193C66.9603 304.305 65.4723 300.193 64.2403 295.713C62.867 291.057 62.2035 286.222 62.2722 281.369C62.4562 276.289 63.9603 271.225 65.6083 266.169C67.2563 261.113 68.9683 256.177 69.4723 251.209C70.0417 246.433 69.0839 241.599 66.7363 237.401C64.5443 233.401 61.7922 229.929 59.7362 226.353C57.8135 223.043 56.3952 219.465 55.5282 215.737C54.2875 210.333 54.1976 204.729 55.2642 199.289C55.6416 197.298 56.2151 195.35 56.9762 193.473C56.9609 193.607 56.9287 193.739 56.8802 193.865C56.7922 194.137 56.6803 194.505 56.5283 194.977C56.0941 196.407 55.7389 197.86 55.4642 199.329C54.481 204.743 54.6254 210.301 55.8882 215.657C56.7703 219.34 58.1938 222.871 60.1122 226.137C62.1683 229.665 64.9122 233.097 67.1603 237.177C69.5776 241.458 70.5721 246.397 70.0003 251.281C69.4883 256.329 67.7683 261.297 66.1283 266.345C64.4883 271.393 62.9843 276.393 62.8003 281.385C62.7275 286.187 63.3747 290.974 64.7203 295.585C65.9123 300.025 67.3843 304.153 68.6483 308.057C69.8829 311.662 70.8797 315.345 71.6323 319.081C73.0163 325.953 72.6163 331.753 71.5843 335.521C71.1947 336.972 70.6752 338.386 70.0323 339.745C69.8003 340.177 69.6243 340.545 69.4883 340.777C69.4315 340.897 69.3646 341.012 69.2883 341.121V341.121Z" fill="#263238"/>
<path d="M62.5522 229.897C62.5522 229.897 58.4002 216.521 65.8722 208.689C65.9306 208.625 66.0058 208.578 66.0893 208.555C66.1728 208.531 66.2612 208.531 66.3445 208.555C66.4278 208.58 66.5026 208.627 66.5606 208.691C66.6185 208.756 66.6572 208.835 66.6722 208.921C67.0642 211.129 67.5682 217.857 62.5522 229.897Z" fill="#407BFF"/>
<path d="M65.0561 213.145C65.047 213.976 64.9532 214.804 64.7761 215.617C64.4961 217.313 64.1761 219.313 63.8161 221.513C63.4561 223.713 63.1521 225.713 62.8801 227.409C62.8137 228.234 62.6663 229.052 62.4401 229.849C62.365 229.022 62.3892 228.189 62.5121 227.369C62.6561 225.841 62.9201 223.737 63.3121 221.425C63.7041 219.113 64.1121 217.041 64.4161 215.545C64.5403 214.723 64.755 213.919 65.0561 213.145V213.145Z" fill="#263238"/>
<path d="M67.4639 261.433C67.4639 261.433 70.0159 247.657 80.3119 244.241C80.3928 244.214 80.4797 244.209 80.563 244.228C80.6463 244.247 80.7227 244.289 80.7839 244.348C80.8452 244.408 80.8887 244.483 80.9099 244.566C80.9311 244.649 80.929 244.736 80.9039 244.817C80.2239 246.961 77.5199 253.137 67.4639 261.433Z" fill="#407BFF"/>
<path d="M77.5043 247.801C77.1096 248.53 76.6404 249.216 76.1043 249.849L72.5043 254.649L68.9203 259.449C68.4693 260.145 67.9551 260.799 67.3843 261.401C67.7052 260.633 68.119 259.908 68.6163 259.241C69.4163 257.953 70.6723 256.217 72.0883 254.361C73.5043 252.505 74.8243 250.849 75.8163 249.681C76.3037 248.99 76.8702 248.359 77.5043 247.801V247.801Z" fill="#263238"/>
<path d="M64.6799 296.001C64.6799 296.001 63.1279 282.065 71.9999 275.809C72.0698 275.758 72.1523 275.728 72.2383 275.722C72.3242 275.716 72.4102 275.733 72.4866 275.773C72.5631 275.813 72.6269 275.874 72.6709 275.948C72.7149 276.022 72.7375 276.107 72.7359 276.193C72.6879 278.401 71.8959 285.129 64.6799 296.001Z" fill="#407BFF"/>
<path d="M70.336 280C70.1654 280.823 69.9135 281.627 69.584 282.4L67.528 288L65.48 293.6C65.2503 294.396 64.9504 295.169 64.584 295.912C64.6643 295.092 64.847 294.286 65.128 293.512C65.552 292.04 66.224 290.024 67.032 287.832C67.84 285.64 68.632 283.68 69.24 282.272C69.5137 281.474 69.8816 280.711 70.336 280V280Z" fill="#263238"/>
<path d="M72.4323 330.753C72.4323 330.753 71.3763 316.777 80.4323 310.849C80.5032 310.802 80.5855 310.775 80.6704 310.772C80.7553 310.769 80.8395 310.789 80.9138 310.83C80.9881 310.871 81.0496 310.932 81.0917 311.006C81.1337 311.08 81.1547 311.164 81.1523 311.249C81.0723 313.489 80.0403 320.153 72.4323 330.753Z" fill="#407BFF"/>
<path d="M78.6562 315C78.4674 315.806 78.1994 316.591 77.8562 317.344C77.2002 318.944 76.4402 320.808 75.5922 322.872L73.3522 328.408C73.093 329.193 72.7637 329.954 72.3682 330.68C72.485 329.858 72.6971 329.053 73.0002 328.28C73.4802 326.824 74.2162 324.832 75.1122 322.68C76.0082 320.528 76.8562 318.584 77.5122 317.2C77.8121 316.427 78.1957 315.689 78.6562 315V315Z" fill="#263238"/>
<path d="M56.5361 218.145C56.5361 218.145 44.1201 211.657 43.8801 200.801C43.8777 200.716 43.8986 200.632 43.9407 200.559C43.9827 200.485 44.0443 200.424 44.1185 200.383C44.1928 200.341 44.277 200.321 44.3619 200.325C44.4468 200.328 44.5292 200.354 44.6001 200.401C46.4481 201.697 51.5601 206.089 56.5361 218.145Z" fill="#407BFF"/>
<path d="M46.4561 204.545C47.0351 205.139 47.5524 205.79 48.0001 206.489L51.5041 211.329L55.0161 216.129C55.5496 216.764 56.0236 217.447 56.4321 218.169C55.7929 217.638 55.2207 217.03 54.7281 216.361C53.7441 215.185 52.4481 213.505 51.0801 211.609C49.7121 209.713 48.5281 207.961 47.6961 206.673C47.2051 206.012 46.7893 205.298 46.4561 204.545V204.545Z" fill="#263238"/>
<path d="M69.8723 246.865C69.8723 246.865 57.0723 241.145 56.1843 230.337C56.1771 230.252 56.1933 230.167 56.2311 230.091C56.2689 230.015 56.3269 229.951 56.3987 229.906C56.4705 229.86 56.5533 229.836 56.6383 229.834C56.7232 229.833 56.8069 229.854 56.8803 229.897C58.8003 231.057 64.1763 235.137 69.8723 246.865Z" fill="#407BFF"/>
<path d="M58.9839 233.896C59.5957 234.458 60.1529 235.077 60.6479 235.744L64.4319 240.36C65.8559 242.08 67.1439 243.64 68.2319 244.968C68.8071 245.567 69.3216 246.221 69.7679 246.92C69.1172 246.42 68.5243 245.848 67.9999 245.216C66.9439 244.096 65.5439 242.504 64.0719 240.696C62.5999 238.888 61.2959 237.208 60.3919 235.968C59.8448 235.334 59.3724 234.639 58.9839 233.896V233.896Z" fill="#263238"/>
<path d="M62.512 278.897C62.512 278.897 53.712 267.977 57.856 257.953C57.8895 257.879 57.9419 257.815 58.0081 257.767C58.0742 257.719 58.1518 257.69 58.2329 257.682C58.314 257.674 58.3958 257.687 58.47 257.721C58.5443 257.754 58.6084 257.807 58.656 257.873C59.856 259.785 62.784 265.857 62.512 278.897Z" fill="#407BFF"/>
<path d="M58.728 262.4C59.0172 263.178 59.2315 263.982 59.368 264.8C59.728 266.48 60.168 268.456 60.632 270.64C61.096 272.824 61.544 274.792 61.92 276.472C62.1503 277.257 62.311 278.06 62.4 278.872C62.0402 278.126 61.7716 277.339 61.6 276.528C61.168 275.056 60.648 273 60.16 270.72C59.672 268.44 59.28 266.352 59.04 264.84C58.8464 264.041 58.7417 263.223 58.728 262.4V262.4Z" fill="#263238"/>
<path d="M71.2 316.593C71.2 316.593 58.504 310.657 57.784 299.841C57.7764 299.755 57.7931 299.668 57.8322 299.59C57.8714 299.513 57.9314 299.448 58.0055 299.403C58.0797 299.358 58.1649 299.335 58.2516 299.336C58.3383 299.337 58.423 299.362 58.496 299.409C60.408 300.601 65.712 304.801 71.2 316.593Z" fill="#407BFF"/>
<path d="M60.5439 303.449C61.1393 304.017 61.6753 304.645 62.1439 305.321L65.8559 310.001L69.5999 314.673C70.1594 315.283 70.6628 315.941 71.1039 316.641C70.4387 316.143 69.8393 315.562 69.3199 314.913C68.2799 313.777 66.9199 312.161 65.4639 310.329C64.0079 308.497 62.7519 306.793 61.8719 305.529C61.3554 304.886 60.9101 304.189 60.5439 303.449V303.449Z" fill="#263238"/>
<path d="M96.4959 261.504C96.5077 261.608 96.5077 261.712 96.4959 261.816C96.4959 262.056 96.4959 262.352 96.4959 262.712C96.4959 263.552 96.4079 264.688 96.3439 266.112C96.1839 269.096 95.9519 273.256 95.6799 278.24C94.7759 283.304 92.1919 288.928 88.7199 294.384C86.1759 298.384 83.5119 302.056 81.2079 305.456C79.1269 308.423 77.2557 311.532 75.6079 314.76C74.5158 316.95 73.6319 319.237 72.9679 321.592C72.7439 322.432 72.5759 323.08 72.4799 323.528C72.4415 323.758 72.3799 323.983 72.2959 324.2C72.2992 323.966 72.326 323.733 72.3759 323.504C72.4399 323.056 72.5759 322.392 72.7759 321.544C73.3661 319.149 74.2025 316.822 75.2719 314.6C76.9034 311.327 78.7752 308.18 80.8719 305.184C83.1599 301.76 85.8079 298.104 88.3439 294.104C91.7919 288.672 94.3599 283.144 95.3039 278.152C95.6559 273.176 95.9439 269.016 96.1599 266.032C96.2719 264.624 96.3599 263.488 96.4319 262.648C96.4319 262.288 96.4959 262 96.5199 261.752C96.5439 261.504 96.4799 261.504 96.4959 261.504Z" fill="#263238"/>
<path d="M88.9361 293.368C88.9361 293.368 94.3121 280.432 87.5521 271.952C87.4987 271.888 87.4289 271.839 87.3501 271.812C87.2713 271.784 87.1864 271.778 87.1045 271.794C87.0226 271.811 86.9466 271.849 86.8845 271.905C86.8225 271.961 86.7768 272.032 86.7521 272.112C86.1441 274.272 85.0321 280.928 88.9361 293.368Z" fill="#407BFF"/>
<path d="M88 276.465C88.23 277.263 88.3722 278.084 88.424 278.913C88.616 280.433 88.832 282.545 88.992 284.873C89.152 287.201 89.24 289.321 89.24 290.857C89.2946 291.687 89.2436 292.52 89.088 293.337C88.9422 292.521 88.8699 291.694 88.872 290.865C88.752 289.153 88.624 287.137 88.472 284.913C88.32 282.689 88.176 280.665 88.056 278.953C87.9527 278.128 87.934 277.294 88 276.465V276.465Z" fill="#263238"/>
<g opacity="0.3">
<path opacity="0.3" d="M88.9361 293.368C88.9361 293.368 94.3121 280.432 87.5521 271.952C87.4987 271.888 87.4289 271.839 87.3501 271.812C87.2713 271.784 87.1864 271.778 87.1045 271.794C87.0226 271.811 86.9466 271.849 86.8845 271.905C86.8225 271.961 86.7768 272.032 86.7521 272.112C86.1441 274.272 85.0321 280.928 88.9361 293.368Z" fill="black"/>
</g>
<path d="M72.2881 324.553C72.2881 324.553 76.6001 311.217 69.1681 303.321C69.1117 303.254 69.0372 303.204 68.9535 303.179C68.8697 303.153 68.7803 303.151 68.6959 303.175C68.6114 303.199 68.5356 303.246 68.4775 303.312C68.4194 303.377 68.3814 303.458 68.3681 303.545C67.9521 305.745 67.3841 312.465 72.2881 324.553Z" fill="#407BFF"/>
<path d="M69.9438 307.785C70.2422 308.559 70.4515 309.364 70.5678 310.185C70.8798 311.689 71.2638 313.769 71.6158 316.081C71.9678 318.393 72.2239 320.497 72.3439 322.025C72.462 322.849 72.4808 323.685 72.3999 324.513C72.1816 323.712 72.0397 322.893 71.9759 322.065C71.7279 320.361 71.4239 318.369 71.0959 316.161C70.7679 313.953 70.4558 311.953 70.1998 310.249C70.0319 309.439 69.9462 308.613 69.9438 307.785Z" fill="#263238"/>
<g opacity="0.3">
<path opacity="0.3" d="M72.2881 324.553C72.2881 324.553 76.6001 311.217 69.1681 303.321C69.1117 303.254 69.0372 303.204 68.9535 303.179C68.8697 303.153 68.7803 303.151 68.6959 303.175C68.6114 303.199 68.5356 303.246 68.4775 303.312C68.4194 303.377 68.3814 303.458 68.3681 303.545C67.9521 305.745 67.3841 312.465 72.2881 324.553Z" fill="black"/>
</g>
<path d="M95.7842 277.6C95.7842 277.6 107.264 269.56 106.104 258.784C106.101 258.693 106.071 258.604 106.018 258.53C105.965 258.456 105.891 258.399 105.805 258.366C105.72 258.334 105.627 258.327 105.537 258.348C105.448 258.368 105.367 258.414 105.304 258.48C103.664 259.944 99.2002 264.96 95.7842 277.6Z" fill="#407BFF"/>
<g opacity="0.3">
<path opacity="0.3" d="M95.7842 277.6C95.7842 277.6 107.264 269.56 106.104 258.784C106.101 258.693 106.071 258.604 106.018 258.53C105.965 258.456 105.891 258.399 105.805 258.366C105.72 258.334 105.627 258.327 105.537 258.348C105.448 258.368 105.367 258.414 105.304 258.48C103.664 259.944 99.2002 264.96 95.7842 277.6Z" fill="black"/>
</g>
<path d="M104 262.77C103.77 263.568 103.451 264.338 103.048 265.066C102.392 266.45 101.448 268.338 100.336 270.394C99.2241 272.45 98.1521 274.282 97.3281 275.578C96.9268 276.306 96.4378 276.983 95.8721 277.594C96.1845 276.828 96.5647 276.092 97.0081 275.394L99.8721 270.146L102.72 264.898C103.073 264.146 103.502 263.433 104 262.77V262.77Z" fill="#263238"/>
<path d="M76.9199 311.337C76.9199 311.337 90.7599 309.177 94.4719 298.985C94.5016 298.904 94.5086 298.817 94.492 298.734C94.4755 298.65 94.436 298.572 94.3781 298.509C94.3201 298.446 94.246 298.4 94.1637 298.377C94.0814 298.354 93.9943 298.353 93.9119 298.376C91.7519 298.992 85.4959 301.513 76.9199 311.337Z" fill="#407BFF"/>
<g opacity="0.3">
<path opacity="0.3" d="M76.9199 311.337C76.9199 311.337 90.7599 309.177 94.4719 298.985C94.5016 298.904 94.5086 298.817 94.492 298.734C94.4755 298.65 94.436 298.572 94.3781 298.509C94.3201 298.446 94.246 298.4 94.1637 298.377C94.0814 298.354 93.9943 298.353 93.9119 298.376C91.7519 298.992 85.4959 301.513 76.9199 311.337Z" fill="black"/>
</g>
<path d="M90.8322 301.689C90.2692 302.299 89.6446 302.849 88.9682 303.329C87.7682 304.281 86.0802 305.561 84.1682 306.921C82.2562 308.281 80.5042 309.449 79.1922 310.249C78.5089 310.727 77.7702 311.119 76.9922 311.417C77.6112 310.863 78.2808 310.367 78.9922 309.937L83.8642 306.489L88.7362 303.033C89.3846 302.512 90.0873 302.061 90.8322 301.689V301.689Z" fill="#263238"/>
<path d="M60.5361 336.809L64.5121 362.857L80.3681 362.833L85.7121 336.809H60.5361Z" fill="#455A64"/>
<path d="M83.384 346.856C83.384 346.856 83.384 346.896 83.248 346.952C83.1158 347.043 82.9767 347.123 82.832 347.192C82.2743 347.461 81.6776 347.639 81.064 347.72C80.0827 347.853 79.0841 347.76 78.144 347.448C76.8798 347.047 75.7795 346.247 75.008 345.168C74.5751 344.521 74.3211 343.77 74.272 342.992C74.2303 342.556 74.3089 342.116 74.4993 341.722C74.6897 341.327 74.9846 340.992 75.352 340.752C75.7722 340.542 76.2419 340.451 76.7103 340.489C77.1786 340.527 77.6275 340.693 78.008 340.968C78.797 341.55 79.3393 342.406 79.528 343.368C79.7354 344.335 79.8027 345.327 79.728 346.312C79.6688 347.343 79.4502 348.357 79.08 349.32C78.6928 350.334 78.0606 351.235 77.24 351.944C76.3941 352.696 75.3214 353.144 74.192 353.216C73.0564 353.244 71.9395 352.923 70.992 352.296C70.0777 351.724 69.2664 351.002 68.592 350.16C67.9127 349.348 67.4945 348.35 67.392 347.296C67.3512 346.78 67.432 346.262 67.6279 345.782C67.8238 345.303 68.1294 344.876 68.52 344.536C68.9201 344.236 69.3996 344.06 69.8988 344.031C70.398 344.001 70.895 344.118 71.3281 344.368C71.7396 344.575 72.098 344.874 72.3754 345.242C72.6529 345.609 72.842 346.036 72.9281 346.488C73.0467 347.297 72.9185 348.123 72.5602 348.858C72.202 349.593 71.6304 350.203 70.92 350.608C69.753 351.246 68.3956 351.442 67.0961 351.16C66.1319 350.967 65.2087 350.607 64.368 350.096C63.8376 349.785 63.3272 349.44 62.8401 349.064C62.6632 348.943 62.4996 348.804 62.3521 348.648C62.5401 348.748 62.7194 348.863 62.888 348.992C63.24 349.224 63.752 349.568 64.488 349.952C65.3344 350.418 66.2501 350.745 67.2 350.92C68.4418 351.157 69.727 350.95 70.832 350.336C71.4744 349.956 71.9892 349.393 72.3111 348.719C72.633 348.045 72.7475 347.291 72.64 346.552C72.559 346.153 72.3869 345.778 72.1371 345.456C71.8874 345.134 71.5667 344.874 71.2 344.696C70.8298 344.483 70.4051 344.383 69.9784 344.408C69.5518 344.434 69.1421 344.584 68.8 344.84C68.467 345.14 68.2073 345.513 68.0409 345.929C67.8744 346.345 67.8057 346.794 67.8401 347.24C67.9388 348.208 68.3294 349.123 68.96 349.864C69.5965 350.663 70.3617 351.35 71.224 351.896C72.0903 352.491 73.1175 352.806 74.168 352.8C75.2015 352.727 76.1825 352.317 76.96 351.632C77.7286 350.968 78.322 350.124 78.688 349.176C79.0448 348.258 79.2554 347.288 79.312 346.304C79.3877 345.359 79.3285 344.409 79.136 343.48C78.9763 342.615 78.4965 341.841 77.792 341.312C77.4705 341.073 77.09 340.926 76.6911 340.886C76.2923 340.847 75.8902 340.917 75.528 341.088C75.2147 341.293 74.9633 341.579 74.8011 341.916C74.6389 342.253 74.5722 342.628 74.608 343C74.6461 343.721 74.8723 344.419 75.264 345.024C75.9888 346.06 77.0261 346.837 78.224 347.24C79.1258 347.562 80.0881 347.676 81.04 347.576C81.8562 347.47 82.6486 347.226 83.384 346.856V346.856Z" fill="#263238"/>
<path d="M512 281.537C517.234 276.3 523.74 272.514 530.879 270.551C538.018 268.587 545.544 268.513 552.72 270.337C540.576 278.61 526.247 283.088 511.552 283.201" fill="#407BFF"/>
<path d="M525.84 232.632C524.144 220.632 528.808 207.136 537.792 198.416C538.088 210.304 533.064 223.688 525.84 232.632Z" fill="#407BFF"/>
<path d="M518.656 255.297C525.153 242.985 535.481 233.123 548.08 227.201C546.113 234.11 542.339 240.37 537.147 245.335C531.956 250.301 525.534 253.792 518.544 255.449" fill="#407BFF"/>
<path d="M517.168 259.673C524.416 259.873 531.752 259.625 538.768 257.769C545.784 255.913 552.488 252.345 557.168 246.801C542.972 246.845 529.105 251.078 517.304 258.969" fill="#407BFF"/>
<path d="M520.848 245.265C517.168 231.481 511.104 221.945 500.264 214.217C499.432 220.996 501.049 227.849 504.823 233.542C508.597 239.234 514.28 243.392 520.848 245.265" fill="#407BFF"/>
<path d="M493.496 269.041C493.47 265.02 494.632 261.082 496.837 257.72C499.041 254.358 502.19 251.723 505.888 250.145C505.288 257.265 499.696 265.497 493.496 269.041Z" fill="#407BFF"/>
<path d="M490.032 257.416C489.529 251.645 487.386 246.137 483.857 241.542C480.328 236.947 475.559 233.456 470.112 231.48C472.616 243 479.272 252.592 490.032 257.416Z" fill="#407BFF"/>
<path d="M495.248 278.048C492.696 274.392 488.52 272.12 484.208 270.992C479.896 269.864 475.408 269.76 470.92 269.664C473.961 272.965 477.681 275.567 481.824 277.292C485.967 279.017 490.435 279.824 494.92 279.656" fill="#407BFF"/>
<path d="M500.424 307.432C492.291 304.925 483.513 305.556 475.821 309.2C468.13 312.845 462.083 319.238 458.872 327.12C473.968 324.256 488.864 317.52 500.424 307.432Z" fill="#407BFF"/>
<path d="M516.992 297.225C514.488 304.633 514.968 313.593 520.544 319.985C521.653 316.162 521.91 312.143 521.296 308.21C520.682 304.277 519.213 300.527 516.992 297.225Z" fill="#407BFF"/>
<path d="M526.784 293.105C527.189 297.882 528.82 302.474 531.517 306.437C534.215 310.4 537.889 313.601 542.184 315.729C542.383 315.859 542.606 315.947 542.841 315.985C543.075 316.024 543.314 316.013 543.544 315.953C544.224 315.681 544.288 314.753 544.208 314.025C543.112 304.529 536.08 295.345 526.784 293.105" fill="#407BFF"/>
<path d="M533.184 292.145C535.311 294.444 537.887 296.282 540.754 297.544C543.62 298.805 546.716 299.465 549.848 299.48C552.979 299.496 556.081 298.868 558.96 297.635C561.839 296.402 564.434 294.591 566.584 292.313C555.968 291.153 543.712 290.377 533.184 292.145Z" fill="#407BFF"/>
<path d="M534.768 207.256C534.748 207.363 534.716 207.468 534.672 207.568L534.352 208.464C534.048 209.264 533.616 210.432 533.072 211.904C532.528 213.376 531.84 215.224 531.072 217.36C530.688 218.424 530.272 219.56 529.84 220.768L528.52 224.608C526.64 229.984 524.52 236.44 522.296 243.624C520.072 250.808 517.752 258.768 515.464 267.152C513.176 275.536 511.208 283.584 509.504 290.92C507.8 298.256 506.424 304.896 505.4 310.504C505.136 311.904 504.88 313.232 504.648 314.504C504.416 315.776 504.232 316.96 504.04 318.072C503.656 320.304 503.328 322.224 503.104 323.8C502.88 325.376 502.68 326.576 502.544 327.432C502.48 327.824 502.432 328.136 502.392 328.368C502.352 328.6 502.328 328.688 502.328 328.688C502.317 328.581 502.317 328.474 502.328 328.368C502.328 328.136 502.392 327.816 502.44 327.416C502.552 326.568 502.72 325.344 502.92 323.776C503.12 322.208 503.424 320.272 503.792 318.04C503.968 316.92 504.16 315.728 504.368 314.456C504.576 313.184 504.84 311.856 505.096 310.456C506.088 304.856 507.496 298.2 509.096 290.848C510.696 283.496 512.776 275.456 515.032 267.056C517.288 258.656 519.664 250.712 521.896 243.52C524.128 236.328 526.288 229.92 528.208 224.52L529.56 220.688C530.008 219.488 530.424 218.352 530.824 217.288C531.624 215.16 532.288 213.336 532.88 211.856C533.472 210.376 533.912 209.248 534.232 208.448L534.592 207.56C534.72 207.36 534.76 207.256 534.768 207.256Z" fill="#263238"/>
<path d="M476.448 237.602C476.448 237.602 476.512 237.658 476.632 237.77L477.136 238.306C477.584 238.778 478.224 239.49 479.024 240.418C481.304 243.062 483.394 245.864 485.28 248.802C488.093 253.14 490.292 257.845 491.816 262.786C493.568 268.386 494.656 274.682 495.736 281.298C497.896 294.538 500.536 306.394 502.464 314.97C503.424 319.242 504.208 322.698 504.76 325.122C505.024 326.306 505.224 327.234 505.376 327.89C505.432 328.186 505.488 328.426 505.52 328.61C505.543 328.691 505.556 328.774 505.56 328.858C505.526 328.78 505.499 328.7 505.48 328.618C505.432 328.434 505.368 328.202 505.296 327.906C505.128 327.25 504.896 326.306 504.608 325.162C504.024 322.762 503.2 319.29 502.208 315.034C500.216 306.474 497.52 294.618 495.36 281.362C494.28 274.746 493.2 268.442 491.48 262.898C489.993 257.98 487.839 253.288 485.08 248.954C483.223 246.028 481.176 243.227 478.952 240.57C478.152 239.618 477.552 238.898 477.128 238.41L476.648 237.85C476.572 237.775 476.505 237.692 476.448 237.602V237.602Z" fill="#263238"/>
<path d="M536.352 291.688C536.229 291.732 536.099 291.757 535.968 291.76L534.872 291.88L534.072 291.96L533.128 292.104C532.456 292.2 531.688 292.304 530.848 292.488L529.536 292.752L528.12 293.104C527.136 293.328 526.12 293.688 525.04 294.016C522.723 294.818 520.476 295.808 518.32 296.976C516.178 298.174 514.158 299.578 512.288 301.168C511.476 301.862 510.704 302.602 509.976 303.384C509.327 304.054 508.716 304.759 508.144 305.496C507.661 306.094 507.21 306.716 506.792 307.36C506.45 307.832 506.14 308.327 505.864 308.84L505.296 309.792C505.239 309.908 505.166 310.016 505.08 310.112C505.111 309.986 505.159 309.865 505.224 309.752L505.728 308.76C505.978 308.231 506.27 307.723 506.6 307.24C507.002 306.575 507.443 305.934 507.92 305.32C508.478 304.561 509.081 303.837 509.728 303.152C510.457 302.353 511.229 301.595 512.04 300.88C513.919 299.262 515.956 297.836 518.12 296.624C520.298 295.443 522.573 294.45 524.92 293.656C526.016 293.336 527.04 292.992 528.04 292.776L529.464 292.44L530.8 292.2C531.648 292.032 532.4 291.952 533.104 291.88L534.048 291.768H534.848L535.96 291.72C536.089 291.695 536.221 291.684 536.352 291.688V291.688Z" fill="#263238"/>
<path d="M539.376 237.889C539.132 238.157 538.864 238.404 538.576 238.625L536.392 240.521C534.536 242.121 531.952 244.273 529.088 246.657C526.224 249.041 523.6 251.169 521.696 252.705L519.432 254.497C519.164 254.729 518.875 254.935 518.568 255.113C518.808 254.839 519.076 254.592 519.368 254.377L521.56 252.481C523.416 250.881 526 248.721 528.864 246.345C531.728 243.969 534.344 241.833 536.248 240.297L538.52 238.505C538.784 238.271 539.071 238.064 539.376 237.889Z" fill="#263238"/>
<path d="M541.984 251.929C541.984 252.041 536.44 253.785 529.536 255.825C522.632 257.865 517 259.433 516.968 259.321C516.936 259.209 522.512 257.473 529.424 255.433C536.336 253.393 541.952 251.825 541.984 251.929Z" fill="#263238"/>
<path d="M521.4 246.337C521.181 246.091 520.988 245.823 520.824 245.537L519.352 243.297C518.112 241.417 516.336 238.841 514.248 236.097C512.16 233.353 510.136 230.969 508.648 229.265C507.944 228.465 507.352 227.793 506.888 227.249C506.649 227.008 506.44 226.74 506.264 226.449C506.533 226.643 506.779 226.866 507 227.113C507.456 227.553 508.088 228.217 508.864 229.041C510.408 230.705 512.464 233.041 514.568 235.817C516.672 238.593 518.408 241.177 519.6 243.105C520.192 244.073 520.656 244.865 520.96 245.417C521.138 245.708 521.285 246.016 521.4 246.337V246.337Z" fill="#263238"/>
<path d="M502.04 254.137C501.649 254.881 501.211 255.6 500.728 256.289C499.928 257.593 498.768 259.417 497.6 261.473C496.432 263.529 495.44 265.473 494.744 266.817C494.413 267.583 494.031 268.326 493.6 269.041C493.833 268.23 494.141 267.442 494.52 266.689C495.16 265.273 496.12 263.337 497.288 261.273C498.456 259.209 499.632 257.401 500.536 256.129C500.975 255.42 501.479 254.753 502.04 254.137V254.137Z" fill="#263238"/>
<path d="M495.416 278.402C494.452 278.033 493.507 277.617 492.584 277.154C490.84 276.354 488.408 275.346 485.664 274.386C482.92 273.426 480.376 272.706 478.528 272.234C477.518 272.018 476.519 271.751 475.536 271.434C475.805 271.434 476.073 271.463 476.336 271.522C476.872 271.602 477.632 271.746 478.568 271.946C483.454 273.021 488.192 274.681 492.68 276.89C493.536 277.314 494.224 277.69 494.688 277.946C494.948 278.068 495.193 278.221 495.416 278.402V278.402Z" fill="#263238"/>
<path d="M500.632 307.48C500.524 307.537 500.408 307.574 500.288 307.592L499.28 307.848L495.576 308.704C491.487 309.565 487.444 310.633 483.464 311.904C479.504 313.228 475.713 315.011 472.168 317.216C470.816 318.072 469.768 318.816 469.048 319.376C468.692 319.666 468.317 319.934 467.928 320.176C468.001 320.08 468.084 319.992 468.176 319.912C468.352 319.752 468.6 319.512 468.976 319.224C469.952 318.406 470.972 317.643 472.032 316.936C475.559 314.648 479.363 312.817 483.352 311.488C487.345 310.205 491.414 309.171 495.536 308.392L499.272 307.664C499.72 307.57 500.175 307.508 500.632 307.48V307.48Z" fill="#263238"/>
<path d="M519.488 314.641C519.376 314.641 518.688 310.745 518.008 305.905C517.328 301.065 516.816 297.105 516.928 297.105C517.04 297.105 517.728 301.001 518.408 305.841C519.088 310.681 519.6 314.625 519.488 314.641Z" fill="#263238"/>
<path d="M539.12 307.512C538.487 306.849 537.896 306.146 537.352 305.408C536.288 304.088 534.824 302.264 533.16 300.288C531.496 298.312 529.96 296.552 528.84 295.28C528.204 294.617 527.613 293.911 527.072 293.168C527.281 293.304 527.469 293.468 527.632 293.656C527.976 293.984 528.432 294.456 529.048 295.08C530.224 296.304 531.8 298.048 533.472 300.032C535.144 302.016 536.576 303.864 537.584 305.232C538.08 305.92 538.48 306.48 538.744 306.832C538.905 307.037 539.032 307.267 539.12 307.512V307.512Z" fill="#263238"/>
<path d="M487.16 325.721V335.425H489.592L498.208 362.641H517.336L525.688 335.689L528.92 335.425V325.721H487.16Z" fill="#263238"/>
<path d="M527.304 335.688C527.304 335.8 518.864 335.896 508.448 335.896C498.032 335.896 489.592 335.8 489.592 335.688C489.592 335.576 498.032 335.488 508.448 335.488C518.864 335.488 527.304 335.576 527.304 335.688Z" fill="#455A64"/>
<path d="M541.064 273.289C540.663 273.43 540.251 273.54 539.832 273.617L536.48 274.417C533.648 275.121 529.768 276.185 525.552 277.617C521.336 279.049 517.6 280.537 514.92 281.689L511.76 283.073C511.381 283.262 510.988 283.42 510.584 283.545C510.934 283.309 511.303 283.102 511.688 282.929C512.416 282.553 513.48 282.033 514.808 281.425C521.739 278.266 528.978 275.829 536.408 274.153C537.832 273.841 538.992 273.609 539.792 273.473C540.209 273.37 540.635 273.309 541.064 273.289V273.289Z" fill="#263238"/>
<path d="M520.96 350.81C520.96 350.922 515.032 351.01 507.728 351.01C500.424 351.01 494.496 350.922 494.496 350.81C494.496 350.698 500.416 350.602 507.728 350.602C515.04 350.602 520.96 350.698 520.96 350.81Z" fill="#FAFAFA"/>
<path d="M521.704 348.554C521.704 348.666 515.424 348.762 507.68 348.762C499.936 348.762 493.656 348.666 493.656 348.554C493.656 348.442 499.936 348.354 507.68 348.354C515.424 348.354 521.704 348.442 521.704 348.554Z" fill="#FAFAFA"/>
<path d="M469.6 74.6153H143.8C142.461 74.6111 141.134 74.8715 139.895 75.3816C138.657 75.8917 137.532 76.6414 136.584 77.5877C135.636 78.534 134.885 79.6583 134.373 80.8958C133.861 82.1334 133.598 83.46 133.6 84.7993V314.927C133.6 317.624 134.671 320.21 136.578 322.117C138.485 324.024 141.071 325.095 143.768 325.095H268.848C268.848 325.095 276.8 349.695 252.144 362.399H369.072C369.072 362.399 341.232 352.855 348.392 325.079H469.6C470.935 325.079 472.258 324.816 473.491 324.305C474.725 323.794 475.846 323.045 476.79 322.101C477.734 321.157 478.483 320.036 478.994 318.802C479.505 317.569 479.768 316.247 479.768 314.911V84.7993C479.77 83.4627 479.509 82.1387 478.999 80.9033C478.489 79.6678 477.74 78.545 476.796 77.5991C475.851 76.6532 474.73 75.9028 473.495 75.3908C472.26 74.8788 470.937 74.6153 469.6 74.6153V74.6153Z" fill="#455A64"/>
<path d="M311.064 300.888C315.496 307.224 308.552 314.16 302.216 309.728C302.006 309.578 301.822 309.394 301.672 309.184C297.256 302.856 304.184 295.928 310.512 300.344C310.724 300.494 310.911 300.678 311.064 300.888Z" fill="#263238"/>
<path d="M146.736 78.8633H466.168C468.226 78.8633 470.2 79.6809 471.655 81.1361C473.11 82.5914 473.928 84.5652 473.928 86.6233V283.023H138.976V86.6233C138.976 84.5652 139.794 82.5914 141.249 81.1361C142.704 79.6809 144.678 78.8633 146.736 78.8633V78.8633Z" fill="white"/>
<path d="M146.56 78.8321H467.912C469.508 78.8321 471.038 79.466 472.166 80.5942C473.294 81.7224 473.928 83.2526 473.928 84.8481V95.8001H139.2V86.1601C139.199 85.1948 139.389 84.2388 139.759 83.3472C140.129 82.4555 140.671 81.6458 141.355 80.9647C142.04 80.2836 142.852 79.7446 143.745 79.3786C144.638 79.0126 145.595 78.8269 146.56 78.8321V78.8321Z" fill="#EBEBEB"/>
<path d="M152.256 87.6704C152.256 88.1355 152.118 88.5903 151.86 88.9771C151.601 89.3638 151.234 89.6653 150.804 89.8433C150.375 90.0213 149.902 90.0679 149.445 89.9772C148.989 89.8864 148.57 89.6624 148.241 89.3335C147.912 89.0045 147.688 88.5855 147.597 88.1292C147.507 87.673 147.553 87.2001 147.731 86.7703C147.909 86.3405 148.211 85.9732 148.598 85.7147C148.984 85.4563 149.439 85.3184 149.904 85.3184C150.528 85.3184 151.126 85.5662 151.567 86.0072C152.008 86.4483 152.256 87.0466 152.256 87.6704V87.6704Z" fill="#263238"/>
<path d="M159.272 87.6704C159.272 88.1355 159.134 88.5903 158.876 88.9771C158.617 89.3638 158.25 89.6653 157.82 89.8433C157.39 90.0213 156.917 90.0679 156.461 89.9772C156.005 89.8864 155.586 89.6624 155.257 89.3335C154.928 89.0045 154.704 88.5855 154.613 88.1292C154.522 87.673 154.569 87.2001 154.747 86.7703C154.925 86.3405 155.226 85.9732 155.613 85.7147C156 85.4563 156.455 85.3184 156.92 85.3184C157.544 85.3184 158.142 85.5662 158.583 86.0072C159.024 86.4483 159.272 87.0466 159.272 87.6704V87.6704Z" fill="#263238"/>
<path d="M165.944 87.6704C165.944 88.1355 165.806 88.5903 165.548 88.9771C165.289 89.3638 164.922 89.6653 164.492 89.8433C164.063 90.0213 163.59 90.0679 163.133 89.9772C162.677 89.8864 162.258 89.6624 161.929 89.3335C161.6 89.0045 161.376 88.5855 161.285 88.1292C161.195 87.673 161.241 87.2001 161.419 86.7703C161.597 86.3405 161.899 85.9732 162.286 85.7147C162.672 85.4563 163.127 85.3184 163.592 85.3184C164.216 85.3184 164.814 85.5662 165.255 86.0072C165.696 86.4483 165.944 87.0466 165.944 87.6704V87.6704Z" fill="#263238"/>
<path d="M411.368 325.128C411.368 325.232 364.968 325.32 307.824 325.32C250.68 325.32 204.272 325.232 204.272 325.128C204.272 325.024 250.624 324.928 307.824 324.928C365.024 324.928 411.368 325.016 411.368 325.128Z" fill="#263238"/>
<path d="M434.504 210.399C438.376 208.399 442.936 208.143 447.232 208.847C449.536 209.231 451.944 209.919 453.52 211.655C455.096 213.391 455.384 216.455 453.584 217.935C452.408 218.725 450.993 219.078 449.584 218.936C446.224 218.896 442.488 218.303 439.8 220.327C438.272 221.487 437.248 223.407 435.416 223.967C434.494 224.19 433.525 224.103 432.657 223.72C431.79 223.337 431.073 222.679 430.616 221.847C429.741 220.163 429.549 218.206 430.08 216.383C430.303 215.111 430.819 213.908 431.587 212.87C432.354 211.831 433.353 210.986 434.504 210.399V210.399Z" fill="#EBEBEB"/>
<path d="M425.64 193.247C428.04 196.631 432.608 195.511 434.736 193.447C436.864 191.383 437.776 188.391 438.592 185.543C440.472 179.031 442.36 172.191 440.992 165.543C440.656 163.532 439.773 161.653 438.44 160.111C437.763 159.352 436.9 158.784 435.936 158.463C434.972 158.142 433.94 158.078 432.944 158.279C430.624 158.895 429.176 161.167 428.144 163.327C425.079 169.707 423.473 176.689 423.44 183.767C423.44 187.063 423.816 190.511 425.672 193.231" fill="#EBEBEB"/>
<path d="M419.144 198.096C421.712 195.048 422.2 190.6 421.056 186.784C419.912 182.968 417.328 179.712 414.352 177.056C410.848 173.941 406.773 171.537 402.352 169.976C400.638 169.288 398.797 168.974 396.952 169.056C396.031 169.11 395.137 169.388 394.348 169.866C393.559 170.344 392.898 171.008 392.424 171.8C391.16 174.2 392.368 177.128 393.68 179.512C395.985 183.714 398.62 187.727 401.56 191.512C403.96 194.56 406.632 197.568 410.232 198.944C413.832 200.32 417.576 200.16 419.488 197.656" fill="#EBEBEB"/>
<path d="M425.48 244.231C425.611 243.729 425.683 243.214 425.696 242.695C425.808 241.583 425.944 240.175 426.104 238.503C426.309 236.44 426.624 234.389 427.048 232.359C427.596 229.884 428.342 227.458 429.28 225.103C430.201 222.751 431.447 220.54 432.984 218.535C434.239 216.905 435.84 215.574 437.672 214.639C438.914 214.025 440.245 213.612 441.616 213.415C442.132 213.396 442.644 213.32 443.144 213.191C442.625 213.139 442.103 213.139 441.584 213.191C440.161 213.303 438.769 213.666 437.472 214.263C435.545 215.173 433.855 216.518 432.536 218.191C430.931 220.22 429.637 222.477 428.696 224.887C427.745 227.278 427.001 229.745 426.472 232.263C426.079 234.32 425.812 236.398 425.672 238.487C425.536 240.271 425.488 241.687 425.464 242.703C425.416 243.212 425.421 243.724 425.48 244.231Z" fill="#E0E0E0"/>
<path d="M425.768 241.007C425.801 240.77 425.801 240.531 425.768 240.295V238.255C425.768 236.487 425.768 233.927 425.856 230.767C426.016 224.447 426.56 217.647 427.608 208.055C428.6 199.039 429.936 188.543 431.352 181.719C431.648 180.167 431.96 178.775 432.24 177.551C432.52 176.327 432.752 175.263 432.976 174.415C433.2 173.567 433.328 172.951 433.448 172.431C433.52 172.202 433.563 171.966 433.576 171.727C433.466 171.939 433.382 172.165 433.328 172.399C433.176 172.911 432.976 173.551 432.736 174.351C432.496 175.151 432.208 176.247 431.896 177.463C431.584 178.679 431.24 180.079 430.912 181.623C429.167 189.694 427.853 197.852 426.976 206.063C425.928 215.663 425.448 224.423 425.376 230.759C425.376 233.959 425.376 236.495 425.488 238.263C425.536 239.063 425.576 239.767 425.608 240.303C425.639 240.542 425.692 240.778 425.768 241.007Z" fill="#E0E0E0"/>
<path d="M425.816 224.135C425.867 223.424 425.867 222.71 425.816 221.999C425.736 220.631 425.544 218.655 425.16 216.231C424.695 213.398 424.07 210.593 423.288 207.831C422.369 204.431 421.193 201.107 419.768 197.887C417.333 191.951 413.839 186.508 409.456 181.823C408.704 181.021 407.903 180.268 407.056 179.567C406.688 179.247 406.352 178.935 406.024 178.687L405.08 178.039C404.511 177.612 403.912 177.227 403.288 176.887C403.184 177.031 405.824 178.583 409.16 182.127C413.396 186.852 416.799 192.262 419.224 198.127C420.603 201.336 421.766 204.634 422.704 207.999C423.511 210.736 424.179 213.513 424.704 216.319C425.144 218.719 425.4 220.671 425.552 222.031C425.583 222.738 425.671 223.442 425.816 224.135Z" fill="#E0E0E0"/>
<path d="M409.496 253.902L411.192 277.07H440.952L442.648 253.902H409.496Z" fill="#E0E0E0"/>
<path d="M446.2 244.768H406.624V253.904H446.2V244.768Z" fill="#E0E0E0"/>
<path d="M406.624 276.184V278.72H408.488H445.544V276.184H406.624Z" fill="#EBEBEB"/>
<path d="M410.304 283.175L408.488 278.719H444.128L442 283.175H410.304Z" fill="#E0E0E0"/>
<path d="M442.096 261.47C442.096 261.47 442.096 261.55 441.952 261.686C441.808 261.822 441.688 262.038 441.512 262.278L439.776 264.494L439.696 264.59L439.624 264.494L435.368 258.598H435.608L431.416 264.534L431.288 264.726L431.136 264.55L426.16 258.63H426.448L426.176 258.974L421.728 264.574L421.584 264.758L421.44 264.566L417.248 258.622H417.488L412.32 264.51L412.232 264.614L412.16 264.494L410.56 261.774L410.144 261.054C410.095 260.972 410.052 260.887 410.016 260.798C410.016 260.798 410.088 260.87 410.192 261.022L410.648 261.718C411.064 262.374 411.632 263.27 412.352 264.39H412.184L417.272 258.438L417.4 258.286L417.52 258.446C418.8 260.246 420.224 262.23 421.752 264.358H421.464L425.904 258.758L426.176 258.414L426.32 258.238L426.464 258.406L431.424 264.342H431.144L435.384 258.43L435.504 258.262L435.624 258.43L439.792 264.39H439.648L441.448 262.23L441.928 261.67C441.975 261.597 442.032 261.53 442.096 261.47Z" fill="#F5F5F5"/>
<path d="M443.064 253.752C443.064 253.856 435.6 253.936 426.408 253.936C417.216 253.936 409.744 253.856 409.744 253.752C409.744 253.648 417.2 253.6 426.4 253.6C435.6 253.6 443.064 253.648 443.064 253.752Z" fill="#F5F5F5"/>
<path d="M444.568 278.967C444.568 279.071 436.456 279.151 426.464 279.151C416.472 279.151 408.36 279.071 408.36 278.967C408.36 278.863 416.464 278.783 426.464 278.783C436.464 278.783 444.568 278.863 444.568 278.967Z" fill="#F5F5F5"/>
<path d="M350.112 149.08C349.264 134.883 347.875 120.728 345.944 106.617C344.784 98.1285 343.408 89.6005 340.48 81.5445C337.552 73.4885 332.952 65.8805 326.272 60.5605C319.592 55.2405 310.672 52.4485 302.4 54.2965L336.168 158.52C338.688 158.856 341.256 159.184 343.744 158.688C346.232 158.192 348.672 156.712 349.656 154.352C350.205 152.652 350.36 150.85 350.112 149.08V149.08Z" fill="#263238"/>
<path d="M291.384 57.8803C284.912 57.3763 277.064 59.8563 273.384 65.2403C270.528 69.4243 271.208 76.7203 270.184 81.7043C268.584 89.7043 267.032 97.7043 266.832 105.856C266.616 114.8 268.056 123.688 269.504 132.512C271.104 142.272 272.704 152.03 274.304 161.784C275.016 166.12 275.752 170.584 277.792 174.44C279.832 178.296 283.448 181.64 287.792 182.152C291.792 182.616 295.744 180.608 298.416 177.608C301.088 174.608 302.584 170.728 303.512 166.808L291.384 57.8803Z" fill="#263238"/>
<path d="M297.088 148.983C295.152 148.887 282.248 151.983 282.248 151.983L297.264 210.783L321.304 212.727L342.64 145.791L297.088 148.983Z" fill="#AA6550"/>
<path d="M324.104 198.688C320.653 202.943 315.9 205.947 310.576 207.239C307.646 208.061 304.535 207.972 301.656 206.984C298.84 205.888 296.456 203.359 296.104 200.335L292 212.8L299.288 249.144L311.12 283.04L334.28 282.904L324.104 198.688Z" fill="#263238"/>
<path d="M231.616 205.896L241.96 193.392C241.96 193.392 251.952 160.776 254.952 158.336C257.952 155.896 285.352 149.016 285.352 149.016L295.12 191.152L300.088 243.008L309.2 263.6L318.144 282.968L286.744 283.056C286.744 283.056 273.944 254.152 267.16 237.344C264.958 231.883 263.585 226.123 263.088 220.256L262.752 216.256C262.752 216.256 242.328 263.512 237.512 266.552C232.696 269.592 226.688 274.168 220.064 273.888C213.44 273.608 199.824 253.928 199.824 253.928L199.752 227.64L219 219.592L222.336 226.864L231.616 205.896Z" fill="#407BFF"/>
<path d="M314.464 262.176L316.56 257.016L361.008 236.12L359.632 174.24L371.472 149.008C371.472 149.008 378.192 151.944 382.08 160.616C384.824 166.712 392.736 253.024 388.256 255.72C382.4 259.2 343.072 274.832 329.92 280C328.73 280.467 327.412 280.49 326.207 280.063C325.002 279.637 323.991 278.791 323.36 277.68L314.464 262.176Z" fill="#407BFF"/>
<path d="M366.28 255.432L371.312 148.8L346.256 144.184L339.056 138.992H333.36C333.36 138.992 335.456 144.416 335.176 148.888C334.896 153.36 314.256 233.24 314.256 233.24L325.976 282.952L378.96 282.792L366.28 255.432Z" fill="#407BFF"/>
<path d="M346.256 144.16V144.312C346.256 144.432 346.256 144.576 346.256 144.76C346.256 145.184 346.328 145.768 346.376 146.512C346.472 148.048 346.576 150.304 346.64 153.16C346.776 158.888 346.544 167.064 346.072 176.816V176.976H345.904L336.472 177.504L336.624 177.2C338.806 180.664 341.795 183.546 345.336 185.6L345.496 185.696L345.424 185.864L341.656 194.2C338.056 202.2 334.712 209.856 332.008 216.952C329.566 223.22 327.459 229.613 325.696 236.104C324.208 241.648 323.352 246.224 322.792 249.384C322.552 250.984 322.36 252.184 322.224 253.04C322.16 253.44 322.112 253.76 322.072 253.992C322.063 254.101 322.042 254.208 322.008 254.312C321.997 254.203 321.997 254.093 322.008 253.984C322.008 253.752 322.072 253.432 322.12 253.032C322.232 252.232 322.368 250.952 322.608 249.36C323.12 246.16 323.936 241.6 325.384 236.024C327.115 229.516 329.198 223.107 331.624 216.824C334.312 209.704 337.656 202.04 341.224 194.032L345 185.696L345.08 185.96C341.5 183.872 338.48 180.945 336.28 177.432L336.104 177.152H336.432L345.872 176.656L345.696 176.824C346.208 167.08 346.496 158.92 346.416 153.2C346.416 150.336 346.312 148.088 346.256 146.552C346.256 145.8 346.208 145.216 346.184 144.8V144.344C346.195 144.278 346.219 144.216 346.256 144.16V144.16Z" fill="#263238"/>
<path d="M316.8 276.688L316.456 276.528L315.456 276.032C314.576 275.616 313.328 274.896 311.728 273.944C310.928 273.432 310.08 272.88 309.16 272.232C308.24 271.584 307.24 270.856 306.24 270C303.914 268.118 301.736 266.058 299.728 263.84C294.497 258.057 290.214 251.482 287.04 244.36C283.212 235.625 280.541 226.427 279.096 217C278.04 210.648 277.424 204.424 276.992 198.504C276.776 195.56 276.648 192.592 277.424 189.84C278.2 187.088 279.92 184.648 282.424 183.584L282.376 183.888C281.428 183.081 280.292 182.525 279.072 182.274C277.853 182.022 276.59 182.082 275.4 182.448L275.176 182.528V182.288C275.472 173.096 275.712 165.488 275.88 160.24C275.976 157.624 276.056 155.568 276.104 154.144C276.104 153.464 276.16 152.928 276.176 152.544C276.192 152.16 276.216 151.992 276.216 151.992C276.216 151.992 276.216 152.184 276.216 152.544C276.216 152.904 276.216 153.456 276.216 154.144C276.216 155.56 276.136 157.616 276.08 160.24C275.944 165.528 275.752 173.096 275.52 182.288L275.296 182.12C276.542 181.73 277.866 181.661 279.146 181.919C280.426 182.178 281.619 182.756 282.616 183.6L282.832 183.792L282.568 183.912C280.168 184.92 278.528 187.304 277.768 189.936C277.008 192.568 277.152 195.536 277.368 198.472C277.808 204.384 278.424 210.592 279.488 216.928C280.922 226.322 283.571 235.489 287.368 244.2C290.513 251.295 294.748 257.854 299.92 263.64C301.909 265.854 304.062 267.916 306.36 269.808C307.352 270.672 308.36 271.408 309.248 272.056C310.136 272.704 311.032 273.272 311.792 273.8C313.392 274.768 314.6 275.512 315.472 275.952L316.448 276.48L316.8 276.688Z" fill="#263238"/>
<path d="M359.296 183.855C359.305 183.938 359.305 184.021 359.296 184.103C359.296 184.279 359.296 184.519 359.296 184.831C359.336 185.495 359.384 186.431 359.456 187.687C359.576 190.191 359.752 193.847 359.976 198.479C360.408 207.775 361.008 221.007 361.736 236.767V236.895L361.624 236.943L320.448 255.199L316.488 256.951L316.6 256.839C316.312 257.559 316.024 258.255 315.736 258.959V258.799C318.656 265.879 321.464 272.719 324.104 279.127L324.024 279.031C325.074 279.655 326.243 280.05 327.456 280.191C327.747 280.212 328.04 280.196 328.328 280.143C328.602 280.074 328.87 279.981 329.128 279.863L330.84 279.215L337.504 276.663L349.912 271.863C357.744 268.807 364.648 266.055 370.352 263.719C376.056 261.383 380.568 259.455 383.616 258.031C385.136 257.319 386.296 256.743 387.048 256.295C387.332 256.133 387.6 255.943 387.848 255.727C387.934 255.658 388 255.567 388.04 255.463C388.024 255.58 387.964 255.686 387.872 255.759C387.626 255.983 387.358 256.182 387.072 256.351C385.965 257.012 384.825 257.616 383.656 258.159C380.624 259.615 376.128 261.583 370.432 263.951C364.736 266.319 357.848 269.095 350.024 272.183L337.624 276.983L330.96 279.551L329.256 280.207C328.963 280.331 328.661 280.43 328.352 280.503C328.03 280.562 327.702 280.581 327.376 280.559C326.099 280.417 324.866 280.005 323.76 279.351H323.704V279.287C321.056 272.887 318.24 266.047 315.32 258.967V258.887V258.807C315.608 258.111 315.888 257.407 316.184 256.687V256.615L316.256 256.575L320.256 254.823L361.52 236.591L361.408 236.767C360.752 220.999 360.2 207.775 359.808 198.471C359.624 193.839 359.48 190.183 359.384 187.671C359.341 186.429 359.309 185.477 359.288 184.815C359.288 184.503 359.288 184.263 359.288 184.087L359.296 183.855Z" fill="#263238"/>
<path d="M370.472 152.039C370.528 152.087 369.584 153.159 368.264 155.031C366.545 157.475 365.092 160.095 363.928 162.847C362.776 165.603 361.926 168.476 361.392 171.415C360.976 173.671 360.872 175.095 360.8 175.087C360.767 174.752 360.767 174.414 360.8 174.079C360.85 173.168 360.946 172.26 361.088 171.359C362.002 165.374 364.376 159.706 368 154.855C368.542 154.124 369.121 153.422 369.736 152.751C369.957 152.49 370.203 152.251 370.472 152.039V152.039Z" fill="#263238"/>
<path d="M263.808 185.224C263.704 184.867 263.637 184.499 263.608 184.128C263.52 183.424 263.36 182.4 263.128 181.152C261.943 174.606 259.6 168.323 256.208 162.6C255.56 161.504 255.008 160.624 254.608 160.032C254.389 159.731 254.199 159.409 254.04 159.072C254.301 159.338 254.536 159.627 254.744 159.936C255.176 160.504 255.768 161.36 256.448 162.448C260.012 168.129 262.38 174.477 263.408 181.104C263.6 182.368 263.72 183.4 263.76 184.112C263.817 184.48 263.833 184.853 263.808 185.224V185.224Z" fill="#263238"/>
<path d="M306.952 207.776C306.742 206.745 306.669 205.69 306.736 204.64C306.66 203.593 306.727 202.54 306.936 201.512C307.213 203.591 307.213 205.697 306.936 207.776H306.952Z" fill="#754034"/>
<g opacity="0.3">
<path opacity="0.3" d="M342.08 178.776L349.12 179.72C347.608 175.848 347.824 154.92 346.6 150.832L345.952 176.8L336.52 177.304C336.52 177.304 340.576 182.752 342.472 183.896C343.435 184.451 344.358 185.074 345.232 185.76C345.232 185.76 331.888 216.96 329.808 222.336C325.384 233.784 322.168 253.04 322.168 253.04C333.232 233.84 339.656 211.624 345.456 190.176C346.02 188.537 346.238 186.799 346.096 185.072C345.704 182.576 343.848 180.592 342.08 178.776Z" fill="black"/>
</g>
<g opacity="0.3">
<path opacity="0.3" d="M275.408 182.311C275.28 182.695 275.512 173.511 275.568 173.319C275.624 173.127 274.368 184.335 274.144 184.999L278.008 184.151C277.048 184.628 276.199 185.302 275.517 186.129C274.835 186.956 274.334 187.918 274.048 188.951C273.49 191.036 273.272 193.197 273.4 195.351C273.656 211.423 277.144 227.927 285.784 241.447C280.136 227.999 278.4 213.263 277.032 198.719C276.768 195.863 276.544 193.015 277.344 190.255C278.144 187.495 279.976 184.559 282.488 183.623C280.552 182.023 277.832 181.223 275.408 182.311" fill="black"/>
</g>
<g opacity="0.3">
<path opacity="0.3" d="M325.12 279.807C326.136 281.959 329.84 281.807 332.424 281.519C334.991 281.118 337.497 280.39 339.88 279.351C350.632 275.207 361.032 271.479 371.784 267.351L370.288 264.111L328.8 280.247C328.191 280.447 327.547 280.511 326.911 280.435C326.275 280.359 325.664 280.145 325.12 279.807Z" fill="black"/>
</g>
<path d="M215.248 175.84C213.2 175.664 207.128 177.44 205.536 180.264L202.192 191.464C202.192 191.464 209.712 183.72 213.176 182.472C218.6 180.52 221.112 180.48 218.776 177.56C218.351 177.031 217.814 176.603 217.204 176.306C216.594 176.008 215.926 175.849 215.248 175.84V175.84Z" fill="#AA6550"/>
<path d="M183.608 184.312L187.256 192.72L187.4 208L205.584 205.32L202.968 190.68L204.76 184.248L197.264 177.92L183.608 184.312Z" fill="#AA6550"/>
<path d="M262.714 197.643L167.418 197.926L167.612 263.357L262.908 263.075L262.714 197.643Z" fill="#FAFAFA"/>
<path d="M262.888 263.087C262.888 263.087 262.888 262.679 262.888 261.895C262.888 261.111 262.888 259.943 262.888 258.431C262.888 255.399 262.848 250.951 262.808 245.263C262.76 233.887 262.68 217.551 262.584 197.663L262.752 197.831L167.464 198.143L167.672 197.935C167.728 221.295 167.792 243.487 167.84 263.367L167.648 263.175L236.32 263.071H262.952H262.504H261.184L256.008 263.111L236.448 263.215L167.648 263.511H167.464V263.319C167.4 243.439 167.328 221.247 167.256 197.887V197.679H167.472L262.76 197.447H262.928V197.615C262.928 217.543 262.968 233.911 262.976 245.319V258.455C262.976 259.951 262.976 261.095 262.976 261.879C262.976 262.663 262.888 263.087 262.888 263.087Z" fill="#263238"/>
<path d="M174.728 256.352C174.616 256.352 174.488 245.248 174.448 231.552C174.408 217.856 174.448 206.752 174.592 206.752C174.736 206.752 174.832 217.848 174.872 231.552C174.912 245.256 174.848 256.352 174.728 256.352Z" fill="#263238"/>
<path d="M257.416 249.279C257.416 249.399 238.832 249.543 215.904 249.607C192.976 249.671 174.392 249.607 174.392 249.519C174.392 249.431 192.976 249.255 215.904 249.191C238.832 249.127 257.416 249.167 257.416 249.279Z" fill="#EBEBEB"/>
<path d="M257.392 242.007C257.392 242.119 238.808 242.271 215.888 242.335C192.968 242.399 174.4 242.399 174.4 242.247C174.4 242.095 192.976 241.983 215.912 241.919C238.848 241.855 257.392 241.895 257.392 242.007Z" fill="#EBEBEB"/>
<path d="M257.368 234.736C257.368 234.848 238.784 235 215.864 235.064C192.944 235.128 174.352 235.064 174.352 234.976C174.352 234.888 192.936 234.712 215.864 234.648C238.792 234.584 257.368 234.616 257.368 234.736Z" fill="#EBEBEB"/>
<path d="M257.352 227.464C257.352 227.576 238.768 227.72 215.84 227.792C192.912 227.864 174.328 227.792 174.328 227.696C174.328 227.6 192.912 227.44 215.84 227.376C238.768 227.312 257.352 227.344 257.352 227.464Z" fill="#EBEBEB"/>
<path d="M257.328 220.185C257.328 220.305 238.744 220.449 215.824 220.513C192.904 220.577 174.312 220.513 174.312 220.425C174.312 220.337 192.888 220.169 215.824 220.097C238.76 220.025 257.328 220.073 257.328 220.185Z" fill="#EBEBEB"/>
<path d="M257.312 212.912C257.312 213.032 238.72 213.176 215.8 213.24C192.88 213.304 174.288 213.24 174.288 213.152C174.288 213.064 192.872 212.888 215.8 212.824C238.728 212.76 257.312 212.8 257.312 212.912Z" fill="#EBEBEB"/>
<path d="M257.288 205.64C257.288 205.752 238.704 205.904 215.784 205.968C192.864 206.032 174.272 205.968 174.272 205.88C174.272 205.792 192.848 205.616 215.776 205.552C238.704 205.488 257.288 205.528 257.288 205.64Z" fill="#EBEBEB"/>
<path d="M185.974 244.967L180.022 244.984L180.056 256.32L186.008 256.303L185.974 244.967Z" fill="#407BFF"/>
<path d="M229.163 244.87L223.211 244.887L223.243 256.223L229.195 256.206L229.163 244.87Z" fill="#407BFF"/>
<path d="M197.621 236.588L191.669 236.605L191.727 256.277L197.679 256.26L197.621 236.588Z" fill="#407BFF"/>
<path d="M219.381 231.45L213.429 231.467L213.498 256.259L219.45 256.242L219.381 231.45Z" fill="#407BFF"/>
<path d="M208.571 216.417L202.619 216.434L202.73 256.281L208.682 256.265L208.571 216.417Z" fill="#407BFF"/>
<path d="M240.639 223.702L234.688 223.719L234.778 256.199L240.73 256.182L240.639 223.702Z" fill="#407BFF"/>
<path d="M247.848 256.136C247.848 256.256 231.512 256.392 211.368 256.448C191.224 256.504 174.88 256.448 174.88 256.352C174.88 256.256 191.208 256.096 211.368 256.032C231.528 255.968 247.848 256 247.848 256.136Z" fill="#263238"/>
<path d="M209.696 202.855L207.848 206.767L205.632 202.863L205.464 164.055L209.528 164.047L209.696 202.855Z" fill="#263238"/>
<path d="M208 164.127C208 164.127 206.248 160.615 204.312 160.623C202.376 160.631 199.472 164.151 199.472 164.151C199.472 164.151 195.008 161.823 193.456 162.407C191.904 162.991 189.592 166.911 189.592 166.911C188.362 167.304 187.207 167.901 186.176 168.679C185.144 169.655 184.96 172.783 184.96 172.783C184.96 172.783 182.248 173.175 182.248 174.743C182.248 176.311 182.248 182.743 183.632 184.303C185.016 185.863 192.576 191.695 195.192 191.503C197.808 191.311 197.792 187.591 197.208 186.815C197.208 186.815 200.32 189.151 201.864 186.999C203.408 184.847 202.624 181.727 202.624 181.727C202.624 181.727 203.816 185.439 206.224 183.791C209.016 181.887 206.624 177.911 206.624 177.911C206.624 177.911 208.632 181.111 209.824 179.559C211.016 178.007 210.624 175.455 209.824 173.703C209.024 171.951 208 164.127 208 164.127Z" fill="#AA6550"/>
<path d="M194.872 185.007C194.418 184.672 194.011 184.276 193.664 183.831C191.867 181.798 190.328 179.552 189.08 177.143C188.788 176.659 188.565 176.136 188.416 175.591C188.528 175.535 189.728 177.799 191.512 180.391C193.296 182.983 194.96 184.919 194.872 185.007Z" fill="#754034"/>
<path d="M202.632 181.408C201.113 179.693 199.7 177.887 198.4 176C196.981 174.187 195.672 172.291 194.48 170.32C196.006 172.044 197.427 173.858 198.736 175.752C200.145 177.559 201.446 179.448 202.632 181.408V181.408Z" fill="#754034"/>
<path d="M206.888 178.079C206.482 177.561 206.133 177 205.848 176.407L203.512 172.271L201.152 168.143C200.792 167.591 200.489 167.004 200.248 166.391C200.696 166.877 201.085 167.414 201.408 167.991C202.072 169.007 202.952 170.447 203.872 172.063C204.792 173.679 205.568 175.175 206.104 176.263C206.429 176.838 206.692 177.447 206.888 178.079V178.079Z" fill="#754034"/>
<path d="M202.216 181.336C202.216 181.336 202.288 181.392 202.384 181.528C202.531 181.724 202.649 181.939 202.736 182.168C203.017 182.902 203.091 183.699 202.95 184.472C202.809 185.245 202.458 185.965 201.936 186.552C201.425 187.128 200.729 187.507 199.968 187.624C199.118 187.7 198.265 187.527 197.512 187.128C196.696 186.725 195.97 186.161 195.376 185.472L195.664 185.192C196.56 185.933 197.203 186.933 197.504 188.056C197.623 188.632 197.582 189.23 197.384 189.784C197.185 190.338 196.789 190.799 196.272 191.08C195.287 191.49 194.188 191.53 193.176 191.192C191.5 190.759 189.914 190.036 188.488 189.056C187.529 188.401 186.654 187.633 185.88 186.768C185.616 186.456 185.416 186.208 185.288 186.032C185.16 185.856 185.104 185.76 185.12 185.752C186.173 186.907 187.357 187.935 188.648 188.816C190.064 189.737 191.624 190.416 193.264 190.824C194.185 191.123 195.183 191.086 196.08 190.72C196.502 190.454 196.829 190.059 197.012 189.595C197.194 189.13 197.224 188.619 197.096 188.136C196.809 187.101 196.214 186.178 195.392 185.488L195.68 185.208C196.832 186.52 198.456 187.416 199.92 187.264C200.606 187.176 201.238 186.847 201.704 186.336C202.119 185.894 202.428 185.363 202.608 184.784C202.874 183.949 202.874 183.051 202.608 182.216C202.4 181.6 202.184 181.36 202.216 181.336Z" fill="#754034"/>
<path d="M206.072 176.512C206.484 176.98 206.801 177.523 207.008 178.112C207.275 178.748 207.463 179.414 207.568 180.096C207.643 180.953 207.517 181.816 207.2 182.616C207.07 183.046 206.83 183.434 206.505 183.744C206.18 184.054 205.78 184.274 205.344 184.384C204.981 184.42 204.615 184.367 204.279 184.227C203.942 184.087 203.646 183.866 203.416 183.584C203.124 183.219 202.889 182.811 202.72 182.376C202.6 182.08 202.552 181.904 202.576 181.896C202.6 181.888 202.696 182.032 202.864 182.304C203.09 182.692 203.358 183.055 203.664 183.384C203.866 183.617 204.121 183.799 204.408 183.914C204.694 184.03 205.004 184.075 205.312 184.048C205.676 183.938 206.006 183.739 206.275 183.469C206.543 183.2 206.74 182.868 206.848 182.504C207.137 181.761 207.262 180.964 207.216 180.168C207.136 179.516 206.986 178.875 206.768 178.256C206.4 177.168 206.008 176.544 206.072 176.512Z" fill="#754034"/>
<path d="M200.856 190.711C199.811 191.563 198.679 192.303 197.48 192.919C196.354 193.658 195.153 194.275 193.896 194.759C194.946 193.916 196.077 193.179 197.272 192.559C198.401 191.823 199.602 191.204 200.856 190.711V190.711Z" fill="#754034"/>
<path d="M316.704 258.567L289.08 266.607L278.984 259.711C278.984 259.711 269.792 256.895 266.8 256.511C263.808 256.127 258.88 256.343 255.6 256.351C253.868 256.444 252.151 255.994 250.688 255.063C250.688 255.063 247.848 254.959 248.608 258.599C249.552 263.111 260.288 263.079 260.288 263.079L246.056 263.127H237.776L244.976 268.199C246.802 269.475 248.972 270.167 251.2 270.183H254.096C253.352 274.183 254.8 276.359 257.448 277.511C255.36 279.479 256.408 283.159 260.504 283.007C262.488 282.935 297.144 283.007 297.144 283.007L326.968 278.767L316.704 258.567Z" fill="#AA6550"/>
<path d="M260.552 269.959C259.021 270.249 257.461 270.362 255.904 270.295C254.352 270.363 252.797 270.336 251.248 270.215C252.779 269.925 254.339 269.812 255.896 269.879C257.448 269.807 259.003 269.834 260.552 269.959V269.959Z" fill="#754034"/>
<path d="M268.88 261.383C267.041 261.862 265.169 262.204 263.28 262.407C261.431 262.753 259.559 262.959 257.68 263.023C259.519 262.547 261.391 262.205 263.28 261.999C265.129 261.657 267 261.451 268.88 261.383V261.383Z" fill="#754034"/>
<path d="M273.888 150.895C274.104 150.791 273.784 149.647 273.088 147.695C272.392 145.743 271.224 142.895 269.96 139.375C268.448 135.318 267.273 131.144 266.448 126.895C265.462 121.773 265.445 116.511 266.4 111.383C267.4 105.903 269.176 100.751 270.624 95.9587C271.999 91.6759 272.995 87.2803 273.6 82.8227C274.015 79.784 273.986 76.7009 273.512 73.6707C273.128 71.5427 272.632 70.4707 272.424 70.4707C271.896 70.5667 272.76 75.1987 271.24 82.4707C270.308 86.7192 269.098 90.9016 267.616 94.9907C266.016 99.6867 264.112 104.911 263.032 110.775C262.762 112.225 262.567 113.688 262.448 115.159C262.4 115.887 262.344 116.607 262.344 117.335C262.344 118.063 262.296 118.767 262.344 119.471C262.429 122.163 262.767 124.841 263.352 127.471C264.346 131.879 265.805 136.17 267.704 140.271C268.941 143.011 270.327 145.682 271.856 148.271C272.968 150.055 273.688 150.999 273.888 150.895Z" fill="#263238"/>
<path d="M328.6 84.408C328.365 80.7412 327.393 77.1595 325.741 73.8773C324.09 70.595 321.793 67.6798 318.988 65.3061C316.183 62.9324 312.929 61.149 309.419 60.0627C305.909 58.9764 302.215 58.6095 298.56 58.984C283.832 60.368 272.96 73.472 273.464 88.096C273.904 100.896 274.624 113.808 275.544 118.368C278.304 132.112 287.464 135.92 291.072 136.904C292.339 137.106 293.623 137.176 294.904 137.112C294.916 137.111 294.929 137.112 294.94 137.116C294.952 137.12 294.963 137.127 294.972 137.135C294.981 137.143 294.988 137.153 294.993 137.164C294.998 137.176 295 137.188 295 137.2L294.872 153.6C295.416 164.232 303 172.36 313.744 171.88C324.488 171.4 331.2 161.88 330.888 151.2L328.6 84.408Z" fill="#AA6550"/>
<path d="M280.456 95.2483C280.473 95.8318 280.719 96.3852 281.142 96.7881C281.564 97.1911 282.128 97.4111 282.712 97.4003C282.999 97.412 283.285 97.3665 283.555 97.2662C283.824 97.1659 284.07 97.013 284.28 96.8163C284.489 96.6197 284.657 96.3832 284.774 96.1208C284.891 95.8585 284.954 95.5754 284.96 95.2883C284.939 94.7061 284.692 94.1552 284.27 93.7531C283.849 93.351 283.287 93.1296 282.704 93.1363C282.417 93.1256 282.131 93.1719 281.863 93.2726C281.594 93.3733 281.348 93.5263 281.139 93.7227C280.93 93.9192 280.762 94.1552 280.645 94.417C280.527 94.6789 280.463 94.9615 280.456 95.2483V95.2483Z" fill="#263238"/>
<path d="M277.384 91.1992C277.672 91.4792 279.328 90.1512 281.752 90.0472C284.176 89.9432 285.992 91.0712 286.248 90.7592C286.368 90.6232 286.064 90.1112 285.272 89.5912C284.19 88.9191 282.928 88.5952 281.656 88.6632C280.395 88.7134 279.182 89.1615 278.192 89.9432C277.472 90.5592 277.24 91.1032 277.384 91.1992Z" fill="#263238"/>
<path d="M303.616 95.024C303.637 95.6061 303.884 96.1571 304.306 96.5592C304.727 96.9612 305.289 97.1826 305.872 97.176C306.158 97.1856 306.444 97.1385 306.712 97.0374C306.98 96.9364 307.226 96.7833 307.435 96.5871C307.643 96.3908 307.811 96.1552 307.929 95.8939C308.047 95.6325 308.111 95.3505 308.12 95.064C308.101 94.4811 307.854 93.929 307.432 93.5265C307.01 93.1239 306.447 92.9033 305.864 92.912C305.577 92.9002 305.29 92.9458 305.021 93.0461C304.752 93.1463 304.506 93.2993 304.296 93.4959C304.087 93.6926 303.919 93.929 303.802 94.1914C303.685 94.4538 303.622 94.7368 303.616 95.024V95.024Z" fill="#263238"/>
<path d="M301.208 90.6081C301.496 90.8801 303.16 89.5601 305.576 89.4561C307.992 89.3521 309.824 90.4721 310.072 90.1681C310.2 90.0321 309.896 89.5201 309.096 89.0001C308.018 88.3253 306.758 88.0011 305.488 88.0721C304.228 88.1206 303.016 88.5658 302.024 89.3441C301.296 89.9441 301.064 90.4801 301.208 90.6081Z" fill="#263238"/>
<path d="M293.112 108.8C293.112 108.664 291.6 108.472 289.152 108.272C288.528 108.272 287.936 108.144 287.816 107.728C287.742 107.097 287.862 106.458 288.16 105.896C288.688 104.392 289.232 102.808 289.808 101.152C292.088 94.4085 293.712 88.8645 293.44 88.7765C293.168 88.6885 291.096 94.0725 288.8 100.8C288.248 102.464 287.728 104.056 287.2 105.6C286.849 106.35 286.77 107.199 286.976 108C287.075 108.215 287.221 108.403 287.404 108.552C287.587 108.7 287.802 108.804 288.032 108.856C288.379 108.928 288.734 108.96 289.088 108.952C291.584 108.968 293.112 108.912 293.112 108.8Z" fill="#263238"/>
<path d="M295 137.103C295 137.103 304.384 137.447 315.8 129.959C315.8 129.959 312.6 142.359 294.96 141.527L295 137.103Z" fill="#754034"/>
<path d="M294.4 114.512C294.841 113.916 295.424 113.441 296.096 113.129C296.769 112.817 297.508 112.68 298.248 112.728C298.783 112.751 299.308 112.881 299.791 113.111C300.275 113.34 300.708 113.665 301.064 114.064C301.402 114.451 301.613 114.933 301.668 115.444C301.722 115.955 301.617 116.471 301.368 116.92C300.992 117.368 300.493 117.695 299.932 117.862C299.372 118.028 298.775 118.026 298.216 117.856C297.045 117.514 295.956 116.937 295.016 116.16C294.734 115.986 294.489 115.757 294.296 115.488C294.206 115.356 294.159 115.2 294.159 115.04C294.159 114.881 294.206 114.725 294.296 114.592" fill="#754034"/>
<path d="M300.304 110.12C299.912 110.12 300.008 112.712 297.832 114.664C295.656 116.616 292.84 116.448 292.832 116.816C292.832 116.976 293.48 117.288 294.664 117.272C296.205 117.223 297.681 116.64 298.84 115.624C299.944 114.649 300.627 113.284 300.744 111.816C300.8 110.728 300.488 110.096 300.304 110.12Z" fill="#263238"/>
<path d="M299.952 86.4561C300.216 87.0961 302.624 86.6801 305.48 86.8961C308.336 87.1121 310.664 87.7681 311.016 87.1681C311.176 86.8801 310.752 86.2881 309.8 85.6961C308.527 84.979 307.108 84.5578 305.65 84.4636C304.192 84.3694 302.731 84.6047 301.376 85.1521C300.344 85.6001 299.84 86.1521 299.952 86.4561Z" fill="#263238"/>
<path d="M278.08 86.2876C278.528 86.8156 280.176 86.1756 282.184 86.0556C284.192 85.9356 285.904 86.2556 286.272 85.6716C286.432 85.3836 286.144 84.8716 285.376 84.3676C284.349 83.7946 283.177 83.5361 282.005 83.6243C280.833 83.7125 279.713 84.1435 278.784 84.8636C278.096 85.4556 277.88 86.0316 278.08 86.2876Z" fill="#263238"/>
<path d="M271.024 121.871C268.68 132.343 272.96 143.159 278.32 152.447C280.344 155.951 282.552 159.407 283.76 163.279C284.968 167.151 285.024 171.599 282.888 175.039C283.636 175.292 284.45 175.269 285.183 174.976C285.916 174.683 286.52 174.138 286.888 173.439C287.088 175.583 287.28 177.719 287.472 179.839C290.08 180.959 293.184 179.087 294.44 176.527C295.696 173.967 295.592 170.983 295.464 168.135C295.08 159.775 295.384 149.887 295 141.527L280.096 138.503L271.024 121.871Z" fill="#263238"/>
<path d="M311.2 76.4076C316.848 87.2876 317.528 100.064 317.12 112.344C316.712 124.624 315.352 137.008 317.376 149.144C318.176 153.904 319.496 158.744 318.768 163.496C318.336 166.304 317.208 168.96 316.64 171.744C316.072 174.528 316.16 177.656 317.896 179.896C319.632 182.136 322.8 183 325.592 182.464C328.383 181.802 330.899 180.29 332.792 178.136C337.08 173.616 339.32 167.44 340.152 161.248C340.984 155.056 340.52 148.768 340.056 142.536C338.851 126.322 337.64 110.112 336.424 93.9036C335.904 86.8956 335.344 79.7196 332.504 73.2956C329.412 66.6054 324.323 61.0379 317.936 57.3596C310.432 52.8876 300.712 50.9596 293 55.0636C290.424 56.4316 287.952 59.0636 288.568 61.9116C289.056 64.1756 291.256 65.5756 293.264 66.7116L313.08 77.9916" fill="#263238"/>
<path d="M321.416 163.952C321.632 163.84 321.216 162.584 320.368 160.376C319.52 158.168 318.248 155.024 316.936 151.064C315.383 146.484 314.36 141.741 313.888 136.928C313.376 131.552 314.064 125.576 315.168 119.328C316.272 113.08 317.568 106.944 317.912 101.2C318.318 96.0907 317.844 90.9494 316.512 86.0001C315.605 82.6396 314.005 79.5059 311.816 76.8001C311.4 76.3441 311.016 75.9521 310.712 75.6161C310.426 75.3318 310.125 75.0646 309.808 74.8161C309.304 74.4321 309.008 74.2721 308.92 74.3521C308.832 74.4321 308.984 74.7601 309.312 75.2801L309.944 76.2321C310.168 76.6161 310.44 77.0321 310.744 77.5361C312.378 80.3221 313.546 83.3569 314.2 86.5201C315.125 91.2406 315.333 96.0737 314.816 100.856C314.312 106.28 312.968 112.24 311.84 118.648C310.712 125.056 310.072 131.448 310.792 137.192C311.425 142.231 312.738 147.162 314.696 151.848C315.979 154.988 317.484 158.033 319.2 160.96C320.408 163 321.216 164.056 321.416 163.952Z" fill="#263238"/>
<path d="M341.096 82.7761C340.93 82.6926 340.756 82.6282 340.576 82.5841L339.072 82.0961C338.416 81.8961 337.608 81.6401 336.672 81.2961C335.736 80.9521 334.688 80.6401 333.536 80.2001C331.216 79.4001 328.488 78.3041 325.536 77.0001C322.584 75.6961 319.312 74.1841 315.992 72.4401C312.672 70.6961 309.592 68.8641 306.824 67.1361C304.056 65.4081 301.648 63.7441 299.624 62.2881C298.616 61.5841 297.736 60.8961 296.952 60.3121C296.168 59.7281 295.496 59.2161 294.96 58.7841L293.704 57.8161C293.561 57.6976 293.408 57.5906 293.248 57.4961C293.375 57.6306 293.512 57.7562 293.656 57.8721L294.88 58.8881C295.408 59.3361 296.056 59.8721 296.84 60.4881C297.624 61.1041 298.48 61.7921 299.488 62.5121C301.464 63.9841 303.88 65.6561 306.624 67.4241C309.368 69.1921 312.472 71.0001 315.8 72.7601C319.128 74.5201 322.384 76.0241 325.4 77.3121C328.416 78.6001 331.152 79.6321 333.48 80.4321C334.64 80.8481 335.704 81.1681 336.68 81.4721C337.656 81.7761 338.416 82.0161 339.08 82.2001L340.608 82.6241C340.767 82.6853 340.93 82.7361 341.096 82.7761Z" fill="#455A64"/>
<path d="M341.24 85.2067C341.06 85.1546 340.875 85.1197 340.688 85.1027L339.088 84.8627L337.928 84.7027L336.568 84.4547C335.584 84.2707 334.464 84.1027 333.248 83.7987L331.328 83.3667C330.664 83.2147 329.976 83.0067 329.264 82.8227C327.832 82.4627 326.344 81.9667 324.76 81.4627C321.357 80.3007 318.029 78.9328 314.792 77.3667C311.572 75.7672 308.452 73.9746 305.448 71.9987C304.088 71.0547 302.776 70.1747 301.616 69.2627C301.032 68.8147 300.448 68.3987 299.92 67.9587L298.4 66.6787C297.416 65.8787 296.592 65.0787 295.848 64.4547L294.808 63.5187L294.008 62.7187L292.8 61.5987C292.666 61.4654 292.524 61.3399 292.376 61.2227C292.505 61.3612 292.647 61.4871 292.8 61.5987C293.072 61.8947 293.448 62.2787 293.92 62.7747L294.72 63.5747C295.024 63.8707 295.368 64.1827 295.736 64.5267C296.472 65.2067 297.288 66.0067 298.264 66.7987L299.776 68.0787C300.304 68.5187 300.88 68.9427 301.464 69.3987C302.624 70.3267 303.928 71.2147 305.296 72.1747C308.298 74.1851 311.428 75.9996 314.664 77.6067C317.912 79.1825 321.257 80.5479 324.68 81.6947C326.28 82.1907 327.768 82.6787 329.208 83.0307C329.928 83.2147 330.616 83.4147 331.28 83.5587L333.216 83.9747C334.44 84.2547 335.568 84.4147 336.552 84.5827C337.04 84.6547 337.496 84.7427 337.92 84.7987L339.088 84.9347L340.688 85.1027C340.869 85.1514 341.054 85.1861 341.24 85.2067V85.2067Z" fill="white"/>
<path d="M331.952 170.768C331.978 170.698 331.994 170.625 332 170.552C332 170.384 332.064 170.168 332.104 169.888C332.184 169.312 332.32 168.464 332.424 167.352C332.756 164.232 332.914 161.097 332.896 157.96C332.896 153.96 332.64 149.256 332.136 144.032C331.632 138.808 330.928 133.08 330.232 127.064C328.8 115.064 327.512 104.16 326.568 96.2635C326.088 92.3355 325.696 89.1595 325.416 86.9355C325.28 85.8475 325.168 84.9995 325.088 84.3995L324.992 83.7435C324.986 83.6677 324.972 83.5927 324.952 83.5195C324.958 83.5953 324.971 83.6703 324.992 83.7435C324.992 83.9115 324.992 84.1275 325.056 84.4075C325.12 85.0075 325.208 85.8635 325.32 86.9515C325.568 89.1755 325.928 92.3595 326.36 96.2875C327.28 104.192 328.536 115.08 329.928 127.104C330.632 133.12 331.352 138.84 331.864 144.064C332.376 149.288 332.664 154 332.664 157.96C332.704 161.092 332.584 164.224 332.304 167.344C332.216 168.448 332.104 169.304 332.04 169.88C332.04 170.16 331.992 170.376 331.976 170.544C331.96 170.712 331.952 170.768 331.952 170.768Z" fill="#455A64"/>
<path d="M323.376 134.551C323.413 134.369 323.432 134.184 323.432 133.999L323.528 132.399C323.608 131.031 323.696 129.055 323.776 126.607C323.936 121.719 324.04 114.951 323.92 107.487C323.8 100.023 323.464 93.2631 323.12 88.3831C322.952 85.9351 322.8 83.9671 322.68 82.5991C322.616 81.9431 322.568 81.4231 322.536 80.9991C322.528 80.8155 322.501 80.6332 322.456 80.4551C322.444 80.6389 322.444 80.8233 322.456 81.0071C322.456 81.3991 322.504 81.9191 322.544 82.6071C322.624 83.9991 322.736 85.9671 322.872 88.3831C323.136 93.2711 323.424 100.023 323.552 107.487C323.68 114.951 323.608 121.703 323.504 126.591C323.448 128.991 323.4 130.983 323.368 132.383C323.368 133.047 323.368 133.567 323.368 133.983C323.356 134.172 323.359 134.362 323.376 134.551V134.551Z" fill="#455A64"/>
<path d="M361.84 120.593L368.528 108.641C364.872 102.67 363.3 95.6551 364.056 88.6947C364.812 81.7344 367.854 75.221 372.706 70.1738C377.558 65.1267 383.947 61.8305 390.872 60.8011C397.797 59.7717 404.869 61.0672 410.979 64.4848C417.09 67.9024 421.895 73.2494 424.643 79.6889C427.39 86.1285 427.926 93.2973 426.165 100.074C424.405 106.85 420.447 112.851 414.912 117.139C409.377 121.426 402.577 123.758 395.576 123.769C388.544 123.793 381.708 121.458 376.16 117.137L361.84 120.593Z" fill="#FAFAFA"/>
<path d="M361.84 120.592L376.144 117.048L376.088 117.216C376.078 117.207 376.069 117.196 376.064 117.184C376.058 117.171 376.055 117.158 376.055 117.144C376.055 117.131 376.058 117.117 376.064 117.105C376.069 117.092 376.078 117.081 376.088 117.072C376.107 117.059 376.129 117.052 376.152 117.052C376.175 117.052 376.197 117.059 376.216 117.072C378.229 118.613 380.414 119.916 382.728 120.952C385.489 122.162 388.409 122.97 391.4 123.352C393.054 123.575 394.725 123.647 396.392 123.568C397.248 123.512 398.12 123.496 399 123.4L401.664 122.984C409.572 121.34 416.557 116.746 421.2 110.136C423.782 106.483 425.555 102.321 426.4 97.9283C427.269 93.2872 427.116 88.5124 425.952 83.9363C424.755 79.156 422.441 74.728 419.2 71.0163L417.912 69.6003C417.488 69.1283 416.984 68.7363 416.528 68.3043C416.076 67.8654 415.601 67.4515 415.104 67.0643L413.6 65.9363C413.095 65.5505 412.56 65.2054 412 64.9043L410.4 63.9363L408.736 63.1363C408.191 62.8507 407.627 62.6021 407.048 62.3923C402.576 60.6256 397.762 59.8979 392.968 60.2643C388.43 60.5953 384.022 61.9315 380.064 64.1763C372.949 68.2176 367.653 74.8307 365.264 82.6563C364.295 85.9865 363.839 89.4448 363.912 92.9123C364.076 98.4582 365.683 103.865 368.576 108.6C368.584 108.615 368.588 108.632 368.588 108.648C368.588 108.665 368.584 108.681 368.576 108.696L361.8 120.6C362.144 119.984 364.2 116.256 368.4 108.6V108.704C365.446 103.954 363.791 98.5111 363.6 92.9203C363.511 89.4221 363.959 85.9309 364.928 82.5683C367.335 74.6301 372.703 67.9217 379.92 63.8323C383.92 61.5441 388.38 60.1776 392.976 59.8323C397.832 59.456 402.709 60.1892 407.24 61.9763C407.827 62.1887 408.398 62.44 408.952 62.7283L410.64 63.5283L412.24 64.5123C412.795 64.8237 413.33 65.1711 413.84 65.5523L415.36 66.6963C415.888 67.0643 416.32 67.4963 416.808 67.9523C417.296 68.4083 417.776 68.7923 418.208 69.2723L419.504 70.7043C422.793 74.4618 425.14 78.948 426.352 83.7923C427.529 88.4265 427.68 93.262 426.792 97.9603C425.937 102.407 424.14 106.619 421.52 110.312C416.821 116.997 409.742 121.631 401.736 123.264L399.048 123.68C398.16 123.768 397.272 123.784 396.408 123.84C394.724 123.915 393.037 123.835 391.368 123.6C388.355 123.201 385.415 122.368 382.64 121.128C380.312 120.074 378.115 118.751 376.096 117.184L376.24 117.032C376.258 117.052 376.269 117.077 376.269 117.104C376.269 117.131 376.258 117.157 376.24 117.176H376.2L361.84 120.592Z" fill="#263238"/>
<path d="M408.8 83.2012C408.504 83.5695 408.178 83.9121 407.824 84.2252L405.04 86.9132C402.64 89.1612 399.384 92.2492 395.736 95.6412L395.184 96.1612L395.048 96.2892L394.896 96.1612L390.432 92.3292H390.704L384.616 97.8412L382.856 99.3932C382.652 99.5881 382.43 99.7623 382.192 99.9132C382.36 99.6869 382.55 99.4778 382.76 99.2892C383.208 98.8652 383.768 98.3212 384.448 97.6892L390.424 92.0892L390.56 91.9692L390.696 92.0812L395.176 95.8972H394.888L395.44 95.3852C399.088 91.9932 402.408 88.9852 404.832 86.7452L407.704 84.1692C408.041 83.8159 408.408 83.4921 408.8 83.2012V83.2012Z" fill="#263238"/>
<path d="M409.248 90.5594C409.099 89.8541 409.019 89.1361 409.008 88.4154C408.912 87.0794 408.808 85.2154 408.712 83.1674L408.944 83.3834H408.568C406.44 83.4714 404.504 83.5354 403.104 83.5514C402.349 83.6103 401.591 83.5915 400.84 83.4954C401.582 83.3357 402.337 83.25 403.096 83.2394C404.488 83.1434 406.416 83.0314 408.552 82.9434H408.92H409.136V83.1594C409.216 85.2234 409.272 87.0714 409.288 88.4074C409.342 89.1244 409.328 89.8448 409.248 90.5594Z" fill="#263238"/>
</svg>
