<svg width="600" height="440" viewBox="0 0 600 440" fill="none" xmlns="http://www.w3.org/2000/svg">
<path d="M600 386.672H0V386.968H600V386.672Z" fill="#EBEBEB"/>
<path d="M539.88 405.672H500.136V405.968H539.88V405.672Z" fill="#EBEBEB"/>
<path d="M397.464 408.885H387.036V409.18H397.464V408.885Z" fill="#EBEBEB"/>
<path d="M498.936 394.713H475.908V395.009H498.936V394.713Z" fill="#EBEBEB"/>
<path d="M114.78 396.697H62.9521V396.993H114.78V396.697Z" fill="#EBEBEB"/>
<path d="M133.068 396.697H125.472V396.993H133.068V396.697Z" fill="#EBEBEB"/>
<path d="M270.18 401.68H157.764V401.975H270.18V401.68Z" fill="#EBEBEB"/>
<path d="M284.4 334.006H52.6916C50.8764 334.002 49.1366 333.291 47.8542 332.027C46.5718 330.762 45.8516 329.049 45.8516 327.263V6.74226C45.8674 4.96627 46.5946 3.26814 47.8753 2.01672C49.156 0.765289 50.8867 0.0616361 52.6916 0.0585938H284.4C286.217 0.0585938 287.96 0.768984 289.245 2.03349C290.53 3.29799 291.252 5.01302 291.252 6.8013V327.263C291.252 329.051 290.53 330.766 289.245 332.031C287.96 333.295 286.217 334.006 284.4 334.006V334.006ZM52.6916 0.294767C50.9559 0.297895 49.2925 0.97856 48.0664 2.18736C46.8402 3.39616 46.1516 5.03432 46.1516 6.74226V327.263C46.1516 328.971 46.8402 330.609 48.0664 331.818C49.2925 333.027 50.9559 333.707 52.6916 333.71H284.4C286.136 333.707 287.801 333.027 289.029 331.819C290.257 330.61 290.948 328.972 290.952 327.263V6.74226C290.948 5.03324 290.257 3.3951 289.029 2.18664C287.801 0.978176 286.136 0.297888 284.4 0.294767H52.6916Z" fill="#EBEBEB"/>
<path d="M543.972 334.006H312.252C310.436 334.002 308.695 333.291 307.411 332.027C306.127 330.763 305.404 329.05 305.4 327.263V6.74226C305.419 4.9652 306.149 3.26708 307.432 2.01598C308.714 0.764876 310.446 0.0616029 312.252 0.0585938H543.972C545.775 0.0647395 547.503 0.769765 548.781 2.02086C550.059 3.27196 550.785 4.96831 550.8 6.74226V327.263C550.8 329.047 550.082 330.759 548.802 332.022C547.522 333.286 545.785 333.999 543.972 334.006V334.006ZM312.252 0.294767C310.516 0.297888 308.851 0.978176 307.623 2.18664C306.395 3.3951 305.704 5.03324 305.7 6.74226V327.263C305.704 328.972 306.395 330.61 307.623 331.819C308.851 333.027 310.516 333.707 312.252 333.71H543.972C545.709 333.707 547.374 333.027 548.602 331.819C549.83 330.61 550.521 328.972 550.524 327.263V6.74226C550.521 5.03324 549.83 3.3951 548.602 2.18664C547.374 0.978176 545.709 0.297888 543.972 0.294767H312.252Z" fill="#EBEBEB"/>
<path d="M534.504 73.4727H243.768V349.251H534.504V73.4727Z" fill="#E0E0E0"/>
<path d="M534.504 78.4785H248.436V344.432H534.504V78.4785Z" fill="#F5F5F5"/>
<path d="M250.548 280.028V200.037H258.984V189.468L277.992 180.718V169.901H281.16V200.037H284.328V280.028H288.552V238.474H298.056V216.663H301.224V280.028H308.604V256.14H313.884V249.905H325.5V228.082H331.836V213.546H339.228V191.724H342.396V213.546H349.788V228.082H356.112V249.905H367.728V256.14H373.008V280.028H379.344V249.905H390.96V183.41H394.128V176.136H419.46V183.41H424.74V231.2H445.86V236.396H453.24V239.513H445.86V258.218H468.024V195.88H472.248V183.41H482.808V135.621H485.976V183.41H493.368V195.88H534.504V344.444H248.436V280.028H250.548Z" fill="#E6E6E6"/>
<path d="M512.52 199.139H509.532V202.079H512.52V199.139Z" fill="#F0F0F0"/>
<path d="M512.52 204.076H509.532V207.017H512.52V204.076Z" fill="#F0F0F0"/>
<path d="M512.52 223.809H509.532V226.749H512.52V223.809Z" fill="#F0F0F0"/>
<path d="M512.52 228.744H509.532V231.684H512.52V228.744Z" fill="#F0F0F0"/>
<path d="M512.52 233.68H509.532V236.62H512.52V233.68Z" fill="#F0F0F0"/>
<path d="M512.52 248.488H509.532V251.429H512.52V248.488Z" fill="#F0F0F0"/>
<path d="M512.52 253.424H509.532V256.364H512.52V253.424Z" fill="#F0F0F0"/>
<path d="M507.768 218.871H504.78V221.811H507.768V218.871Z" fill="#F0F0F0"/>
<path d="M507.768 223.809H504.78V226.749H507.768V223.809Z" fill="#F0F0F0"/>
<path d="M507.768 228.744H504.78V231.684H507.768V228.744Z" fill="#F0F0F0"/>
<path d="M507.768 233.68H504.78V236.62H507.768V233.68Z" fill="#F0F0F0"/>
<path d="M507.768 238.615H504.78V241.556H507.768V238.615Z" fill="#F0F0F0"/>
<path d="M507.768 248.488H504.78V251.429H507.768V248.488Z" fill="#F0F0F0"/>
<path d="M507.768 253.424H504.78V256.364H507.768V253.424Z" fill="#F0F0F0"/>
<path d="M503.016 199.139H500.028V202.079H503.016V199.139Z" fill="#F0F0F0"/>
<path d="M503.016 204.076H500.028V207.017H503.016V204.076Z" fill="#F0F0F0"/>
<path d="M503.016 209.012H500.028V211.952H503.016V209.012Z" fill="#F0F0F0"/>
<path d="M503.016 213.947H500.028V216.888H503.016V213.947Z" fill="#F0F0F0"/>
<path d="M503.016 218.871H500.028V221.811H503.016V218.871Z" fill="#F0F0F0"/>
<path d="M503.016 223.809H500.028V226.749H503.016V223.809Z" fill="#F0F0F0"/>
<path d="M503.016 228.744H500.028V231.684H503.016V228.744Z" fill="#F0F0F0"/>
<path d="M503.016 233.68H500.028V236.62H503.016V233.68Z" fill="#F0F0F0"/>
<path d="M503.016 238.615H500.028V241.556H503.016V238.615Z" fill="#F0F0F0"/>
<path d="M503.016 243.551H500.028V246.491H503.016V243.551Z" fill="#F0F0F0"/>
<path d="M503.016 253.424H500.028V256.364H503.016V253.424Z" fill="#F0F0F0"/>
<path d="M498.264 199.139H495.276V202.079H498.264V199.139Z" fill="#F0F0F0"/>
<path d="M498.264 204.076H495.276V207.017H498.264V204.076Z" fill="#F0F0F0"/>
<path d="M498.264 209.012H495.276V211.952H498.264V209.012Z" fill="#F0F0F0"/>
<path d="M498.264 213.947H495.276V216.888H498.264V213.947Z" fill="#F0F0F0"/>
<path d="M498.264 218.871H495.276V221.811H498.264V218.871Z" fill="#F0F0F0"/>
<path d="M498.264 223.809H495.276V226.749H498.264V223.809Z" fill="#F0F0F0"/>
<path d="M498.264 228.744H495.276V231.684H498.264V228.744Z" fill="#F0F0F0"/>
<path d="M498.264 273.156H495.276V276.097H498.264V273.156Z" fill="#F0F0F0"/>
<path d="M493.512 199.139H490.524V202.079H493.512V199.139Z" fill="#F0F0F0"/>
<path d="M493.512 204.076H490.524V207.017H493.512V204.076Z" fill="#F0F0F0"/>
<path d="M493.512 209.012H490.524V211.952H493.512V209.012Z" fill="#F0F0F0"/>
<path d="M493.512 213.947H490.524V216.888H493.512V213.947Z" fill="#F0F0F0"/>
<path d="M493.512 218.871H490.524V221.811H493.512V218.871Z" fill="#F0F0F0"/>
<path d="M493.512 223.809H490.524V226.749H493.512V223.809Z" fill="#F0F0F0"/>
<path d="M493.512 228.744H490.524V231.684H493.512V228.744Z" fill="#F0F0F0"/>
<path d="M493.512 233.68H490.524V236.62H493.512V233.68Z" fill="#F0F0F0"/>
<path d="M493.512 263.295H490.524V266.235H493.512V263.295Z" fill="#F0F0F0"/>
<path d="M493.512 268.221H490.524V271.161H493.512V268.221Z" fill="#F0F0F0"/>
<path d="M493.512 273.156H490.524V276.097H493.512V273.156Z" fill="#F0F0F0"/>
<path d="M493.512 278.092H490.524V281.032H493.512V278.092Z" fill="#F0F0F0"/>
<path d="M493.512 297.836H490.524V300.776H493.512V297.836Z" fill="#F0F0F0"/>
<path d="M488.76 199.139H485.772V202.079H488.76V199.139Z" fill="#F0F0F0"/>
<path d="M488.76 204.076H485.772V207.017H488.76V204.076Z" fill="#F0F0F0"/>
<path d="M488.76 209.012H485.772V211.952H488.76V209.012Z" fill="#F0F0F0"/>
<path d="M488.76 213.947H485.772V216.888H488.76V213.947Z" fill="#F0F0F0"/>
<path d="M488.76 218.871H485.772V221.811H488.76V218.871Z" fill="#F0F0F0"/>
<path d="M488.76 223.809H485.772V226.749H488.76V223.809Z" fill="#F0F0F0"/>
<path d="M488.76 228.744H485.772V231.684H488.76V228.744Z" fill="#F0F0F0"/>
<path d="M488.76 233.68H485.772V236.62H488.76V233.68Z" fill="#F0F0F0"/>
<path d="M488.76 238.615H485.772V241.556H488.76V238.615Z" fill="#F0F0F0"/>
<path d="M488.76 243.551H485.772V246.491H488.76V243.551Z" fill="#F0F0F0"/>
<path d="M488.76 258.359H485.772V261.3H488.76V258.359Z" fill="#F0F0F0"/>
<path d="M488.76 263.295H485.772V266.235H488.76V263.295Z" fill="#F0F0F0"/>
<path d="M488.76 268.221H485.772V271.161H488.76V268.221Z" fill="#F0F0F0"/>
<path d="M488.76 273.156H485.772V276.097H488.76V273.156Z" fill="#F0F0F0"/>
<path d="M488.76 278.092H485.772V281.032H488.76V278.092Z" fill="#F0F0F0"/>
<path d="M488.76 297.836H485.772V300.776H488.76V297.836Z" fill="#F0F0F0"/>
<path d="M484.008 199.139H481.02V202.079H484.008V199.139Z" fill="#F0F0F0"/>
<path d="M484.008 204.076H481.02V207.017H484.008V204.076Z" fill="#F0F0F0"/>
<path d="M484.008 209.012H481.02V211.952H484.008V209.012Z" fill="#F0F0F0"/>
<path d="M484.008 213.947H481.02V216.888H484.008V213.947Z" fill="#F0F0F0"/>
<path d="M484.008 218.871H481.02V221.811H484.008V218.871Z" fill="#F0F0F0"/>
<path d="M484.008 223.809H481.02V226.749H484.008V223.809Z" fill="#F0F0F0"/>
<path d="M484.008 228.744H481.02V231.684H484.008V228.744Z" fill="#F0F0F0"/>
<path d="M484.008 233.68H481.02V236.62H484.008V233.68Z" fill="#F0F0F0"/>
<path d="M484.008 238.615H481.02V241.556H484.008V238.615Z" fill="#F0F0F0"/>
<path d="M484.008 243.551H481.02V246.491H484.008V243.551Z" fill="#F0F0F0"/>
<path d="M484.008 248.488H481.02V251.429H484.008V248.488Z" fill="#F0F0F0"/>
<path d="M484.008 253.424H481.02V256.364H484.008V253.424Z" fill="#F0F0F0"/>
<path d="M484.008 258.359H481.02V261.3H484.008V258.359Z" fill="#F0F0F0"/>
<path d="M484.008 263.295H481.02V266.235H484.008V263.295Z" fill="#F0F0F0"/>
<path d="M484.008 268.221H481.02V271.161H484.008V268.221Z" fill="#F0F0F0"/>
<path d="M484.008 273.156H481.02V276.097H484.008V273.156Z" fill="#F0F0F0"/>
<path d="M484.008 278.092H481.02V281.032H484.008V278.092Z" fill="#F0F0F0"/>
<path d="M484.008 283.027H481.02V285.968H484.008V283.027Z" fill="#F0F0F0"/>
<path d="M479.256 199.139H476.268V202.079H479.256V199.139Z" fill="#F0F0F0"/>
<path d="M479.256 204.076H476.268V207.017H479.256V204.076Z" fill="#F0F0F0"/>
<path d="M479.256 209.012H476.268V211.952H479.256V209.012Z" fill="#F0F0F0"/>
<path d="M479.256 213.947H476.268V216.888H479.256V213.947Z" fill="#F0F0F0"/>
<path d="M479.256 218.871H476.268V221.811H479.256V218.871Z" fill="#F0F0F0"/>
<path d="M479.256 223.809H476.268V226.749H479.256V223.809Z" fill="#F0F0F0"/>
<path d="M479.256 228.744H476.268V231.684H479.256V228.744Z" fill="#F0F0F0"/>
<path d="M479.256 233.68H476.268V236.62H479.256V233.68Z" fill="#F0F0F0"/>
<path d="M479.256 238.615H476.268V241.556H479.256V238.615Z" fill="#F0F0F0"/>
<path d="M479.256 243.551H476.268V246.491H479.256V243.551Z" fill="#F0F0F0"/>
<path d="M479.256 258.359H476.268V261.3H479.256V258.359Z" fill="#F0F0F0"/>
<path d="M479.256 263.295H476.268V266.235H479.256V263.295Z" fill="#F0F0F0"/>
<path d="M479.256 268.221H476.268V271.161H479.256V268.221Z" fill="#F0F0F0"/>
<path d="M479.256 273.156H476.268V276.097H479.256V273.156Z" fill="#F0F0F0"/>
<path d="M474.516 199.139H471.528V202.079H474.516V199.139Z" fill="#F0F0F0"/>
<path d="M474.516 204.076H471.528V207.017H474.516V204.076Z" fill="#F0F0F0"/>
<path d="M474.516 209.012H471.528V211.952H474.516V209.012Z" fill="#F0F0F0"/>
<path d="M474.516 213.947H471.528V216.888H474.516V213.947Z" fill="#F0F0F0"/>
<path d="M474.516 218.871H471.528V221.811H474.516V218.871Z" fill="#F0F0F0"/>
<path d="M474.516 223.809H471.528V226.749H474.516V223.809Z" fill="#F0F0F0"/>
<path d="M474.516 228.744H471.528V231.684H474.516V228.744Z" fill="#F0F0F0"/>
<path d="M474.516 233.68H471.528V236.62H474.516V233.68Z" fill="#F0F0F0"/>
<path d="M474.516 238.615H471.528V241.556H474.516V238.615Z" fill="#F0F0F0"/>
<path d="M474.516 243.551H471.528V246.491H474.516V243.551Z" fill="#F0F0F0"/>
<path d="M474.516 258.359H471.528V261.3H474.516V258.359Z" fill="#F0F0F0"/>
<path d="M474.516 263.295H471.528V266.235H474.516V263.295Z" fill="#F0F0F0"/>
<path d="M474.516 268.221H471.528V271.161H474.516V268.221Z" fill="#F0F0F0"/>
<path d="M421.02 186.328H418.032V189.268H421.02V186.328Z" fill="#F0F0F0"/>
<path d="M421.02 191.264H418.032V194.204H421.02V191.264Z" fill="#F0F0F0"/>
<path d="M421.02 196.199H418.032V199.14H421.02V196.199Z" fill="#F0F0F0"/>
<path d="M421.02 201.123H418.032V204.063H421.02V201.123Z" fill="#F0F0F0"/>
<path d="M421.02 206.059H418.032V208.999H421.02V206.059Z" fill="#F0F0F0"/>
<path d="M421.02 210.996H418.032V213.936H421.02V210.996Z" fill="#F0F0F0"/>
<path d="M421.02 215.932H418.032V218.872H421.02V215.932Z" fill="#F0F0F0"/>
<path d="M421.02 220.867H418.032V223.808H421.02V220.867Z" fill="#F0F0F0"/>
<path d="M421.02 235.676H418.032V238.616H421.02V235.676Z" fill="#F0F0F0"/>
<path d="M421.02 240.611H418.032V243.552H421.02V240.611Z" fill="#F0F0F0"/>
<path d="M416.268 186.328H413.28V189.268H416.268V186.328Z" fill="#F0F0F0"/>
<path d="M416.268 191.264H413.28V194.204H416.268V191.264Z" fill="#F0F0F0"/>
<path d="M416.268 196.199H413.28V199.14H416.268V196.199Z" fill="#F0F0F0"/>
<path d="M416.268 201.123H413.28V204.063H416.268V201.123Z" fill="#F0F0F0"/>
<path d="M416.268 206.059H413.28V208.999H416.268V206.059Z" fill="#F0F0F0"/>
<path d="M416.268 210.996H413.28V213.936H416.268V210.996Z" fill="#F0F0F0"/>
<path d="M416.268 215.932H413.28V218.872H416.268V215.932Z" fill="#F0F0F0"/>
<path d="M416.268 220.867H413.28V223.808H416.268V220.867Z" fill="#F0F0F0"/>
<path d="M416.268 240.611H413.28V243.552H416.268V240.611Z" fill="#F0F0F0"/>
<path d="M411.516 186.328H408.528V189.268H411.516V186.328Z" fill="#F0F0F0"/>
<path d="M411.516 191.264H408.528V194.204H411.516V191.264Z" fill="#F0F0F0"/>
<path d="M411.516 196.199H408.528V199.14H411.516V196.199Z" fill="#F0F0F0"/>
<path d="M411.516 201.123H408.528V204.063H411.516V201.123Z" fill="#F0F0F0"/>
<path d="M411.516 206.059H408.528V208.999H411.516V206.059Z" fill="#F0F0F0"/>
<path d="M411.516 210.996H408.528V213.936H411.516V210.996Z" fill="#F0F0F0"/>
<path d="M411.516 215.932H408.528V218.872H411.516V215.932Z" fill="#F0F0F0"/>
<path d="M411.516 220.867H408.528V223.808H411.516V220.867Z" fill="#F0F0F0"/>
<path d="M406.764 186.328H403.776V189.268H406.764V186.328Z" fill="#F0F0F0"/>
<path d="M406.764 191.264H403.776V194.204H406.764V191.264Z" fill="#F0F0F0"/>
<path d="M406.764 196.199H403.776V199.14H406.764V196.199Z" fill="#F0F0F0"/>
<path d="M406.764 201.123H403.776V204.063H406.764V201.123Z" fill="#F0F0F0"/>
<path d="M406.764 206.059H403.776V208.999H406.764V206.059Z" fill="#F0F0F0"/>
<path d="M406.764 210.996H403.776V213.936H406.764V210.996Z" fill="#F0F0F0"/>
<path d="M406.764 220.867H403.776V223.808H406.764V220.867Z" fill="#F0F0F0"/>
<path d="M406.764 225.803H403.776V228.743H406.764V225.803Z" fill="#F0F0F0"/>
<path d="M406.764 240.611H403.776V243.552H406.764V240.611Z" fill="#F0F0F0"/>
<path d="M406.764 245.547H403.776V248.487H406.764V245.547Z" fill="#F0F0F0"/>
<path d="M406.764 250.471H403.776V253.411H406.764V250.471Z" fill="#F0F0F0"/>
<path d="M406.764 255.408H403.776V258.349H406.764V255.408Z" fill="#F0F0F0"/>
<path d="M406.764 260.344H403.776V263.284H406.764V260.344Z" fill="#F0F0F0"/>
<path d="M406.764 265.279H403.776V268.22H406.764V265.279Z" fill="#F0F0F0"/>
<path d="M406.764 270.215H403.776V273.155H406.764V270.215Z" fill="#F0F0F0"/>
<path d="M402.012 186.328H399.024V189.268H402.012V186.328Z" fill="#F0F0F0"/>
<path d="M402.012 191.264H399.024V194.204H402.012V191.264Z" fill="#F0F0F0"/>
<path d="M402.012 196.199H399.024V199.14H402.012V196.199Z" fill="#F0F0F0"/>
<path d="M402.012 201.123H399.024V204.063H402.012V201.123Z" fill="#F0F0F0"/>
<path d="M402.012 206.059H399.024V208.999H402.012V206.059Z" fill="#F0F0F0"/>
<path d="M402.012 210.996H399.024V213.936H402.012V210.996Z" fill="#F0F0F0"/>
<path d="M402.012 225.803H399.024V228.743H402.012V225.803Z" fill="#F0F0F0"/>
<path d="M402.012 230.74H399.024V233.681H402.012V230.74Z" fill="#F0F0F0"/>
<path d="M402.012 235.676H399.024V238.616H402.012V235.676Z" fill="#F0F0F0"/>
<path d="M402.012 240.611H399.024V243.552H402.012V240.611Z" fill="#F0F0F0"/>
<path d="M402.012 245.547H399.024V248.487H402.012V245.547Z" fill="#F0F0F0"/>
<path d="M402.012 250.471H399.024V253.411H402.012V250.471Z" fill="#F0F0F0"/>
<path d="M402.012 255.408H399.024V258.349H402.012V255.408Z" fill="#F0F0F0"/>
<path d="M402.012 260.344H399.024V263.284H402.012V260.344Z" fill="#F0F0F0"/>
<path d="M402.012 265.279H399.024V268.22H402.012V265.279Z" fill="#F0F0F0"/>
<path d="M402.012 270.215H399.024V273.155H402.012V270.215Z" fill="#F0F0F0"/>
<path d="M402.012 275.152H399.024V278.093H402.012V275.152Z" fill="#F0F0F0"/>
<path d="M402.012 285.023H399.024V287.964H402.012V285.023Z" fill="#F0F0F0"/>
<path d="M397.26 186.328H394.272V189.268H397.26V186.328Z" fill="#F0F0F0"/>
<path d="M397.26 191.264H394.272V194.204H397.26V191.264Z" fill="#F0F0F0"/>
<path d="M397.26 196.199H394.272V199.14H397.26V196.199Z" fill="#F0F0F0"/>
<path d="M397.26 201.123H394.272V204.063H397.26V201.123Z" fill="#F0F0F0"/>
<path d="M397.26 206.059H394.272V208.999H397.26V206.059Z" fill="#F0F0F0"/>
<path d="M397.26 210.996H394.272V213.936H397.26V210.996Z" fill="#F0F0F0"/>
<path d="M397.26 225.803H394.272V228.743H397.26V225.803Z" fill="#F0F0F0"/>
<path d="M397.26 230.74H394.272V233.681H397.26V230.74Z" fill="#F0F0F0"/>
<path d="M397.26 235.676H394.272V238.616H397.26V235.676Z" fill="#F0F0F0"/>
<path d="M397.26 240.611H394.272V243.552H397.26V240.611Z" fill="#F0F0F0"/>
<path d="M397.26 255.408H394.272V258.349H397.26V255.408Z" fill="#F0F0F0"/>
<path d="M397.26 260.344H394.272V263.284H397.26V260.344Z" fill="#F0F0F0"/>
<path d="M397.26 265.279H394.272V268.22H397.26V265.279Z" fill="#F0F0F0"/>
<path d="M397.26 270.215H394.272V273.155H397.26V270.215Z" fill="#F0F0F0"/>
<path d="M397.26 275.152H394.272V278.093H397.26V275.152Z" fill="#F0F0F0"/>
<path d="M397.26 285.023H394.272V287.964H397.26V285.023Z" fill="#F0F0F0"/>
<path d="M397.26 289.959H394.272V292.899H397.26V289.959Z" fill="#F0F0F0"/>
<path d="M354.156 232.203H351.168V235.143H354.156V232.203Z" fill="#F0F0F0"/>
<path d="M354.156 237.139H351.168V240.079H354.156V237.139Z" fill="#F0F0F0"/>
<path d="M354.156 242.076H351.168V245.017H354.156V242.076Z" fill="#F0F0F0"/>
<path d="M354.156 247.012H351.168V249.952H354.156V247.012Z" fill="#F0F0F0"/>
<path d="M354.156 251.947H351.168V254.888H354.156V251.947Z" fill="#F0F0F0"/>
<path d="M354.156 256.883H351.168V259.823H354.156V256.883Z" fill="#F0F0F0"/>
<path d="M354.156 261.82H351.168V264.761H354.156V261.82Z" fill="#F0F0F0"/>
<path d="M354.156 276.627H351.168V279.567H354.156V276.627Z" fill="#F0F0F0"/>
<path d="M354.156 281.551H351.168V284.491H354.156V281.551Z" fill="#F0F0F0"/>
<path d="M354.156 286.488H351.168V289.429H354.156V286.488Z" fill="#F0F0F0"/>
<path d="M349.404 232.203H346.416V235.143H349.404V232.203Z" fill="#F0F0F0"/>
<path d="M349.404 237.139H346.416V240.079H349.404V237.139Z" fill="#F0F0F0"/>
<path d="M349.404 242.076H346.416V245.017H349.404V242.076Z" fill="#F0F0F0"/>
<path d="M349.404 247.012H346.416V249.952H349.404V247.012Z" fill="#F0F0F0"/>
<path d="M349.404 251.947H346.416V254.888H349.404V251.947Z" fill="#F0F0F0"/>
<path d="M349.404 256.883H346.416V259.823H349.404V256.883Z" fill="#F0F0F0"/>
<path d="M349.404 261.82H346.416V264.761H349.404V261.82Z" fill="#F0F0F0"/>
<path d="M344.652 232.203H341.664V235.143H344.652V232.203Z" fill="#F0F0F0"/>
<path d="M344.652 237.139H341.664V240.079H344.652V237.139Z" fill="#F0F0F0"/>
<path d="M344.652 242.076H341.664V245.017H344.652V242.076Z" fill="#F0F0F0"/>
<path d="M344.652 247.012H341.664V249.952H344.652V247.012Z" fill="#F0F0F0"/>
<path d="M344.652 251.947H341.664V254.888H344.652V251.947Z" fill="#F0F0F0"/>
<path d="M344.652 256.883H341.664V259.823H344.652V256.883Z" fill="#F0F0F0"/>
<path d="M344.652 261.82H341.664V264.761H344.652V261.82Z" fill="#F0F0F0"/>
<path d="M339.9 232.203H336.912V235.143H339.9V232.203Z" fill="#F0F0F0"/>
<path d="M339.9 237.139H336.912V240.079H339.9V237.139Z" fill="#F0F0F0"/>
<path d="M339.9 242.076H336.912V245.017H339.9V242.076Z" fill="#F0F0F0"/>
<path d="M339.9 247.012H336.912V249.952H339.9V247.012Z" fill="#F0F0F0"/>
<path d="M339.9 251.947H336.912V254.888H339.9V251.947Z" fill="#F0F0F0"/>
<path d="M339.9 256.883H336.912V259.823H339.9V256.883Z" fill="#F0F0F0"/>
<path d="M339.9 261.82H336.912V264.761H339.9V261.82Z" fill="#F0F0F0"/>
<path d="M339.9 266.756H336.912V269.696H339.9V266.756Z" fill="#F0F0F0"/>
<path d="M339.9 271.691H336.912V274.632H339.9V271.691Z" fill="#F0F0F0"/>
<path d="M339.9 276.627H336.912V279.567H339.9V276.627Z" fill="#F0F0F0"/>
<path d="M339.9 281.551H336.912V284.491H339.9V281.551Z" fill="#F0F0F0"/>
<path d="M335.148 232.203H332.16V235.143H335.148V232.203Z" fill="#F0F0F0"/>
<path d="M335.148 237.139H332.16V240.079H335.148V237.139Z" fill="#F0F0F0"/>
<path d="M335.148 242.076H332.16V245.017H335.148V242.076Z" fill="#F0F0F0"/>
<path d="M335.148 247.012H332.16V249.952H335.148V247.012Z" fill="#F0F0F0"/>
<path d="M335.148 251.947H332.16V254.888H335.148V251.947Z" fill="#F0F0F0"/>
<path d="M335.148 256.883H332.16V259.823H335.148V256.883Z" fill="#F0F0F0"/>
<path d="M335.148 261.82H332.16V264.761H335.148V261.82Z" fill="#F0F0F0"/>
<path d="M335.148 266.756H332.16V269.696H335.148V266.756Z" fill="#F0F0F0"/>
<path d="M335.148 271.691H332.16V274.632H335.148V271.691Z" fill="#F0F0F0"/>
<path d="M335.148 276.627H332.16V279.567H335.148V276.627Z" fill="#F0F0F0"/>
<path d="M335.148 281.551H332.16V284.491H335.148V281.551Z" fill="#F0F0F0"/>
<path d="M335.148 286.488H332.16V289.429H335.148V286.488Z" fill="#F0F0F0"/>
<path d="M335.148 301.295H332.16V304.235H335.148V301.295Z" fill="#F0F0F0"/>
<path d="M335.148 306.232H332.16V309.173H335.148V306.232Z" fill="#F0F0F0"/>
<path d="M330.396 232.203H327.408V235.143H330.396V232.203Z" fill="#F0F0F0"/>
<path d="M330.396 237.139H327.408V240.079H330.396V237.139Z" fill="#F0F0F0"/>
<path d="M330.396 242.076H327.408V245.017H330.396V242.076Z" fill="#F0F0F0"/>
<path d="M330.396 256.883H327.408V259.823H330.396V256.883Z" fill="#F0F0F0"/>
<path d="M330.396 261.82H327.408V264.761H330.396V261.82Z" fill="#F0F0F0"/>
<path d="M330.396 266.756H327.408V269.696H330.396V266.756Z" fill="#F0F0F0"/>
<path d="M330.396 271.691H327.408V274.632H330.396V271.691Z" fill="#F0F0F0"/>
<path d="M330.396 276.627H327.408V279.567H330.396V276.627Z" fill="#F0F0F0"/>
<path d="M330.396 281.551H327.408V284.491H330.396V281.551Z" fill="#F0F0F0"/>
<path d="M330.396 286.488H327.408V289.429H330.396V286.488Z" fill="#F0F0F0"/>
<path d="M330.396 301.295H327.408V304.235H330.396V301.295Z" fill="#F0F0F0"/>
<path d="M330.396 306.232H327.408V309.173H330.396V306.232Z" fill="#F0F0F0"/>
<path d="M330.396 311.168H327.408V314.108H330.396V311.168Z" fill="#F0F0F0"/>
<path d="M280.608 202.6H277.62V205.54H280.608V202.6Z" fill="#F0F0F0"/>
<path d="M280.608 207.535H277.62V210.475H280.608V207.535Z" fill="#F0F0F0"/>
<path d="M280.608 212.471H277.62V215.411H280.608V212.471Z" fill="#F0F0F0"/>
<path d="M280.608 217.408H277.62V220.349H280.608V217.408Z" fill="#F0F0F0"/>
<path d="M280.608 222.344H277.62V225.284H280.608V222.344Z" fill="#F0F0F0"/>
<path d="M280.608 227.279H277.62V230.22H280.608V227.279Z" fill="#F0F0F0"/>
<path d="M280.608 232.203H277.62V235.143H280.608V232.203Z" fill="#F0F0F0"/>
<path d="M280.608 237.139H277.62V240.079H280.608V237.139Z" fill="#F0F0F0"/>
<path d="M280.608 242.076H277.62V245.017H280.608V242.076Z" fill="#F0F0F0"/>
<path d="M280.608 247.012H277.62V249.952H280.608V247.012Z" fill="#F0F0F0"/>
<path d="M280.608 251.947H277.62V254.888H280.608V251.947Z" fill="#F0F0F0"/>
<path d="M280.608 256.883H277.62V259.823H280.608V256.883Z" fill="#F0F0F0"/>
<path d="M280.608 261.82H277.62V264.761H280.608V261.82Z" fill="#F0F0F0"/>
<path d="M280.608 266.756H277.62V269.696H280.608V266.756Z" fill="#F0F0F0"/>
<path d="M280.608 271.691H277.62V274.632H280.608V271.691Z" fill="#F0F0F0"/>
<path d="M280.608 276.627H277.62V279.567H280.608V276.627Z" fill="#F0F0F0"/>
<path d="M280.608 281.551H277.62V284.491H280.608V281.551Z" fill="#F0F0F0"/>
<path d="M280.608 286.488H277.62V289.429H280.608V286.488Z" fill="#F0F0F0"/>
<path d="M280.608 291.424H277.62V294.364H280.608V291.424Z" fill="#F0F0F0"/>
<path d="M280.608 296.359H277.62V299.3H280.608V296.359Z" fill="#F0F0F0"/>
<path d="M280.608 301.295H277.62V304.235H280.608V301.295Z" fill="#F0F0F0"/>
<path d="M280.608 306.232H277.62V309.173H280.608V306.232Z" fill="#F0F0F0"/>
<path d="M280.608 311.168H277.62V314.108H280.608V311.168Z" fill="#F0F0F0"/>
<path d="M275.856 202.6H272.868V205.54H275.856V202.6Z" fill="#F0F0F0"/>
<path d="M275.856 207.535H272.868V210.475H275.856V207.535Z" fill="#F0F0F0"/>
<path d="M275.856 212.471H272.868V215.411H275.856V212.471Z" fill="#F0F0F0"/>
<path d="M275.856 217.408H272.868V220.349H275.856V217.408Z" fill="#F0F0F0"/>
<path d="M275.856 222.344H272.868V225.284H275.856V222.344Z" fill="#F0F0F0"/>
<path d="M275.856 227.279H272.868V230.22H275.856V227.279Z" fill="#F0F0F0"/>
<path d="M275.856 232.203H272.868V235.143H275.856V232.203Z" fill="#F0F0F0"/>
<path d="M275.856 237.139H272.868V240.079H275.856V237.139Z" fill="#F0F0F0"/>
<path d="M275.856 242.076H272.868V245.017H275.856V242.076Z" fill="#F0F0F0"/>
<path d="M275.856 247.012H272.868V249.952H275.856V247.012Z" fill="#F0F0F0"/>
<path d="M275.856 251.947H272.868V254.888H275.856V251.947Z" fill="#F0F0F0"/>
<path d="M275.856 256.883H272.868V259.823H275.856V256.883Z" fill="#F0F0F0"/>
<path d="M275.856 261.82H272.868V264.761H275.856V261.82Z" fill="#F0F0F0"/>
<path d="M275.856 266.756H272.868V269.696H275.856V266.756Z" fill="#F0F0F0"/>
<path d="M275.856 271.691H272.868V274.632H275.856V271.691Z" fill="#F0F0F0"/>
<path d="M275.856 276.627H272.868V279.567H275.856V276.627Z" fill="#F0F0F0"/>
<path d="M275.856 281.551H272.868V284.491H275.856V281.551Z" fill="#F0F0F0"/>
<path d="M275.856 286.488H272.868V289.429H275.856V286.488Z" fill="#F0F0F0"/>
<path d="M275.856 291.424H272.868V294.364H275.856V291.424Z" fill="#F0F0F0"/>
<path d="M271.104 202.6H268.116V205.54H271.104V202.6Z" fill="#F0F0F0"/>
<path d="M271.104 207.535H268.116V210.475H271.104V207.535Z" fill="#F0F0F0"/>
<path d="M271.104 212.471H268.116V215.411H271.104V212.471Z" fill="#F0F0F0"/>
<path d="M271.104 217.408H268.116V220.349H271.104V217.408Z" fill="#F0F0F0"/>
<path d="M271.104 222.344H268.116V225.284H271.104V222.344Z" fill="#F0F0F0"/>
<path d="M271.104 227.279H268.116V230.22H271.104V227.279Z" fill="#F0F0F0"/>
<path d="M271.104 232.203H268.116V235.143H271.104V232.203Z" fill="#F0F0F0"/>
<path d="M271.104 237.139H268.116V240.079H271.104V237.139Z" fill="#F0F0F0"/>
<path d="M271.104 242.076H268.116V245.017H271.104V242.076Z" fill="#F0F0F0"/>
<path d="M271.104 247.012H268.116V249.952H271.104V247.012Z" fill="#F0F0F0"/>
<path d="M271.104 251.947H268.116V254.888H271.104V251.947Z" fill="#F0F0F0"/>
<path d="M271.104 256.883H268.116V259.823H271.104V256.883Z" fill="#F0F0F0"/>
<path d="M271.104 261.82H268.116V264.761H271.104V261.82Z" fill="#F0F0F0"/>
<path d="M271.104 266.756H268.116V269.696H271.104V266.756Z" fill="#F0F0F0"/>
<path d="M271.104 271.691H268.116V274.632H271.104V271.691Z" fill="#F0F0F0"/>
<path d="M271.104 276.627H268.116V279.567H271.104V276.627Z" fill="#F0F0F0"/>
<path d="M271.104 281.551H268.116V284.491H271.104V281.551Z" fill="#F0F0F0"/>
<path d="M271.104 286.488H268.116V289.429H271.104V286.488Z" fill="#F0F0F0"/>
<path d="M271.104 291.424H268.116V294.364H271.104V291.424Z" fill="#F0F0F0"/>
<path d="M266.352 202.6H263.364V205.54H266.352V202.6Z" fill="#F0F0F0"/>
<path d="M266.352 207.535H263.364V210.475H266.352V207.535Z" fill="#F0F0F0"/>
<path d="M266.352 212.471H263.364V215.411H266.352V212.471Z" fill="#F0F0F0"/>
<path d="M266.352 217.408H263.364V220.349H266.352V217.408Z" fill="#F0F0F0"/>
<path d="M266.352 222.344H263.364V225.284H266.352V222.344Z" fill="#F0F0F0"/>
<path d="M266.352 227.279H263.364V230.22H266.352V227.279Z" fill="#F0F0F0"/>
<path d="M266.352 232.203H263.364V235.143H266.352V232.203Z" fill="#F0F0F0"/>
<path d="M266.352 237.139H263.364V240.079H266.352V237.139Z" fill="#F0F0F0"/>
<path d="M266.352 242.076H263.364V245.017H266.352V242.076Z" fill="#F0F0F0"/>
<path d="M266.352 247.012H263.364V249.952H266.352V247.012Z" fill="#F0F0F0"/>
<path d="M266.352 251.947H263.364V254.888H266.352V251.947Z" fill="#F0F0F0"/>
<path d="M266.352 256.883H263.364V259.823H266.352V256.883Z" fill="#F0F0F0"/>
<path d="M266.352 261.82H263.364V264.761H266.352V261.82Z" fill="#F0F0F0"/>
<path d="M266.352 266.756H263.364V269.696H266.352V266.756Z" fill="#F0F0F0"/>
<path d="M266.352 271.691H263.364V274.632H266.352V271.691Z" fill="#F0F0F0"/>
<path d="M261.6 202.6H258.612V205.54H261.6V202.6Z" fill="#F0F0F0"/>
<path d="M261.6 207.535H258.612V210.475H261.6V207.535Z" fill="#F0F0F0"/>
<path d="M261.6 212.471H258.612V215.411H261.6V212.471Z" fill="#F0F0F0"/>
<path d="M261.6 217.408H258.612V220.349H261.6V217.408Z" fill="#F0F0F0"/>
<path d="M261.6 222.344H258.612V225.284H261.6V222.344Z" fill="#F0F0F0"/>
<path d="M261.6 227.279H258.612V230.22H261.6V227.279Z" fill="#F0F0F0"/>
<path d="M261.6 232.203H258.612V235.143H261.6V232.203Z" fill="#F0F0F0"/>
<path d="M261.6 237.139H258.612V240.079H261.6V237.139Z" fill="#F0F0F0"/>
<path d="M261.6 242.076H258.612V245.017H261.6V242.076Z" fill="#F0F0F0"/>
<path d="M261.6 247.012H258.612V249.952H261.6V247.012Z" fill="#F0F0F0"/>
<path d="M261.6 251.947H258.612V254.888H261.6V251.947Z" fill="#F0F0F0"/>
<path d="M261.6 256.883H258.612V259.823H261.6V256.883Z" fill="#F0F0F0"/>
<path d="M261.6 261.82H258.612V264.761H261.6V261.82Z" fill="#F0F0F0"/>
<path d="M256.848 202.6H253.86V205.54H256.848V202.6Z" fill="#F0F0F0"/>
<path d="M256.848 207.535H253.86V210.475H256.848V207.535Z" fill="#F0F0F0"/>
<path d="M256.848 212.471H253.86V215.411H256.848V212.471Z" fill="#F0F0F0"/>
<path d="M256.848 217.408H253.86V220.349H256.848V217.408Z" fill="#F0F0F0"/>
<path d="M256.848 222.344H253.86V225.284H256.848V222.344Z" fill="#F0F0F0"/>
<path d="M256.848 227.279H253.86V230.22H256.848V227.279Z" fill="#F0F0F0"/>
<path d="M256.848 232.203H253.86V235.143H256.848V232.203Z" fill="#F0F0F0"/>
<path d="M256.848 237.139H253.86V240.079H256.848V237.139Z" fill="#F0F0F0"/>
<path d="M256.848 242.076H253.86V245.017H256.848V242.076Z" fill="#F0F0F0"/>
<path d="M256.848 247.012H253.86V249.952H256.848V247.012Z" fill="#F0F0F0"/>
<path d="M256.848 251.947H253.86V254.888H256.848V251.947Z" fill="#F0F0F0"/>
<path d="M256.848 256.883H253.86V259.823H256.848V256.883Z" fill="#F0F0F0"/>
<path d="M534.156 201.123H531.168V204.063H534.156V201.123Z" fill="#F0F0F0"/>
<path d="M534.156 206.059H531.168V208.999H534.156V206.059Z" fill="#F0F0F0"/>
<path d="M534.156 210.996H531.168V213.936H534.156V210.996Z" fill="#F0F0F0"/>
<path d="M534.156 215.932H531.168V218.872H534.156V215.932Z" fill="#F0F0F0"/>
<path d="M534.156 220.867H531.168V223.808H534.156V220.867Z" fill="#F0F0F0"/>
<path d="M534.156 225.803H531.168V228.743H534.156V225.803Z" fill="#F0F0F0"/>
<path d="M534.156 230.74H531.168V233.681H534.156V230.74Z" fill="#F0F0F0"/>
<path d="M534.156 235.676H531.168V238.616H534.156V235.676Z" fill="#F0F0F0"/>
<path d="M534.156 240.611H531.168V243.552H534.156V240.611Z" fill="#F0F0F0"/>
<path d="M534.156 245.547H531.168V248.487H534.156V245.547Z" fill="#F0F0F0"/>
<path d="M534.156 250.471H531.168V253.411H534.156V250.471Z" fill="#F0F0F0"/>
<path d="M534.156 255.408H531.168V258.349H534.156V255.408Z" fill="#F0F0F0"/>
<path d="M534.156 260.344H531.168V263.284H534.156V260.344Z" fill="#F0F0F0"/>
<path d="M534.156 265.279H531.168V268.22H534.156V265.279Z" fill="#F0F0F0"/>
<path d="M534.156 270.215H531.168V273.155H534.156V270.215Z" fill="#F0F0F0"/>
<path d="M534.156 275.152H531.168V278.093H534.156V275.152Z" fill="#F0F0F0"/>
<path d="M534.156 280.088H531.168V283.028H534.156V280.088Z" fill="#F0F0F0"/>
<path d="M534.156 289.959H531.168V292.899H534.156V289.959Z" fill="#F0F0F0"/>
<path d="M534.156 294.895H531.168V297.835H534.156V294.895Z" fill="#F0F0F0"/>
<path d="M534.156 299.82H531.168V302.761H534.156V299.82Z" fill="#F0F0F0"/>
<path d="M534.156 304.756H531.168V307.696H534.156V304.756Z" fill="#F0F0F0"/>
<path d="M534.156 309.691H531.168V312.632H534.156V309.691Z" fill="#F0F0F0"/>
<path d="M529.404 201.123H526.416V204.063H529.404V201.123Z" fill="#F0F0F0"/>
<path d="M529.404 206.059H526.416V208.999H529.404V206.059Z" fill="#F0F0F0"/>
<path d="M529.404 210.996H526.416V213.936H529.404V210.996Z" fill="#F0F0F0"/>
<path d="M529.404 215.932H526.416V218.872H529.404V215.932Z" fill="#F0F0F0"/>
<path d="M529.404 220.867H526.416V223.808H529.404V220.867Z" fill="#F0F0F0"/>
<path d="M529.404 225.803H526.416V228.743H529.404V225.803Z" fill="#F0F0F0"/>
<path d="M529.404 230.74H526.416V233.681H529.404V230.74Z" fill="#F0F0F0"/>
<path d="M529.404 235.676H526.416V238.616H529.404V235.676Z" fill="#F0F0F0"/>
<path d="M529.404 240.611H526.416V243.552H529.404V240.611Z" fill="#F0F0F0"/>
<path d="M529.404 245.547H526.416V248.487H529.404V245.547Z" fill="#F0F0F0"/>
<path d="M529.404 250.471H526.416V253.411H529.404V250.471Z" fill="#F0F0F0"/>
<path d="M529.404 255.408H526.416V258.349H529.404V255.408Z" fill="#F0F0F0"/>
<path d="M529.404 260.344H526.416V263.284H529.404V260.344Z" fill="#F0F0F0"/>
<path d="M529.404 265.279H526.416V268.22H529.404V265.279Z" fill="#F0F0F0"/>
<path d="M529.404 270.215H526.416V273.155H529.404V270.215Z" fill="#F0F0F0"/>
<path d="M529.404 275.152H526.416V278.093H529.404V275.152Z" fill="#F0F0F0"/>
<path d="M529.404 304.756H526.416V307.696H529.404V304.756Z" fill="#F0F0F0"/>
<path d="M529.404 309.691H526.416V312.632H529.404V309.691Z" fill="#F0F0F0"/>
<path d="M524.664 201.123H521.676V204.063H524.664V201.123Z" fill="#F0F0F0"/>
<path d="M524.664 206.059H521.676V208.999H524.664V206.059Z" fill="#F0F0F0"/>
<path d="M524.664 210.996H521.676V213.936H524.664V210.996Z" fill="#F0F0F0"/>
<path d="M524.664 215.932H521.676V218.872H524.664V215.932Z" fill="#F0F0F0"/>
<path d="M524.664 220.867H521.676V223.808H524.664V220.867Z" fill="#F0F0F0"/>
<path d="M524.664 225.803H521.676V228.743H524.664V225.803Z" fill="#F0F0F0"/>
<path d="M524.664 230.74H521.676V233.681H524.664V230.74Z" fill="#F0F0F0"/>
<path d="M524.664 235.676H521.676V238.616H524.664V235.676Z" fill="#F0F0F0"/>
<path d="M524.664 240.611H521.676V243.552H524.664V240.611Z" fill="#F0F0F0"/>
<path d="M524.664 245.547H521.676V248.487H524.664V245.547Z" fill="#F0F0F0"/>
<path d="M524.664 250.471H521.676V253.411H524.664V250.471Z" fill="#F0F0F0"/>
<path d="M524.664 255.408H521.676V258.349H524.664V255.408Z" fill="#F0F0F0"/>
<path d="M524.664 260.344H521.676V263.284H524.664V260.344Z" fill="#F0F0F0"/>
<path d="M524.664 265.279H521.676V268.22H524.664V265.279Z" fill="#F0F0F0"/>
<path d="M524.664 270.215H521.676V273.155H524.664V270.215Z" fill="#F0F0F0"/>
<path d="M524.664 275.152H521.676V278.093H524.664V275.152Z" fill="#F0F0F0"/>
<path d="M524.664 285.023H521.676V287.964H524.664V285.023Z" fill="#F0F0F0"/>
<path d="M524.664 289.959H521.676V292.899H524.664V289.959Z" fill="#F0F0F0"/>
<path d="M524.664 294.895H521.676V297.835H524.664V294.895Z" fill="#F0F0F0"/>
<path d="M524.664 299.82H521.676V302.761H524.664V299.82Z" fill="#F0F0F0"/>
<path d="M524.664 309.691H521.676V312.632H524.664V309.691Z" fill="#F0F0F0"/>
<path d="M441.78 235.676H438.792V238.616H441.78V235.676Z" fill="#F0F0F0"/>
<path d="M441.78 240.611H438.792V243.552H441.78V240.611Z" fill="#F0F0F0"/>
<path d="M441.78 245.547H438.792V248.487H441.78V245.547Z" fill="#F0F0F0"/>
<path d="M441.78 250.471H438.792V253.411H441.78V250.471Z" fill="#F0F0F0"/>
<path d="M441.78 255.408H438.792V258.349H441.78V255.408Z" fill="#F0F0F0"/>
<path d="M441.78 260.344H438.792V263.284H441.78V260.344Z" fill="#F0F0F0"/>
<path d="M441.78 265.279H438.792V268.22H441.78V265.279Z" fill="#F0F0F0"/>
<path d="M441.78 270.215H438.792V273.155H441.78V270.215Z" fill="#F0F0F0"/>
<path d="M441.78 275.152H438.792V278.093H441.78V275.152Z" fill="#F0F0F0"/>
<path d="M441.78 280.088H438.792V283.028H441.78V280.088Z" fill="#F0F0F0"/>
<path d="M441.78 285.023H438.792V287.964H441.78V285.023Z" fill="#F0F0F0"/>
<path d="M441.78 289.959H438.792V292.899H441.78V289.959Z" fill="#F0F0F0"/>
<path d="M441.78 294.895H438.792V297.835H441.78V294.895Z" fill="#F0F0F0"/>
<path d="M441.78 304.756H438.792V307.696H441.78V304.756Z" fill="#F0F0F0"/>
<path d="M441.78 309.691H438.792V312.632H441.78V309.691Z" fill="#F0F0F0"/>
<path d="M441.78 314.627H438.792V317.567H441.78V314.627Z" fill="#F0F0F0"/>
<path d="M441.78 319.564H438.792V322.505H441.78V319.564Z" fill="#F0F0F0"/>
<path d="M441.78 329.436H438.792V332.376H441.78V329.436Z" fill="#F0F0F0"/>
<path d="M441.78 334.371H438.792V337.311H441.78V334.371Z" fill="#F0F0F0"/>
<path d="M441.78 339.309H438.792V342.249H441.78V339.309Z" fill="#F0F0F0"/>
<path d="M437.028 235.676H434.04V238.616H437.028V235.676Z" fill="#F0F0F0"/>
<path d="M437.028 240.611H434.04V243.552H437.028V240.611Z" fill="#F0F0F0"/>
<path d="M437.028 245.547H434.04V248.487H437.028V245.547Z" fill="#F0F0F0"/>
<path d="M437.028 250.471H434.04V253.411H437.028V250.471Z" fill="#F0F0F0"/>
<path d="M437.028 255.408H434.04V258.349H437.028V255.408Z" fill="#F0F0F0"/>
<path d="M437.028 260.344H434.04V263.284H437.028V260.344Z" fill="#F0F0F0"/>
<path d="M437.028 265.279H434.04V268.22H437.028V265.279Z" fill="#F0F0F0"/>
<path d="M437.028 270.215H434.04V273.155H437.028V270.215Z" fill="#F0F0F0"/>
<path d="M437.028 275.152H434.04V278.093H437.028V275.152Z" fill="#F0F0F0"/>
<path d="M437.028 280.088H434.04V283.028H437.028V280.088Z" fill="#F0F0F0"/>
<path d="M437.028 285.023H434.04V287.964H437.028V285.023Z" fill="#F0F0F0"/>
<path d="M437.028 289.959H434.04V292.899H437.028V289.959Z" fill="#F0F0F0"/>
<path d="M437.028 294.895H434.04V297.835H437.028V294.895Z" fill="#F0F0F0"/>
<path d="M437.028 309.691H434.04V312.632H437.028V309.691Z" fill="#F0F0F0"/>
<path d="M437.028 314.627H434.04V317.567H437.028V314.627Z" fill="#F0F0F0"/>
<path d="M437.028 324.5H434.04V327.44H437.028V324.5Z" fill="#F0F0F0"/>
<path d="M437.028 329.436H434.04V332.376H437.028V329.436Z" fill="#F0F0F0"/>
<path d="M437.028 334.371H434.04V337.311H437.028V334.371Z" fill="#F0F0F0"/>
<path d="M437.028 339.309H434.04V342.249H437.028V339.309Z" fill="#F0F0F0"/>
<path d="M432.276 235.676H429.288V238.616H432.276V235.676Z" fill="#F0F0F0"/>
<path d="M432.276 240.611H429.288V243.552H432.276V240.611Z" fill="#F0F0F0"/>
<path d="M432.276 245.547H429.288V248.487H432.276V245.547Z" fill="#F0F0F0"/>
<path d="M432.276 250.471H429.288V253.411H432.276V250.471Z" fill="#F0F0F0"/>
<path d="M432.276 255.408H429.288V258.349H432.276V255.408Z" fill="#F0F0F0"/>
<path d="M432.276 260.344H429.288V263.284H432.276V260.344Z" fill="#F0F0F0"/>
<path d="M432.276 265.279H429.288V268.22H432.276V265.279Z" fill="#F0F0F0"/>
<path d="M432.276 270.215H429.288V273.155H432.276V270.215Z" fill="#F0F0F0"/>
<path d="M432.276 275.152H429.288V278.093H432.276V275.152Z" fill="#F0F0F0"/>
<path d="M432.276 280.088H429.288V283.028H432.276V280.088Z" fill="#F0F0F0"/>
<path d="M432.276 285.023H429.288V287.964H432.276V285.023Z" fill="#F0F0F0"/>
<path d="M432.276 289.959H429.288V292.899H432.276V289.959Z" fill="#F0F0F0"/>
<path d="M432.276 294.895H429.288V297.835H432.276V294.895Z" fill="#F0F0F0"/>
<path d="M432.276 299.82H429.288V302.761H432.276V299.82Z" fill="#F0F0F0"/>
<path d="M432.276 309.691H429.288V312.632H432.276V309.691Z" fill="#F0F0F0"/>
<path d="M432.276 319.564H429.288V322.505H432.276V319.564Z" fill="#F0F0F0"/>
<path d="M432.276 324.5H429.288V327.44H432.276V324.5Z" fill="#F0F0F0"/>
<path d="M432.276 329.436H429.288V332.376H432.276V329.436Z" fill="#F0F0F0"/>
<path d="M432.276 334.371H429.288V337.311H432.276V334.371Z" fill="#F0F0F0"/>
<path d="M432.276 339.309H429.288V342.249H432.276V339.309Z" fill="#F0F0F0"/>
<path d="M461.136 263.814H458.148V266.755H461.136V263.814Z" fill="#F0F0F0"/>
<path d="M461.136 268.74H458.148V271.681H461.136V268.74Z" fill="#F0F0F0"/>
<path d="M461.136 273.676H458.148V276.616H461.136V273.676Z" fill="#F0F0F0"/>
<path d="M461.136 278.611H458.148V281.552H461.136V278.611Z" fill="#F0F0F0"/>
<path d="M461.136 283.547H458.148V286.487H461.136V283.547Z" fill="#F0F0F0"/>
<path d="M461.136 288.482H458.148V291.423H461.136V288.482Z" fill="#F0F0F0"/>
<path d="M461.136 303.291H458.148V306.231H461.136V303.291Z" fill="#F0F0F0"/>
<path d="M461.136 308.227H458.148V311.167H461.136V308.227Z" fill="#F0F0F0"/>
<path d="M461.136 313.152H458.148V316.093H461.136V313.152Z" fill="#F0F0F0"/>
<path d="M461.136 318.088H458.148V321.028H461.136V318.088Z" fill="#F0F0F0"/>
<path d="M461.136 323.023H458.148V325.964H461.136V323.023Z" fill="#F0F0F0"/>
<path d="M461.136 327.959H458.148V330.899H461.136V327.959Z" fill="#F0F0F0"/>
<path d="M461.136 332.896H458.148V335.837H461.136V332.896Z" fill="#F0F0F0"/>
<path d="M456.384 263.814H453.396V266.755H456.384V263.814Z" fill="#F0F0F0"/>
<path d="M456.384 268.74H453.396V271.681H456.384V268.74Z" fill="#F0F0F0"/>
<path d="M456.384 273.676H453.396V276.616H456.384V273.676Z" fill="#F0F0F0"/>
<path d="M456.384 278.611H453.396V281.552H456.384V278.611Z" fill="#F0F0F0"/>
<path d="M456.384 283.547H453.396V286.487H456.384V283.547Z" fill="#F0F0F0"/>
<path d="M456.384 288.482H453.396V291.423H456.384V288.482Z" fill="#F0F0F0"/>
<path d="M456.384 303.291H453.396V306.231H456.384V303.291Z" fill="#F0F0F0"/>
<path d="M456.384 308.227H453.396V311.167H456.384V308.227Z" fill="#F0F0F0"/>
<path d="M456.384 313.152H453.396V316.093H456.384V313.152Z" fill="#F0F0F0"/>
<path d="M456.384 318.088H453.396V321.028H456.384V318.088Z" fill="#F0F0F0"/>
<path d="M456.384 323.023H453.396V325.964H456.384V323.023Z" fill="#F0F0F0"/>
<path d="M456.384 327.959H453.396V330.899H456.384V327.959Z" fill="#F0F0F0"/>
<path d="M456.384 337.832H453.396V340.772H456.384V337.832Z" fill="#F0F0F0"/>
<path d="M298.548 242.076H295.56V245.017H298.548V242.076Z" fill="#F0F0F0"/>
<path d="M298.548 247.012H295.56V249.952H298.548V247.012Z" fill="#F0F0F0"/>
<path d="M298.548 251.947H295.56V254.888H298.548V251.947Z" fill="#F0F0F0"/>
<path d="M298.548 256.883H295.56V259.823H298.548V256.883Z" fill="#F0F0F0"/>
<path d="M298.548 261.82H295.56V264.761H298.548V261.82Z" fill="#F0F0F0"/>
<path d="M298.548 266.756H295.56V269.696H298.548V266.756Z" fill="#F0F0F0"/>
<path d="M298.548 271.691H295.56V274.632H298.548V271.691Z" fill="#F0F0F0"/>
<path d="M298.548 276.627H295.56V279.567H298.548V276.627Z" fill="#F0F0F0"/>
<path d="M298.548 281.551H295.56V284.491H298.548V281.551Z" fill="#F0F0F0"/>
<path d="M298.548 286.488H295.56V289.429H298.548V286.488Z" fill="#F0F0F0"/>
<path d="M298.548 291.424H295.56V294.364H298.548V291.424Z" fill="#F0F0F0"/>
<path d="M298.548 301.295H295.56V304.235H298.548V301.295Z" fill="#F0F0F0"/>
<path d="M298.548 306.232H295.56V309.173H298.548V306.232Z" fill="#F0F0F0"/>
<path d="M298.548 311.168H295.56V314.108H298.548V311.168Z" fill="#F0F0F0"/>
<path d="M298.548 316.104H295.56V319.044H298.548V316.104Z" fill="#F0F0F0"/>
<path d="M298.548 321.039H295.56V323.979H298.548V321.039Z" fill="#F0F0F0"/>
<path d="M298.548 325.977H295.56V328.917H298.548V325.977Z" fill="#F0F0F0"/>
<path d="M298.548 330.9H295.56V333.841H298.548V330.9Z" fill="#F0F0F0"/>
<path d="M298.548 335.836H295.56V338.776H298.548V335.836Z" fill="#F0F0F0"/>
<path d="M293.808 242.076H290.82V245.017H293.808V242.076Z" fill="#F0F0F0"/>
<path d="M293.808 247.012H290.82V249.952H293.808V247.012Z" fill="#F0F0F0"/>
<path d="M293.808 251.947H290.82V254.888H293.808V251.947Z" fill="#F0F0F0"/>
<path d="M293.808 256.883H290.82V259.823H293.808V256.883Z" fill="#F0F0F0"/>
<path d="M293.808 261.82H290.82V264.761H293.808V261.82Z" fill="#F0F0F0"/>
<path d="M293.808 266.756H290.82V269.696H293.808V266.756Z" fill="#F0F0F0"/>
<path d="M293.808 271.691H290.82V274.632H293.808V271.691Z" fill="#F0F0F0"/>
<path d="M293.808 276.627H290.82V279.567H293.808V276.627Z" fill="#F0F0F0"/>
<path d="M293.808 281.551H290.82V284.491H293.808V281.551Z" fill="#F0F0F0"/>
<path d="M293.808 286.488H290.82V289.429H293.808V286.488Z" fill="#F0F0F0"/>
<path d="M293.808 291.424H290.82V294.364H293.808V291.424Z" fill="#F0F0F0"/>
<path d="M293.808 296.359H290.82V299.3H293.808V296.359Z" fill="#F0F0F0"/>
<path d="M293.808 301.295H290.82V304.235H293.808V301.295Z" fill="#F0F0F0"/>
<path d="M293.808 306.232H290.82V309.173H293.808V306.232Z" fill="#F0F0F0"/>
<path d="M293.808 311.168H290.82V314.108H293.808V311.168Z" fill="#F0F0F0"/>
<path d="M293.808 316.104H290.82V319.044H293.808V316.104Z" fill="#F0F0F0"/>
<path d="M293.808 321.039H290.82V323.979H293.808V321.039Z" fill="#F0F0F0"/>
<path d="M293.808 325.977H290.82V328.917H293.808V325.977Z" fill="#F0F0F0"/>
<path d="M293.808 330.9H290.82V333.841H293.808V330.9Z" fill="#F0F0F0"/>
<path d="M293.808 335.836H290.82V338.776H293.808V335.836Z" fill="#F0F0F0"/>
<path d="M321.96 261.301H318.972V264.241H321.96V261.301Z" fill="#F0F0F0"/>
<path d="M321.96 266.236H318.972V269.177H321.96V266.236Z" fill="#F0F0F0"/>
<path d="M321.96 271.172H318.972V274.112H321.96V271.172Z" fill="#F0F0F0"/>
<path d="M321.96 276.107H318.972V279.048H321.96V276.107Z" fill="#F0F0F0"/>
<path d="M321.96 281.031H318.972V283.972H321.96V281.031Z" fill="#F0F0F0"/>
<path d="M321.96 285.969H318.972V288.909H321.96V285.969Z" fill="#F0F0F0"/>
<path d="M321.96 290.904H318.972V293.845H321.96V290.904Z" fill="#F0F0F0"/>
<path d="M321.96 295.84H318.972V298.78H321.96V295.84Z" fill="#F0F0F0"/>
<path d="M321.96 300.775H318.972V303.716H321.96V300.775Z" fill="#F0F0F0"/>
<path d="M321.96 305.713H318.972V308.653H321.96V305.713Z" fill="#F0F0F0"/>
<path d="M317.208 261.301H314.22V264.241H317.208V261.301Z" fill="#F0F0F0"/>
<path d="M317.208 266.236H314.22V269.177H317.208V266.236Z" fill="#F0F0F0"/>
<path d="M317.208 271.172H314.22V274.112H317.208V271.172Z" fill="#F0F0F0"/>
<path d="M317.208 276.107H314.22V279.048H317.208V276.107Z" fill="#F0F0F0"/>
<path d="M317.208 281.031H314.22V283.972H317.208V281.031Z" fill="#F0F0F0"/>
<path d="M317.208 285.969H314.22V288.909H317.208V285.969Z" fill="#F0F0F0"/>
<path d="M317.208 290.904H314.22V293.845H317.208V290.904Z" fill="#F0F0F0"/>
<path d="M317.208 295.84H314.22V298.78H317.208V295.84Z" fill="#F0F0F0"/>
<path d="M317.208 300.775H314.22V303.716H317.208V300.775Z" fill="#F0F0F0"/>
<path d="M345.468 74.0273H340.452V349.262H345.468V74.0273Z" fill="#E0E0E0"/>
<path d="M439.92 74.0273H434.904V349.262H439.92V74.0273Z" fill="#E0E0E0"/>
<path d="M534.36 74.0273H529.344V349.262H534.36V74.0273Z" fill="#E0E0E0"/>
<path d="M177.384 322.48H208.32C209.721 322.484 211.064 323.034 212.054 324.01C213.044 324.986 213.6 326.309 213.6 327.688V386.53H172.104V327.688C172.104 326.309 172.659 324.986 173.649 324.01C174.639 323.034 175.982 322.484 177.384 322.48V322.48Z" fill="#F0F0F0"/>
<path d="M213.612 331.137H172.104V335.73H213.612V331.137Z" fill="#E6E6E6"/>
<path d="M195.708 378.772H206.052C206.806 378.772 207.529 379.066 208.063 379.591C208.596 380.116 208.896 380.828 208.896 381.57V386.53H192.852V381.57C192.852 381.202 192.926 380.837 193.069 380.496C193.213 380.156 193.423 379.847 193.689 379.587C193.954 379.327 194.269 379.121 194.616 378.981C194.962 378.841 195.333 378.77 195.708 378.772V378.772Z" fill="#E0E0E0"/>
<path d="M208.944 386.53H197.448C196.957 386.53 196.487 386.338 196.141 385.997C195.794 385.656 195.6 385.193 195.6 384.711V384.711C195.603 384.231 195.799 383.771 196.145 383.433C196.491 383.094 196.96 382.904 197.448 382.904H208.944C209.432 382.904 209.9 383.094 210.246 383.433C210.592 383.771 210.788 384.231 210.792 384.711V384.711C210.792 385.193 210.597 385.656 210.25 385.997C209.904 386.338 209.434 386.53 208.944 386.53Z" fill="#E6E6E6"/>
<path d="M393.257 61.1142C408.447 57.5862 417.855 42.6085 414.27 27.6606C410.685 12.7126 395.464 3.45501 380.274 6.98304C365.084 10.5111 355.676 25.4888 359.261 40.4367C362.846 55.3846 378.067 64.6423 393.257 61.1142Z" fill="#E0E0E0"/>
<path d="M390.608 57.3633C403.712 55.2703 412.61 43.1207 410.483 30.2265C408.356 17.3323 396.009 8.5762 382.906 10.6692C369.803 12.7623 360.905 24.9118 363.032 37.806C365.159 50.7002 377.505 59.4563 390.608 57.3633Z" fill="#F0F0F0"/>
<path d="M387.9 17.7949V34.327L399.024 28.1274" fill="#F0F0F0"/>
<path d="M387.9 17.7949V34.327L399.024 28.1274" stroke="#E0E0E0" stroke-width="2" stroke-linecap="round" stroke-linejoin="round"/>
<path d="M116.316 305.476C114.156 301.933 110.604 305.015 110.604 305.015C111.108 298.308 104.844 293.726 104.844 293.726C104.844 293.726 112.128 293.726 113.136 286.889C114.144 280.052 110.604 283.228 107.268 283.181C103.932 283.134 100.44 292.723 104.868 298.119C109.296 303.516 108.084 312.726 97.9202 321.583C95.4896 323.821 93.6664 326.622 92.6162 329.731C93.3842 321.595 93.8162 310.128 91.4162 302.476C87.2882 289.487 95.1602 285.944 97.4162 279.473C99.6722 273.002 91.4162 267.476 91.4162 267.476C91.4162 267.476 99.2282 263.933 95.4122 259.977C91.5962 256.021 83.7242 256.517 83.7242 261.749C83.7242 266.98 89.0642 268.975 89.0642 268.975C89.0642 268.975 95.1602 275.222 95.1602 278.422C95.1602 281.622 89.0642 288.672 89.0642 288.672C89.0642 288.672 91.8602 282.685 86.2682 282.437C80.6762 282.189 78.9002 289.428 81.1922 292.675C83.4842 295.923 87.2882 293.183 87.2882 293.183C87.5268 296.974 88.1091 300.736 89.0282 304.425C89.6042 306.302 89.3402 313.636 88.8602 321.264C87.799 318.51 86.1024 316.036 83.9042 314.037C73.7402 305.181 72.5642 295.97 76.9682 290.573C81.3722 285.177 77.8802 275.588 74.5682 275.635C71.2562 275.683 67.6682 272.494 68.6882 279.332C69.7082 286.169 76.9922 286.181 76.9922 286.181C76.9922 286.181 70.7162 290.762 71.2202 297.47C71.2202 297.47 67.6202 294.423 65.5082 297.93C61.6562 304.177 70.5962 308.05 72.0962 305.015C72.0962 305.015 91.0442 318.217 86.4962 337.217L87.5522 338.764C87.4202 340.299 87.3362 341.22 87.3362 341.22L88.8122 340.595L90.5042 343.039C90.445 345.801 90.5894 348.564 90.9362 351.305L95.4602 344.716C90.8882 325.716 109.86 312.514 109.86 312.514C111.24 315.608 120.168 311.723 116.316 305.476Z" fill="#E0E0E0"/>
<path opacity="0.2" d="M116.316 305.476C114.156 301.933 110.604 305.015 110.604 305.015C111.108 298.308 104.844 293.726 104.844 293.726C104.844 293.726 112.128 293.726 113.136 286.889C114.144 280.052 110.604 283.228 107.268 283.181C103.932 283.134 100.44 292.723 104.868 298.119C109.296 303.516 108.084 312.726 97.9202 321.583C95.4896 323.821 93.6664 326.622 92.6162 329.731C93.3842 321.595 93.8162 310.128 91.4162 302.476C87.2882 289.487 95.1602 285.944 97.4162 279.473C99.6722 273.002 91.4162 267.476 91.4162 267.476C91.4162 267.476 99.2282 263.933 95.4122 259.977C91.5962 256.021 83.7242 256.517 83.7242 261.749C83.7242 266.98 89.0642 268.975 89.0642 268.975C89.0642 268.975 95.1602 275.222 95.1602 278.422C95.1602 281.622 89.0642 288.672 89.0642 288.672C89.0642 288.672 91.8602 282.685 86.2682 282.437C80.6762 282.189 78.9002 289.428 81.1922 292.675C83.4842 295.923 87.2882 293.183 87.2882 293.183C87.5268 296.974 88.1091 300.736 89.0282 304.425C89.6042 306.302 89.3402 313.636 88.8602 321.264C87.799 318.51 86.1024 316.036 83.9042 314.037C73.7402 305.181 72.5642 295.97 76.9682 290.573C81.3722 285.177 77.8802 275.588 74.5682 275.635C71.2562 275.683 67.6682 272.494 68.6882 279.332C69.7082 286.169 76.9922 286.181 76.9922 286.181C76.9922 286.181 70.7162 290.762 71.2202 297.47C71.2202 297.47 67.6202 294.423 65.5082 297.93C61.6562 304.177 70.5962 308.05 72.0962 305.015C72.0962 305.015 91.0442 318.217 86.4962 337.217L87.5522 338.764C87.4202 340.299 87.3362 341.22 87.3362 341.22L88.8122 340.595L90.5042 343.039C90.445 345.801 90.5894 348.564 90.9362 351.305L95.4602 344.716C90.8882 325.716 109.86 312.514 109.86 312.514C111.24 315.608 120.168 311.723 116.316 305.476Z" fill="#E0E0E0"/>
<path d="M112.608 386.53H69.2044L64.5244 339.756H117.3L112.608 386.53Z" fill="#E6E6E6"/>
<path d="M119.604 334.596H62.1963V344.916H119.604V334.596Z" fill="#F0F0F0"/>
<path d="M300 440C428.499 440 532.668 434.016 532.668 426.633C532.668 419.25 428.499 413.266 300 413.266C171.501 413.266 67.332 419.25 67.332 426.633C67.332 434.016 171.501 440 300 440Z" fill="#F5F5F5"/>
<path d="M492.54 389.411C492.72 388.231 496.92 359.689 488.508 349.841C487.671 348.803 486.611 347.961 485.403 347.375C484.195 346.789 482.871 346.473 481.524 346.452C464.532 346.062 462.216 359.441 462.192 359.618L464.196 359.925C464.268 359.441 466.284 348.117 481.476 348.447C482.535 348.462 483.576 348.709 484.525 349.171C485.474 349.633 486.306 350.297 486.96 351.116C494.784 360.291 490.56 388.821 490.56 389.116L492.54 389.411Z" fill="#407BFF"/>
<path d="M493.56 388.113L495.588 388.043C495.588 387.783 494.916 361.769 507.936 356.396C520.704 351.141 526.452 361.957 526.68 362.418L528.492 361.521C528.432 361.391 521.688 348.531 507.156 354.565C492.852 360.458 493.524 386.98 493.56 388.113Z" fill="#407BFF"/>
<path d="M493.5 390.155C493.5 389.742 493.632 348.6 501.78 336.567C509.604 325.007 522.18 330.451 522.768 330.663L523.596 328.845C523.452 328.786 508.884 322.456 500.088 335.434C491.604 347.963 491.484 388.407 491.484 390.131L493.5 390.155Z" fill="#407BFF"/>
<path d="M479.088 347.444C479.088 347.444 486.504 350.137 484.296 356.478C482.088 362.819 458.652 373.281 458.652 373.281C458.652 373.281 448.824 364.425 457.848 350.019C466.872 335.612 478.884 342.898 479.088 347.444Z" fill="#407BFF"/>
<path d="M502.141 334.395C502.141 334.395 496.885 333.84 497.341 330.687C497.797 327.535 517.813 319.41 529.633 332.541C529.633 332.541 522.061 345.342 511.117 345.531C500.173 345.72 502.141 334.395 502.141 334.395Z" fill="#407BFF"/>
<path d="M507.6 355.497C507.6 355.497 504 352.616 507.888 351.21C511.776 349.805 531.048 350.195 531.24 368.923C531.24 368.923 508.836 372.596 506.04 365.451C503.244 358.307 507.6 355.497 507.6 355.497Z" fill="#407BFF"/>
<path opacity="0.2" d="M479.088 347.444C479.088 347.444 486.504 350.137 484.296 356.478C482.088 362.819 458.652 373.281 458.652 373.281C458.652 373.281 448.824 364.425 457.848 350.019C466.872 335.612 478.884 342.898 479.088 347.444Z" fill="black"/>
<path opacity="0.2" d="M502.141 334.395C502.141 334.395 496.885 333.84 497.341 330.687C497.797 327.535 517.813 319.41 529.633 332.541C529.633 332.541 522.061 345.342 511.117 345.531C500.173 345.72 502.141 334.395 502.141 334.395Z" fill="black"/>
<path opacity="0.2" d="M507.6 355.497C507.6 355.497 504 352.616 507.888 351.21C511.776 349.805 531.048 350.195 531.24 368.923C531.24 368.923 508.836 372.596 506.04 365.451C503.244 358.307 507.6 355.497 507.6 355.497Z" fill="black"/>
<path d="M475.104 427.613H509.88L513.624 390.145H471.36L475.104 427.613Z" fill="#407BFF"/>
<path opacity="0.5" d="M475.104 427.613H509.88L513.624 390.145H471.36L475.104 427.613Z" fill="white"/>
<path d="M469.5 394.277H515.484V386.011H469.5V394.277Z" fill="#407BFF"/>
<path opacity="0.2" d="M469.5 394.277H515.484V386.011H469.5V394.277Z" fill="white"/>
<path d="M435.744 400.76L401.172 397.419V349.594H387.468V397.395L352.8 400.76C351.137 400.922 349.595 401.685 348.473 402.903C347.35 404.121 346.728 405.706 346.728 407.35V412.463H441.864V407.35C441.864 405.698 441.236 404.105 440.104 402.885C438.971 401.666 437.416 400.908 435.744 400.76V400.76Z" fill="#263238"/>
<path opacity="0.2" d="M435.744 400.76L401.172 397.419V349.594H387.468V397.395L352.8 400.76C351.137 400.922 349.595 401.685 348.473 402.903C347.35 404.121 346.728 405.706 346.728 407.35V412.463H441.864V407.35C441.864 405.698 441.236 404.105 440.104 402.885C438.971 401.666 437.416 400.908 435.744 400.76V400.76Z" fill="white"/>
<path d="M350.34 427.613C355.291 427.613 359.304 423.663 359.304 418.792C359.304 413.92 355.291 409.971 350.34 409.971C345.389 409.971 341.376 413.92 341.376 418.792C341.376 423.663 345.389 427.613 350.34 427.613Z" fill="#263238"/>
<path d="M438.168 427.613C443.119 427.613 447.132 423.663 447.132 418.792C447.132 413.92 443.119 409.971 438.168 409.971C433.217 409.971 429.204 413.92 429.204 418.792C429.204 423.663 433.217 427.613 438.168 427.613Z" fill="#263238"/>
<path d="M385.116 317.285H403.536V354.99C403.536 356.283 403.014 357.524 402.085 358.439C401.155 359.353 399.895 359.867 398.58 359.867H390.072C388.758 359.867 387.497 359.353 386.568 358.439C385.638 357.524 385.116 356.283 385.116 354.99V317.285V317.285Z" fill="#263238"/>
<path opacity="0.3" d="M385.116 317.285H403.536V354.99C403.536 356.283 403.014 357.524 402.085 358.439C401.155 359.353 399.895 359.867 398.58 359.867H390.072C388.758 359.867 387.497 359.353 386.568 358.439C385.638 357.524 385.116 356.283 385.116 354.99V317.285V317.285Z" fill="white"/>
<path d="M427.08 242.549C427.08 242.549 429.696 306.315 411.648 317.285H432.252C432.252 317.285 448.212 295.569 443.7 242.549H427.08Z" fill="#263238"/>
<path opacity="0.3" d="M427.08 242.549C427.08 242.549 429.696 306.315 411.648 317.285H432.252C432.252 317.285 448.212 295.569 443.7 242.549H427.08Z" fill="white"/>
<path d="M439.26 322.174H346.956V314.274C346.956 312.708 347.588 311.206 348.713 310.099C349.838 308.992 351.364 308.37 352.956 308.37H433.26C434.851 308.37 436.377 308.992 437.502 310.099C438.628 311.206 439.26 312.708 439.26 314.274V322.174Z" fill="#263238"/>
<path d="M345.516 322.174H440.688C442.02 322.174 443.1 321.111 443.1 319.8V317.651C443.1 316.34 442.02 315.278 440.688 315.278H345.516C344.184 315.278 343.104 316.34 343.104 317.651V319.8C343.104 321.111 344.184 322.174 345.516 322.174Z" fill="#263238"/>
<path opacity="0.6" d="M345.516 322.174H440.688C442.02 322.174 443.1 321.111 443.1 319.8V317.651C443.1 316.34 442.02 315.278 440.688 315.278H345.516C344.184 315.278 343.104 316.34 343.104 317.651V319.8C343.104 321.111 344.184 322.174 345.516 322.174Z" fill="white"/>
<path d="M448.752 208.363H415.752C406.089 208.363 398.256 216.072 398.256 225.58V238.286C398.256 247.795 406.089 255.503 415.752 255.503H448.752C458.415 255.503 466.248 247.795 466.248 238.286V225.58C466.248 216.072 458.415 208.363 448.752 208.363Z" fill="#263238"/>
<path d="M315.66 156.262L309.072 139.175C309.072 139.175 311.904 136.601 309.96 133.991C308.016 131.382 295.872 124.049 293.664 125.336C291.456 126.623 286.524 131.488 289.188 134.192C291.852 136.896 303.588 141.395 303.588 141.395L309.42 163.832L315.66 156.262Z" fill="#E4897B"/>
<path d="M361.655 188.749C361.655 188.749 331.655 182.691 328.451 181.238C325.247 179.786 313.199 145.033 313.199 145.033L303.947 149.284C303.947 149.284 311.387 184.167 318.995 192.457C326.603 200.746 359.075 207.808 359.075 207.808L361.655 188.749Z" fill="#407BFF"/>
<path opacity="0.2" d="M359.004 207.772L358.452 207.642C356.82 207.276 351.696 206.095 345.612 204.336C335.736 201.514 323.28 197.251 318.936 192.468C311.34 184.202 303.888 149.284 303.888 149.284L313.128 145.033C313.128 145.033 325.188 179.798 328.452 181.238C331.716 182.679 361.656 188.749 361.656 188.749L359.004 207.772Z" fill="black"/>
<path d="M313.284 144.348L315.192 147.973L303.312 152L303.768 147.571L313.284 144.348Z" fill="#407BFF"/>
<path opacity="0.2" d="M359.232 207.287C357.576 207.05 352.38 206.259 346.164 204.925C349.704 198.902 360.072 195.809 360.072 195.809L359.232 207.287Z" fill="black"/>
<path d="M403.896 164.682C403.896 164.682 405.66 181.013 399.516 185.028C393.372 189.043 363.12 184.343 359.688 177.766C356.256 171.188 369.168 153.357 369.168 153.357L403.896 164.682Z" fill="#263238"/>
<path d="M281.508 379.574L289.404 381.452L293.4 370.73L297.024 360.976L288.036 357.209L284.58 369.041L281.508 379.574Z" fill="#E4897B"/>
<path opacity="0.2" d="M284.58 369.041L293.4 370.73L297.024 360.976L288.036 357.209L284.58 369.041Z" fill="black"/>
<path d="M285.372 363.385L296.316 367.388C296.316 367.388 325.512 295.557 331.512 295.356C337.512 295.155 398.604 322.74 413.916 307.412C429.228 292.085 407.088 255.124 407.088 255.124C407.088 255.124 370.26 249.952 367.488 258.135C366.806 260.547 366.285 263.001 365.928 265.48C365.508 267.984 365.22 270.085 365.22 270.085C364.08 269.802 327.108 260.414 312.54 270.085C297.72 279.922 285.372 363.385 285.372 363.385Z" fill="#407BFF"/>
<path opacity="0.6" d="M285.372 363.385L296.316 367.388C296.316 367.388 325.512 295.557 331.512 295.356C337.512 295.155 398.604 322.74 413.916 307.412C429.228 292.085 407.088 255.124 407.088 255.124C407.088 255.124 370.26 249.952 367.488 258.135C366.806 260.547 366.285 263.001 365.928 265.48C365.508 267.984 365.22 270.085 365.22 270.085C364.08 269.802 327.108 260.414 312.54 270.085C297.72 279.922 285.372 363.385 285.372 363.385Z" fill="white"/>
<path d="M348.324 410.218L356.184 408.234L354.672 397.134L353.268 386.955L343.548 387.817L346.068 399.673L348.324 410.218Z" fill="#E4897B"/>
<path opacity="0.2" d="M346.128 399.92L354.72 397.346L353.292 387.061L343.56 387.864L346.128 399.92Z" fill="black"/>
<path d="M300.84 363.398L284.892 358.072L284.208 364.496L296.304 368.7L300.84 363.398Z" fill="#407BFF"/>
<path d="M387.468 311.049C387.468 311.049 384.972 311.108 346.344 309.337C346.344 309.337 352.116 356.855 355.272 392.434L343.716 394.371C343.716 394.371 316.116 318.194 316.416 306.09C316.716 293.986 330.816 290.443 330.816 290.443C330.816 290.443 358.332 306.09 387.468 311.049Z" fill="#407BFF"/>
<path opacity="0.6" d="M387.468 311.049C387.468 311.049 384.972 311.108 346.344 309.337C346.344 309.337 352.116 356.855 355.272 392.434L343.716 394.371C343.716 394.371 316.116 318.194 316.416 306.09C316.716 293.986 330.816 290.443 330.816 290.443C330.816 290.443 358.332 306.09 387.468 311.049Z" fill="white"/>
<path opacity="0.1" d="M387.468 311.049C387.468 311.049 384.972 311.108 346.344 309.337C346.344 309.337 352.116 356.855 355.272 392.434L343.716 394.371C343.716 394.371 316.116 318.194 316.416 306.09C316.716 293.986 330.816 290.443 330.816 290.443C330.816 290.443 358.332 306.09 387.468 311.049Z" fill="black"/>
<path d="M356.952 388.986L341.076 390.758L344.148 396.886L357 395.269L356.952 388.986Z" fill="#407BFF"/>
<path opacity="0.1" d="M365.22 270.086L386.76 274.502C386.76 274.502 374.856 268.031 365.928 265.48C365.508 267.984 365.22 270.086 365.22 270.086Z" fill="black"/>
<path d="M406.199 249.48L407.087 255.125L367.487 258.124L366.443 251.464L406.199 249.48Z" fill="#263238"/>
<path opacity="0.2" d="M406.199 249.48L407.087 255.125L367.487 258.124L366.443 251.464L406.199 249.48Z" fill="black"/>
<path d="M393.71 258.917L395.668 258.719L394.643 248.91L392.686 249.108L393.71 258.917Z" fill="#407BFF"/>
<path d="M376.117 257.949L384.787 257.4L384.364 250.931L375.694 251.48L376.117 257.949Z" fill="white"/>
<path d="M369.413 259.948L371.371 259.75L370.346 249.942L368.389 250.14L369.413 259.948Z" fill="#407BFF"/>
<path opacity="0.6" d="M393.71 258.917L395.668 258.719L394.643 248.91L392.686 249.108L393.71 258.917Z" fill="white"/>
<path opacity="0.6" d="M369.413 259.948L371.371 259.75L370.346 249.942L368.389 250.14L369.413 259.948Z" fill="white"/>
<path d="M360.936 188.217C368.353 190.233 376.051 191.066 383.736 190.685C396.456 190.047 411.6 196.081 411.6 196.081L406.152 249.456L366.384 251.428C366.384 251.428 353.076 206.898 360.936 188.217Z" fill="#407BFF"/>
<path d="M367.332 158.069C367.332 158.069 369.564 132.161 391.572 141.537C419.172 153.346 397.236 184.922 383.736 178.451C370.236 171.98 367.332 158.069 367.332 158.069Z" fill="#263238"/>
<path opacity="0.2" d="M373.5 192.137L374.136 206.779L379.068 199.895C379.068 199.895 377.304 216.084 378.336 224.905C378.336 224.905 379.284 209.094 381.516 199.895L386.76 206.779L394.284 192.231C394.284 192.231 382.104 187.921 373.5 192.137Z" fill="black"/>
<path d="M380.315 194.901L391.703 191.736C384.683 187.013 388.223 176.385 388.223 176.385L376.943 180.282C377.462 181.825 377.863 183.403 378.143 185.005C379.343 191.925 376.151 192.48 376.151 192.48L380.315 194.901Z" fill="#E4897B"/>
<path opacity="0.2" d="M376.943 180.221C377.462 181.764 377.863 183.343 378.143 184.945C383.543 182.807 388.211 176.301 388.211 176.301L376.943 180.221Z" fill="black"/>
<path d="M384.312 147.016C374.316 144.843 369.912 149.377 366.912 159.368C363.156 171.826 363.984 181.438 377.076 181.461C394.86 181.485 400.896 150.629 384.312 147.016Z" fill="#E4897B"/>
<path d="M373.488 160.23C372.363 161.524 371.081 162.678 369.672 163.667C369.873 164.14 370.204 164.548 370.628 164.846C371.052 165.144 371.552 165.321 372.072 165.355L373.488 160.23Z" fill="#DE5753"/>
<path d="M379.788 160.749C379.584 161.552 379.86 162.32 380.412 162.449C380.964 162.579 381.552 162.036 381.756 161.269C381.96 160.501 381.684 159.71 381.132 159.568C380.58 159.426 379.992 159.946 379.788 160.749Z" fill="#263238"/>
<path d="M381.348 159.628L379.752 158.518C379.752 158.518 380.268 160.206 381.348 159.628Z" fill="#263238"/>
<path d="M369.683 158.128C369.479 158.931 369.755 159.699 370.307 159.828C370.859 159.958 371.507 159.415 371.651 158.648C371.795 157.88 371.579 157.089 371.027 156.947C370.475 156.805 369.887 157.325 369.683 158.128Z" fill="#263238"/>
<path d="M371.244 157.006L369.6 155.932C369.6 155.932 370.164 157.573 371.244 157.006Z" fill="#263238"/>
<path d="M381.407 153.996C382.213 154.065 382.993 154.314 383.688 154.723C384.382 155.132 384.973 155.691 385.415 156.358" stroke="#263238" stroke-width="0.72" stroke-linecap="round" stroke-linejoin="round"/>
<path d="M374.244 151.999C373.595 151.691 372.883 151.531 372.162 151.531C371.441 151.531 370.73 151.691 370.08 151.999" stroke="#263238" stroke-width="0.72" stroke-linecap="round" stroke-linejoin="round"/>
<path d="M391.5 165.957C391.5 165.957 388.644 156.865 390.756 150.783C390.756 150.783 372.756 138.514 367.332 158.069C367.332 158.069 369.336 140.097 386.604 143.45C403.872 146.804 398.22 171.496 387.696 176.928C387.696 176.928 393.252 171.637 391.5 165.957Z" fill="#263238"/>
<path d="M389.399 167.74C389.751 166.623 390.538 165.688 391.589 165.141C392.639 164.595 393.867 164.48 395.003 164.823C398.027 165.827 398.087 172.404 390.059 172.227C388.895 172.145 388.511 170.952 389.399 167.74Z" fill="#E4897B"/>
<path d="M370.26 169.087C370.527 170.293 370.703 171.517 370.788 172.748H371.436C374.424 172.996 375.888 172.134 376.608 171.118C376.952 170.614 377.166 170.034 377.232 169.43C377.282 169.089 377.282 168.743 377.232 168.402C375.306 169.055 373.259 169.293 371.232 169.099C370.656 169.134 370.26 169.087 370.26 169.087Z" fill="#263238"/>
<path d="M371.279 169.158L371.459 170.232C374.267 170.457 376.259 170.232 377.231 169.488C377.282 169.148 377.282 168.802 377.231 168.461C375.32 169.107 373.291 169.345 371.279 169.158V169.158Z" fill="white"/>
<path d="M371.436 172.806C374.424 173.054 375.888 172.192 376.608 171.176C375.474 171.104 374.337 171.228 373.248 171.543C372.523 171.765 371.889 172.208 371.436 172.806Z" fill="#DE5753"/>
<path d="M384.348 147.807C384.348 147.807 384.732 164.846 395.148 166.901C405.564 168.956 394.188 144.984 394.188 144.984C394.188 144.984 378.708 135.042 368.388 142.056C358.068 149.07 367.356 158.068 367.356 158.068C367.356 158.068 369.504 145.409 384.348 147.807Z" fill="#263238"/>
<path d="M384.707 146.674C384.707 146.674 380.999 157.455 388.307 163.111" stroke="#263238" stroke-width="0.5" stroke-linecap="round" stroke-linejoin="round"/>
<path d="M398.16 170.397C396.84 173.869 393.444 175.817 390.576 174.766C387.708 173.715 386.46 170.043 387.78 166.571C389.1 163.1 392.496 161.151 395.364 162.214C398.232 163.277 399.48 166.937 398.16 170.397Z" fill="#407BFF"/>
<path opacity="0.4" d="M398.16 170.397C396.84 173.869 393.444 175.817 390.576 174.766C387.708 173.715 386.46 170.043 387.78 166.571C389.1 163.1 392.496 161.151 395.364 162.214C398.232 163.277 399.48 166.937 398.16 170.397Z" fill="black"/>
<path d="M394.799 164.717C394.799 164.717 399.107 145.741 389.447 140.77C390.547 140.911 391.638 141.12 392.711 141.395C393.911 141.75 401.675 149.449 397.775 166.5L394.799 164.717Z" fill="#407BFF"/>
<path opacity="0.2" d="M394.799 164.717C394.799 164.717 399.107 145.741 389.447 140.77C390.547 140.911 391.638 141.12 392.711 141.395C393.911 141.75 401.675 149.449 397.775 166.5L394.799 164.717Z" fill="black"/>
<path d="M376.8 175.581L376.08 175.475L376.272 174.294C381.572 175.096 386.987 173.966 391.5 171.117L392.208 172.062C387.67 175.021 382.199 176.271 376.8 175.581V175.581Z" fill="#407BFF"/>
<g opacity="0.2">
<path opacity="0.2" d="M376.8 175.581L376.08 175.475L376.272 174.294C381.572 175.096 386.987 173.966 391.5 171.117L392.208 172.062C387.67 175.021 382.199 176.271 376.8 175.581V175.581Z" fill="black"/>
</g>
<path d="M397.751 169.924C396.887 172.215 394.631 173.467 392.747 172.806C390.863 172.144 390.023 169.688 390.899 167.397C391.775 165.107 394.019 163.855 395.903 164.516C397.787 165.177 398.627 167.634 397.751 169.924Z" fill="#407BFF"/>
<path d="M375.672 176.007L374.7 175.877C374.53 175.855 374.366 175.801 374.218 175.716C374.07 175.632 373.94 175.52 373.837 175.386C373.733 175.252 373.657 175.099 373.614 174.936C373.57 174.773 373.56 174.603 373.584 174.436C373.604 174.268 373.659 174.106 373.744 173.959C373.829 173.812 373.943 173.683 374.079 173.58C374.216 173.476 374.371 173.401 374.538 173.357C374.704 173.314 374.877 173.303 375.048 173.326L376.008 173.456C376.35 173.503 376.66 173.681 376.871 173.95C377.082 174.219 377.177 174.559 377.136 174.897V174.897C377.088 175.234 376.908 175.539 376.634 175.746C376.36 175.954 376.015 176.047 375.672 176.007V176.007Z" fill="#407BFF"/>
<path opacity="0.4" d="M375.672 176.007L374.7 175.877C374.53 175.855 374.366 175.801 374.218 175.716C374.07 175.632 373.94 175.52 373.837 175.386C373.733 175.252 373.657 175.099 373.614 174.936C373.57 174.773 373.56 174.603 373.584 174.436C373.604 174.268 373.659 174.106 373.744 173.959C373.829 173.812 373.943 173.683 374.079 173.58C374.216 173.476 374.371 173.401 374.538 173.357C374.704 173.314 374.877 173.303 375.048 173.326L376.008 173.456C376.35 173.503 376.66 173.681 376.871 173.95C377.082 174.219 377.177 174.559 377.136 174.897V174.897C377.088 175.234 376.908 175.539 376.634 175.746C376.36 175.954 376.015 176.047 375.672 176.007V176.007Z" fill="black"/>
<path d="M388.644 187.639L381.516 194.523L384.372 202.966L394.284 192.22L388.644 187.639Z" fill="#407BFF"/>
<path d="M378.336 189.078L379.488 194.38L375.804 201.879L373.5 192.137L378.336 189.078Z" fill="#407BFF"/>
<path d="M387.12 193.613L391.26 178.699C391.26 178.699 389.256 174.991 389.688 174.212C390.12 173.433 392.28 163.419 393.816 162.332C395.352 161.246 401.676 163.1 402.312 164.116C402.948 165.131 396.252 178.699 396.252 178.699L393.852 194.865L387.12 193.613Z" fill="#E4897B"/>
<path d="M411.6 196.081C423 207.559 400.164 233.561 387.072 232.451C373.98 231.341 387.408 184.201 387.408 184.201L395.808 185.559C395.808 185.559 392.868 205.964 393.792 207.559C394.716 209.153 407.82 192.266 411.6 196.081Z" fill="#407BFF"/>
<path opacity="0.2" d="M411.6 196.081C423 207.559 400.164 233.561 387.072 232.451C373.98 231.341 387.408 184.201 387.408 184.201L395.808 185.559C395.808 185.559 392.868 205.964 393.792 207.559C394.716 209.153 407.82 192.266 411.6 196.081Z" fill="black"/>
<path d="M386.759 182.725L385.523 186.621L397.199 187.637V184.236L386.759 182.725Z" fill="#407BFF"/>
<path opacity="0.6" d="M369.06 213.559H364.332C363.808 213.559 363.384 213.976 363.384 214.491V223.277C363.384 223.792 363.808 224.21 364.332 224.21H369.06C369.583 224.21 370.008 223.792 370.008 223.277V214.491C370.008 213.976 369.583 213.559 369.06 213.559Z" fill="white"/>
<path opacity="0.2" d="M369.155 214.254H363.779V221.493H369.155V214.254Z" fill="black"/>
<path d="M367.188 210.984H366V215.247H367.188V210.984Z" fill="#263238"/>
<path d="M268.452 394.666C269.649 394.118 270.938 393.794 272.256 393.709V393.709C272.256 393.709 276.816 391.076 281.328 380.814H286.404C287.264 380.82 288.102 381.088 288.802 381.58C289.503 382.073 290.031 382.766 290.316 383.566C290.4 383.785 290.449 384.016 290.46 384.251C290.4 385.458 290.267 386.661 290.064 387.852C289.321 391.844 288.331 395.788 287.1 399.661L286.236 399.448L287.796 391.985C288.324 389.458 285.612 391.903 284.364 394.453C283.116 397.004 281.184 399.59 275.568 398.327C269.028 396.744 266.4 395.823 268.452 394.666Z" fill="#407BFF"/>
<path d="M282.252 378.134C282.252 378.134 275.904 391.195 272.256 393.71C272.256 393.71 277.152 396.579 282.252 390.167C288.84 381.901 290.46 384.204 290.46 384.204C290.322 382.778 290.053 381.367 289.656 379.988C288.672 377.343 282.252 378.134 282.252 378.134Z" fill="#E4897B"/>
<path d="M338.315 425.782C339.352 424.978 340.526 424.362 341.783 423.964V423.964C341.783 423.964 345.575 420.339 347.483 409.321L352.415 408.14C353.252 407.951 354.128 408.019 354.925 408.336C355.721 408.652 356.399 409.203 356.867 409.912C357.002 410.108 357.107 410.323 357.179 410.549C357.419 411.719 357.584 412.902 357.671 414.092C357.902 418.128 357.882 422.174 357.611 426.207H356.723L356.447 418.603C356.339 416.017 354.311 419.028 353.699 421.803C353.087 424.578 351.851 427.518 346.091 427.601C339.383 427.672 336.599 427.388 338.315 425.782Z" fill="#407BFF"/>
<path d="M347.735 406.499C347.735 406.499 344.723 420.669 341.735 423.964C341.735 423.964 347.183 425.617 350.591 418.213C355.007 408.648 357.131 410.514 357.131 410.514C356.657 409.16 356.059 407.852 355.343 406.605C353.783 404.244 347.735 406.499 347.735 406.499Z" fill="#E4897B"/>
<path d="M459.312 120.672H417.42C414.06 120.672 411.336 123.352 411.336 126.659V144.289C411.336 147.596 414.06 150.276 417.42 150.276H459.312C462.672 150.276 465.396 147.596 465.396 144.289V126.659C465.396 123.352 462.672 120.672 459.312 120.672Z" fill="#407BFF"/>
<path d="M425.82 146.91L413.196 163.796L433.56 148.044L425.82 146.91Z" fill="#407BFF"/>
<path d="M426.288 135.48C426.291 135.827 426.188 136.166 425.994 136.455C425.8 136.745 425.522 136.97 425.197 137.104C424.872 137.238 424.514 137.274 424.169 137.206C423.823 137.139 423.506 136.973 423.256 136.728C423.007 136.482 422.838 136.17 422.77 135.83C422.702 135.49 422.738 135.137 422.874 134.818C423.01 134.498 423.239 134.225 423.533 134.034C423.827 133.843 424.172 133.742 424.524 133.744C424.992 133.744 425.441 133.927 425.772 134.253C426.102 134.578 426.288 135.02 426.288 135.48V135.48Z" fill="white"/>
<path d="M435.516 135.48C435.518 135.827 435.416 136.166 435.222 136.455C435.027 136.745 434.75 136.97 434.425 137.104C434.1 137.238 433.742 137.274 433.396 137.206C433.051 137.139 432.733 136.973 432.484 136.728C432.235 136.482 432.066 136.17 431.997 135.83C431.929 135.49 431.965 135.137 432.101 134.818C432.237 134.498 432.467 134.225 432.761 134.034C433.055 133.843 433.4 133.742 433.752 133.744C434.22 133.744 434.668 133.927 434.999 134.253C435.33 134.578 435.516 135.02 435.516 135.48V135.48Z" fill="white"/>
<path d="M444.744 135.48C444.747 135.827 444.644 136.166 444.45 136.455C444.256 136.745 443.979 136.97 443.654 137.104C443.329 137.238 442.97 137.274 442.625 137.206C442.279 137.139 441.962 136.973 441.713 136.728C441.463 136.482 441.294 136.17 441.226 135.83C441.158 135.49 441.194 135.137 441.33 134.818C441.466 134.498 441.695 134.225 441.989 134.034C442.283 133.843 442.628 133.742 442.98 133.744C443.448 133.744 443.897 133.927 444.228 134.253C444.558 134.578 444.744 135.02 444.744 135.48V135.48Z" fill="white"/>
<path d="M453.972 135.48C453.974 135.827 453.872 136.166 453.678 136.455C453.483 136.745 453.206 136.97 452.881 137.104C452.556 137.238 452.198 137.274 451.852 137.206C451.507 137.139 451.189 136.973 450.94 136.728C450.691 136.482 450.522 136.17 450.453 135.83C450.385 135.49 450.421 135.137 450.557 134.818C450.693 134.498 450.923 134.225 451.217 134.034C451.511 133.843 451.856 133.742 452.208 133.744C452.676 133.744 453.124 133.927 453.455 134.253C453.786 134.578 453.972 135.02 453.972 135.48V135.48Z" fill="white"/>
<path d="M302.009 106.723L272.121 90.8802C271.316 90.4534 270.311 90.7498 269.878 91.5421L260.34 108.966C259.906 109.759 260.207 110.747 261.012 111.174L290.9 127.016C291.705 127.443 292.71 127.147 293.143 126.355L302.681 108.931C303.115 108.138 302.814 107.15 302.009 106.723Z" fill="#407BFF"/>
<path opacity="0.7" d="M302.009 106.723L272.121 90.8802C271.316 90.4534 270.311 90.7498 269.878 91.5421L260.34 108.966C259.906 109.759 260.207 110.747 261.012 111.174L290.9 127.016C291.705 127.443 292.71 127.147 293.143 126.355L302.681 108.931C303.115 108.138 302.814 107.15 302.009 106.723Z" fill="white"/>
<path opacity="0.2" d="M269.101 92.9805L278.401 110.162C278.758 110.816 279.304 111.352 279.97 111.701C280.637 112.05 281.393 112.197 282.145 112.122L301.597 110.233L281.797 113.102C280.931 113.228 280.048 113.075 279.278 112.667C278.508 112.258 277.893 111.616 277.525 110.835L269.101 92.9805Z" fill="black"/>
<path d="M246.408 89.8036C246.732 83.238 251.676 70.0006 257.688 65.9503C263.7 61.8999 259.74 67.509 259.74 67.509C259.74 67.509 265.44 62.0534 268.44 62.2187C271.44 62.3841 268.44 65.7613 268.44 65.7613C268.44 65.7613 274.62 62.018 277.464 62.2187C280.308 62.4195 277.464 65.655 277.464 65.655C277.464 65.655 282.528 62.1125 284.58 63.7775C286.632 65.4425 258.312 83.8521 255.156 91.3387C252 98.8254 246.084 96.4282 246.408 89.8036Z" fill="#407BFF"/>
<path opacity="0.4" d="M246.408 89.8036C246.732 83.238 251.676 70.0006 257.688 65.9503C263.7 61.8999 259.74 67.509 259.74 67.509C259.74 67.509 265.44 62.0534 268.44 62.2187C271.44 62.3841 268.44 65.7613 268.44 65.7613C268.44 65.7613 274.62 62.018 277.464 62.2187C280.308 62.4195 277.464 65.655 277.464 65.655C277.464 65.655 282.528 62.1125 284.58 63.7775C286.632 65.4425 258.312 83.8521 255.156 91.3387C252 98.8254 246.084 96.4282 246.408 89.8036Z" fill="white"/>
<path d="M270.744 88.8125L274.524 91.1742C274.584 91.2106 274.63 91.2658 274.653 91.3307C274.677 91.3957 274.678 91.4667 274.656 91.5323C274.634 91.5979 274.59 91.6541 274.531 91.692C274.472 91.7299 274.402 91.7472 274.332 91.741L270.36 91.434L270.696 94.4334C270.706 94.5041 270.692 94.576 270.657 94.6384C270.622 94.7008 270.567 94.7503 270.501 94.7796C270.435 94.8088 270.361 94.8162 270.29 94.8006C270.219 94.785 270.156 94.7473 270.108 94.6932L267.816 92.1661L270.744 88.8125Z" fill="#407BFF"/>
<path opacity="0.3" d="M270.744 88.8125L274.524 91.1742C274.584 91.2106 274.63 91.2658 274.653 91.3307C274.677 91.3957 274.678 91.4667 274.656 91.5323C274.634 91.5979 274.59 91.6541 274.531 91.692C274.472 91.7299 274.402 91.7472 274.332 91.741L270.36 91.434L270.696 94.4334C270.706 94.5041 270.692 94.576 270.657 94.6384C270.622 94.7008 270.567 94.7503 270.501 94.7796C270.435 94.8088 270.361 94.8162 270.29 94.8006C270.219 94.785 270.156 94.7473 270.108 94.6932L267.816 92.1661L270.744 88.8125Z" fill="white"/>
<path d="M217.645 74.0268C217.645 74.0268 222.877 70.4843 230.785 72.7751C230.785 72.7751 233.053 83.0604 239.281 86.4849C242.701 88.3625 251.065 88.1971 257.689 86.0952C265.549 83.5918 269.389 83.5918 270.817 86.4849C272.245 89.378 270.661 92.3892 264.649 93.7944C258.637 95.1997 253.849 105.473 242.965 105.603C232.081 105.733 226.297 94.9753 229.045 85.5284C226.443 80.699 222.486 76.7069 217.645 74.0268Z" fill="#407BFF"/>
<path opacity="0.5" d="M217.645 74.0268C217.645 74.0268 222.877 70.4843 230.785 72.7751C230.785 72.7751 233.053 83.0604 239.281 86.4849C242.701 88.3625 251.065 88.1971 257.689 86.0952C265.549 83.5918 269.389 83.5918 270.817 86.4849C272.245 89.378 270.661 92.3892 264.649 93.7944C258.637 95.1997 253.849 105.473 242.965 105.603C232.081 105.733 226.297 94.9753 229.045 85.5284C226.443 80.699 222.486 76.7069 217.645 74.0268Z" fill="white"/>
<path d="M267.816 88.4337C267.816 88.5388 267.785 88.6416 267.725 88.729C267.666 88.8163 267.582 88.8845 267.483 88.9247C267.384 88.9649 267.276 88.9754 267.171 88.9549C267.066 88.9344 266.97 88.8838 266.894 88.8095C266.819 88.7352 266.768 88.6405 266.747 88.5374C266.726 88.4343 266.737 88.3275 266.777 88.2304C266.818 88.1333 266.888 88.0503 266.976 87.9919C267.065 87.9335 267.17 87.9023 267.276 87.9023C267.42 87.9023 267.557 87.9583 267.658 88.058C267.759 88.1576 267.816 88.2928 267.816 88.4337V88.4337Z" fill="#263238"/>
<path d="M240.432 97.0776C233.988 98.8017 219.66 98.2585 213.9 93.8893C208.14 89.5201 214.764 91.5276 214.764 91.5276C214.764 91.5276 207.744 87.8787 206.964 85.0211C206.184 82.1634 210.42 83.9111 210.42 83.9111C210.42 83.9111 204.9 79.2939 204.18 76.5779C203.46 73.8619 207.492 75.5151 207.492 75.5151C207.492 75.5151 202.464 71.8781 203.484 69.4337C204.504 66.9893 231.012 87.8197 239.208 88.4692C247.404 89.1186 246.96 95.33 240.432 97.0776Z" fill="#407BFF"/>
<path opacity="0.4" d="M240.432 97.0776C233.988 98.8017 219.66 98.2585 213.9 93.8893C208.14 89.5201 214.764 91.5276 214.764 91.5276C214.764 91.5276 207.744 87.8787 206.964 85.0211C206.184 82.1634 210.42 83.9111 210.42 83.9111C210.42 83.9111 204.9 79.2939 204.18 76.5779C203.46 73.8619 207.492 75.5151 207.492 75.5151C207.492 75.5151 202.464 71.8781 203.484 69.4337C204.504 66.9893 231.012 87.8197 239.208 88.4692C247.404 89.1186 246.96 95.33 240.432 97.0776Z" fill="white"/>
<path d="M198.192 67.9108C197.064 67.5093 195.924 67.1432 194.772 66.8008" stroke="#407BFF" stroke-width="0.75" stroke-linecap="round" stroke-linejoin="round"/>
<path d="M187.765 65.0064C183.565 64.1518 179.311 63.5758 175.033 63.2823C163.369 62.4911 145.033 61.3457 137.929 72.7882C131.413 83.2152 142.621 101.011 146.593 110.682C151.465 122.491 157.261 137.204 151.501 149.745C139.681 175.535 89.1008 162.144 71.9648 138.397" stroke="#407BFF" stroke-width="0.75" stroke-linecap="round" stroke-linejoin="round" stroke-dasharray="6.03 6.03"/>
<path d="M70.0324 135.432C69.4306 134.423 68.8857 133.382 68.4004 132.314" stroke="#407BFF" stroke-width="0.75" stroke-linecap="round" stroke-linejoin="round"/>
<path d="M215.773 229.193H170.221V238.38H215.773V229.193Z" fill="white"/>
<path opacity="0.1" d="M215.773 229.193H170.221V238.38H215.773V229.193Z" fill="black"/>
<path opacity="0.1" d="M189.409 229.193H170.221V238.38H189.409V229.193Z" fill="black"/>
<path opacity="0.1" d="M170.221 230.516H210.769L170.221 231.649V230.516Z" fill="black"/>
<path opacity="0.1" d="M215.772 232.109L180.624 232.971H215.772V232.109Z" fill="black"/>
<path opacity="0.1" d="M172.08 234.685L189.408 233.988L214.884 234.685L189.408 235.075L172.08 234.685Z" fill="black"/>
<path opacity="0.1" d="M170.221 236.633H200.245L170.221 237.331V236.633Z" fill="black"/>
<path opacity="0.1" d="M215.7 237.33L195.648 237.697H215.772L215.7 237.33Z" fill="black"/>
<path d="M209.436 219.994H163.884V229.181H209.436V219.994Z" fill="white"/>
<path opacity="0.1" d="M209.436 219.994H163.884V229.181H209.436V219.994Z" fill="black"/>
<path opacity="0.1" d="M183.072 219.994H163.884V229.181H183.072V219.994Z" fill="black"/>
<path opacity="0.1" d="M163.884 221.328H204.432L163.884 222.45V221.328Z" fill="black"/>
<path opacity="0.1" d="M209.436 222.924L174.288 223.774H209.436V222.924Z" fill="black"/>
<path opacity="0.1" d="M165.732 225.486L183.06 224.789L208.536 225.486L183.06 225.875L165.732 225.486Z" fill="black"/>
<path opacity="0.1" d="M163.884 227.434H193.908L163.884 228.131V227.434Z" fill="black"/>
<path opacity="0.1" d="M209.365 228.131L189.312 228.498H209.437L209.365 228.131Z" fill="black"/>
<path d="M214.632 210.807H169.08V219.994H214.632V210.807Z" fill="white"/>
<path opacity="0.1" d="M214.632 210.807H169.08V219.994H214.632V210.807Z" fill="black"/>
<path opacity="0.1" d="M188.268 210.807H169.08V219.994H188.268V210.807Z" fill="black"/>
<path opacity="0.1" d="M169.08 212.129H209.628L169.08 213.263V212.129Z" fill="black"/>
<path opacity="0.1" d="M214.632 213.725L179.484 214.587H214.632V213.725Z" fill="black"/>
<path opacity="0.1" d="M170.94 216.298L188.268 215.59L213.744 216.298L188.268 216.688L170.94 216.298Z" fill="black"/>
<path opacity="0.1" d="M169.08 218.246H199.104L169.08 218.944V218.246Z" fill="black"/>
<path opacity="0.1" d="M214.572 218.943L194.521 219.31H214.632L214.572 218.943Z" fill="black"/>
<path d="M244.98 238.192L246.156 233.787H294.828L317.232 235.995L318.084 238.192H244.98Z" fill="#263238"/>
<path opacity="0.4" d="M294.828 233.787V238.192H244.98L246.156 233.787H294.828Z" fill="black"/>
<path d="M285.048 212.708C285.113 213.242 285.061 213.784 284.896 214.297C284.731 214.809 284.456 215.281 284.09 215.681C283.724 216.08 283.275 216.398 282.774 216.612C282.273 216.827 281.73 216.933 281.184 216.924H206.64C205.474 216.899 204.358 216.458 203.499 215.682C202.64 214.906 202.097 213.849 201.972 212.708L197.544 165.746C197.496 165.287 197.528 164.824 197.64 164.376C197.847 163.551 198.332 162.82 199.017 162.303C199.702 161.786 200.545 161.513 201.408 161.53H276C277.166 161.555 278.282 161.997 279.141 162.772C280 163.548 280.543 164.605 280.668 165.746L285.048 212.708Z" fill="#263238"/>
<path opacity="0.4" d="M280.92 216.923H206.64C205.474 216.898 204.358 216.457 203.499 215.681C202.64 214.905 202.097 213.848 201.972 212.708L197.544 165.745C197.496 165.286 197.528 164.823 197.64 164.375H271.92C273.086 164.4 274.202 164.842 275.061 165.617C275.92 166.393 276.463 167.45 276.588 168.591L281.016 215.553C281.064 216.012 281.031 216.475 280.92 216.923V216.923Z" fill="black"/>
<path d="M229.704 188.111H245.124L241.02 231.567L265.404 235.169V238.192H214.044V235.169L224.568 231.567L229.704 188.111Z" fill="#263238"/>
<path opacity="0.1" d="M245.124 188.111L233.7 237.507L224.568 237.235L229.704 188.111H245.124Z" fill="white"/>
<path d="M245.052 427.613H237.708L224.496 246.646H234.252L245.052 427.613Z" fill="#263238"/>
<path opacity="0.4" d="M245.064 427.613H237.708L225.144 255.633L224.496 246.941H234.252L234.78 255.633L245.064 427.613Z" fill="white"/>
<path opacity="0.2" d="M234.78 255.207H225.144L224.496 246.941H234.252L234.78 255.207Z" fill="black"/>
<path d="M299.004 427.613H291.66L290.46 246.646H300.204L299.004 427.613Z" fill="#263238"/>
<path opacity="0.5" d="M300.216 246.941L300.024 276.132L299.016 427.613H291.66L290.652 276.132L290.46 246.941H300.216Z" fill="white"/>
<path opacity="0.2" d="M300.216 246.941L300.024 276.463H290.652L290.46 246.941H300.216Z" fill="black"/>
<path d="M377.052 427.613H369.708L356.496 246.646H366.252L377.052 427.613Z" fill="#263238"/>
<path opacity="0.5" d="M377.064 427.613H369.708L357.144 255.633L356.496 246.941H366.252L366.78 255.633L377.064 427.613Z" fill="white"/>
<path opacity="0.2" d="M366.78 255.207H357.144L356.496 246.941H366.252L366.78 255.207Z" fill="black"/>
<path d="M160.956 427.613H153.612L164.412 246.646H174.168L160.956 427.613Z" fill="#263238"/>
<path opacity="0.5" d="M174.168 246.941L173.52 255.633L160.956 427.613H153.612L163.884 255.633L164.412 246.941H174.168Z" fill="white"/>
<path opacity="0.2" d="M164.412 246.941H174.168L173.52 255.207H163.884L164.412 246.941Z" fill="black"/>
<path d="M156.685 242.076H373.981V248.583C373.981 248.918 373.914 249.249 373.783 249.559C373.653 249.868 373.462 250.149 373.221 250.386C372.981 250.623 372.695 250.811 372.38 250.939C372.066 251.067 371.729 251.133 371.389 251.133H159.277C158.589 251.133 157.93 250.865 157.444 250.386C156.958 249.908 156.685 249.259 156.685 248.583V242.076Z" fill="#407BFF"/>
<path opacity="0.6" d="M156.685 242.076H373.981V248.583C373.981 248.918 373.914 249.249 373.783 249.559C373.653 249.868 373.462 250.149 373.221 250.386C372.981 250.623 372.695 250.811 372.38 250.939C372.066 251.067 371.729 251.133 371.389 251.133H159.277C158.589 251.133 157.93 250.865 157.444 250.386C156.958 249.908 156.685 249.259 156.685 248.583V242.076Z" fill="white"/>
<path opacity="0.2" d="M373.981 242.111H156.685V246.646H373.981V242.111Z" fill="black"/>
<path d="M378.54 243.316H152.124C151.437 243.316 150.778 243.047 150.291 242.569C149.805 242.091 149.532 241.442 149.532 240.766C149.532 240.088 149.805 239.438 150.291 238.958C150.776 238.478 151.436 238.206 152.124 238.203H378.54C379.229 238.206 379.888 238.478 380.374 238.958C380.86 239.438 381.132 240.088 381.132 240.766C381.132 241.442 380.859 242.091 380.373 242.569C379.887 243.047 379.228 243.316 378.54 243.316V243.316Z" fill="#407BFF"/>
<path opacity="0.6" d="M378.54 243.316H152.124C151.437 243.316 150.778 243.047 150.291 242.569C149.805 242.091 149.532 241.442 149.532 240.766C149.532 240.088 149.805 239.438 150.291 238.958C150.776 238.478 151.436 238.206 152.124 238.203H378.54C379.229 238.206 379.888 238.478 380.374 238.958C380.86 239.438 381.132 240.088 381.132 240.766C381.132 241.442 380.859 242.091 380.373 242.569C379.887 243.047 379.228 243.316 378.54 243.316V243.316Z" fill="white"/>
<path d="M324.973 230.326L327.757 226.217C328.031 225.813 328.402 225.483 328.838 225.254C329.273 225.025 329.759 224.906 330.253 224.906H333.781C334.074 224.907 334.365 224.951 334.645 225.036L347.233 228.791C347.948 229.001 348.557 229.469 348.937 230.102L350.749 233.09L324.973 230.326Z" fill="#407BFF"/>
<path opacity="0.2" d="M350.748 233.09L332.4 231.129L324.948 230.326L327.732 226.217C328.007 225.813 328.378 225.483 328.813 225.254C329.249 225.025 329.735 224.906 330.228 224.906H333.756C334.053 224.908 334.348 224.952 334.632 225.036L334.908 225.119L347.208 228.791C347.928 229 348.541 229.468 348.924 230.102L350.748 233.09Z" fill="black"/>
<path opacity="0.2" d="M350.748 233.09L332.4 231.13L334.908 225.119L347.208 228.792C347.928 229 348.541 229.468 348.924 230.102L350.748 233.09Z" fill="black"/>
<path d="M359.461 237.803V238.192H320.557L321.997 232.654C322.264 231.637 322.867 230.736 323.713 230.094C324.558 229.453 325.597 229.107 326.665 229.111H343.921C344.494 229.109 345.063 229.209 345.601 229.407L347.761 230.198L356.329 233.339C357.253 233.676 358.05 234.286 358.611 235.084C359.171 235.883 359.468 236.832 359.461 237.803Z" fill="#407BFF"/>
<path opacity="0.2" d="M359.46 237.801V238.191H343.488L344.34 232.204C344.395 231.833 344.534 231.478 344.746 231.167C344.958 230.855 345.238 230.594 345.566 230.403C345.894 230.211 346.261 230.094 346.641 230.061C347.02 230.027 347.403 230.078 347.76 230.208L356.328 233.35C357.251 233.686 358.047 234.294 358.607 235.09C359.167 235.886 359.465 236.833 359.46 237.801Z" fill="black"/>
<path d="M345.973 234.129L351.061 219.12C351.11 218.967 351.193 218.827 351.304 218.709C351.415 218.591 351.55 218.498 351.701 218.437C351.852 218.376 352.015 218.349 352.178 218.357C352.341 218.365 352.5 218.407 352.645 218.482V218.482C352.866 218.607 353.041 218.798 353.145 219.027C353.248 219.257 353.275 219.512 353.221 219.758L348.937 235.77C348.937 235.77 346.093 236.904 345.973 234.129Z" fill="#263238"/>
<path opacity="0.2" d="M324.972 236.952H322.716L323.148 234.768H325.404L324.972 236.952Z" fill="black"/>
<path opacity="0.2" d="M328.332 236.856H326.076L326.508 234.684H328.764L328.332 236.856Z" fill="black"/>
</svg>
