
<svg class="animated" id="freepik_stories-growth-curve" xmlns="http://www.w3.org/2000/svg" viewBox="0 0 500 500" version="1.1" xmlns:xlink="http://www.w3.org/1999/xlink" xmlns:svgjs="http://svgjs.com/svgjs"><g id="freepik--background-complete--inject-2" class="animable" style="transform-origin: 246.385px 248.57px;"><path d="M99.88,311.62a3.39,3.39,0,0,1,3.32-.1c.51.27,1,.58,1.51.83a5.06,5.06,0,0,1,1.47.9,3.25,3.25,0,0,1,.92,1.46,6.61,6.61,0,0,1,.17,1.72l.12,3.45,0,0,14.12-.49-.09.1-.17-4.55a3.37,3.37,0,0,1,.84-2.16,16.43,16.43,0,0,1,3.9-2.45,3.49,3.49,0,0,1,2.34.17l4,2.12-.31.09,6.58-12.51.14.46-4-2.13a3.72,3.72,0,0,1-1.54-1.95,3.66,3.66,0,0,1-.22-1.23l-.05-1.13,0-1.12a3.84,3.84,0,0,1,.13-1.26,3.73,3.73,0,0,1,1.43-2.07l3.87-2.43-.14.62-7.48-12,.66.16-3.88,2.41a3.8,3.8,0,0,1-2.54.38,3.72,3.72,0,0,1-1.21-.47l-1-.55-1-.51a3.93,3.93,0,0,1-1.06-.75,3.77,3.77,0,0,1-1.07-2.31l-.14-4.58.48.45-14.13.39.4-.43.1,4.57a3.65,3.65,0,0,1-1.9,3.08l-1,.58-1,.58a3.74,3.74,0,0,1-1.13.52,3.69,3.69,0,0,1-2.43-.23l-4-2.18.37-.11-6.78,12.4-.06-.21,4,2.19a3.49,3.49,0,0,1,1.41,1.82,8.43,8.43,0,0,1,.21,2.28,8.74,8.74,0,0,1-.09,2.28,3.38,3.38,0,0,1-1.31,1.87L88.79,302v-.08l7.42,12h0Zm0,0-3.67,2.3h0v0l-7.48-12,0-.05,0,0,3.84-2.4a3.22,3.22,0,0,0,1.24-1.8,7.89,7.89,0,0,0,.06-2.23,8,8,0,0,0-.24-2.22,3.15,3.15,0,0,0-1.34-1.68l-4-2.12-.14-.08.07-.14,6.58-12.5.13-.24.24.13,4,2.1a3,3,0,0,0,2,.16,3.12,3.12,0,0,0,.92-.44l1-.61,1-.62a3.17,3.17,0,0,0,.78-.64,3,3,0,0,0,.7-1.85l-.17-4.52v-.41h.41l14.12-.49.46,0v.46l.16,4.52a2.81,2.81,0,0,0,1.61,2.28l1,.52,1,.57a2.89,2.89,0,0,0,.9.34,2.75,2.75,0,0,0,1.87-.29l3.85-2.36.42-.25.25.41,7.41,12,.24.38-.38.23-3.84,2.37a2.86,2.86,0,0,0-1.11,1.59,3,3,0,0,0-.11,1l0,1.14,0,1.15a3,3,0,0,0,.16,1,2.92,2.92,0,0,0,1.2,1.56l4,2.18.3.16-.16.29-6.78,12.41-.11.2-.2-.11-4-2.16a3.13,3.13,0,0,0-2.09-.18,8,8,0,0,0-2,1,7.57,7.57,0,0,0-1.82,1.27,3.2,3.2,0,0,0-.8,2l.1,4.53v.09h-.1l-14.12.39h0v0l-.1-3.46a6.49,6.49,0,0,0-.16-1.71,3.27,3.27,0,0,0-.89-1.44,5.78,5.78,0,0,0-1.46-.91c-.52-.24-1-.56-1.51-.83A3.39,3.39,0,0,0,99.88,311.62Z" style="fill: rgb(235, 235, 235); transform-origin: 113.735px 294.615px;" id="elbq2g415p3cs" class="animable"></path><path d="M102.8,290.7a11.69,11.69,0,0,1,6-6.51,11.8,11.8,0,0,1,15.72,5.67,11.8,11.8,0,0,1-6,15.86A11.82,11.82,0,0,1,103,299.58,11.59,11.59,0,0,1,102.8,290.7Zm0,0a11.57,11.57,0,0,0,.35,8.82A11.33,11.33,0,0,0,124,298.7a11.33,11.33,0,0,0-6.36-14.49,11.34,11.34,0,0,0-8.73.11A11.63,11.63,0,0,0,102.8,290.7Z" style="fill: rgb(235, 235, 235); transform-origin: 113.828px 294.875px;" id="el73655bo27dl" class="animable"></path><path d="M436.47,111.35l-5-8.57-2.62,1.52a2.36,2.36,0,0,1-2.47-.09,14.69,14.69,0,0,0-1.28-.74,2.35,2.35,0,0,1-1.3-2.09v-3H414v3a2.35,2.35,0,0,1-1.3,2.09,14.87,14.87,0,0,0-1.29.74,2.35,2.35,0,0,1-2.46.09l-2.63-1.52-4.94,8.57,2.63,1.52a2.34,2.34,0,0,1,1.15,2.18c0,.25,0,.49,0,.73s0,.49,0,.73a2.34,2.34,0,0,1-1.14,2.18l-2.64,1.52,4.94,8.58,2.63-1.52a2.36,2.36,0,0,1,2.47.08,12.51,12.51,0,0,0,1.28.74,2.37,2.37,0,0,1,1.3,2.09v3h9.9v-3a2.37,2.37,0,0,1,1.3-2.09,12.36,12.36,0,0,0,1.27-.74,2.36,2.36,0,0,1,2.47-.08l2.63,1.52,5-8.58-2.63-1.52a2.35,2.35,0,0,1-1.15-2.17c0-.25,0-.49,0-.74s0-.48,0-.73a2.34,2.34,0,0,1,1.15-2.18ZM427,115.78a8.11,8.11,0,1,1-8.11-8.11A8.11,8.11,0,0,1,427,115.78Z" style="fill: rgb(235, 235, 235); transform-origin: 418.975px 115.78px;" id="elr78wpvy0qv" class="animable"></path><path d="M98.67,340.33l-4.94-8.57-2.63,1.51a2.32,2.32,0,0,1-2.46-.08,12.66,12.66,0,0,0-1.29-.74,2.35,2.35,0,0,1-1.3-2.09v-3h-9.9v3a2.35,2.35,0,0,1-1.3,2.09,12.51,12.51,0,0,0-1.28.74,2.34,2.34,0,0,1-2.47.08l-2.62-1.51-5,8.57,2.64,1.52A2.36,2.36,0,0,1,67.32,344c0,.24,0,.49,0,.73s0,.49,0,.73a2.34,2.34,0,0,1-1.15,2.17l-2.64,1.53,5,8.57,2.63-1.51a2.36,2.36,0,0,1,2.47.08,12.36,12.36,0,0,0,1.27.74,2.37,2.37,0,0,1,1.3,2.09v3h9.9v-3a2.37,2.37,0,0,1,1.3-2.09,12.51,12.51,0,0,0,1.28-.74,2.36,2.36,0,0,1,2.47-.08l2.63,1.51,4.94-8.57L96,347.67a2.35,2.35,0,0,1-1.15-2.17c0-.25,0-.49,0-.74s0-.49,0-.73a2.35,2.35,0,0,1,1.16-2.18Zm-9.46,4.43a8.11,8.11,0,1,1-8.1-8.11A8.11,8.11,0,0,1,89.21,344.76Z" style="fill: rgb(235, 235, 235); transform-origin: 81.1px 344.745px;" id="elp9mrhhq6qgm" class="animable"></path><polygon points="35.16 400.79 246.39 400.54 457.61 400.79 246.39 401.04 35.16 400.79" style="fill: rgb(219, 219, 219); transform-origin: 246.385px 400.79px;" id="elpxrc26uyboa" class="animable"></polygon><polygon points="35.16 362.74 246.39 362.49 457.61 362.74 246.39 362.99 35.16 362.74" style="fill: rgb(219, 219, 219); transform-origin: 246.385px 362.74px;" id="eldpojpmmdrv" class="animable"></polygon><polygon points="35.16 324.68 246.39 324.43 457.61 324.68 246.39 324.93 35.16 324.68" style="fill: rgb(219, 219, 219); transform-origin: 246.385px 324.68px;" id="elm4evskp0do9" class="animable"></polygon><polygon points="35.16 286.63 246.39 286.38 457.61 286.63 246.39 286.88 35.16 286.63" style="fill: rgb(219, 219, 219); transform-origin: 246.385px 286.63px;" id="el77toye8o3jd" class="animable"></polygon><polygon points="35.16 248.57 246.39 248.32 457.61 248.57 246.39 248.82 35.16 248.57" style="fill: rgb(219, 219, 219); transform-origin: 246.385px 248.57px;" id="el8g5tikkixz7" class="animable"></polygon><polygon points="35.16 210.51 246.39 210.27 457.61 210.51 246.39 210.76 35.16 210.51" style="fill: rgb(219, 219, 219); transform-origin: 246.385px 210.515px;" id="el66eeim8w4ac" class="animable"></polygon><polygon points="35.16 172.46 246.39 172.21 457.61 172.46 246.39 172.71 35.16 172.46" style="fill: rgb(219, 219, 219); transform-origin: 246.385px 172.46px;" id="eluaq7aql73q" class="animable"></polygon><polygon points="35.16 134.41 246.39 134.16 457.61 134.41 246.39 134.65 35.16 134.41" style="fill: rgb(219, 219, 219); transform-origin: 246.385px 134.405px;" id="elg1y4wxmlefb" class="animable"></polygon><polygon points="35.16 96.35 246.39 96.1 457.61 96.35 246.39 96.6 35.16 96.35" style="fill: rgb(219, 219, 219); transform-origin: 246.385px 96.35px;" id="elro0osajpgka" class="animable"></polygon></g><g id="freepik--Shadow--inject-2" class="animable" style="transform-origin: 249.7px 462.65px;"><ellipse cx="249.7" cy="462.65" rx="74.79" ry="9.04" style="fill: rgb(235, 235, 235); transform-origin: 249.7px 462.65px;" id="elt59jmw1yaoi" class="animable"></ellipse></g><g id="freepik--Graphics--inject-2" class="animable" style="transform-origin: 248.08px 250.465px;"><path d="M461,438.85l-105.5.25-105.5.09-211,.14a.48.48,0,0,1-.48-.48h0l.16-190.28.09-95.14L39,58.29l.24,95.14.09,95.14.16,190.28-.49-.49,211,.15,105.5.09Z" style="fill: rgb(38, 50, 56); transform-origin: 249.76px 248.81px;" id="el6423393xanl" class="animable"></path><path d="M35.16,400.79a29.39,29.39,0,0,1,7.65,0A25.8,25.8,0,0,1,39,401,25.93,25.93,0,0,1,35.16,400.79Z" style="fill: rgb(38, 50, 56); transform-origin: 38.985px 400.773px;" id="elvikmua1i9sl" class="animable"></path><path d="M35.16,362.74a25.93,25.93,0,0,1,3.83-.25,25.8,25.8,0,0,1,3.82.25,29.39,29.39,0,0,1-7.65,0Z" style="fill: rgb(38, 50, 56); transform-origin: 38.985px 362.739px;" id="elzsjy5p5de3g" class="animable"></path><path d="M35.16,324.68a29.39,29.39,0,0,1,7.65,0,25.8,25.8,0,0,1-3.82.25A25.93,25.93,0,0,1,35.16,324.68Z" style="fill: rgb(38, 50, 56); transform-origin: 38.985px 324.681px;" id="elk80vvyk6f8b" class="animable"></path><path d="M35.16,286.63a25.93,25.93,0,0,1,3.83-.25,24.51,24.51,0,0,1,3.82.25,29.39,29.39,0,0,1-7.65,0Z" style="fill: rgb(38, 50, 56); transform-origin: 38.985px 286.629px;" id="el9nknat24x2" class="animable"></path><path d="M35.16,248.57a27.37,27.37,0,0,1,3.83-.25,25.8,25.8,0,0,1,3.82.25,25.8,25.8,0,0,1-3.82.25A25.93,25.93,0,0,1,35.16,248.57Z" style="fill: rgb(38, 50, 56); transform-origin: 38.985px 248.57px;" id="el37ffhy0u77t" class="animable"></path><path d="M35.16,210.52a25.93,25.93,0,0,1,3.83-.25,24.51,24.51,0,0,1,3.82.25,29.39,29.39,0,0,1-7.65,0Z" style="fill: rgb(38, 50, 56); transform-origin: 38.985px 210.519px;" id="el15clb995r0k" class="animable"></path><path d="M35.16,172.46a27.37,27.37,0,0,1,3.83-.25,25.8,25.8,0,0,1,3.82.25,25.8,25.8,0,0,1-3.82.25A27.37,27.37,0,0,1,35.16,172.46Z" style="fill: rgb(38, 50, 56); transform-origin: 38.985px 172.46px;" id="ely8xl75igyel" class="animable"></path><path d="M35.16,134.4a29.39,29.39,0,0,1,7.65,0,24.51,24.51,0,0,1-3.82.25A25.93,25.93,0,0,1,35.16,134.4Z" style="fill: rgb(38, 50, 56); transform-origin: 38.985px 134.401px;" id="elavczem1c6er" class="animable"></path><path d="M35.16,96.35A25.93,25.93,0,0,1,39,96.1a25.8,25.8,0,0,1,3.82.25A25.8,25.8,0,0,1,39,96.6,27.37,27.37,0,0,1,35.16,96.35Z" style="fill: rgb(38, 50, 56); transform-origin: 38.99px 96.35px;" id="el5obhdjy5sch" class="animable"></path><path d="M77.06,435a27.23,27.23,0,0,1,.25,3.82,25.8,25.8,0,0,1-.25,3.82,25.8,25.8,0,0,1-.25-3.82A27.23,27.23,0,0,1,77.06,435Z" style="fill: rgb(38, 50, 56); transform-origin: 77.06px 438.82px;" id="el78avk3xiz4m" class="animable"></path><path d="M115.12,435a27.22,27.22,0,0,1,.24,3.82,25.79,25.79,0,0,1-.24,3.82,24.51,24.51,0,0,1-.25-3.82A25.8,25.8,0,0,1,115.12,435Z" style="fill: rgb(38, 50, 56); transform-origin: 115.115px 438.82px;" id="el1f3ahtrtivaj" class="animable"></path><path d="M153.17,435a27.23,27.23,0,0,1,.25,3.82,25.8,25.8,0,0,1-.25,3.82,25.8,25.8,0,0,1-.25-3.82A27.23,27.23,0,0,1,153.17,435Z" style="fill: rgb(38, 50, 56); transform-origin: 153.17px 438.82px;" id="el8vci7ckil38" class="animable"></path><path d="M191.23,435a29.31,29.31,0,0,1,0,7.64,24.51,24.51,0,0,1-.25-3.82A25.8,25.8,0,0,1,191.23,435Z" style="fill: rgb(38, 50, 56); transform-origin: 191.229px 438.82px;" id="elukuq4t2a95d" class="animable"></path><path d="M229.28,435a29.31,29.31,0,0,1,0,7.64,29.31,29.31,0,0,1,0-7.64Z" style="fill: rgb(38, 50, 56); transform-origin: 229.28px 438.82px;" id="eljtsb8tsjdim" class="animable"></path><path d="M267.34,435a29.31,29.31,0,0,1,0,7.64,29.31,29.31,0,0,1,0-7.64Z" style="fill: rgb(38, 50, 56); transform-origin: 267.34px 438.82px;" id="elzakr6amj37" class="animable"></path><path d="M305.39,435a29.31,29.31,0,0,1,0,7.64,29.31,29.31,0,0,1,0-7.64Z" style="fill: rgb(38, 50, 56); transform-origin: 305.39px 438.82px;" id="elmtfjvjpttlj" class="animable"></path><path d="M343.45,435a29.31,29.31,0,0,1,0,7.64,29.31,29.31,0,0,1,0-7.64Z" style="fill: rgb(38, 50, 56); transform-origin: 343.45px 438.82px;" id="elx7mff0ntu5m" class="animable"></path><path d="M381.5,435a29.31,29.31,0,0,1,0,7.64,29.31,29.31,0,0,1,0-7.64Z" style="fill: rgb(38, 50, 56); transform-origin: 381.5px 438.82px;" id="el6tn1cw02y7a" class="animable"></path><path d="M419.56,435a29.31,29.31,0,0,1,0,7.64,29.31,29.31,0,0,1,0-7.64Z" style="fill: rgb(38, 50, 56); transform-origin: 419.56px 438.82px;" id="el6rrrifqf8bt" class="animable"></path><path d="M457.61,435a29.31,29.31,0,0,1,0,7.64,29.31,29.31,0,0,1,0-7.64Z" style="fill: rgb(38, 50, 56); transform-origin: 457.61px 438.82px;" id="ely73rqbef2o" class="animable"></path></g><g id="freepik--Text--inject-2" class="animable" style="transform-origin: 126.069px 93.65px;"><path d="M102.86,100.61a16.25,16.25,0,0,1-32.41,1.67c0-.06,0-.06-.07-.13-.07-1.27-.13-2.54-.13-3.82A39.34,39.34,0,0,1,72.59,84.6a23.38,23.38,0,0,1,8.64-11.45,19.28,19.28,0,0,1,10-3.15,3.74,3.74,0,0,1,3.88,3.55,3.88,3.88,0,0,1-3.62,3.89,12.19,12.19,0,0,0-6.29,1.87A13.66,13.66,0,0,0,81,84a14.12,14.12,0,0,0-.87,1.74,15.78,15.78,0,0,1,6.43-1.34A16.24,16.24,0,0,1,102.86,100.61Zm-7.43,0a8.81,8.81,0,1,0-17.62,0,8.81,8.81,0,0,0,17.62,0Z" style="fill: #407BFF; transform-origin: 86.5542px 93.4099px;" id="eljwcpkp5y8nq" class="animable"></path><path d="M108.72,93.38a28.78,28.78,0,0,1,4.55-16c2.82-4.29,7.17-7.43,12.46-7.43s9.58,3.14,12.39,7.43a28.67,28.67,0,0,1,4.49,16,28.78,28.78,0,0,1-4.49,16c-2.81,4.22-7.23,7.44-12.39,7.44s-9.64-3.22-12.46-7.44A28.89,28.89,0,0,1,108.72,93.38Zm26.45,0A22.25,22.25,0,0,0,132,81.46c-1.94-2.82-4.15-4.16-6.23-4.09s-4.35,1.27-6.36,4.09a22.16,22.16,0,0,0-3.22,11.92,21.93,21.93,0,0,0,3.22,11.85c2,2.88,4.28,4.15,6.36,4.15s4.29-1.27,6.23-4.15A22,22,0,0,0,135.17,93.38Z" style="fill: #407BFF; transform-origin: 125.666px 93.385px;" id="elzo27unst21q" class="animable"></path><path d="M149,94v-.08c0-4.29,2.93-7.83,7.26-7.83s7.17,3.54,7.17,7.74v.09c0,4.24-2.89,7.82-7.26,7.82S149,98.16,149,94Zm10.53,0v-.08c0-2.45-1.39-4.46-3.36-4.46s-3.28,2-3.28,4.37v.09c0,2.49,1.4,4.46,3.37,4.46S159.48,96.33,159.48,94ZM154,114.38,174,87a1.67,1.67,0,0,1,1.49-.79,1.72,1.72,0,0,1,1.75,1.71,2,2,0,0,1-.4,1.13l-20.06,27.42a1.8,1.8,0,0,1-1.53.78,1.68,1.68,0,0,1-1.71-1.7A2,2,0,0,1,154,114.38Zm13.46-4.76v-.09c0-4.29,2.93-7.83,7.26-7.83s7.17,3.54,7.17,7.74v.09c0,4.24-2.93,7.82-7.26,7.82S167.44,113.81,167.44,109.62Zm10.54,0v-.09c0-2.45-1.4-4.46-3.37-4.46s-3.28,2-3.28,4.37v.09c0,2.49,1.4,4.46,3.37,4.46S178,112,178,109.62Z" style="fill: #407BFF; transform-origin: 165.445px 101.72px;" id="elqz4vaqrye7" class="animable"></path></g><g id="freepik--Curve--inject-2" class="animable" style="transform-origin: 246.145px 255.715px;"><g id="elk2ru9ap15t"><path d="M453.11,72.58V438.85H39.18S375.41,348.59,453.11,72.58Z" style="fill: #407BFF; opacity: 0.4; transform-origin: 246.145px 255.715px;" class="animable" id="elsblciijilhf"></path></g></g><g id="freepik--Arrow--inject-2" class="animable" style="transform-origin: 250.09px 255.715px;"><path d="M39.18,438.85V401s284.67-21.69,399.7-304l11.44,2.63S373.94,389,39.18,438.85Z" style="fill: #407BFF; transform-origin: 244.75px 267.925px;" id="eltgu8mvidlrr" class="animable"></path><polygon points="461 109.16 425.03 98.5 453.11 72.58 461 109.16" style="fill: #407BFF; transform-origin: 443.015px 90.87px;" id="el630af5j1jn" class="animable"></polygon></g><g id="freepik--Character--inject-2" class="animable" style="transform-origin: 250.01px 231.039px;"><g id="el0g4058i2fhg8"><path d="M272.68,199.24C267.76,205.1,255.54,210,255.54,210s2.71-12.86,7.63-18.72S273.73,185,273.73,185l3.3,2.78S277.59,193.38,272.68,199.24Z" style="fill: #407BFF; opacity: 0.6; transform-origin: 266.295px 197.5px;" class="animable" id="el24nppih7fri"></path></g><g id="el282cnxlag9q"><path d="M273.45,195.54c-3.5,4.18-12.21,7.66-12.21,7.66s1.93-9.17,5.44-13.35a12,12,0,0,1,7.52-4.48l2.36,2A11.94,11.94,0,0,1,273.45,195.54Z" style="fill: #407BFF; opacity: 0.8; transform-origin: 268.9px 194.285px;" class="animable" id="elv0gse3dyi"></path></g><path d="M333.63,136l-41.77,49.73-18.58-15.6L315,120.34c5.8-6.9,8.69-11.29,17.68-13.64,7.82-2,9.79-1.53,10.45-1s1.51,2.41.85,10.47C343.25,125.44,339.42,129.05,333.63,136Z" style="fill: rgb(219, 219, 219); transform-origin: 308.749px 145.485px;" id="elaonhb94hmxa" class="animable"></path><path d="M344.25,112.05l-7.5-6.3c4.53-.89,5.89-.47,6.42,0S344.35,107.44,344.25,112.05Z" style="fill: rgb(199, 199, 199); transform-origin: 340.505px 108.639px;" id="el2fc2brr8xfp" class="animable"></path><g id="elh4d7zm3akd9"><g style="opacity: 0.2; transform-origin: 310.41px 144.07px;" class="animable" id="elgjmvdx9htmt"><path d="M330.62,107.32c2.26,1.76,4.44,3.62,6.65,5.42s4.37,3.69,6.5,5.62c-2.26-1.76-4.44-3.62-6.66-5.43S332.74,109.24,330.62,107.32Z" style="fill: rgb(2, 1, 0); transform-origin: 337.195px 112.84px;" id="elpfeo8z8d1xj" class="animable"></path><path d="M319.05,115.58c3.17,2.52,6.25,5.14,9.38,7.71s6.18,5.22,9.21,7.9c-3.17-2.52-6.25-5.14-9.37-7.71S322.08,118.26,319.05,115.58Z" style="fill: rgb(2, 1, 0); transform-origin: 328.345px 123.385px;" id="elx7qfnxfhen" class="animable"></path><path d="M321.59,112.83c3.12,2.48,6.15,5.07,9.23,7.59s6.09,5.14,9.08,7.79c-3.13-2.48-6.16-5.07-9.24-7.59S324.57,115.48,321.59,112.83Z" style="fill: rgb(2, 1, 0); transform-origin: 330.745px 120.52px;" id="elxciwzfgszxl" class="animable"></path><path d="M309.75,126.66c3.17,2.52,6.25,5.14,9.38,7.71s6.18,5.21,9.21,7.9c-3.17-2.52-6.25-5.15-9.38-7.71S312.78,129.34,309.75,126.66Z" style="fill: rgb(2, 1, 0); transform-origin: 319.045px 134.465px;" id="elypkzy0mxowe" class="animable"></path><path d="M300.45,137.73c3.17,2.52,6.25,5.15,9.37,7.71s6.19,5.22,9.22,7.9c-3.17-2.52-6.25-5.14-9.38-7.71S303.48,140.42,300.45,137.73Z" style="fill: rgb(2, 1, 0); transform-origin: 309.745px 145.535px;" id="el14wazvbsbj8" class="animable"></path><path d="M291.15,148.81c3.16,2.52,6.24,5.14,9.37,7.71s6.19,5.21,9.21,7.9c-3.16-2.52-6.24-5.14-9.37-7.71S294.18,151.49,291.15,148.81Z" style="fill: rgb(2, 1, 0); transform-origin: 300.44px 156.615px;" id="elvt88fp1cuq" class="animable"></path><path d="M281.85,159.89c3.16,2.52,6.24,5.14,9.37,7.7s6.18,5.22,9.21,7.9c-3.17-2.51-6.25-5.14-9.37-7.7S284.87,162.57,281.85,159.89Z" style="fill: rgb(2, 1, 0); transform-origin: 291.14px 167.69px;" id="eleelc5g3xjm" class="animable"></path><path d="M330.73,108.62a.35.35,0,1,1-.53-.45.36.36,0,0,1,.54,0A.37.37,0,0,1,330.73,108.62Zm0,0a.23.23,0,0,0-.07-.36.21.21,0,0,0-.27.07.21.21,0,0,0,0,.27A.23.23,0,0,0,330.73,108.62Z" style="fill: rgb(2, 1, 0); transform-origin: 330.45px 108.412px;" id="elekbkskq367f" class="animable"></path><path d="M333.17,110.66a.36.36,0,0,1-.45.08.36.36,0,0,1-.09-.53.36.36,0,0,1,.54,0A.35.35,0,0,1,333.17,110.66Zm0,0a.23.23,0,0,0-.08-.35.22.22,0,0,0-.27.06.23.23,0,0,0,0,.28A.24.24,0,0,0,333.17,110.66Z" style="fill: rgb(2, 1, 0); transform-origin: 332.902px 110.437px;" id="elv7safwc8r" class="animable"></path><path d="M335.6,112.71a.35.35,0,1,1-.53-.45.36.36,0,0,1,.54,0A.36.36,0,0,1,335.6,112.71Zm0,0a.23.23,0,0,0-.07-.36.21.21,0,0,0-.27.07.21.21,0,0,0,0,.27A.23.23,0,0,0,335.6,112.71Z" style="fill: rgb(2, 1, 0); transform-origin: 335.321px 112.502px;" id="elru2kutq8ek" class="animable"></path><path d="M338,114.75a.35.35,0,1,1,0-.45A.35.35,0,0,1,338,114.75Zm0,0a.23.23,0,0,0-.08-.35.22.22,0,0,0-.27.06.23.23,0,0,0,0,.28A.24.24,0,0,0,338,114.75Z" style="fill: rgb(2, 1, 0); transform-origin: 337.732px 114.525px;" id="elcp9y2cyvvd" class="animable"></path><path d="M340.47,116.8a.34.34,0,0,1-.44.08.35.35,0,0,1-.09-.53.36.36,0,0,1,.54,0A.35.35,0,0,1,340.47,116.8Zm0,0a.24.24,0,0,0-.07-.36.23.23,0,0,0-.27.07.21.21,0,0,0,0,.27A.22.22,0,0,0,340.47,116.8Z" style="fill: rgb(2, 1, 0); transform-origin: 340.206px 116.578px;" id="elwhzbot3biaj" class="animable"></path><path d="M342.91,118.84a.34.34,0,0,1-.45.08.35.35,0,1,1,.45-.53A.35.35,0,0,1,342.91,118.84Zm0,0a.23.23,0,0,0-.08-.35.23.23,0,0,0-.29.34A.24.24,0,0,0,342.91,118.84Z" style="fill: rgb(2, 1, 0); transform-origin: 342.648px 118.625px;" id="eleyhwi02qmza" class="animable"></path><path d="M321.94,119.08a.34.34,0,0,1-.44.08.36.36,0,0,1-.09-.53.36.36,0,0,1,.54,0A.34.34,0,0,1,321.94,119.08Zm0,0a.24.24,0,0,0-.07-.36.23.23,0,0,0-.27.07.22.22,0,0,0,0,.28A.23.23,0,0,0,321.94,119.08Z" style="fill: rgb(2, 1, 0); transform-origin: 321.681px 118.858px;" id="elva58mo39u9" class="animable"></path><path d="M324.38,121.12a.34.34,0,0,1-.44.09.35.35,0,1,1,.44-.54A.35.35,0,0,1,324.38,121.12Zm0,0a.22.22,0,0,0-.08-.35.2.2,0,0,0-.26.07.21.21,0,0,0,0,.27A.23.23,0,0,0,324.38,121.12Z" style="fill: rgb(2, 1, 0); transform-origin: 324.123px 120.912px;" id="elf7o4backag" class="animable"></path><path d="M319.51,117a.36.36,0,0,1-.45.09.37.37,0,0,1-.09-.54.36.36,0,0,1,.54,0A.35.35,0,0,1,319.51,117Zm0,0a.23.23,0,0,0-.08-.35.24.24,0,0,0-.29.34A.24.24,0,0,0,319.51,117Z" style="fill: rgb(2, 1, 0); transform-origin: 319.241px 116.781px;" id="elgd1u6qun2bs" class="animable"></path><path d="M326.81,123.17a.34.34,0,0,1-.44.08.36.36,0,0,1-.09-.53.36.36,0,0,1,.54,0A.34.34,0,0,1,326.81,123.17Zm0,0a.24.24,0,0,0-.07-.36.23.23,0,0,0-.27.07.23.23,0,0,0,0,.28A.23.23,0,0,0,326.81,123.17Z" style="fill: rgb(2, 1, 0); transform-origin: 326.551px 122.948px;" id="elsol4xdmdzqt" class="animable"></path><path d="M329.25,125.21a.34.34,0,0,1-.44.09.36.36,0,1,1,.44-.09Zm0,0a.22.22,0,0,0-.08-.35.2.2,0,0,0-.26.07.21.21,0,0,0,0,.27A.22.22,0,0,0,329.25,125.21Z" style="fill: rgb(2, 1, 0); transform-origin: 328.974px 124.982px;" id="el9g8ujldp5vn" class="animable"></path><path d="M331.69,127.26a.36.36,0,0,1-.45.08.36.36,0,0,1-.09-.53.36.36,0,0,1,.54,0A.35.35,0,0,1,331.69,127.26Zm0,0a.25.25,0,0,0-.08-.36.24.24,0,0,0-.29.35A.24.24,0,0,0,331.69,127.26Z" style="fill: rgb(2, 1, 0); transform-origin: 331.422px 127.037px;" id="ellrd62ywokdl" class="animable"></path><path d="M334.12,129.31a.35.35,0,1,1-.53-.45.36.36,0,0,1,.54,0A.37.37,0,0,1,334.12,129.31Zm0,0A.23.23,0,0,0,334,129a.2.2,0,0,0-.26.07.21.21,0,0,0,0,.27A.23.23,0,0,0,334.12,129.31Z" style="fill: rgb(2, 1, 0); transform-origin: 333.84px 129.102px;" id="el3r8zun2k92s" class="animable"></path><path d="M336.56,131.35a.36.36,0,0,1-.45.08.36.36,0,0,1-.09-.53.36.36,0,0,1,.54,0A.35.35,0,0,1,336.56,131.35Zm0,0a.25.25,0,0,0-.08-.36.24.24,0,0,0-.29.35A.24.24,0,0,0,336.56,131.35Z" style="fill: rgb(2, 1, 0); transform-origin: 336.291px 131.127px;" id="elym59mb8558" class="animable"></path><path d="M324.26,116.32a.34.34,0,0,1-.44.08.35.35,0,0,1-.09-.53.36.36,0,0,1,.54,0A.34.34,0,0,1,324.26,116.32Zm0,0a.24.24,0,0,0-.07-.36.23.23,0,0,0-.27.07.21.21,0,0,0,0,.27A.22.22,0,0,0,324.26,116.32Z" style="fill: rgb(2, 1, 0); transform-origin: 323.998px 116.098px;" id="eldqa97xv35cd" class="animable"></path><path d="M326.7,118.36a.36.36,0,0,1-.45.09.37.37,0,0,1-.09-.54.36.36,0,0,1,.54,0A.35.35,0,0,1,326.7,118.36Zm0,0a.23.23,0,0,0-.08-.35.23.23,0,0,0-.27.06.24.24,0,0,0,0,.28A.24.24,0,0,0,326.7,118.36Z" style="fill: rgb(2, 1, 0); transform-origin: 326.431px 118.141px;" id="eliqw7izl1j49" class="animable"></path><path d="M321.83,114.27a.34.34,0,0,1-.45.08.35.35,0,1,1,.45-.53A.35.35,0,0,1,321.83,114.27Zm0,0a.23.23,0,0,0-.08-.35.23.23,0,0,0-.27.06.24.24,0,0,0,0,.28A.24.24,0,0,0,321.83,114.27Z" style="fill: rgb(2, 1, 0); transform-origin: 321.568px 114.055px;" id="elj66mjoax6vi" class="animable"></path><path d="M329.13,120.41a.34.34,0,0,1-.44.08.36.36,0,0,1-.09-.53.36.36,0,0,1,.54,0A.34.34,0,0,1,329.13,120.41Zm0,0a.24.24,0,0,0-.07-.36.23.23,0,0,0-.27.07.22.22,0,0,0,0,.28A.23.23,0,0,0,329.13,120.41Z" style="fill: rgb(2, 1, 0); transform-origin: 328.871px 120.188px;" id="elz3f5ywwg9mp" class="animable"></path><path d="M331.57,122.45a.35.35,0,0,1-.44.09.37.37,0,0,1-.1-.54.36.36,0,0,1,.54,0A.35.35,0,0,1,331.57,122.45Zm0,0a.22.22,0,0,0-.08-.35.21.21,0,0,0-.26.06.22.22,0,0,0,0,.28A.23.23,0,0,0,331.57,122.45Z" style="fill: rgb(2, 1, 0); transform-origin: 331.303px 122.23px;" id="elw81865pjiq" class="animable"></path><path d="M334,124.5a.34.34,0,0,1-.44.08.36.36,0,0,1-.09-.53.36.36,0,0,1,.54,0A.34.34,0,0,1,334,124.5Zm0,0a.24.24,0,0,0-.07-.36.23.23,0,0,0-.27.07.23.23,0,0,0,0,.28A.23.23,0,0,0,334,124.5Z" style="fill: rgb(2, 1, 0); transform-origin: 333.741px 124.278px;" id="elcycsc2cx54i" class="animable"></path><path d="M336.44,126.54a.34.34,0,0,1-.44.09.35.35,0,0,1-.09-.53.34.34,0,0,1,.53,0A.35.35,0,0,1,336.44,126.54Zm0,0a.22.22,0,0,0-.08-.35.2.2,0,0,0-.26.07.21.21,0,0,0,0,.27A.23.23,0,0,0,336.44,126.54Z" style="fill: rgb(2, 1, 0); transform-origin: 336.172px 126.324px;" id="elnximx417b" class="animable"></path><path d="M338.88,128.59a.36.36,0,0,1-.45.08.36.36,0,0,1-.09-.53.36.36,0,0,1,.54,0A.35.35,0,0,1,338.88,128.59Zm0,0a.25.25,0,0,0-.08-.36.24.24,0,0,0-.29.35A.24.24,0,0,0,338.88,128.59Z" style="fill: rgb(2, 1, 0); transform-origin: 338.611px 128.367px;" id="elfmmhbnlcond" class="animable"></path><path d="M312.52,130.3a.35.35,0,1,1-.53-.45.35.35,0,1,1,.53.45Zm0,0a.24.24,0,0,0-.07-.36.23.23,0,0,0-.27.07.22.22,0,0,0,0,.28A.23.23,0,0,0,312.52,130.3Z" style="fill: rgb(2, 1, 0); transform-origin: 312.255px 130.075px;" id="el0lrecy9pplmh" class="animable"></path><path d="M315,132.34a.35.35,0,0,1-.45.09.36.36,0,0,1-.09-.53.35.35,0,1,1,.54.44Zm0,0a.23.23,0,0,0-.08-.35.24.24,0,0,0-.29.34A.24.24,0,0,0,315,132.34Z" style="fill: rgb(2, 1, 0); transform-origin: 314.741px 132.109px;" id="elzt9m2piek5" class="animable"></path><path d="M310.09,128.25a.36.36,0,0,1-.45.09.37.37,0,0,1-.09-.54.36.36,0,0,1,.54,0A.35.35,0,0,1,310.09,128.25Zm0,0a.23.23,0,0,0-.08-.35.24.24,0,0,0-.29.34A.24.24,0,0,0,310.09,128.25Z" style="fill: rgb(2, 1, 0); transform-origin: 309.821px 128.031px;" id="elroc50tqw2ls" class="animable"></path><path d="M317.39,134.39a.35.35,0,1,1-.53-.45.36.36,0,0,1,.54,0A.35.35,0,0,1,317.39,134.39Zm0,0a.24.24,0,0,0-.07-.36.23.23,0,0,0-.27.07.22.22,0,0,0,0,.28A.23.23,0,0,0,317.39,134.39Z" style="fill: rgb(2, 1, 0); transform-origin: 317.113px 134.182px;" id="elmzugemgjx8f" class="animable"></path><path d="M319.83,136.43a.35.35,0,0,1-.45.09.36.36,0,0,1-.09-.53.36.36,0,0,1,.54,0A.35.35,0,0,1,319.83,136.43Zm0,0a.23.23,0,0,0-.08-.35.24.24,0,0,0-.29.34A.24.24,0,0,0,319.83,136.43Z" style="fill: rgb(2, 1, 0); transform-origin: 319.559px 136.217px;" id="elx2oa5hlotg" class="animable"></path><path d="M322.26,138.48a.34.34,0,0,1-.44.08.35.35,0,0,1-.09-.53.36.36,0,0,1,.54,0A.34.34,0,0,1,322.26,138.48Zm0,0a.24.24,0,0,0-.07-.36.23.23,0,0,0-.27.07.22.22,0,0,0,0,.28A.23.23,0,0,0,322.26,138.48Z" style="fill: rgb(2, 1, 0); transform-origin: 321.998px 138.258px;" id="elwig9titmqy" class="animable"></path><path d="M324.7,140.53a.36.36,0,0,1-.45.08.36.36,0,1,1,.45-.08Zm0,0a.24.24,0,0,0-.08-.36.24.24,0,0,0-.29.34A.24.24,0,0,0,324.7,140.53Z" style="fill: rgb(2, 1, 0); transform-origin: 324.426px 140.296px;" id="elfgj4rvjouo5" class="animable"></path><path d="M327.13,142.57a.34.34,0,0,1-.44.08.36.36,0,0,1-.09-.53.36.36,0,0,1,.54,0A.34.34,0,0,1,327.13,142.57Zm0,0a.24.24,0,0,0-.07-.36.23.23,0,0,0-.27.07.22.22,0,0,0,0,.28A.23.23,0,0,0,327.13,142.57Z" style="fill: rgb(2, 1, 0); transform-origin: 326.871px 142.348px;" id="el1b5uuazmmij" class="animable"></path><path d="M303.1,141.52a.36.36,0,0,1-.45.08.36.36,0,0,1-.09-.53.36.36,0,0,1,.54,0A.35.35,0,0,1,303.1,141.52Zm0,0a.24.24,0,0,0-.08-.36.24.24,0,0,0-.27.07.25.25,0,0,0,0,.28A.24.24,0,0,0,303.1,141.52Z" style="fill: rgb(2, 1, 0); transform-origin: 302.832px 141.297px;" id="elildl81nbezp" class="animable"></path><path d="M305.53,143.56a.33.33,0,0,1-.44.09.36.36,0,0,1-.09-.53.35.35,0,0,1,.54,0A.33.33,0,0,1,305.53,143.56Zm0,0a.23.23,0,0,0-.07-.35.22.22,0,0,0-.27.07.21.21,0,0,0,0,.27A.23.23,0,0,0,305.53,143.56Z" style="fill: rgb(2, 1, 0); transform-origin: 305.27px 143.345px;" id="el87gg7yd347f" class="animable"></path><path d="M300.66,139.47a.34.34,0,0,1-.44.09.36.36,0,1,1,.45-.54A.33.33,0,0,1,300.66,139.47Zm0,0a.23.23,0,0,0-.07-.35.22.22,0,0,0-.27.07.21.21,0,0,0,0,.27A.23.23,0,0,0,300.66,139.47Z" style="fill: rgb(2, 1, 0); transform-origin: 300.389px 139.243px;" id="elkj8e6xustbq" class="animable"></path><path d="M308,145.61a.34.34,0,0,1-.44.08.35.35,0,1,1,.44-.53A.35.35,0,0,1,308,145.61Zm0,0a.23.23,0,0,0-.08-.36.22.22,0,0,0-.26.07.22.22,0,0,0,0,.28A.23.23,0,0,0,308,145.61Z" style="fill: rgb(2, 1, 0); transform-origin: 307.732px 145.387px;" id="el2u4yn7y0kgd" class="animable"></path><path d="M310.4,147.65a.33.33,0,0,1-.44.09.36.36,0,0,1-.09-.53.36.36,0,0,1,.54,0A.33.33,0,0,1,310.4,147.65Zm0,0a.23.23,0,0,0-.07-.35.24.24,0,0,0-.29.34A.23.23,0,0,0,310.4,147.65Z" style="fill: rgb(2, 1, 0); transform-origin: 310.14px 147.438px;" id="el7n67d55kpsg" class="animable"></path><path d="M312.84,149.7a.35.35,0,1,1,0-.45A.34.34,0,0,1,312.84,149.7Zm0,0a.23.23,0,0,0-.08-.36.22.22,0,0,0-.26.07.22.22,0,0,0,0,.28A.23.23,0,0,0,312.84,149.7Z" style="fill: rgb(2, 1, 0); transform-origin: 312.573px 149.475px;" id="eluqmll0fiuxd" class="animable"></path><path d="M315.28,151.74a.35.35,0,0,1-.45.09.36.36,0,0,1-.09-.53.36.36,0,0,1,.54,0A.35.35,0,0,1,315.28,151.74Zm0,0a.23.23,0,0,0-.08-.35.24.24,0,0,0-.29.34A.23.23,0,0,0,315.28,151.74Z" style="fill: rgb(2, 1, 0); transform-origin: 315.009px 151.527px;" id="el2amcke86xjg" class="animable"></path><path d="M317.71,153.79a.35.35,0,1,1-.53-.45.35.35,0,1,1,.53.45Zm0,0a.23.23,0,0,0-.08-.36.22.22,0,0,0-.26.07.22.22,0,0,0,0,.28A.23.23,0,0,0,317.71,153.79Z" style="fill: rgb(2, 1, 0); transform-origin: 317.445px 153.565px;" id="el5q1bcgw635h" class="animable"></path><path d="M293.68,152.74a.36.36,0,0,1-.45.08.36.36,0,0,1-.09-.53.36.36,0,0,1,.54,0A.35.35,0,0,1,293.68,152.74Zm0,0a.25.25,0,0,0-.08-.36.24.24,0,0,0-.29.35A.24.24,0,0,0,293.68,152.74Z" style="fill: rgb(2, 1, 0); transform-origin: 293.411px 152.517px;" id="el9bw3a05xoaj" class="animable"></path><path d="M296.11,154.78a.35.35,0,0,1-.44.09.36.36,0,1,1,.44-.09Zm0,0a.23.23,0,0,0-.07-.35.21.21,0,0,0-.27.07.21.21,0,0,0,0,.27A.23.23,0,0,0,296.11,154.78Z" style="fill: rgb(2, 1, 0); transform-origin: 295.834px 154.551px;" id="elz3nmfqti7u" class="animable"></path><path d="M291.24,150.69a.35.35,0,0,1-.44.09.36.36,0,1,1,.44-.09Zm0,0a.22.22,0,0,0-.08-.35.21.21,0,0,0-.26.06.22.22,0,0,0,0,.28A.23.23,0,0,0,291.24,150.69Z" style="fill: rgb(2, 1, 0); transform-origin: 290.964px 150.461px;" id="elnh9s6hyeyhq" class="animable"></path><path d="M298.55,156.83a.36.36,0,0,1-.45.08.36.36,0,0,1-.09-.53.36.36,0,0,1,.54,0A.35.35,0,0,1,298.55,156.83Zm0,0a.24.24,0,0,0-.08-.36.24.24,0,0,0-.29.35A.24.24,0,0,0,298.55,156.83Z" style="fill: rgb(2, 1, 0); transform-origin: 298.281px 156.607px;" id="el9tksusw6ekl" class="animable"></path><path d="M301,158.87a.34.34,0,0,1-.44.09.35.35,0,0,1-.09-.53.36.36,0,0,1,.54,0A.35.35,0,0,1,301,158.87Zm0,0a.23.23,0,0,0-.07-.35.21.21,0,0,0-.27.07.21.21,0,0,0,0,.27A.23.23,0,0,0,301,158.87Z" style="fill: rgb(2, 1, 0); transform-origin: 300.734px 158.656px;" id="eloqpxg8mpbnf" class="animable"></path><path d="M303.42,160.92a.36.36,0,0,1-.45.08.36.36,0,0,1-.09-.53.36.36,0,0,1,.54,0A.35.35,0,0,1,303.42,160.92Zm0,0a.24.24,0,0,0-.08-.36.24.24,0,0,0-.29.35A.24.24,0,0,0,303.42,160.92Z" style="fill: rgb(2, 1, 0); transform-origin: 303.152px 160.697px;" id="elv5hok4ehaie" class="animable"></path><path d="M305.85,163a.33.33,0,0,1-.44.09.35.35,0,0,1-.09-.53.36.36,0,0,1,.54,0A.33.33,0,0,1,305.85,163Zm0,0a.23.23,0,0,0-.07-.35.22.22,0,0,0-.27.07.21.21,0,0,0,0,.27A.22.22,0,0,0,305.85,163Z" style="fill: rgb(2, 1, 0); transform-origin: 305.588px 162.788px;" id="elwgsq6j0f1d" class="animable"></path><path d="M308.29,165a.36.36,0,0,1-.45.08.36.36,0,0,1-.09-.53.36.36,0,0,1,.54,0A.35.35,0,0,1,308.29,165Zm0,0a.24.24,0,0,0-.08-.36.24.24,0,0,0-.29.35A.24.24,0,0,0,308.29,165Z" style="fill: rgb(2, 1, 0); transform-origin: 308.022px 164.777px;" id="el6aab6rl7ppe" class="animable"></path><path d="M284.25,164a.34.34,0,0,1-.44.08.35.35,0,1,1,.45-.53A.34.34,0,0,1,284.25,164Zm0,0a.24.24,0,0,0-.07-.36.23.23,0,0,0-.27.07.22.22,0,0,0,0,.28A.23.23,0,0,0,284.25,164Z" style="fill: rgb(2, 1, 0); transform-origin: 283.997px 163.783px;" id="elwcvxs7a7r48" class="animable"></path><path d="M286.69,166a.36.36,0,0,1-.45.09.37.37,0,0,1-.09-.54.36.36,0,0,1,.54,0A.35.35,0,0,1,286.69,166Zm0,0a.23.23,0,0,0-.08-.35.22.22,0,0,0-.27.07.23.23,0,0,0,0,.27A.24.24,0,0,0,286.69,166Z" style="fill: rgb(2, 1, 0); transform-origin: 286.421px 165.781px;" id="el25cumnu4idw" class="animable"></path><path d="M281.82,161.91a.36.36,0,0,1-.45.09.37.37,0,0,1-.09-.54.36.36,0,0,1,.54,0A.35.35,0,0,1,281.82,161.91Zm0,0a.23.23,0,0,0-.08-.35.23.23,0,0,0-.27.06.24.24,0,0,0,0,.28A.24.24,0,0,0,281.82,161.91Z" style="fill: rgb(2, 1, 0); transform-origin: 281.551px 161.691px;" id="elolrlltql6xj" class="animable"></path><path d="M289.12,168.05a.34.34,0,0,1-.44.08.36.36,0,0,1-.09-.53.36.36,0,0,1,.54,0A.34.34,0,0,1,289.12,168.05Zm0,0a.24.24,0,0,0-.07-.36.23.23,0,0,0-.27.07.22.22,0,0,0,0,.28A.23.23,0,0,0,289.12,168.05Z" style="fill: rgb(2, 1, 0); transform-origin: 288.861px 167.828px;" id="els7tfqc8ro4t" class="animable"></path><path d="M291.56,170.09a.34.34,0,0,1-.44.09.35.35,0,1,1,.44-.54A.35.35,0,0,1,291.56,170.09Zm0,0a.22.22,0,0,0-.08-.35.2.2,0,0,0-.26.07.21.21,0,0,0,0,.27A.23.23,0,0,0,291.56,170.09Z" style="fill: rgb(2, 1, 0); transform-origin: 291.303px 169.881px;" id="el0acvm9p252z6" class="animable"></path><path d="M294,172.14a.34.34,0,0,1-.44.08.36.36,0,0,1-.09-.53.36.36,0,0,1,.54,0A.34.34,0,0,1,294,172.14Zm0,0a.24.24,0,0,0-.07-.36.23.23,0,0,0-.27.07.23.23,0,0,0,0,.28A.23.23,0,0,0,294,172.14Z" style="fill: rgb(2, 1, 0); transform-origin: 293.741px 171.918px;" id="elxscpto227re" class="animable"></path><path d="M296.43,174.18a.34.34,0,0,1-.44.09.36.36,0,1,1,.44-.09Zm0,0a.22.22,0,0,0-.08-.35.2.2,0,0,0-.26.07.21.21,0,0,0,0,.27A.22.22,0,0,0,296.43,174.18Z" style="fill: rgb(2, 1, 0); transform-origin: 296.154px 173.952px;" id="elb2ki5bw2q4r" class="animable"></path><path d="M298.87,176.23a.36.36,0,0,1-.45.08.36.36,0,0,1-.09-.53.36.36,0,0,1,.54,0A.35.35,0,0,1,298.87,176.23Zm0,0a.25.25,0,0,0-.08-.36.24.24,0,0,0-.29.35A.24.24,0,0,0,298.87,176.23Z" style="fill: rgb(2, 1, 0); transform-origin: 298.601px 176.007px;" id="elc7xpukihy2o" class="animable"></path><path d="M343.17,105.72c-7.75,1.53-15.25,5.75-19.71,12.48l-15.41,18.4-31,36.68,30.77-36.84,15.47-18.35c1.3-1.52,2.55-3.08,3.9-4.57a22.41,22.41,0,0,1,4.78-3.61,41.32,41.32,0,0,1,5.41-2.6c.94-.37,1.88-.71,2.83-1,.48-.15,1-.29,1.45-.41A3.7,3.7,0,0,1,343.17,105.72Z" style="fill: rgb(2, 1, 0); transform-origin: 310.11px 139.493px;" id="el2bslahgzdpf" class="animable"></path><path d="M343.13,105.69a3.68,3.68,0,0,1,.08,1.48q0,.75-.15,1.5c-.12,1-.3,2-.5,3a41.3,41.3,0,0,1-1.62,5.78,22.62,22.62,0,0,1-2.73,5.34c-1.24,1.59-2.56,3.09-3.83,4.63L319,145.78l-31,36.67,30.78-36.83,15.46-18.36C340.11,121.71,343,113.59,343.13,105.69Z" style="fill: rgb(2, 1, 0); transform-origin: 315.625px 144.07px;" id="elfacnp4pjexk" class="animable"></path></g></g><g id="el3g5ajq4s94n"><rect x="274.03" y="177.42" width="14.54" height="3.94" style="fill: rgb(38, 50, 56); transform-origin: 281.3px 179.39px; transform: rotate(40.02deg);" class="animable" id="elu0tcyews8sj"></rect></g><g id="elxl9p577xu2h"><rect x="273.08" y="180.67" width="12.65" height="1.97" style="fill: rgb(55, 71, 79); transform-origin: 279.405px 181.655px; transform: rotate(40.02deg);" class="animable" id="eln6kw4sb929"></rect></g><g id="el7jwp7j51f2i"><rect x="272.96" y="182.23" width="10.63" height="1.54" style="fill: rgb(38, 50, 56); transform-origin: 278.275px 183px; transform: rotate(40.02deg);" class="animable" id="eltxv6od7ssy"></rect></g><g id="el8qhegv94aj5"><rect x="265.31" y="187.1" width="17.6" height="1.72" style="fill: rgb(38, 50, 56); transform-origin: 274.11px 187.96px; transform: rotate(40.02deg);" class="animable" id="elopabgxe02ms"></rect></g><path d="M280.71,192.38l-12.1-10.16a8.85,8.85,0,0,1,12.1,10.16Z" style="fill: rgb(55, 71, 79); transform-origin: 274.777px 186.943px;" id="elsuvlwutmhiq" class="animable"></path><g id="elbcqadozmmm"><path d="M261.14,190c-4.92,5.86-17.14,10.75-17.14,10.75s2.71-12.87,7.64-18.73,10.55-6.28,10.55-6.28l3.3,2.77S266.05,184.16,261.14,190Z" style="fill: #407BFF; opacity: 0.6; transform-origin: 254.755px 188.245px;" class="animable" id="elhxhjxixb0rr"></path></g><g id="eljyj3ibym4lr"><path d="M261.92,186.31c-3.51,4.18-12.22,7.66-12.22,7.66s1.93-9.17,5.44-13.35a12,12,0,0,1,7.53-4.47l2.35,2A12,12,0,0,1,261.92,186.31Z" style="fill: #407BFF; opacity: 0.8; transform-origin: 257.36px 185.06px;" class="animable" id="el65zl30hhw77"></path></g><path d="M322.09,126.72l-41.77,49.74-18.58-15.61s36-42.84,41.77-49.73,8.68-11.3,17.67-13.65c7.82-2,9.79-1.53,10.45-1s1.51,2.41.85,10.47C331.71,116.21,327.88,119.82,322.09,126.72Z" style="fill: rgb(235, 235, 235); transform-origin: 297.229px 136.235px;" id="elkfzcv5qik5" class="animable"></path><path d="M332.71,102.82l-7.49-6.3c4.52-.89,5.89-.47,6.41,0S332.81,98.21,332.71,102.82Z" style="fill: rgb(219, 219, 219); transform-origin: 328.97px 99.4092px;" id="ellnbbumj96j" class="animable"></path><g id="elv3mpk9ugwp"><g style="opacity: 0.2; transform-origin: 298.87px 134.865px;" class="animable" id="elxwv93uidou"><path d="M319.08,98.09c2.26,1.76,4.44,3.62,6.66,5.42s4.37,3.7,6.49,5.62c-2.26-1.76-4.44-3.62-6.65-5.42S321.21,100,319.08,98.09Z" style="fill: rgb(2, 1, 0); transform-origin: 325.655px 103.61px;" id="elno137z9nwq" class="animable"></path><path d="M307.52,106.35c3.16,2.52,6.24,5.15,9.37,7.71s6.18,5.22,9.21,7.9c-3.17-2.52-6.25-5.14-9.37-7.71S310.54,109,307.52,106.35Z" style="fill: rgb(2, 1, 0); transform-origin: 316.81px 114.155px;" id="elxcj7ru4zv2c" class="animable"></path><path d="M310.05,103.6c3.12,2.49,6.15,5.07,9.23,7.6s6.09,5.14,9.08,7.78c-3.12-2.48-6.16-5.06-9.24-7.59S313,106.25,310.05,103.6Z" style="fill: rgb(2, 1, 0); transform-origin: 319.205px 111.29px;" id="elc3ojgoml2mj" class="animable"></path><path d="M298.21,117.43c3.17,2.52,6.25,5.14,9.38,7.71s6.18,5.22,9.21,7.9c-3.17-2.52-6.25-5.14-9.37-7.71S301.24,120.11,298.21,117.43Z" style="fill: rgb(2, 1, 0); transform-origin: 307.505px 125.235px;" id="el8s41lk6w8we" class="animable"></path><path d="M288.91,128.51c3.17,2.52,6.25,5.14,9.37,7.71s6.19,5.21,9.22,7.9c-3.17-2.52-6.25-5.15-9.38-7.71S291.94,131.19,288.91,128.51Z" style="fill: rgb(2, 1, 0); transform-origin: 298.205px 136.315px;" id="elmsyjpn4r9w" class="animable"></path><path d="M279.61,139.58c3.17,2.52,6.25,5.14,9.37,7.71s6.19,5.22,9.22,7.9c-3.17-2.52-6.25-5.14-9.38-7.71S282.64,142.27,279.61,139.58Z" style="fill: rgb(2, 1, 0); transform-origin: 288.905px 147.385px;" id="elndgun5wf5o" class="animable"></path><path d="M270.31,150.66c3.16,2.52,6.24,5.14,9.37,7.71s6.18,5.21,9.21,7.9c-3.16-2.52-6.24-5.14-9.37-7.71S273.34,153.34,270.31,150.66Z" style="fill: rgb(2, 1, 0); transform-origin: 279.6px 158.465px;" id="elclvvxifyqpi" class="animable"></path><path d="M319.19,99.39a.35.35,0,1,1-.53-.45.36.36,0,0,1,.54,0A.35.35,0,0,1,319.19,99.39Zm0,0a.24.24,0,0,0-.07-.36.23.23,0,0,0-.27.07.22.22,0,0,0,0,.28A.23.23,0,0,0,319.19,99.39Z" style="fill: rgb(2, 1, 0); transform-origin: 318.913px 99.182px;" id="elmfgkka3ocga" class="animable"></path><path d="M321.63,101.43a.35.35,0,0,1-.45.09.36.36,0,0,1-.09-.53.35.35,0,1,1,.54.44Zm0,0a.23.23,0,0,0-.08-.35.24.24,0,0,0-.29.34A.24.24,0,0,0,321.63,101.43Z" style="fill: rgb(2, 1, 0); transform-origin: 321.371px 101.199px;" id="elaawdgs63jw" class="animable"></path><path d="M324.06,103.48a.34.34,0,0,1-.44.08.35.35,0,1,1,.45-.53A.34.34,0,0,1,324.06,103.48Zm0,0a.24.24,0,0,0-.07-.36.23.23,0,0,0-.27.07.22.22,0,0,0,0,.28A.23.23,0,0,0,324.06,103.48Z" style="fill: rgb(2, 1, 0); transform-origin: 323.807px 103.263px;" id="eli3prhyk8xjc" class="animable"></path><path d="M326.5,105.52a.35.35,0,0,1-.45.09.36.36,0,0,1-.09-.53.36.36,0,0,1,.54,0A.35.35,0,0,1,326.5,105.52Zm0,0a.23.23,0,0,0-.08-.35.22.22,0,0,0-.27.07.23.23,0,0,0,0,.27A.24.24,0,0,0,326.5,105.52Z" style="fill: rgb(2, 1, 0); transform-origin: 326.229px 105.307px;" id="elvfnwei0084" class="animable"></path><path d="M328.93,107.57a.34.34,0,0,1-.44.08.36.36,0,0,1-.09-.53.36.36,0,0,1,.54,0A.34.34,0,0,1,328.93,107.57Zm0,0a.24.24,0,0,0-.07-.36.23.23,0,0,0-.27.07.22.22,0,0,0,0,.28A.23.23,0,0,0,328.93,107.57Z" style="fill: rgb(2, 1, 0); transform-origin: 328.671px 107.348px;" id="elbukmjjdoiad" class="animable"></path><path d="M331.37,109.62a.34.34,0,0,1-.44.08.35.35,0,1,1,.44-.54A.36.36,0,0,1,331.37,109.62Zm0,0a.23.23,0,0,0-.08-.36.2.2,0,0,0-.26.07.21.21,0,0,0,0,.27A.23.23,0,0,0,331.37,109.62Z" style="fill: rgb(2, 1, 0); transform-origin: 331.113px 109.403px;" id="elem9kfx2xm7n" class="animable"></path><path d="M310.4,109.85a.33.33,0,0,1-.44.08.35.35,0,1,1,.45-.53A.33.33,0,0,1,310.4,109.85Zm0,0a.23.23,0,0,0-.07-.35.23.23,0,0,0-.27.06.23.23,0,0,0,0,.28A.23.23,0,0,0,310.4,109.85Z" style="fill: rgb(2, 1, 0); transform-origin: 310.149px 109.635px;" id="elczrrn40oj2o" class="animable"></path><path d="M312.84,111.9a.35.35,0,1,1-.53-.45.35.35,0,1,1,.53.45Zm0,0a.23.23,0,0,0-.08-.36.22.22,0,0,0-.26.07.21.21,0,0,0,0,.27A.22.22,0,0,0,312.84,111.9Z" style="fill: rgb(2, 1, 0); transform-origin: 312.575px 111.675px;" id="eldswtmbn078e" class="animable"></path><path d="M308,107.81a.34.34,0,0,1-.44.08.36.36,0,0,1-.1-.53.35.35,0,1,1,.54.45Zm0,0a.23.23,0,0,0-.08-.36.22.22,0,0,0-.26.07.21.21,0,0,0,0,.27A.22.22,0,0,0,308,107.81Z" style="fill: rgb(2, 1, 0); transform-origin: 307.733px 107.586px;" id="elu2dawwxq8ms" class="animable"></path><path d="M315.28,113.94a.36.36,0,0,1-.45.09.37.37,0,0,1-.09-.54.36.36,0,0,1,.54,0A.35.35,0,0,1,315.28,113.94Zm0,0a.23.23,0,1,0-.37,0A.24.24,0,0,0,315.28,113.94Z" style="fill: rgb(2, 1, 0); transform-origin: 315.011px 113.721px;" id="elej4s8oq4g" class="animable"></path><path d="M317.71,116a.35.35,0,1,1-.53-.45.36.36,0,0,1,.54,0A.35.35,0,0,1,317.71,116Zm0,0a.24.24,0,0,0-.07-.36.23.23,0,0,0-.27.07.22.22,0,0,0,0,.28A.23.23,0,0,0,317.71,116Z" style="fill: rgb(2, 1, 0); transform-origin: 317.433px 115.792px;" id="el4iwcttltxj9" class="animable"></path><path d="M320.15,118a.36.36,0,0,1-.45.09.37.37,0,0,1-.09-.54.36.36,0,0,1,.54,0A.35.35,0,0,1,320.15,118Zm0,0a.23.23,0,0,0-.08-.35.23.23,0,0,0-.27.06.24.24,0,0,0,0,.28A.24.24,0,0,0,320.15,118Z" style="fill: rgb(2, 1, 0); transform-origin: 319.881px 117.781px;" id="eldq9w4j3k50u" class="animable"></path><path d="M322.58,120.08a.35.35,0,1,1-.53-.45.36.36,0,0,1,.54,0A.35.35,0,0,1,322.58,120.08Zm0,0a.24.24,0,0,0-.07-.36.23.23,0,0,0-.27.07.22.22,0,0,0,0,.28A.23.23,0,0,0,322.58,120.08Z" style="fill: rgb(2, 1, 0); transform-origin: 322.303px 119.872px;" id="els2f0nroa5z" class="animable"></path><path d="M325,122.12a.36.36,0,0,1-.45.09.37.37,0,0,1-.09-.54.36.36,0,0,1,.54,0A.35.35,0,0,1,325,122.12Zm0,0a.23.23,0,0,0-.08-.35.24.24,0,0,0-.29.34A.24.24,0,0,0,325,122.12Z" style="fill: rgb(2, 1, 0); transform-origin: 324.731px 121.901px;" id="elw2opw1c7nan" class="animable"></path><path d="M312.72,107.09a.34.34,0,0,1-.44.08.36.36,0,0,1-.09-.53.36.36,0,0,1,.54,0A.34.34,0,0,1,312.72,107.09Zm0,0a.24.24,0,0,0-.07-.36.23.23,0,0,0-.27.07.22.22,0,0,0,0,.28A.23.23,0,0,0,312.72,107.09Z" style="fill: rgb(2, 1, 0); transform-origin: 312.461px 106.868px;" id="eld3flemfhr3b" class="animable"></path><path d="M315.16,109.14a.34.34,0,0,1-.44.08.36.36,0,0,1-.1-.53.35.35,0,1,1,.54.45Zm0,0a.23.23,0,0,0-.08-.36.2.2,0,0,0-.26.07.21.21,0,0,0,0,.27A.23.23,0,0,0,315.16,109.14Z" style="fill: rgb(2, 1, 0); transform-origin: 314.893px 108.915px;" id="elj2znuc543rg" class="animable"></path><path d="M310.29,105.05a.36.36,0,0,1-.45.08.36.36,0,1,1,.45-.08Zm0,0a.23.23,0,0,0-.08-.36.2.2,0,0,0-.26.07.22.22,0,0,0,0,.27A.24.24,0,0,0,310.29,105.05Z" style="fill: rgb(2, 1, 0); transform-origin: 310.016px 104.816px;" id="el318d8a5imqh" class="animable"></path><path d="M317.59,111.18a.34.34,0,0,1-.44.08.36.36,0,0,1-.09-.53.36.36,0,0,1,.54,0A.34.34,0,0,1,317.59,111.18Zm0,0a.23.23,0,0,0-.07-.35.22.22,0,0,0-.27.06.23.23,0,0,0,0,.28A.23.23,0,0,0,317.59,111.18Z" style="fill: rgb(2, 1, 0); transform-origin: 317.331px 110.958px;" id="el5cusfxwwkyp" class="animable"></path><path d="M320,113.23a.35.35,0,1,1-.53-.45.36.36,0,0,1,.54,0A.37.37,0,0,1,320,113.23Zm0,0a.23.23,0,0,0-.08-.36.2.2,0,0,0-.26.07.21.21,0,0,0,0,.27A.23.23,0,0,0,320,113.23Z" style="fill: rgb(2, 1, 0); transform-origin: 319.72px 113.022px;" id="eljwwua28l8fc" class="animable"></path><path d="M322.47,115.27a.35.35,0,1,1,0-.45A.35.35,0,0,1,322.47,115.27Zm0,0a.23.23,0,1,0-.37,0A.24.24,0,0,0,322.47,115.27Z" style="fill: rgb(2, 1, 0); transform-origin: 322.202px 115.045px;" id="elwlfeoxnzc8m" class="animable"></path><path d="M324.9,117.32a.35.35,0,1,1-.53-.45.35.35,0,1,1,.53.45Zm0,0a.24.24,0,0,0-.07-.36.23.23,0,0,0-.27.07.21.21,0,0,0,0,.27A.22.22,0,0,0,324.9,117.32Z" style="fill: rgb(2, 1, 0); transform-origin: 324.635px 117.095px;" id="eltf1ez2n6rs" class="animable"></path><path d="M327.34,119.36a.36.36,0,0,1-.45.09.37.37,0,0,1-.09-.54.36.36,0,0,1,.54,0A.35.35,0,0,1,327.34,119.36Zm0,0a.23.23,0,0,0-.08-.35.23.23,0,0,0-.27.06.24.24,0,0,0,0,.28A.24.24,0,0,0,327.34,119.36Z" style="fill: rgb(2, 1, 0); transform-origin: 327.071px 119.141px;" id="eljq813kezqmp" class="animable"></path><path d="M301,121.07a.35.35,0,1,1-.53-.45.36.36,0,0,1,.54,0A.35.35,0,0,1,301,121.07Zm0,0a.22.22,0,1,0-.34-.29.22.22,0,0,0,0,.28A.23.23,0,0,0,301,121.07Z" style="fill: rgb(2, 1, 0); transform-origin: 300.723px 120.862px;" id="elaapi39popdl" class="animable"></path><path d="M303.42,123.12a.36.36,0,0,1-.45.08.36.36,0,0,1-.09-.53.36.36,0,0,1,.54,0A.35.35,0,0,1,303.42,123.12Zm0,0a.24.24,0,0,0-.08-.36.24.24,0,0,0-.27.07.22.22,0,0,0,0,.27A.23.23,0,0,0,303.42,123.12Z" style="fill: rgb(2, 1, 0); transform-origin: 303.152px 122.897px;" id="ele4v2jnsx0t6" class="animable"></path><path d="M298.55,119a.36.36,0,0,1-.45.08.36.36,0,1,1,.45-.08Zm0,0a.24.24,0,0,0-.08-.36.24.24,0,0,0-.27.07.22.22,0,0,0,0,.27A.23.23,0,0,0,298.55,119Z" style="fill: rgb(2, 1, 0); transform-origin: 298.276px 118.766px;" id="elcrj0srjz3or" class="animable"></path><path d="M305.85,125.16a.34.34,0,0,1-.44.09.36.36,0,0,1-.09-.54.36.36,0,0,1,.54,0A.33.33,0,0,1,305.85,125.16Zm0,0a.23.23,0,0,0-.07-.35.23.23,0,0,0-.27.06.22.22,0,0,0,0,.28A.23.23,0,0,0,305.85,125.16Z" style="fill: rgb(2, 1, 0); transform-origin: 305.59px 124.941px;" id="elry72s386l8j" class="animable"></path><path d="M308.29,127.21a.36.36,0,0,1-.45.08.36.36,0,0,1-.09-.53.36.36,0,0,1,.54,0A.35.35,0,0,1,308.29,127.21Zm0,0a.24.24,0,0,0-.08-.36.24.24,0,0,0-.27.07.25.25,0,0,0,0,.28A.24.24,0,0,0,308.29,127.21Z" style="fill: rgb(2, 1, 0); transform-origin: 308.021px 126.987px;" id="elemyd1zd2u66" class="animable"></path><path d="M310.72,129.25a.34.34,0,0,1-.44.09.37.37,0,0,1-.09-.54.36.36,0,0,1,.54,0A.33.33,0,0,1,310.72,129.25Zm0,0a.23.23,0,0,0-.07-.35.23.23,0,0,0-.27.06.22.22,0,0,0,0,.28A.23.23,0,0,0,310.72,129.25Z" style="fill: rgb(2, 1, 0); transform-origin: 310.462px 129.032px;" id="elfhwyo6ou4f8" class="animable"></path><path d="M313.16,131.3a.34.34,0,0,1-.44.08.35.35,0,1,1,.44-.53A.35.35,0,0,1,313.16,131.3Zm0,0a.23.23,0,0,0-.08-.36.22.22,0,0,0-.26.07.22.22,0,0,0,0,.28A.23.23,0,0,0,313.16,131.3Z" style="fill: rgb(2, 1, 0); transform-origin: 312.892px 131.077px;" id="el7465oz19wul" class="animable"></path><path d="M315.59,133.34a.34.34,0,0,1-.44.09.37.37,0,0,1-.09-.54.36.36,0,0,1,.54,0A.33.33,0,0,1,315.59,133.34Zm0,0a.23.23,0,0,0-.07-.35.24.24,0,0,0-.29.34A.23.23,0,0,0,315.59,133.34Z" style="fill: rgb(2, 1, 0); transform-origin: 315.332px 133.121px;" id="ellvha8jyxths" class="animable"></path><path d="M291.56,132.29a.34.34,0,0,1-.44.08.35.35,0,1,1,.44-.53A.35.35,0,0,1,291.56,132.29Zm0,0a.22.22,0,0,0-.08-.35.21.21,0,0,0-.26.06.22.22,0,0,0,0,.28A.23.23,0,0,0,291.56,132.29Z" style="fill: rgb(2, 1, 0); transform-origin: 291.292px 132.067px;" id="elmzir0oeq72h" class="animable"></path><path d="M294,134.34a.34.34,0,0,1-.44.08.36.36,0,0,1-.09-.53.36.36,0,0,1,.54,0A.34.34,0,0,1,294,134.34Zm0,0a.22.22,0,1,0-.34-.29.22.22,0,0,0,0,.27A.22.22,0,0,0,294,134.34Z" style="fill: rgb(2, 1, 0); transform-origin: 293.741px 134.118px;" id="eladlnzqranp" class="animable"></path><path d="M289.12,130.25a.34.34,0,0,1-.44.08.36.36,0,1,1,.45-.54A.35.35,0,0,1,289.12,130.25Zm0,0a.24.24,0,0,0-.07-.36.22.22,0,0,0-.27.07.21.21,0,0,0,0,.27A.23.23,0,0,0,289.12,130.25Z" style="fill: rgb(2, 1, 0); transform-origin: 288.848px 130.014px;" id="el5f29oslov4" class="animable"></path><path d="M296.43,136.38a.35.35,0,0,1-.44.09.36.36,0,1,1,.44-.09Zm0,0a.22.22,0,0,0-.08-.35.21.21,0,0,0-.26.06.22.22,0,0,0,0,.28A.23.23,0,0,0,296.43,136.38Z" style="fill: rgb(2, 1, 0); transform-origin: 296.154px 136.151px;" id="elkxqvrpf74b" class="animable"></path><path d="M298.87,138.43a.36.36,0,0,1-.45.08.36.36,0,0,1-.09-.53.36.36,0,0,1,.54,0A.35.35,0,0,1,298.87,138.43Zm0,0a.25.25,0,0,0-.08-.36.24.24,0,0,0-.29.35A.24.24,0,0,0,298.87,138.43Z" style="fill: rgb(2, 1, 0); transform-origin: 298.601px 138.207px;" id="elqr704z9clk" class="animable"></path><path d="M301.3,140.47a.35.35,0,0,1-.44.09.36.36,0,1,1,.45-.54A.35.35,0,0,1,301.3,140.47Zm0,0a.22.22,0,1,0-.34-.29.22.22,0,0,0,0,.28A.23.23,0,0,0,301.3,140.47Z" style="fill: rgb(2, 1, 0); transform-origin: 301.026px 140.241px;" id="elxldxjr1yfmk" class="animable"></path><path d="M303.74,142.52a.36.36,0,0,1-.45.08.36.36,0,0,1-.09-.53.36.36,0,0,1,.54,0A.35.35,0,0,1,303.74,142.52Zm0,0a.24.24,0,0,0-.08-.36.24.24,0,0,0-.29.35A.24.24,0,0,0,303.74,142.52Z" style="fill: rgb(2, 1, 0); transform-origin: 303.471px 142.297px;" id="el1pkxaceora2" class="animable"></path><path d="M306.17,144.56a.35.35,0,0,1-.44.09.36.36,0,1,1,.45-.54A.35.35,0,0,1,306.17,144.56Zm0,0a.23.23,0,0,0-.07-.35.21.21,0,0,0-.27.07.21.21,0,0,0,0,.27A.23.23,0,0,0,306.17,144.56Z" style="fill: rgb(2, 1, 0); transform-origin: 305.896px 144.331px;" id="eluknrigiiowh" class="animable"></path><path d="M282.14,143.51a.35.35,0,1,1,0-.45A.35.35,0,0,1,282.14,143.51Zm0,0a.23.23,0,0,0-.08-.35.22.22,0,0,0-.27.06.23.23,0,0,0,0,.28A.24.24,0,0,0,282.14,143.51Z" style="fill: rgb(2, 1, 0); transform-origin: 281.872px 143.285px;" id="eleutrx3pndzq" class="animable"></path><path d="M284.57,145.56a.35.35,0,1,1-.53-.45.36.36,0,0,1,.54,0A.35.35,0,0,1,284.57,145.56Zm0,0a.24.24,0,0,0-.07-.36.23.23,0,0,0-.27.07.21.21,0,0,0,0,.27A.22.22,0,0,0,284.57,145.56Z" style="fill: rgb(2, 1, 0); transform-origin: 284.293px 145.352px;" id="elpv0eagxobgs" class="animable"></path><path d="M279.7,141.47a.35.35,0,1,1-.53-.45.36.36,0,0,1,.54,0A.36.36,0,0,1,279.7,141.47Zm0,0a.24.24,0,0,0-.07-.36.21.21,0,0,0-.27.07.21.21,0,0,0,0,.27A.23.23,0,0,0,279.7,141.47Z" style="fill: rgb(2, 1, 0); transform-origin: 279.421px 141.262px;" id="elre6y62lgvt" class="animable"></path><path d="M287,147.6a.34.34,0,0,1-.45.08.35.35,0,1,1,.45-.53A.35.35,0,0,1,287,147.6Zm0,0a.23.23,0,0,0-.08-.35.23.23,0,0,0-.27.06.24.24,0,0,0,0,.28A.24.24,0,0,0,287,147.6Z" style="fill: rgb(2, 1, 0); transform-origin: 286.738px 147.385px;" id="elkqc0x15sccq" class="animable"></path><path d="M289.44,149.65a.34.34,0,0,1-.44.08.35.35,0,1,1,.45-.53A.34.34,0,0,1,289.44,149.65Zm0,0a.24.24,0,0,0-.07-.36.23.23,0,0,0-.27.07.21.21,0,0,0,0,.27A.22.22,0,0,0,289.44,149.65Z" style="fill: rgb(2, 1, 0); transform-origin: 289.187px 149.433px;" id="eluxjkemid9jo" class="animable"></path><path d="M291.88,151.69a.36.36,0,0,1-.45.09.37.37,0,0,1-.09-.54.36.36,0,0,1,.54,0A.35.35,0,0,1,291.88,151.69Zm0,0a.22.22,0,0,0-.08-.35.23.23,0,0,0-.27.06.25.25,0,0,0,0,.28A.24.24,0,0,0,291.88,151.69Z" style="fill: rgb(2, 1, 0); transform-origin: 291.611px 151.471px;" id="el0lzqt2ocvkqs" class="animable"></path><path d="M294.31,153.74a.34.34,0,0,1-.44.08.36.36,0,0,1-.09-.53.36.36,0,0,1,.54,0A.34.34,0,0,1,294.31,153.74Zm0,0a.24.24,0,0,0-.07-.36.23.23,0,0,0-.27.07.22.22,0,0,0,0,.28A.23.23,0,0,0,294.31,153.74Z" style="fill: rgb(2, 1, 0); transform-origin: 294.051px 153.518px;" id="ellb5nty6uuhp" class="animable"></path><path d="M296.75,155.78a.35.35,0,0,1-.44.09.37.37,0,0,1-.1-.54.36.36,0,0,1,.54,0A.35.35,0,0,1,296.75,155.78Zm0,0a.22.22,0,0,0-.08-.35.2.2,0,0,0-.26.07.21.21,0,0,0,0,.27A.23.23,0,0,0,296.75,155.78Z" style="fill: rgb(2, 1, 0); transform-origin: 296.483px 155.56px;" id="el3tqf8inlfds" class="animable"></path><path d="M272.71,154.73a.34.34,0,0,1-.44.08.35.35,0,1,1,.45-.53A.34.34,0,0,1,272.71,154.73Zm0,0a.23.23,0,0,0-.07-.35.22.22,0,0,0-.27.06.23.23,0,0,0,0,.28A.23.23,0,0,0,272.71,154.73Z" style="fill: rgb(2, 1, 0); transform-origin: 272.457px 154.513px;" id="elw82ozvwswj9" class="animable"></path><path d="M275.15,156.78a.34.34,0,0,1-.44.08.35.35,0,1,1,.44-.53A.35.35,0,0,1,275.15,156.78Zm0,0a.23.23,0,0,0-.08-.36.22.22,0,0,0-.26.07.21.21,0,0,0,0,.27A.22.22,0,0,0,275.15,156.78Z" style="fill: rgb(2, 1, 0); transform-origin: 274.882px 156.557px;" id="ely40una97f9" class="animable"></path><path d="M270.28,152.69a.36.36,0,0,1-.45.08.36.36,0,1,1,.45-.08Zm0,0a.23.23,0,0,0-.08-.36.2.2,0,0,0-.26.07.22.22,0,0,0,0,.27A.24.24,0,0,0,270.28,152.69Z" style="fill: rgb(2, 1, 0); transform-origin: 270.006px 152.456px;" id="eln0nn7mlko9" class="animable"></path><path d="M277.58,158.82a.33.33,0,0,1-.44.08.35.35,0,1,1,.45-.53A.33.33,0,0,1,277.58,158.82Zm0,0a.23.23,0,0,0-.07-.35.23.23,0,0,0-.27.06.24.24,0,0,0,0,.28A.23.23,0,0,0,277.58,158.82Z" style="fill: rgb(2, 1, 0); transform-origin: 277.329px 158.605px;" id="elygqjy6qzi9k" class="animable"></path><path d="M280,160.87a.35.35,0,1,1-.53-.45.35.35,0,1,1,.53.45Zm0,0a.23.23,0,0,0-.08-.36.22.22,0,0,0-.26.07.21.21,0,0,0,0,.27A.22.22,0,0,0,280,160.87Z" style="fill: rgb(2, 1, 0); transform-origin: 279.735px 160.645px;" id="eldiy1tphp1ao" class="animable"></path><path d="M282.46,162.91a.36.36,0,0,1-.45.09.37.37,0,0,1-.09-.54.36.36,0,0,1,.54,0A.35.35,0,0,1,282.46,162.91Zm0,0a.23.23,0,1,0-.37,0A.24.24,0,0,0,282.46,162.91Z" style="fill: rgb(2, 1, 0); transform-origin: 282.191px 162.691px;" id="eltnnhh27vvz9" class="animable"></path><path d="M284.89,165a.35.35,0,1,1-.53-.45.36.36,0,0,1,.54,0A.35.35,0,0,1,284.89,165Zm0,0a.24.24,0,0,0-.07-.36.23.23,0,0,0-.27.07.22.22,0,0,0,0,.28A.23.23,0,0,0,284.89,165Z" style="fill: rgb(2, 1, 0); transform-origin: 284.613px 164.792px;" id="el2cgpzodabfb" class="animable"></path><path d="M287.33,167a.36.36,0,0,1-.45.09.37.37,0,0,1-.09-.54.36.36,0,0,1,.54,0A.35.35,0,0,1,287.33,167Zm0,0a.23.23,0,0,0-.08-.35.23.23,0,0,0-.27.06.24.24,0,0,0,0,.28A.24.24,0,0,0,287.33,167Z" style="fill: rgb(2, 1, 0); transform-origin: 287.061px 166.781px;" id="el4c19uqdtcim" class="animable"></path><path d="M331.63,96.49c-7.75,1.53-15.25,5.76-19.71,12.48l-15.41,18.41-31,36.67,30.77-36.84,15.47-18.35c1.3-1.52,2.55-3.07,3.9-4.56a22,22,0,0,1,4.79-3.62,41.37,41.37,0,0,1,5.41-2.6c.93-.36,1.87-.71,2.82-1,.48-.15,1-.29,1.45-.41A4.1,4.1,0,0,1,331.63,96.49Z" style="fill: rgb(2, 1, 0); transform-origin: 298.57px 130.265px;" id="elq2iazjvdp5" class="animable"></path><path d="M331.6,96.46a4.13,4.13,0,0,1,.08,1.49c0,.5-.09,1-.16,1.49-.12,1-.3,2-.5,3a40.34,40.34,0,0,1-1.62,5.78,23,23,0,0,1-2.73,5.34c-1.24,1.58-2.56,3.08-3.83,4.62l-15.4,18.41-31,36.68,30.78-36.84L322.71,118C328.57,112.48,331.43,104.37,331.6,96.46Z" style="fill: rgb(2, 1, 0); transform-origin: 304.077px 134.865px;" id="elkmc3j9kgxu" class="animable"></path></g></g><g id="elnz6gfnfdb4s"><rect x="262.49" y="168.19" width="14.54" height="3.94" style="fill: rgb(38, 50, 56); transform-origin: 269.76px 170.16px; transform: rotate(40.02deg);" class="animable" id="eloccdvccyggi"></rect></g><g id="el2d6v5obv1nn"><rect x="261.54" y="171.44" width="12.65" height="1.97" style="fill: rgb(55, 71, 79); transform-origin: 267.865px 172.425px; transform: rotate(40.02deg);" class="animable" id="elp35d57mshb"></rect></g><g id="eligise837ogk"><rect x="261.42" y="173" width="10.63" height="1.54" style="fill: rgb(38, 50, 56); transform-origin: 266.735px 173.77px; transform: rotate(40.02deg);" class="animable" id="elakvs7o8gk"></rect></g><g id="el854ytkdw3tf"><rect x="253.77" y="177.87" width="17.6" height="1.72" style="fill: rgb(38, 50, 56); transform-origin: 262.57px 178.73px; transform: rotate(40.02deg);" class="animable" id="elflx8apeha9n"></rect></g><path d="M269.17,183.15,257.08,173a8.85,8.85,0,0,1,12.09,10.16Z" style="fill: rgb(55, 71, 79); transform-origin: 263.242px 177.725px;" id="el8i5o48hl7pk" class="animable"></path><path d="M203.2,302.62l-28.84,15.79c-7.62.48-14.3,1-17.73,1.66h0a5.29,5.29,0,0,0-2.32.72l0,0c-1.39,2.37.74,63.42,1.53,65.53s6.85,0,8.66-2.42,11.44-26.19,11.44-26.19l28.77-16.15Z" style="fill: rgb(235, 148, 129); transform-origin: 179.28px 344.903px;" id="elnq85400nibr" class="animable"></path><path d="M183.67,353.37l-7.83,4.39S166.21,381.49,164.4,384s-7.88,4.53-8.66,2.42-2.92-63.16-1.53-65.53a.1.1,0,0,1,0,0,5.44,5.44,0,0,1,2.32-.72h0c3.43-.62,10.11-1.18,17.74-1.66,0,0,1.8-1,4.52-2.46Z" style="fill: rgb(235, 235, 235); transform-origin: 168.711px 351.676px;" id="elexbim4xwqt" class="animable"></path><path d="M155.74,386.37c-.8-2.11-2.92-63.15-1.52-65.53.51-.91,9.39-1.74,20.14-2.43l.34,0,1.81,39.37h-.67S166.2,381.5,164.39,384,156.52,388.48,155.74,386.37Z" style="fill: #407BFF; transform-origin: 165.132px 352.836px;" id="elr2wy9gv8or" class="animable"></path><g id="elfnlnzjp0gtu"><path d="M155.74,386.37c-.8-2.11-2.92-63.15-1.52-65.53.51-.91,9.39-1.74,20.14-2.43l.34,0,1.81,39.37h-.67S166.2,381.5,164.39,384,156.52,388.48,155.74,386.37Z" style="opacity: 0.4; transform-origin: 165.132px 352.836px;" class="animable" id="el0j0p13vhg29l"></path></g><path d="M158.08,385.59c-.11-10.29-1.5-51.83-2.39-62,0-.08-.06-.08-.07,0-.11,10.22,1.62,51.73,2.29,62C157.93,385.82,158.08,385.81,158.08,385.59Z" style="fill: rgb(38, 50, 56); transform-origin: 156.847px 354.644px;" id="elgfdyf3fbqs6" class="animable"></path><path d="M175.84,361.08c.61-4.08-.18-9-3.17-12-.12-.12-.28.05-.24.18a57,57,0,0,1,2.9,11.82A.26.26,0,0,0,175.84,361.08Z" style="fill: rgb(38, 50, 56); transform-origin: 174.228px 355.164px;" id="elgv8tifj6uo" class="animable"></path><path d="M174.18,364.06c.61-4.07-.18-9-3.17-12-.12-.11-.28.05-.24.18a57.28,57.28,0,0,1,2.9,11.83A.26.26,0,0,0,174.18,364.06Z" style="fill: rgb(38, 50, 56); transform-origin: 172.568px 358.149px;" id="elwkw8169d4q" class="animable"></path><path d="M172.52,367.05c.61-4.08-.18-9-3.17-12-.12-.12-.28.05-.24.18a57,57,0,0,1,2.9,11.82A.26.26,0,0,0,172.52,367.05Z" style="fill: rgb(38, 50, 56); transform-origin: 170.908px 361.134px;" id="elqkpzpajwxln" class="animable"></path><path d="M172.87,313.5,189,353.06s85.31-35.65,103.43-53.82c16-16.06,49-110.4,49-110.4l-31.89-16.9S275.89,245.07,261.39,271C256.8,279.22,172.87,313.5,172.87,313.5Z" style="fill: rgb(55, 71, 79); transform-origin: 257.15px 262.5px;" id="el3q4ahvtfr0s" class="animable"></path><path d="M335.13,185.52,268,258.63c16-31.21,41.08-85.7,41.53-86.68h0Z" style="fill: rgb(38, 50, 56); transform-origin: 301.565px 215.29px;" id="ele3ploroyiqh" class="animable"></path><path d="M313.64,178.76l-9.55,22.93-9.72,22.86c-6.53,15.22-23.8,50-26.65,53.32-3.72,4.26-71.33,33.37-78.77,36.51-.44.19-.29-.27-.29-.27s76-33.54,78.29-37c2.76-4.21,20.09-37.69,26.76-52.84Z" style="fill: rgb(38, 50, 56); transform-origin: 251.138px 246.593px;" id="elncox8dkgvjp" class="animable"></path><path d="M195.61,347.42c-2.15-6.09-1.45-4.37-3.67-10.44-1.09-3-8.28-22.49-9.8-25.07,0-.06-.13,0-.12,0,.57,2.95,8.1,22.33,9.25,25.28,2.35,6,1.74,4.27,4.16,10.26A.1.1,0,0,0,195.61,347.42Z" style="fill: rgb(38, 50, 56); transform-origin: 188.815px 329.689px;" id="el53d9m502qo9" class="animable"></path><path d="M176.48,275.19S147.67,291,147.64,291c-7.62.49-14.3,1-17.73,1.67h0a5.34,5.34,0,0,0-2.32.71s0,0-.05.05c-1.39,2.37.74,63.42,1.53,65.52s6.85,0,8.66-2.42,11.44-26.18,11.44-26.18l28.77-16.16Z" style="fill: rgb(235, 148, 129); transform-origin: 152.51px 317.501px;" id="elc6o7dw55cot" class="animable"></path><path d="M157,325.93l-7.83,4.4s-9.63,23.73-11.44,26.18S129.8,361,129,358.93s-2.92-63.16-1.53-65.52a.12.12,0,0,1,.05-.05,5.59,5.59,0,0,1,2.32-.72h0c3.43-.61,10.11-1.17,17.74-1.66,0,0,1.8-1,4.52-2.46Z" style="fill: rgb(235, 235, 235); transform-origin: 142.004px 324.152px;" id="elriwcyomdj3" class="animable"></path><path d="M129,358.93c-.8-2.11-2.92-63.15-1.52-65.52.51-.92,9.39-1.74,20.14-2.44l.34,0,1.81,39.37h-.67s-9.64,23.73-11.45,26.18S129.8,361,129,358.93Z" style="fill: #407BFF; transform-origin: 138.392px 325.378px;" id="elkif66b69msr" class="animable"></path><g id="el7hujix9g8lk"><path d="M129,358.93c-.8-2.11-2.92-63.15-1.52-65.52.51-.92,9.39-1.74,20.14-2.44l.34,0,1.81,39.37h-.67s-9.64,23.73-11.45,26.18S129.8,361,129,358.93Z" style="opacity: 0.4; transform-origin: 138.392px 325.378px;" class="animable" id="elmqm85mbj7aq"></path></g><path d="M131.36,358.16c-.11-10.3-1.5-51.83-2.39-62,0-.09-.06-.08-.07,0-.11,10.21,1.62,51.73,2.29,62C131.21,358.38,131.36,358.38,131.36,358.16Z" style="fill: rgb(38, 50, 56); transform-origin: 130.127px 327.211px;" id="elem61o0wpxmf" class="animable"></path><path d="M149.12,333.64c.61-4.07-.18-9-3.17-12-.12-.11-.28.05-.24.18a57.28,57.28,0,0,1,2.9,11.83A.26.26,0,0,0,149.12,333.64Z" style="fill: rgb(38, 50, 56); transform-origin: 147.508px 327.729px;" id="eltcrrewlvlhd" class="animable"></path><path d="M147.46,336.63c.61-4.08-.18-9-3.17-12-.12-.12-.28.05-.24.18a57,57,0,0,1,2.9,11.82A.26.26,0,0,0,147.46,336.63Z" style="fill: rgb(38, 50, 56); transform-origin: 145.848px 330.714px;" id="els8v9oo6x3y" class="animable"></path><path d="M145.8,339.61c.61-4.07-.18-9-3.17-12-.12-.11-.28.05-.24.18a57.19,57.19,0,0,1,2.9,11.82A.26.26,0,0,0,145.8,339.61Z" style="fill: rgb(38, 50, 56); transform-origin: 144.188px 333.696px;" id="el4bzet6zlkyy" class="animable"></path><path d="M338.14,187.09l0,0c-.49.59-8.2,9.75-15.22,17.41-5.12,5.6-9.88,10.39-11.18,10.46-1.48.07-8.24-.41-10.48-.62,0,0-35.27,48.14-50.1,62.62-15,14.69-86.88,51.57-86.88,51.57l-16.34-40s62.3-33.91,69.79-40.91c11.62-10.84,54.65-58.07,54.65-58.07S283,169.2,294.51,164Z" style="fill: rgb(55, 71, 79); transform-origin: 243.04px 246.265px;" id="elwrhbxi41f8o" class="animable"></path><path d="M171.31,323.26c-2.36-6.24-1.6-4.48-4-10.69-1.2-3-9.05-23-10.66-25.65a.07.07,0,0,0-.13.05c.68,3,8.88,22.85,10.13,25.86,2.55,6.17,1.89,4.37,4.51,10.5A.1.1,0,1,0,171.31,323.26Z" style="fill: rgb(38, 50, 56); transform-origin: 163.938px 305.164px;" id="el2d4stlln8jr" class="animable"></path><path d="M284.59,188.81c1.12.27,2.22.75,3.31,1.12.88.31,1.76.59,2.66.84a12.09,12.09,0,0,0,5.24.47,11.7,11.7,0,0,0,5.06-2.84c.89-.73,1.8-1.45,2.71-2.15l1.33-1a14.92,14.92,0,0,0,1.62-1.22c.07-.06.18.05.11.11a11.1,11.1,0,0,0-1,1l-1.13,1.15c-.68.67-1.35,1.35-2,2a22.07,22.07,0,0,1-4,3.33c-2.75,1.58-5.91,1.13-8.75,0-.81-.3-1.61-.66-2.4-1a18.71,18.71,0,0,1-2.91-1.52A.15.15,0,0,1,284.59,188.81Z" style="fill: rgb(38, 50, 56); transform-origin: 295.502px 188.328px;" id="elpmolruy73yq" class="animable"></path><path d="M315.4,215.07a79.73,79.73,0,0,0-14.07-.72.14.14,0,1,0,0,.28c4.67.39,9.37.88,14.06,1A.28.28,0,0,0,315.4,215.07Z" style="fill: rgb(38, 50, 56); transform-origin: 308.432px 214.962px;" id="eldznzs0m34op" class="animable"></path><path d="M330.35,189.63c.06-.14-.16-.29-.23-.15a142.73,142.73,0,0,1-7.37,12.37c-1.22,1.87-8.53,11.86-11.51,9.27-.5-.44-.49-1.15-.12-2.05a15,15,0,0,1,2.21-3.08c1.57-2.07,3.08-4.18,4.49-6.37a70.1,70.1,0,0,0,6.65-12.88.13.13,0,0,0-.23-.1,133.39,133.39,0,0,1-10.4,17.13c-1.92,2.59-5.58,6.07-2.87,8.07s8.47-4,9.87-5.79A73.66,73.66,0,0,0,330.35,189.63Z" style="fill: rgb(38, 50, 56); transform-origin: 320.183px 199.417px;" id="elxqt2rj7gmyj" class="animable"></path><path d="M311.18,211.46a19.93,19.93,0,0,0-1.95,1.84,5.67,5.67,0,0,0-1.3,1.67c-.05.13.1.22.21.18a7.45,7.45,0,0,0,1.74-1.38c.63-.56,1.27-1.1,1.87-1.68A.42.42,0,0,0,311.18,211.46Z" style="fill: rgb(38, 50, 56); transform-origin: 309.905px 213.255px;" id="el0sdzsxlpt58g" class="animable"></path><path d="M163.32,289.23c10.24-6.93,53.43-32,57.68-36.28q12.94-12.94,25.48-26.3t24.6-27.13c2-2.29,4.09-4.55,6-6.93a27.44,27.44,0,0,0,4.28-8.09,29.09,29.09,0,0,1,3.93-7.56,55.66,55.66,0,0,1,5.66-6.42c1.07-1.06,2.16-2.09,3.26-3.11.13-.12.31.06.19.18-4.24,4.26-8.56,8.56-11.07,14.11-1.21,2.68-1.88,5.58-3.3,8.16a41.74,41.74,0,0,1-5.36,6.94q-12.06,13.89-24.6,27.36c-8.35,9-19.25,20.49-27.89,29.2-4.2,4.23-57.45,35.19-58.78,36C163.31,289.42,163.24,289.29,163.32,289.23Z" style="fill: rgb(38, 50, 56); transform-origin: 228.862px 228.373px;" id="eljdiuv97q8y8" class="animable"></path><path d="M176.47,322.35l18-10.13c6-3.38,12-6.74,17.95-10.2s11.9-6.91,17.78-10.46l4.4-2.69,4.34-2.79c1.45-.92,2.86-1.91,4.29-2.86s2.78-2,4.18-3a149.58,149.58,0,0,1-16.8,12c-5.82,3.7-11.74,7.21-17.7,10.68s-12,6.76-18.07,10S182.66,319.32,176.47,322.35Z" style="fill: rgb(38, 50, 56); transform-origin: 211.94px 301.285px;" id="elpsenxbm098k" class="animable"></path><path d="M285.21,169.26c.09.2,54.84,28.18,54.84,28.18,1-.67,14-49.42,12.39-69.52-.67-8.35-8.6-17.22-15.45-14.52C313.37,122.71,284.86,168.55,285.21,169.26Z" style="fill: #407BFF; transform-origin: 318.892px 155.173px;" id="elmrif101ujtp" class="animable"></path><polygon points="352.17 187.54 288.71 161.66 291.56 156.43 354.4 182.06 352.17 187.54" style="fill: rgb(235, 235, 235); transform-origin: 321.555px 171.985px;" id="el8msuxwpet66" class="animable"></polygon><g id="elntrqvbgxyo"><rect x="343.91" y="166.51" width="24.87" height="5.91" style="fill: rgb(235, 235, 235); transform-origin: 356.345px 169.465px; transform: rotate(-67.81deg);" class="animable" id="eluhqk38x23fo"></rect></g><g id="eluhntqrlgv08"><rect x="348.54" y="154.12" width="24.87" height="8.02" style="fill: rgb(69, 90, 100); transform-origin: 360.975px 158.13px; transform: rotate(-67.81deg);" class="animable" id="el4gdr45ek10i"></rect></g><path d="M327.5,118.18C315.71,126,293.59,144,293.87,154.61c.26,10.19,38.73,13.67,46.55,14.35,3.21.28,10.51-23.92,7.14-24.63-7.4-1.58-24.72-1.47-24.94-1.83s6.4-9.22,12.57-18.2C344.16,111.24,336,112.58,327.5,118.18Z" style="fill: rgb(235, 148, 129); transform-origin: 321.148px 141.544px;" id="elijn7pdd43s" class="animable"></path><path d="M373,149.77c.22,3-2.84,3.15-2.84,3.15a5.51,5.51,0,0,1,1.66,3.39c.14,2.28-3.37,3.5-3.37,3.5a6.76,6.76,0,0,1,1.18,3.85c-.08,2.2-3.45,3.94-3.45,3.94a6,6,0,0,1-1.09,4c-2.36,3-8.22,2.48-11.94,2.1-5.53-.56-14-4.8-16-5.45l2-23.92s17.08-3,21.46-2.2S372.74,146.86,373,149.77Z" style="fill: rgb(235, 148, 129); transform-origin: 355.081px 157.994px;" id="elbcu0tacqn0k" class="animable"></path><path d="M370,152.52c-3.66-1.85-7.65-2.51-11.61-3.4-.08,0-.11.12,0,.14,3.95.84,7.67,2.45,11.57,3.44C370,152.73,370.08,152.57,370,152.52Z" style="fill: rgb(38, 50, 56); transform-origin: 364.176px 150.912px;" id="ellz4phaispzc" class="animable"></path><path d="M368.36,159.49a10.43,10.43,0,0,0-2.71-.66c-1-.17-1.95-.33-2.93-.46-2-.28-3.92-.51-5.9-.68-.08,0-.12.13,0,.14,2,.28,3.91.58,5.85.94l2.9.56a12.37,12.37,0,0,0,2.76.42A.14.14,0,0,0,368.36,159.49Z" style="fill: rgb(38, 50, 56); transform-origin: 362.59px 158.72px;" id="el1szojsdyc8vk" class="animable"></path><path d="M366.06,167.58a7.62,7.62,0,0,0-2.47-.47c-.9-.1-1.79-.21-2.69-.33-1.78-.23-3.57-.46-5.35-.76a.07.07,0,0,0,0,.14c1.81.31,3.61.64,5.42.93.88.15,1.77.28,2.66.42a7,7,0,0,0,2.45.16A0,0,0,0,0,366.06,167.58Z" style="fill: rgb(38, 50, 56); transform-origin: 360.78px 166.867px;" id="el32prqnvfd7w" class="animable"></path><path d="M338.7,142.42l-3.23,27.93s-31.88-4.81-39.6-11.68,7.18-20.44,10.17-23.74c2.14-2.36,17.27-15.15,25.08-19.23s11-2.11,5.53,7-13.34,19.22-12.88,19.3S338.7,142.42,338.7,142.42Z" style="fill: #407BFF; transform-origin: 316.531px 142.013px;" id="elbfxssrvcsiu" class="animable"></path><path d="M323.93,141.64a28.45,28.45,0,0,0-5.25,1.8,49.25,49.25,0,0,0-4.76,2.4s0,.09.07.07c1.62-.76,3.36-1.37,5-2.06s3.48-1.23,5.09-2C324.22,141.82,324.05,141.62,323.93,141.64Z" style="fill: rgb(38, 50, 56); transform-origin: 319.026px 143.776px;" id="el4ws4333cl4u" class="animable"></path><path d="M311.68,129.86c-2.39,2.18-4.73,4.41-7,6.75a72.74,72.74,0,0,0-6.29,7.32,31.57,31.57,0,0,0-2.51,4.07,15.89,15.89,0,0,0-1.63,4.41,6.17,6.17,0,0,0,.7,4.37,9.5,9.5,0,0,0,3.37,3.1,40.23,40.23,0,0,0,8.87,3.56c3.08.93,6.21,1.72,9.34,2.51s6.28,1.54,9.44,2.25,6.3,1.43,9.47,2.1l-.07,0,.27-1.83-.16,1.84v.06h-.06c-3.2-.52-6.38-1.08-9.56-1.69s-6.35-1.28-9.51-2-6.3-1.52-9.42-2.43a39.06,39.06,0,0,1-9.12-3.59,10.41,10.41,0,0,1-3.66-3.45,6.28,6.28,0,0,1-.85-2.45,7.79,7.79,0,0,1,.08-2.55,16.59,16.59,0,0,1,1.75-4.65,27.91,27.91,0,0,1,2.67-4.12A87,87,0,0,1,311.68,129.86Z" style="fill: rgb(38, 50, 56); transform-origin: 314.435px 150.115px;" id="elpn7e8ac9pyk" class="animable"></path><path d="M333.33,127.91c-.7,1.13-1.43,2.24-2.15,3.36l-2.2,3.32c-1.46,2.23-3,4.41-4.41,6.64l-.26.41-.12.21-.05.09,0,0h0v-.06a.34.34,0,0,0-.07-.22l0,0-.08,0,0,0s0,0,0,0H324l.24,0,.48,0c.66,0,1.33.08,2,.1l4,.19,4,.2,4,.25h0v0l-.1.59,0-.6,0,0c-1.34,0-2.67.07-4,.08h-4c-1.33,0-2.66,0-4-.07l-2-.08-.51,0-.26,0-.14,0h-.07l-.07,0-.13-.07a.33.33,0,0,1-.06-.06.41.41,0,0,1-.08-.24s0-.08,0-.07v0l0,0s0-.05,0-.06l0-.07.07-.13.13-.23.27-.43c1.47-2.24,3-4.41,4.57-6.55l2.37-3.22C331.7,130,332.5,128.94,333.33,127.91Z" style="fill: rgb(38, 50, 56); transform-origin: 331.01px 135.45px;" id="eld8wl2ay2s1g" class="animable"></path><path d="M330.26,158.14c.39-3.2.8-6.4,1.07-9.62.15-1.83.31-3.66.44-5.49,0-.07-.11-.09-.12,0-.52,3.2-1,6.41-1.4,9.63s-.76,6.41-1.08,9.63q-.29,2.73-.39,5.49s.06,0,.07,0C329.47,164.58,329.87,161.37,330.26,158.14Z" style="fill: rgb(38, 50, 56); transform-origin: 330.275px 155.375px;" id="elh8za0o7mkjh" class="animable"></path><path d="M332.44,131.09a22.43,22.43,0,0,1-3.47,3.18,22.43,22.43,0,0,1,3.47-3.18Z" style="fill: rgb(38, 50, 56); transform-origin: 330.705px 132.68px;" id="elwhsxvzd0ih" class="animable"></path><path d="M346.08,126.61c-2.77.26-7.89-6.39-8.48-11.07,0-.32,5.22-10.45,6-12.56.17-.43,12,8.45,12,8.45a36.31,36.31,0,0,0-4.48,7.61,5.55,5.55,0,0,0-.25.9l0,.15C350.49,121.85,349.15,126.33,346.08,126.61Z" style="fill: rgb(235, 148, 129); transform-origin: 346.6px 114.791px;" id="el570eay4c8l4" class="animable"></path><path d="M355.64,111.42a36.83,36.83,0,0,0-4.31,7.22c-3.86-1.14-10.07-7.69-7.51-15.62C345.23,103.6,355.64,111.42,355.64,111.42Z" style="fill: rgb(38, 50, 56); transform-origin: 349.43px 110.83px;" id="elt3xwezczyu" class="animable"></path><path d="M340.46,88.27c-1.21,5.18,2.45,19.69,6.28,22.72,5.56,4.4,14.17,4.28,17.79-2.28,3.5-6.37-1.61-25.19-5.84-27.9C352.45,76.82,342.26,80.6,340.46,88.27Z" style="fill: rgb(235, 148, 129); transform-origin: 352.959px 96.605px;" id="eltaiigk9jczk" class="animable"></path><path d="M356.22,96.73s-.06.06-.05.1c.27,1,.41,2.11-.39,2.64,0,0,0,.07,0,.06C356.84,99.12,356.63,97.6,356.22,96.73Z" style="fill: rgb(38, 50, 56); transform-origin: 356.167px 98.1305px;" id="elq0fabv1dmz" class="animable"></path><path d="M355.11,95.93c-1.59.26-.94,3.41.53,3.17S356.44,95.71,355.11,95.93Z" style="fill: rgb(38, 50, 56); transform-origin: 355.329px 97.516px;" id="el3bd2dip7lk6" class="animable"></path><path d="M361.6,95.56s.08,0,.09.07c.17,1,.53,2.09,1.48,2.23,0,0,0,.06,0,.06C362.06,98,361.6,96.52,361.6,95.56Z" style="fill: rgb(38, 50, 56); transform-origin: 362.385px 96.7416px;" id="ely7x4szcjzag" class="animable"></path><path d="M362.26,94.36c1.55-.43,2.32,2.69.88,3.1S361,94.73,362.26,94.36Z" style="fill: rgb(38, 50, 56); transform-origin: 362.754px 95.9081px;" id="elh1sniy5wrod" class="animable"></path><path d="M353.49,93.61c.42-.16.79-.37,1.2-.56a2.19,2.19,0,0,0,1.11-.8.66.66,0,0,0-.19-.81,1.69,1.69,0,0,0-1.71,0,2.5,2.5,0,0,0-1.32,1.2A.73.73,0,0,0,353.49,93.61Z" style="fill: rgb(38, 50, 56); transform-origin: 354.195px 92.4284px;" id="elriiginmfxng" class="animable"></path><path d="M363.77,93.07a13.07,13.07,0,0,1-1.22.51,2.12,2.12,0,0,1-1.34.29.68.68,0,0,1-.47-.68,1.68,1.68,0,0,1,1.14-1.28,2.49,2.49,0,0,1,1.78-.16A.72.72,0,0,1,363.77,93.07Z" style="fill: rgb(38, 50, 56); transform-origin: 362.446px 92.7695px;" id="ela11pr2ey58v" class="animable"></path><path d="M356.84,105.81c.29.18.58.45.94.41a2.61,2.61,0,0,0,1-.46,0,0,0,0,1,.06,0,1.34,1.34,0,0,1-1.14.78,1.06,1.06,0,0,1-.94-.71C356.73,105.82,356.8,105.78,356.84,105.81Z" style="fill: rgb(38, 50, 56); transform-origin: 357.796px 106.15px;" id="elluv70cpygbs" class="animable"></path><path d="M357.28,102.67a3.38,3.38,0,0,0,2.52,1,4.54,4.54,0,0,0,1.21-.18l.22-.08.21-.07a.25.25,0,0,0,.15-.26h0a.54.54,0,0,0,0-.1h0l0-.09c-.13-.76-.44-1.89-.44-1.89.31.09,1.84.43,1.73,0a50.88,50.88,0,0,0-3.33-9.81c-.05-.1-.21,0-.18.06.7,3.13,1.95,6.1,2.7,9.23a5.86,5.86,0,0,0-1.67-.16c-.1.06.63,2.18.66,2.52,0,0,0,0,0,0a4.7,4.7,0,0,1-3.66-.37C357.27,102.53,357.2,102.61,357.28,102.67Z" style="fill: rgb(38, 50, 56); transform-origin: 360.066px 97.4098px;" id="elkucuvhj55k" class="animable"></path><path d="M360.49,103.22a4.09,4.09,0,0,1-1.33,1.55,1.87,1.87,0,0,1-1.07.29c-.82,0-1-.76-1-1.4a4.71,4.71,0,0,1,.16-1A5.24,5.24,0,0,0,360.49,103.22Z" style="fill: rgb(38, 50, 56); transform-origin: 358.79px 103.861px;" id="eln2b60sccsxi" class="animable"></path><path d="M359.16,104.77a1.87,1.87,0,0,1-1.07.29c-.82,0-1-.76-1-1.4A1.87,1.87,0,0,1,359.16,104.77Z" style="fill: rgb(255, 156, 189); transform-origin: 358.125px 104.344px;" id="elak7lntjguzw" class="animable"></path><path d="M343.52,100.2c2.56-.46,1.56-6.72,1.56-6.72s3.84-1.17,5.11-6.79c0,0,5.43,2.57,9.57,1.29,6.5-2,5.28-10.6,2.59-12.06-3.82-2.07-9.66,2.31-9.66,2.31s-9.8-1.51-11.86,5.25a4.9,4.9,0,0,0-3.94,5.4C337.16,93.59,341.62,100.55,343.52,100.2Z" style="fill: rgb(38, 50, 56); transform-origin: 350.688px 87.7885px;" id="el78ky2ldmll" class="animable"></path><path d="M344.24,94.34A8.87,8.87,0,0,0,348.88,91a6.57,6.57,0,0,0,.81-6c0-.1.13-.16.17-.06a7.61,7.61,0,0,1-.3,6.43,6.13,6.13,0,0,1-5.28,3.11C344.18,94.52,344.13,94.37,344.24,94.34Z" style="fill: rgb(38, 50, 56); transform-origin: 347.305px 89.6877px;" id="elrtjd4hhr1cm" class="animable"></path><path d="M336.22,86.18c1.11-1.81,3.07-2.31,5-2.47.12,0,.13.17,0,.17a5.52,5.52,0,0,0-4.59,3.25c-.81,1.68-.35,3.61.26,5.28a13.87,13.87,0,0,0,6.49,7.56c.05,0,0,.1,0,.08a13.93,13.93,0,0,1-7.26-8.25C335.6,90,335.2,87.86,336.22,86.18Z" style="fill: rgb(38, 50, 56); transform-origin: 339.495px 91.8813px;" id="elrfthyrh5r1" class="animable"></path><path d="M352.47,78.57a6.55,6.55,0,0,1,3.31-3.23,7.83,7.83,0,0,1,5.58-.1,4.4,4.4,0,0,1,2.74,3.46A7.78,7.78,0,0,1,363,83.8s-.09,0-.07,0a7.77,7.77,0,0,0,.82-4.61,4.05,4.05,0,0,0-2.8-3.29c-2.86-.88-6.82-.2-8.27,2.78A.09.09,0,0,1,352.47,78.57Z" style="fill: rgb(38, 50, 56); transform-origin: 358.311px 79.2874px;" id="el8mw5vzavftb" class="animable"></path><path d="M345.08,100s-3.73-4.45-5.77-3.08,1,8,3.64,8.74a2.57,2.57,0,0,0,3.32-1.68Z" style="fill: rgb(235, 148, 129); transform-origin: 342.456px 101.233px;" id="el7uvyv2d0pnj" class="animable"></path><path d="M340.24,98.81a0,0,0,0,0,0,.07,6.56,6.56,0,0,1,3.71,3.77,1.43,1.43,0,0,0-2.16-.2s0,.1.06.09a1.59,1.59,0,0,1,1.79.4,7.84,7.84,0,0,1,.95,1.33c.1.16.38,0,.3-.13l0,0C344.71,101.84,342.68,98.83,340.24,98.81Z" style="fill: rgb(38, 50, 56); transform-origin: 342.572px 101.574px;" id="elfurjecw8rfk" class="animable"></path><path d="M351.06,119.21l-5.51,7.34-7.43-13-3.76,2.56s5.59,19.09,5.85,18.37l5.24-6.17,3.58,6.2L351.89,122Z" style="fill: rgb(255, 255, 255); transform-origin: 343.125px 124.03px;" id="elwy5kdcx72m" class="animable"></path><path d="M350.79,128.4c.4-2.07.87-4.14,1.18-6.23,0-.07-.1-.13-.14,0-.92,1.85-2.43,9.77-2.93,11.63v0c-.15-.26-3.38-5.51-3.44-5.46-1,.93-4.86,5.41-5.15,5.84-.88-3-4.4-14.13-5.61-17.1a.07.07,0,0,0-.14,0c.66,3.13,5.25,18,5.39,18a81.63,81.63,0,0,0,5.5-6.52c.49,1.09,3.62,6.87,3.71,6.57A64.52,64.52,0,0,0,350.79,128.4Z" style="fill: rgb(38, 50, 56); transform-origin: 343.265px 126.076px;" id="elcs66mnh5ncn" class="animable"></path></g><g id="freepik--Plant--inject-2" class="animable" style="transform-origin: 412.23px 351.009px;"><path d="M418.45,377.19a258.59,258.59,0,0,0-.38-27.42,348.28,348.28,0,0,0-8.59-55.87c-2.39-10.34-5.34-20.5-8.42-30.65-.09-.31-.58-.22-.49.1,9.5,35.79,17.3,72.72,16.76,109.93-.15,10.41-1.35,20.64-2.34,31,0,.28.43.39.49.11C417.44,395.51,418.08,386.23,418.45,377.19Z" style="fill: #407BFF; transform-origin: 409.604px 333.806px;" id="eldmctlm0vgnp" class="animable"></path><path d="M400.57,263.35s-14.4,36.54-11.18,45.13,9.87,10.43,9.87,10.43-8.81,12.58-2.65,24.37,19.83,11.24,20.74,24.62C417.35,367.9,418.11,312,400.57,263.35Z" style="fill: #407BFF; transform-origin: 403.138px 315.625px;" id="elscg7et3swz" class="animable"></path><path d="M415.79,344.8a.32.32,0,0,0,0-.19,335,335,0,0,0-14-73.52c0-.07-.14,0-.12,0q4.28,16,7.56,32.25a16,16,0,0,0-6.88-3.83s-.07.05,0,.07a18.26,18.26,0,0,1,7.1,4.75q.63,3.16,1.22,6.35c-3.22-3.59-7.68-5.38-12.15-7.07-.06,0-.09.07,0,.1,4.65,1.89,9.28,4.33,12.43,8.34q1.65,9.09,2.89,18.25a17.43,17.43,0,0,0-8.58-4.92c-.1,0-.16.13-.06.16a18.14,18.14,0,0,1,8.71,5.57l.05,0q.44,3.22.82,6.46a22,22,0,0,0-6-3.63c-.06,0-.09.06,0,.09a20.56,20.56,0,0,1,6,4s0,0,.07,0c.24,2,.48,4.09.69,6.14a29.28,29.28,0,0,0-12.21-8.72.08.08,0,0,0-.06.15,31.82,31.82,0,0,1,12,9.26.27.27,0,0,0,.3.1c.31,3.14.59,6.29.82,9.45,0,0,.08,0,.08,0Q416.17,349.65,415.79,344.8Z" style="fill: rgb(38, 50, 56); transform-origin: 407.467px 312.734px;" id="elpf8ugozq5im" class="animable"></path><path d="M404.22,295.9a18,18,0,0,0-8.65-2.7c-.08,0-.08.1,0,.11a34.25,34.25,0,0,1,8.55,2.79C404.24,296.16,404.32,296,404.22,295.9Z" style="fill: rgb(38, 50, 56); transform-origin: 399.888px 294.657px;" id="elmqg7ivv87g" class="animable"></path><path d="M406,334.59a18.44,18.44,0,0,0-6.5-2.22c-.08,0-.08.11,0,.12a24.48,24.48,0,0,1,6.43,2.26C406,334.79,406.05,334.64,406,334.59Z" style="fill: rgb(38, 50, 56); transform-origin: 402.73px 333.563px;" id="eluigptf2dd9j" class="animable"></path><path d="M456.3,309.08a97.93,97.93,0,0,0-16.66,14.57A59.94,59.94,0,0,0,428,343.47a148.06,148.06,0,0,0-8.71,47.41,115.32,115.32,0,0,0,2.57,26.66.25.25,0,0,0,.5-.09,149.31,149.31,0,0,1,.26-46.61c2.47-15.12,6.36-31.57,16-43.85,5.23-6.69,11.76-12,18.21-17.4C457.09,309.31,456.65,308.84,456.3,309.08Z" style="fill: #407BFF; transform-origin: 438.087px 363.381px;" id="el35o48ov4tky" class="animable"></path><path d="M421.36,380a89.8,89.8,0,0,1,12.15-15.53c7.2-7.2,13.27-12.32,14.21-17.08s-7.22-8.27-7.22-8.27,10,1.79,12.7-2.39,4-28.42,4-28.42-18.14,12.95-26.58,31.1S421.36,380,421.36,380Z" style="fill: #407BFF; transform-origin: 439.28px 344.155px;" id="ellsv1iswvnsp" class="animable"></path><path d="M451,314.51c-7.63,7.5-15.31,15.48-19.81,25.33a97.29,97.29,0,0,0-4,10.44v0c-.23.72-.47,1.43-.68,2.15a.19.19,0,0,0,0,.12A205.69,205.69,0,0,0,421.28,375s.06.07.07,0c.78-3.78,1.65-7.6,2.61-11.4l.11,0a15.94,15.94,0,0,1,4.76-1.2c.1,0,.1-.2,0-.2a18,18,0,0,0-4.71.86c.88-3.43,1.83-6.85,2.9-10.23a50.77,50.77,0,0,1,10.76-1.4s0-.06,0-.06a40.36,40.36,0,0,0-10.58.9l.57-1.73a56.06,56.06,0,0,1,7.16-1.22c.05,0,0-.07,0-.07a34.45,34.45,0,0,0-7,.85c1-2.92,2.05-5.8,3.24-8.6a50.84,50.84,0,0,1,3.42-6.65,43.91,43.91,0,0,1,5.81-1c.05,0,0-.09,0-.09a15.82,15.82,0,0,0-5.43.53c1-1.54,2-3.05,3-4.51h0c4.07-.9,8.19-1.73,12.35-.95.07,0,.1-.11,0-.13-4-1-7.89-.44-11.83.34.43-.57.87-1.14,1.31-1.7a27.16,27.16,0,0,1,7.6-1.19,0,0,0,0,0,0-.09,20.17,20.17,0,0,0-7.09.63c3.36-4.18,7.08-8.1,10.75-12C451.28,314.44,451.15,314.34,451,314.51Z" style="fill: rgb(38, 50, 56); transform-origin: 436.229px 344.728px;" id="elb4xp7m4f22" class="animable"></path><path d="M450.76,331a16.08,16.08,0,0,0-3.6-.12.13.13,0,0,0,0,.25c1.19,0,2.39-.05,3.58,0C450.84,331.18,450.85,331,450.76,331Z" style="fill: rgb(38, 50, 56); transform-origin: 448.944px 330.984px;" id="elh3njgcywhho" class="animable"></path><path d="M437.71,354.54a16.23,16.23,0,0,0-5.59,1.12s0,.09,0,.08c1.84-.44,3.71-.62,5.57-.93A.14.14,0,0,0,437.71,354.54Z" style="fill: rgb(38, 50, 56); transform-origin: 434.962px 355.14px;" id="elkv0u4amp8h9" class="animable"></path><path d="M433.8,346.42a11.74,11.74,0,0,0-2.37.21c-.08,0-.08.14,0,.14a11.14,11.14,0,0,0,2.38-.11C433.94,346.63,433.94,346.42,433.8,346.42Z" style="fill: rgb(38, 50, 56); transform-origin: 432.638px 346.605px;" id="elb88rtk6jgkf" class="animable"></path><path d="M368.2,334.8a82,82,0,0,1,16.85,7.93,50.4,50.4,0,0,1,14,13.34,124.54,124.54,0,0,1,18,36.36,96.61,96.61,0,0,1,4.08,22.17.21.21,0,0,1-.42,0,126,126,0,0,0-11-37.66c-5.5-11.66-12.45-24.08-23.07-31.8-5.78-4.21-12.27-7-18.75-9.87C367.62,335.16,367.86,334.68,368.2,334.8Z" style="fill: #407BFF; transform-origin: 394.452px 374.795px;" id="elrs6jm8g9f4e" class="animable"></path><path d="M412.87,384.11a75.4,75.4,0,0,0-13.42-9.76c-7.5-4.17-13.59-6.91-15.45-10.54s3.93-8.37,3.93-8.37-7.65,3.76-10.83,1-9.84-22.06-9.84-22.06,17.67,6.29,28.7,19S412.87,384.11,412.87,384.11Z" style="fill: #407BFF; transform-origin: 390.065px 359.245px;" id="elmlfb1g3rc1q" class="animable"></path><path d="M412,380.12c-8.84-16.58-20.63-31.59-36.79-41.49,0,0,0,0,0,0A80.57,80.57,0,0,1,387,347.89a18.7,18.7,0,0,0-9.5,2c-.06,0,0,.12,0,.1a26.1,26.1,0,0,1,9.77-1.66.14.14,0,0,0,.11,0c.58.55,1.14,1.1,1.7,1.66a29.7,29.7,0,0,0-5.07.67,0,0,0,1,0,0,.07,25.36,25.36,0,0,1,5.36-.44,112.11,112.11,0,0,1,8.34,9.46,8.5,8.5,0,0,0-3.55.26.07.07,0,1,0,0,.13,19.21,19.21,0,0,1,3.79-.05l1.45,1.85a34,34,0,0,0-10.73,1c-.05,0,0,.09,0,.08a42.81,42.81,0,0,1,11-.72c.45.6.88,1.22,1.32,1.82a23,23,0,0,0-6.38.73c-.08,0-.06.15,0,.13a24.48,24.48,0,0,1,6.61-.52c1.9,2.62,3.72,5.3,5.47,8a5.92,5.92,0,0,0-2.8.17c-.05,0,0,.08,0,.08a11.82,11.82,0,0,1,3,.14q2.35,3.67,4.55,7.41C411.73,380.5,412.06,380.34,412,380.12Z" style="fill: rgb(38, 50, 56); transform-origin: 393.609px 359.505px;" id="eld4fymlvx67q" class="animable"></path><path d="M398.2,366.37a13.71,13.71,0,0,0-5.13.62c-.05,0,0,.09,0,.08a39.85,39.85,0,0,1,5.11-.52C398.3,366.54,398.32,366.38,398.2,366.37Z" style="fill: rgb(38, 50, 56); transform-origin: 395.664px 366.704px;" id="elxa1cthq5unn" class="animable"></path><path d="M382.79,346.15a8.57,8.57,0,0,0-2.37.14c-.09,0-.06.15,0,.14.78-.08,1.54-.05,2.32-.08A.1.1,0,0,0,382.79,346.15Z" style="fill: rgb(38, 50, 56); transform-origin: 381.616px 346.277px;" id="elpej8szojphs" class="animable"></path><polygon points="435.66 438.96 395.77 438.96 401.46 397.3 402.91 386.62 428.52 386.62 429.97 397.3 435.66 438.96" style="fill: rgb(69, 90, 100); transform-origin: 415.715px 412.79px;" id="el99036gciwle" class="animable"></polygon><polygon points="429.97 397.3 401.46 397.3 402.91 386.62 428.52 386.62 429.97 397.3" style="fill: rgb(38, 50, 56); transform-origin: 415.715px 391.96px;" id="el2r3w1s5en2m" class="animable"></polygon><rect x="399.25" y="382.91" width="32.93" height="9.05" style="fill: rgb(69, 90, 100); transform-origin: 415.715px 387.435px;" id="elfgkh02j7nz6" class="animable"></rect></g><defs>     <filter id="active" height="200%">         <feMorphology in="SourceAlpha" result="DILATED" operator="dilate" radius="2"></feMorphology>                <feFlood flood-color="#32DFEC" flood-opacity="1" result="PINK"></feFlood>        <feComposite in="PINK" in2="DILATED" operator="in" result="OUTLINE"></feComposite>        <feMerge>            <feMergeNode in="OUTLINE"></feMergeNode>            <feMergeNode in="SourceGraphic"></feMergeNode>        </feMerge>    </filter>    <filter id="hover" height="200%">        <feMorphology in="SourceAlpha" result="DILATED" operator="dilate" radius="2"></feMorphology>                <feFlood flood-color="#ff0000" flood-opacity="0.5" result="PINK"></feFlood>        <feComposite in="PINK" in2="DILATED" operator="in" result="OUTLINE"></feComposite>        <feMerge>            <feMergeNode in="OUTLINE"></feMergeNode>            <feMergeNode in="SourceGraphic"></feMergeNode>        </feMerge>            <feColorMatrix type="matrix" values="0   0   0   0   0                0   1   0   0   0                0   0   0   0   0                0   0   0   1   0 "></feColorMatrix>    </filter></defs></svg>