<svg width="539" height="435" viewBox="0 0 539 435" fill="none" xmlns="http://www.w3.org/2000/svg">
<path d="M413.902 77.2539H291.602C289.334 77.2565 287.16 78.1593 285.558 79.7639C283.955 81.3684 283.055 83.5436 283.055 85.8114V160.923H422.444V85.8114C422.443 83.5448 421.543 81.3712 419.942 79.7671C418.34 78.1629 416.168 77.2592 413.902 77.2539Z" fill="#F5EBDD"/>
<path d="M349.763 64.8428C350.543 64.8442 351.291 65.1546 351.842 65.706C352.394 66.2575 352.704 67.0051 352.705 67.785V115.123C352.704 115.903 352.394 116.65 351.842 117.202C351.291 117.753 350.543 118.063 349.763 118.065H301.923C301.144 118.062 300.397 117.751 299.847 117.2C299.297 116.649 298.987 115.902 298.986 115.123V67.78C298.988 67.0018 299.299 66.2563 299.849 65.706C300.399 65.1558 301.145 64.8455 301.923 64.8428H349.763ZM349.763 62.8516H301.923C301.274 62.8509 300.632 62.978 300.033 63.2257C299.434 63.4733 298.89 63.8366 298.431 64.2948C297.972 64.7529 297.609 65.297 297.36 65.8959C297.112 66.4948 296.984 67.1367 296.984 67.785V115.123C296.986 116.432 297.507 117.686 298.433 118.611C299.359 119.536 300.614 120.056 301.923 120.056H349.763C351.072 120.056 352.327 119.536 353.252 118.611C354.177 117.686 354.697 116.431 354.697 115.123V67.78C354.695 66.4724 354.175 65.2189 353.25 64.2948C352.325 63.3707 351.071 62.8516 349.763 62.8516Z" fill="#FFB494"/>
<path d="M425.477 119.87C426.257 119.872 427.005 120.182 427.556 120.733C428.108 121.285 428.418 122.032 428.419 122.812V170.155C428.418 170.935 428.108 171.682 427.556 172.234C427.005 172.785 426.257 173.096 425.477 173.097H377.881C377.101 173.096 376.353 172.785 375.802 172.234C375.25 171.682 374.94 170.935 374.939 170.155V122.812C374.94 122.032 375.25 121.285 375.802 120.733C376.353 120.182 377.101 119.872 377.881 119.87H425.477ZM425.477 117.879H377.881C376.572 117.879 375.317 118.399 374.392 119.324C373.467 120.249 372.947 121.504 372.947 122.812V170.155C372.947 171.463 373.467 172.718 374.392 173.643C375.317 174.569 376.572 175.088 377.881 175.088H425.477C426.786 175.088 428.04 174.569 428.966 173.643C429.891 172.718 430.411 171.463 430.411 170.155V122.812C430.411 121.504 429.891 120.249 428.966 119.324C428.04 118.399 426.786 117.879 425.477 117.879Z" fill="#FFB494"/>
<path d="M303.59 131.644C304.37 131.645 305.118 131.955 305.669 132.507C306.221 133.058 306.531 133.806 306.533 134.586V164.953C306.531 165.733 306.221 166.48 305.669 167.032C305.118 167.583 304.37 167.894 303.59 167.895H276.539C275.759 167.894 275.011 167.583 274.46 167.032C273.908 166.48 273.598 165.733 273.597 164.953V134.586C273.598 133.806 273.908 133.058 274.46 132.507C275.011 131.955 275.759 131.645 276.539 131.644H303.59ZM303.59 129.652H276.539C275.891 129.652 275.249 129.78 274.651 130.028C274.052 130.276 273.509 130.639 273.05 131.097C272.592 131.555 272.229 132.099 271.981 132.698C271.733 133.296 271.605 133.938 271.605 134.586V164.953C271.605 166.261 272.125 167.516 273.05 168.441C273.976 169.366 275.23 169.886 276.539 169.886H303.59C304.899 169.886 306.154 169.366 307.079 168.441C308.004 167.516 308.524 166.261 308.524 164.953V134.586C308.524 133.938 308.396 133.296 308.148 132.698C307.9 132.099 307.537 131.555 307.079 131.097C306.621 130.639 306.077 130.276 305.478 130.028C304.88 129.78 304.238 129.652 303.59 129.652Z" fill="#FFB494"/>
<path d="M347.468 69.5625H304.197V99.8499H347.468V69.5625Z" fill="#FFB494"/>
<path d="M373.754 89.6328H331.763C325.568 89.6328 320.547 94.6543 320.547 100.849V137.07C320.547 143.264 325.568 148.286 331.763 148.286H373.754C379.948 148.286 384.97 143.264 384.97 137.07V100.849C384.97 94.6543 379.948 89.6328 373.754 89.6328Z" fill="#3EC1F3"/>
<path d="M312.337 106.29C311.903 105.857 311.315 105.613 310.702 105.613C310.089 105.613 309.501 105.857 309.067 106.29L308.569 106.788L308.071 106.29C307.631 105.886 307.053 105.668 306.456 105.681C305.86 105.694 305.291 105.937 304.869 106.359C304.448 106.781 304.205 107.349 304.192 107.946C304.179 108.542 304.397 109.121 304.8 109.56L305.298 110.058L308.569 113.329L311.835 110.058L312.333 109.56C312.766 109.127 313.011 108.539 313.011 107.926C313.012 107.313 312.77 106.724 312.337 106.29Z" fill="#FFB494"/>
<path d="M356.475 106.699H340.863C338.138 106.699 335.93 108.908 335.93 111.633V126.283C335.93 129.008 338.138 131.217 340.863 131.217H356.475C359.199 131.217 361.408 129.008 361.408 126.283V111.633C361.408 108.908 359.199 106.699 356.475 106.699Z" fill="#3546AB"/>
<path d="M357.694 120.975L366.72 128.168C367.066 128.445 367.484 128.618 367.925 128.667C368.365 128.717 368.811 128.641 369.21 128.449C369.61 128.256 369.947 127.955 370.183 127.579C370.418 127.204 370.543 126.77 370.543 126.326V111.934C370.543 111.491 370.418 111.056 370.183 110.681C369.947 110.305 369.61 110.004 369.21 109.811C368.811 109.619 368.365 109.543 367.925 109.593C367.484 109.643 367.066 109.816 366.72 110.092L357.694 117.291C357.417 117.511 357.194 117.791 357.04 118.11C356.886 118.429 356.807 118.779 356.807 119.133C356.807 119.487 356.886 119.836 357.04 120.155C357.194 120.474 357.417 120.754 357.694 120.975Z" fill="#3546AB"/>
<path d="M420.743 62.8516H284.768C280.489 62.8502 276.385 64.5478 273.356 67.5713C270.328 70.5948 268.624 74.6968 268.619 78.976V173.607C268.619 177.888 270.32 181.995 273.348 185.022C276.375 188.05 280.482 189.751 284.763 189.751H420.738C425.02 189.751 429.126 188.05 432.154 185.022C435.181 181.995 436.882 177.888 436.882 173.607V78.976C436.877 74.6985 435.174 70.598 432.148 67.5748C429.122 64.5516 425.02 62.8529 420.743 62.8516ZM422.446 160.922H283.056V85.811C283.056 84.6872 283.277 83.5745 283.707 82.5362C284.137 81.498 284.768 80.5546 285.562 79.7599C286.357 78.9653 287.3 78.335 288.339 77.9049C289.377 77.4748 290.49 77.2535 291.613 77.2535H413.913C416.183 77.2535 418.36 78.1549 419.966 79.7596C421.571 81.3643 422.474 83.541 422.475 85.811L422.446 160.922Z" fill="#3546AB"/>
<path d="M339.771 169.074H365.733C368.283 169.074 370.73 170.088 372.533 171.891C374.337 173.695 375.35 176.141 375.35 178.692V208.019C375.349 210.569 374.335 213.014 372.532 214.816C370.728 216.619 368.283 217.632 365.733 217.632H316.697C315.805 217.632 314.949 217.277 314.318 216.646C313.687 216.015 313.332 215.159 313.332 214.266C313.332 213.374 313.687 212.518 314.318 211.887C314.949 211.256 315.805 210.901 316.697 210.901H330.138V178.692C330.138 177.428 330.388 176.176 330.872 175.008C331.356 173.84 332.066 172.779 332.961 171.886C333.855 170.993 334.917 170.285 336.086 169.802C337.255 169.32 338.507 169.072 339.771 169.074Z" fill="#3546AB"/>
<path d="M352.755 181.338C356.073 181.338 358.763 178.648 358.763 175.329C358.763 172.01 356.073 169.32 352.755 169.32C349.436 169.32 346.746 172.01 346.746 175.329C346.746 178.648 349.436 181.338 352.755 181.338Z" fill="#3EC1F3"/>
<path d="M352.756 71.9604C353.817 71.9604 354.677 71.1 354.677 70.0388C354.677 68.9775 353.817 68.1172 352.756 68.1172C351.694 68.1172 350.834 68.9775 350.834 70.0388C350.834 71.1 351.694 71.9604 352.756 71.9604Z" fill="#30242A"/>
<path d="M375.35 190.711H330.049" stroke="#30242A" stroke-width="4" stroke-miterlimit="10"/>
<path d="M213.675 217.633H448.562C451.202 217.633 453.735 218.682 455.602 220.549C457.469 222.416 458.518 224.949 458.518 227.589V433.01H203.719V227.589C203.719 224.949 204.768 222.416 206.635 220.549C208.502 218.682 211.035 217.633 213.675 217.633Z" fill="#FFB494"/>
<path d="M365.908 241.261V276.218H227.345V241.261H365.908ZM367.899 239.27H225.354V278.209H367.899V239.27Z" fill="#A15842"/>
<path d="M296.626 264.748C299.944 264.748 302.635 262.058 302.635 258.739C302.635 255.421 299.944 252.73 296.626 252.73C293.307 252.73 290.617 255.421 290.617 258.739C290.617 262.058 293.307 264.748 296.626 264.748Z" fill="#A15842"/>
<path d="M365.908 301.835V409.389H227.345V301.835H365.908ZM367.899 299.844H225.354V411.38H367.899V299.844Z" fill="#A15842"/>
<path d="M275.952 361.619C279.271 361.619 281.961 358.929 281.961 355.61C281.961 352.292 279.271 349.602 275.952 349.602C272.634 349.602 269.943 352.292 269.943 355.61C269.943 358.929 272.634 361.619 275.952 361.619Z" fill="#A15842"/>
<path d="M317.3 361.619C320.618 361.619 323.308 358.929 323.308 355.61C323.308 352.292 320.618 349.602 317.3 349.602C313.981 349.602 311.291 352.292 311.291 355.61C311.291 358.929 313.981 361.619 317.3 361.619Z" fill="#A15842"/>
<path d="M296.984 300.805V410.42" stroke="#A15842" stroke-width="4" stroke-miterlimit="10"/>
<path d="M436.888 239.27H389.535V411.381H436.888V239.27Z" fill="#A15842"/>
<path d="M436.888 325.32H389.291" stroke="#FFB494" stroke-width="4" stroke-miterlimit="10"/>
<path d="M27.0209 217.633H194.124C196.765 217.633 199.297 218.682 201.164 220.549C203.032 222.416 204.08 224.949 204.08 227.589V433.01H17.0645V227.589C17.0645 224.949 18.1134 222.416 19.9806 220.549C21.8478 218.682 24.3803 217.633 27.0209 217.633Z" fill="#3EC1F3"/>
<path d="M175.477 278.207H45.6699V411.379H175.477V278.207Z" fill="#30242A"/>
<path d="M175.477 411.38H45.67L0 318.113H129.802L175.477 411.38Z" fill="#3546AB"/>
<path d="M90.862 217.631H45.6699L50.4789 207.535H86.0531L90.862 217.631Z" fill="#30242A"/>
<path d="M175.477 217.631H130.285L135.094 207.535H170.668L175.477 217.631Z" fill="#30242A"/>
<path d="M54.566 257.054C59.4791 257.054 63.462 253.071 63.462 248.158C63.462 243.245 59.4791 239.262 54.566 239.262C49.6528 239.262 45.6699 243.245 45.6699 248.158C45.6699 253.071 49.6528 257.054 54.566 257.054Z" fill="#F5EBDD"/>
<path d="M44.709 248.16H51.9224" stroke="#30242A" stroke-width="4" stroke-miterlimit="10" stroke-linecap="round"/>
<path d="M91.9019 257.054C96.815 257.054 100.798 253.071 100.798 248.158C100.798 243.245 96.815 239.262 91.9019 239.262C86.9888 239.262 83.0059 243.245 83.0059 248.158C83.0059 253.071 86.9888 257.054 91.9019 257.054Z" fill="#F5EBDD"/>
<path d="M91.9023 238.309V245.517" stroke="#30242A" stroke-width="4" stroke-miterlimit="10" stroke-linecap="round"/>
<path d="M129.244 257.054C134.157 257.054 138.14 253.071 138.14 248.158C138.14 243.245 134.157 239.262 129.244 239.262C124.331 239.262 120.348 243.245 120.348 248.158C120.348 253.071 124.331 257.054 129.244 257.054Z" fill="#F5EBDD"/>
<path d="M129.244 238.309V245.517" stroke="#30242A" stroke-width="4" stroke-miterlimit="10" stroke-linecap="round"/>
<path d="M166.58 257.054C171.493 257.054 175.476 253.071 175.476 248.158C175.476 243.245 171.493 239.262 166.58 239.262C161.667 239.262 157.684 243.245 157.684 248.158C157.684 253.071 161.667 257.054 166.58 257.054Z" fill="#F5EBDD"/>
<path d="M166.58 238.309V245.517" stroke="#30242A" stroke-width="4" stroke-miterlimit="10" stroke-linecap="round"/>
<path d="M110.691 335.898H42.9076C41.1809 335.898 39.7812 337.297 39.7812 339.022C39.7812 340.748 41.1809 342.146 42.9076 342.146H110.691C112.417 342.146 113.817 340.748 113.817 339.022C113.817 337.297 112.417 335.898 110.691 335.898Z" fill="#30242A"/>
<path d="M205.161 25.8134C196.295 31.5135 202.278 43.6006 210.448 44.0785C213.582 51.3943 213.925 59.6053 211.413 67.1574H223.859L223.904 61.9153C235.284 64.7479 239.475 60.2775 241.681 56.2402C244.17 51.6603 243.433 47.374 242.582 41.8034C242.582 41.8034 246.649 40.1855 246.34 37.7312C246.092 35.74 241.755 35.0082 241.755 35.0082C241.691 34.132 241.646 33.226 241.621 32.2851C241.577 29.7878 241.394 27.2948 241.073 24.8178C231.515 29.9105 219.612 32.5539 219.612 32.5539C219.612 32.5539 211.891 21.4824 205.161 25.8134Z" fill="#A15842"/>
<path d="M353.312 206.983C358.525 208.974 362.368 205.614 361.407 203.687C360.78 202.433 342.744 188.902 324.13 175.152L302.809 201.741C307.702 203.618 310.928 204.678 310.928 204.678C310.928 204.678 316.215 212.847 323.911 217.656C323.911 217.656 332.08 237.365 336.406 236.887C339.314 236.563 335.446 225.348 334.485 220.539C334.485 220.539 344.103 236.887 350.35 236.887C351.794 236.887 353.123 235.891 353.233 233.522C353.233 233.522 356.404 234.393 357.564 232.078C358.062 231.117 358.062 229.674 358.062 228.713C358.062 228.713 360.551 229.405 361.91 227.752C364.2 224.984 359.182 215.834 353.312 206.983Z" fill="#A15842"/>
<path d="M152.761 122.443C152.509 122.224 152.225 121.985 151.91 121.727C152.189 121.966 152.468 122.204 152.761 122.443Z" fill="#FF7235"/>
<path d="M283.056 145.04C283.056 145.04 260.873 93.9888 251.808 82.061C242.663 70.0386 223.815 70.6958 223.815 70.6958L223.845 67.1562H211.4C211.4 67.1562 224.841 94.0784 199.377 105.618C189.764 136.866 159.955 128.692 152.747 122.444C149.859 127.731 135.437 151.288 143.129 169.075C149.859 183.014 173.899 180.132 173.899 180.132L178.708 170.036H239.775H220.306L235.932 135.925L241.239 148.883C241.239 148.883 247.985 166.173 262.391 179.654C272.681 189.281 291.912 197.53 302.829 201.717L324.151 175.153C303.925 160.224 283.056 145.04 283.056 145.04Z" fill="#FF7235"/>
<path d="M175.64 148.219L165.738 152.734" stroke="#30242A" stroke-width="4" stroke-linecap="round" stroke-linejoin="round"/>
<path d="M179.201 171.961L172.744 128.477" stroke="#30242A" stroke-width="4" stroke-linecap="round" stroke-linejoin="round"/>
<path d="M220.305 170.017L239.774 170.037L241.218 148.884L235.931 135.906L220.305 170.017Z" fill="#FFBE21"/>
<path d="M230.701 4.33688C225.857 1.62874 218.255 -1.06448 209.668 1.60882C193.922 6.51234 190.9 20.1476 188.819 29.1781C187.375 35.4257 185.932 42.6192 185.932 42.6192C185.932 42.6192 159.009 44.5408 161.897 71.9458C147.584 75.2165 132.585 94.4771 144.09 112.882C146.223 116.211 148.862 119.189 151.911 121.708C152.226 121.967 152.51 122.206 152.762 122.425C159.97 128.672 189.78 136.862 199.393 105.598C224.876 94.059 211.415 67.1369 211.415 67.1369C213.927 59.5847 213.583 51.3738 210.449 44.0579C202.28 43.5601 196.296 31.493 205.162 25.7929C211.893 21.4619 219.599 32.5682 219.599 32.5682C219.599 32.5682 231.502 29.9248 241.06 24.8321C241.06 24.8321 241.06 24.7923 241.06 24.7774C241.06 24.7624 248.717 21.0835 250.822 14.2535C254.681 1.7731 238.815 -4.95742 230.701 4.33688Z" fill="#FFBE21"/>
<path d="M240.477 149.626C237.749 143.219 233.079 131.844 230.162 122.445" stroke="#30242A" stroke-width="4" stroke-linecap="round" stroke-linejoin="round"/>
<path d="M333.793 221.081L332.08 217.148" stroke="#30242A" stroke-width="4" stroke-linecap="round" stroke-linejoin="round"/>
<path d="M353.249 233.105C350.123 229.028 343.631 219.893 338.314 212.824" stroke="#30242A" stroke-width="4" stroke-linecap="round" stroke-linejoin="round"/>
<path d="M358.725 228.126C354.901 222.506 349.042 213.69 345.064 208.02" stroke="#30242A" stroke-width="4" stroke-linecap="round" stroke-linejoin="round"/>
<path d="M354.448 206.766C352.651 204.008 350.635 201.007 348.475 197.965" stroke="#30242A" stroke-width="4" stroke-linecap="round" stroke-linejoin="round"/>
<path d="M232.014 3.97266C233.119 4.75423 234.353 5.66525 235.449 6.58124" stroke="#CA7358" stroke-width="4" stroke-linecap="round" stroke-linejoin="round"/>
<path d="M184.715 43.1758L183.525 48.8858" stroke="#CA7358" stroke-width="4" stroke-linecap="round" stroke-linejoin="round"/>
<path d="M160.916 72.8477C161.692 76.7884 163.163 80.5595 165.262 83.9839" stroke="#CA7358" stroke-width="4" stroke-linecap="round" stroke-linejoin="round"/>
<path d="M223.625 62.8492C221.714 62.1812 219.871 61.3344 218.119 60.3203" stroke="#30242A" stroke-width="4" stroke-linecap="round" stroke-linejoin="round"/>
<path d="M259.005 268.516C258.264 269.984 257.13 271.217 255.73 272.079C254.329 272.941 252.717 273.397 251.072 273.397C249.428 273.397 247.816 272.941 246.415 272.079C245.014 271.217 243.881 269.984 243.139 268.516C242.398 269.984 241.265 271.217 239.864 272.079C238.463 272.941 236.851 273.397 235.207 273.397C233.562 273.397 231.95 272.941 230.549 272.079C229.149 271.217 228.015 269.984 227.274 268.516C226.534 269.984 225.4 271.218 224 272.08C222.6 272.942 220.988 273.399 219.344 273.399C217.699 273.399 216.087 272.942 214.687 272.08C213.287 271.218 212.154 269.984 211.413 268.516C211.077 269.173 210.66 269.787 210.174 270.343C223.431 306.091 215.257 323.4 211.413 358.014C210.636 365.358 210.413 372.75 210.746 380.127H256.74C258.413 365.551 261.853 345.862 263.819 321.449C259.356 321.15 255.182 319.135 252.171 315.826C249.161 312.517 247.549 308.172 247.673 303.7C247.796 299.229 249.646 294.979 252.834 291.841C256.023 288.703 260.302 286.922 264.775 286.87C264.939 286.87 265.103 286.87 265.273 286.87C265.273 282.211 265.128 277.636 264.894 273.15C263.635 272.852 262.455 272.283 261.438 271.483C260.421 270.683 259.591 269.67 259.005 268.516Z" fill="#F5EBDD"/>
<path d="M195.55 268.516C194.808 269.984 193.675 271.217 192.274 272.079C190.874 272.941 189.261 273.397 187.617 273.397C185.972 273.397 184.36 272.941 182.959 272.079C181.559 271.217 180.425 269.984 179.684 268.516C178.943 269.984 177.809 271.217 176.409 272.079C175.008 272.941 173.396 273.397 171.751 273.397C170.107 273.397 168.495 272.941 167.094 272.079C165.693 271.217 164.56 269.984 163.818 268.516C163.217 269.708 162.355 270.749 161.297 271.562C160.238 272.375 159.009 272.939 157.702 273.212C156.395 273.484 155.044 273.459 153.748 273.137C152.452 272.815 151.246 272.206 150.218 271.353C145.738 284.555 140.575 288.812 117.666 323.878C111.654 333.149 106.477 342.935 102.193 353.12L143.512 374.123C152.13 359.766 165.237 342.312 176.169 324.839C172.336 322.599 169.51 318.971 168.277 314.706C167.043 310.44 167.497 305.864 169.543 301.924C171.589 297.983 175.072 294.98 179.271 293.536C183.469 292.091 188.062 292.316 192.1 294.163C195.803 285.357 198.467 277.646 200.134 272.757C198.145 271.941 196.518 270.435 195.55 268.516Z" fill="#F5EBDD"/>
<path d="M204.564 273.327C204.848 273.292 205.131 273.247 205.41 273.188H205.47C205.739 273.125 206.003 273.05 206.261 272.964L206.391 272.929C206.665 272.829 206.938 272.725 207.202 272.6H207.237C207.501 272.476 207.735 272.341 208.009 272.192L208.054 272.162C208.313 272.009 208.564 271.843 208.805 271.664C209.298 271.292 209.75 270.868 210.154 270.4C210.641 269.844 211.057 269.23 211.394 268.573C212.134 270.041 213.267 271.275 214.668 272.137C216.068 272.999 217.68 273.456 219.324 273.456C220.968 273.456 222.581 272.999 223.981 272.137C225.381 271.275 226.514 270.041 227.254 268.573C227.995 270.041 229.129 271.275 230.53 272.137C231.93 272.998 233.543 273.455 235.187 273.455C236.832 273.455 238.444 272.998 239.845 272.137C241.245 271.275 242.379 270.041 243.12 268.573C243.861 270.041 244.995 271.275 246.395 272.137C247.796 272.998 249.408 273.455 251.053 273.455C252.697 273.455 254.309 272.998 255.71 272.137C257.111 271.275 258.244 270.041 258.986 268.573C259.57 269.727 260.398 270.74 261.413 271.541C262.429 272.343 263.607 272.913 264.865 273.213C264.133 259.71 262.451 246.275 259.832 233.009C256.239 233.999 252.483 234.253 248.789 233.756C245.095 233.259 241.54 232.021 238.336 230.116C224.541 222.236 221.086 183.675 220.29 170.02H178.722C154.682 191.655 155.165 256.078 150.595 270.201C150.471 270.589 150.341 270.962 150.217 271.336C151.244 272.188 152.451 272.798 153.747 273.12C155.042 273.441 156.394 273.467 157.701 273.194C159.008 272.922 160.236 272.358 161.295 271.545C162.354 270.732 163.216 269.69 163.817 268.498C164.558 269.966 165.692 271.2 167.093 272.062C168.493 272.924 170.106 273.38 171.75 273.38C173.395 273.38 175.007 272.924 176.407 272.062C177.808 271.2 178.942 269.966 179.683 268.498C180.424 269.966 181.558 271.2 182.958 272.062C184.359 272.924 185.971 273.38 187.616 273.38C189.26 273.38 190.872 272.924 192.273 272.062C193.673 271.2 194.807 269.966 195.548 268.498C196.515 270.407 198.135 271.905 200.113 272.72C200.63 272.937 201.167 273.103 201.716 273.218H201.796C202.025 273.262 202.254 273.297 202.488 273.322H202.677C202.941 273.322 203.21 273.362 203.479 273.362C203.747 273.362 204.071 273.362 204.365 273.317L204.564 273.327Z" fill="#30242A"/>
<path d="M218.146 426.757H257.568C257.568 426.757 258.982 417.438 263.975 411.354C260.077 408.532 256.911 405.027 256.124 399.352C255.452 394.508 255.836 388.076 256.742 380.121H210.748C211.478 395.892 213.959 411.534 218.146 426.757Z" fill="#FF7235"/>
<path d="M88.8201 398.382L87.5806 397.765C87.4565 397.703 87.3284 397.65 87.1973 397.606L124.096 416.463C124.096 416.463 129.572 408.956 136.626 405.889C135.69 403.954 134.974 401.92 134.49 399.826C133.136 393.852 137.069 384.832 143.506 374.108L102.187 353.105C91.6179 378.071 88.8201 398.382 88.8201 398.382Z" fill="#FF7235"/>
<path d="M218.145 426.758H216.941C216.52 426.741 216.1 426.81 215.706 426.959C215.313 427.108 214.953 427.336 214.65 427.628C214.346 427.919 214.105 428.269 213.94 428.657C213.775 429.044 213.689 429.461 213.689 429.882C213.689 430.303 213.775 430.72 213.94 431.107C214.105 431.494 214.346 431.844 214.65 432.136C214.953 432.428 215.313 432.655 215.706 432.805C216.1 432.954 216.52 433.022 216.941 433.006H283.056C283.056 420.062 271.975 417.145 263.984 411.355C259.006 417.439 257.578 426.758 257.578 426.758H218.145Z" fill="#30242A"/>
<path d="M124.096 416.479L87.1976 397.621C86.473 397.369 85.6793 397.402 84.9781 397.714C84.277 398.025 83.721 398.593 83.4235 399.3C83.1259 400.008 83.1092 400.802 83.3766 401.521C83.644 402.24 84.1754 402.831 84.8628 403.172L143.606 433.011C149.246 421.328 141.181 415.518 136.606 405.905C129.572 408.972 124.096 416.479 124.096 416.479Z" fill="#30242A"/>
<path d="M247.471 304.169C247.47 308.593 249.164 312.85 252.205 316.063C255.246 319.277 259.402 321.204 263.819 321.449C264.606 311.637 265.158 301.038 265.258 289.747C265.258 288.787 265.258 287.831 265.258 286.875C265.099 286.875 264.934 286.875 264.76 286.875C260.175 286.88 255.78 288.704 252.539 291.946C249.297 295.189 247.475 299.585 247.471 304.169Z" fill="#FFBE21"/>
<path d="M167.66 309.938C167.659 312.945 168.443 315.901 169.934 318.514C171.426 321.126 173.572 323.304 176.163 324.832C177.363 322.911 178.542 320.989 179.682 319.073C184.377 311.059 188.519 302.735 192.078 294.157C189.443 292.975 186.555 292.471 183.675 292.691C180.796 292.911 178.017 293.848 175.592 295.417C173.168 296.985 171.174 299.136 169.793 301.672C168.412 304.208 167.687 307.05 167.685 309.938H167.66Z" fill="#FFBE21"/>
<path d="M238.337 230.116C241.549 232.011 245.11 233.237 248.807 233.722C252.505 234.206 256.262 233.938 259.853 232.934C252.385 194.866 239.776 170.02 239.776 170.02H220.291C221.088 183.69 224.542 222.251 238.337 230.116Z" fill="#FFBE21"/>
<path d="M238.347 46.424C237.51 46.8471 234.508 46.9716 233.508 44.582" stroke="#30242A" stroke-width="4" stroke-linecap="round" stroke-linejoin="round"/>
<path d="M236.41 35.9069C237.208 35.9069 237.854 35.2605 237.854 34.4632C237.854 33.6659 237.208 33.0195 236.41 33.0195C235.613 33.0195 234.967 33.6659 234.967 34.4632C234.967 35.2605 235.613 35.9069 236.41 35.9069Z" fill="#30242A"/>
<path d="M209.01 33.9805L213.814 37.3457" stroke="#30242A" stroke-width="4" stroke-linecap="round" stroke-linejoin="round"/>
<path d="M178.24 170.035H239.776" stroke="#30242A" stroke-width="4" stroke-miterlimit="10" stroke-linecap="round"/>
<path d="M195.902 171.48C195.902 171.48 207.163 187.58 201.876 189.317C196.988 190.92 196.027 178.898 195.902 171.48Z" stroke="#A15842" stroke-width="4" stroke-linecap="round" stroke-linejoin="round"/>
<path d="M195.554 171.48C195.554 171.48 189.779 185.917 185.453 183.498C182.635 181.935 189.779 174.861 195.554 171.48Z" stroke="#A15842" stroke-width="4" stroke-linecap="round" stroke-linejoin="round"/>
<path d="M107.33 167.633H29.929C28.2024 167.633 26.8027 169.031 26.8027 170.757C26.8027 172.482 28.2024 173.88 29.929 173.88H107.33C109.057 173.88 110.456 172.482 110.456 170.757C110.456 169.031 109.057 167.633 107.33 167.633Z" fill="#30242A"/>
<path d="M68.6293 169.559C46.0333 169.559 35.9375 153.211 35.9375 153.211V193.574C35.9441 197.269 37.4148 200.811 40.0274 203.423C42.64 206.036 46.1816 207.507 49.8765 207.513H87.3274C91.0266 207.513 94.5746 206.045 97.1926 203.432C99.8106 200.819 101.285 197.273 101.291 193.574V153.211C101.291 153.211 91.2204 169.559 68.6293 169.559Z" fill="#FFB494"/>
<path d="M68.6293 169.559C91.2204 169.559 101.316 153.211 101.316 153.211H35.9375C35.9375 153.211 46.0333 169.559 68.6293 169.559Z" fill="#A15842"/>
<path d="M69.3466 153.209C72.6651 153.209 75.3553 150.519 75.3553 147.2C75.3553 143.882 72.6651 141.191 69.3466 141.191C66.0281 141.191 63.3379 143.882 63.3379 147.2C63.3379 150.519 66.0281 153.209 69.3466 153.209Z" fill="#30242A"/>
<path d="M69.8296 115.714C74.7428 115.714 78.7257 111.731 78.7257 106.818C78.7257 101.905 74.7428 97.9219 69.8296 97.9219C64.9165 97.9219 60.9336 101.905 60.9336 106.818C60.9336 111.731 64.9165 115.714 69.8296 115.714Z" fill="#F5EBDD"/>
<path d="M69.9835 89.0373C77.2198 89.0373 83.0861 83.171 83.0861 75.9347C83.0861 68.6983 77.2198 62.832 69.9835 62.832C62.7471 62.832 56.8809 68.6983 56.8809 75.9347C56.8809 83.171 62.7471 89.0373 69.9835 89.0373Z" fill="#F5EBDD"/>
<path d="M507.075 315.246C507.075 315.246 502.5 325.541 490.493 325.541C478.485 325.541 473.915 315.246 473.915 315.246C473.915 315.246 440.183 392.438 473.343 433.03H507.652C540.812 392.408 507.075 315.246 507.075 315.246Z" fill="#3EC1F3"/>
<path d="M490.496 325.521C502.504 325.521 507.079 315.227 507.079 315.227H473.914C473.914 315.227 478.489 325.521 490.496 325.521Z" fill="#30242A"/>
<path d="M521.511 383.945C502.848 384.279 480.779 391.014 463.764 414.81" stroke="#F5EBDD" stroke-width="4" stroke-linecap="round" stroke-linejoin="round"/>
<path d="M460.777 365.027C473.302 361.97 497.029 359.053 520.018 364.529" stroke="#F5EBDD" stroke-width="4" stroke-linecap="round" stroke-linejoin="round"/>
<path d="M519.904 403.762C511.555 403.856 496.123 413.315 497.825 432.381" stroke="#F5EBDD" stroke-width="4" stroke-linecap="round" stroke-linejoin="round"/>
<path d="M500.832 239.766L491.652 320.039" stroke="#30242A" stroke-width="4" stroke-miterlimit="10"/>
<path d="M505.272 272.008L493.732 319.38" stroke="#30242A" stroke-width="4" stroke-miterlimit="10"/>
<path d="M481.195 293.827C482.243 291.378 474.804 285.848 464.581 281.477C454.358 277.106 445.221 275.549 444.174 277.998C443.126 280.448 450.565 285.977 460.788 290.348C471.011 294.719 480.148 296.277 481.195 293.827Z" fill="#30242A"/>
<path d="M519.47 298.07C530.256 294.003 538.269 288.764 537.366 286.369C536.463 283.974 526.986 285.33 516.199 289.397C505.412 293.464 497.4 298.703 498.303 301.098C499.206 303.493 508.683 302.138 519.47 298.07Z" fill="#30242A"/>
<path d="M496.317 281.176C497.48 279.571 494.174 275.19 488.932 271.389C483.69 267.589 478.497 265.809 477.333 267.414C476.17 269.019 479.476 273.401 484.718 277.201C489.961 281.002 495.154 282.781 496.317 281.176Z" fill="#30242A"/>
<path d="M467.219 252.887L489.77 320.033" stroke="#30242A" stroke-width="4" stroke-miterlimit="10"/>
<path d="M496.246 257.365C497.136 255.43 498.479 253.737 500.161 252.43C501.843 251.123 503.815 250.24 505.91 249.855C508.005 249.47 510.162 249.595 512.198 250.219C514.235 250.844 516.091 251.949 517.611 253.441C519.131 254.934 520.269 256.77 520.93 258.795C521.591 260.82 521.755 262.974 521.408 265.076C521.061 267.178 520.213 269.165 518.937 270.87C517.66 272.576 515.992 273.949 514.073 274.874C512.924 270.635 510.667 266.779 507.534 263.702C504.401 260.625 500.505 258.438 496.246 257.365Z" fill="#FF7235"/>
<path d="M503.191 264.872C504.984 259.124 508.804 254.224 513.939 251.082" stroke="#F5EBDD" stroke-width="4" stroke-miterlimit="10" stroke-linecap="round"/>
<path d="M505.406 266.637C509.087 261.842 514.402 258.567 520.341 257.438" stroke="#F5EBDD" stroke-width="4" stroke-miterlimit="10" stroke-linecap="round"/>
<path d="M514.073 274.872C511.611 276.058 508.842 276.456 506.146 276.011C503.449 275.566 500.955 274.299 499.005 272.384C497.055 270.469 495.743 267.998 495.25 265.31C494.756 262.622 495.104 259.846 496.246 257.363C500.505 258.436 504.401 260.623 507.534 263.7C510.667 266.777 512.924 270.633 514.073 274.872Z" fill="#FF7235"/>
<path d="M475.867 238.138C474.77 236.31 473.25 234.773 471.433 233.657C469.617 232.541 467.559 231.878 465.433 231.726C463.307 231.573 461.175 231.934 459.218 232.78C457.261 233.625 455.536 234.929 454.19 236.581C452.843 238.234 451.914 240.186 451.481 242.274C451.049 244.361 451.125 246.522 451.704 248.574C452.283 250.625 453.347 252.507 454.807 254.061C456.267 255.614 458.079 256.793 460.091 257.498C460.767 253.162 462.585 249.084 465.357 245.681C468.129 242.279 471.757 239.676 475.867 238.138Z" fill="#FF7235"/>
<path d="M469.792 246.371C467.378 240.855 463.039 236.407 457.586 233.855" stroke="#F5EBDD" stroke-width="4" stroke-miterlimit="10" stroke-linecap="round"/>
<path d="M467.791 248.37C463.594 244.015 457.941 241.357 451.91 240.902" stroke="#F5EBDD" stroke-width="4" stroke-miterlimit="10" stroke-linecap="round"/>
<path d="M460.09 257.497C462.669 258.405 465.465 258.494 468.097 257.752C470.728 257.011 473.067 255.475 474.793 253.355C476.519 251.234 477.548 248.633 477.74 245.906C477.932 243.178 477.278 240.458 475.866 238.117C471.753 239.657 468.124 242.263 465.351 245.669C462.579 249.075 460.763 253.158 460.09 257.497Z" fill="#FF7235"/>
<path d="M513.546 232.243C513.594 230.113 513.129 228.004 512.19 226.092C511.251 224.181 509.867 222.523 508.152 221.259C506.438 219.995 504.445 219.162 502.341 218.83C500.238 218.498 498.085 218.677 496.065 219.352C494.045 220.027 492.217 221.179 490.735 222.708C489.254 224.238 488.162 226.102 487.552 228.143C486.942 230.184 486.832 232.341 487.231 234.433C487.63 236.525 488.527 238.49 489.845 240.163C492.737 236.858 496.457 234.382 500.622 232.99C504.788 231.598 509.248 231.34 513.546 232.243Z" fill="#FF7235"/>
<path d="M504.018 235.946C504.93 229.993 503.645 223.912 500.404 218.836" stroke="#F5EBDD" stroke-width="4" stroke-miterlimit="10" stroke-linecap="round"/>
<path d="M501.26 236.558C500.049 230.631 496.7 225.356 491.852 221.738" stroke="#F5EBDD" stroke-width="4" stroke-miterlimit="10" stroke-linecap="round"/>
<path d="M489.855 240.165C491.549 242.309 493.862 243.878 496.48 244.658C499.098 245.439 501.892 245.393 504.483 244.527C507.074 243.661 509.334 242.017 510.956 239.819C512.578 237.621 513.483 234.976 513.547 232.245C509.25 231.344 504.791 231.603 500.628 232.995C496.464 234.387 492.746 236.862 489.855 240.165Z" fill="#FF7235"/>
<path d="M476.364 238.637C472.254 240.175 468.626 242.778 465.854 246.18C463.082 249.582 461.264 253.661 460.588 257.997" stroke="#F5EBDD" stroke-width="4" stroke-miterlimit="10" stroke-linecap="round"/>
<path d="M513.78 232.242C509.51 231.226 505.046 231.365 500.846 232.644C496.647 233.923 492.864 236.296 489.885 239.52" stroke="#F5EBDD" stroke-width="4" stroke-miterlimit="10" stroke-linecap="round"/>
<path d="M515.393 273.852C514.049 269.671 511.617 265.923 508.345 262.993C505.074 260.063 501.082 258.057 496.779 257.18" stroke="#F5EBDD" stroke-width="4" stroke-miterlimit="10" stroke-linecap="round"/>
</svg>
